<?xml version="1.0" encoding="UTF-8"?>
<svg id="Calque_1" data-name="Calque 1" xmlns="http://www.w3.org/2000/svg" viewBox="0 0 580.46 157.13">
  <defs>
    <style>
      .cls-1 {
        fill: #dbfaff;
        stroke-width: 0px;
      }
    </style>
  </defs>
  <path class="cls-1" d="m6.06,132.88c-1.95,0-3.44-.56-4.49-1.68-1.05-1.12-1.57-2.58-1.57-4.38,0-1.94.56-3.44,1.68-4.49,1.12-1.04,2.58-1.57,4.38-1.57,1.94,0,3.44.56,4.49,1.68,1.05,1.12,1.57,2.58,1.57,4.38s-.56,3.25-1.68,4.38c-1.12,1.12-2.58,1.68-4.38,1.68Z"/>
  <path class="cls-1" d="m6.06,145.01c-1.95,0-3.44-.56-4.49-1.68-1.05-1.12-1.57-2.58-1.57-4.38,0-1.94.56-3.44,1.68-4.49,1.12-1.04,2.58-1.57,4.38-1.57,1.94,0,3.44.56,4.49,1.68,1.05,1.12,1.57,2.58,1.57,4.38s-.56,3.25-1.68,4.38c-1.12,1.12-2.58,1.68-4.38,1.68Z"/>
  <path class="cls-1" d="m0,151.07c0-1.8.56-3.25,1.68-4.38,1.12-1.12,2.58-1.68,4.38-1.68,1.94,0,3.44.56,4.49,1.68,1.05,1.12,1.57,2.58,1.57,4.38,0,1.95-.56,3.44-1.68,4.49-1.12,1.05-2.58,1.57-4.38,1.57-1.95,0-3.44-.56-4.49-1.68-1.05-1.12-1.57-2.58-1.57-4.38Z"/>
  <path class="cls-1" d="m18.18,108.87c-1.95,0-3.44-.56-4.49-1.68-1.05-1.12-1.57-2.58-1.57-4.38,0-1.94.56-3.44,1.68-4.49,1.12-1.04,2.58-1.57,4.38-1.57,1.94,0,3.44.56,4.49,1.68,1.04,1.12,1.57,2.58,1.57,4.38s-.56,3.25-1.68,4.38c-1.12,1.12-2.58,1.68-4.38,1.68Z"/>
  <path class="cls-1" d="m24.24,114.93c0,3.89-1.95,5.84-5.84,5.84-4.19,0-6.29-1.94-6.29-5.84,0-1.8.52-3.25,1.57-4.38,1.05-1.12,2.47-1.68,4.27-1.68,4.19,0,6.29,1.95,6.29,5.84v.22Z"/>
  <path class="cls-1" d="m12.12,126.82c0-1.94.56-3.44,1.68-4.49,1.12-1.04,2.58-1.57,4.38-1.57,1.94,0,3.44.56,4.49,1.68,1.04,1.12,1.57,2.58,1.57,4.38s-.56,3.25-1.68,4.38c-1.12,1.12-2.58,1.68-4.38,1.68-1.95,0-3.44-.56-4.49-1.68-1.05-1.12-1.57-2.58-1.57-4.38Z"/>
  <path class="cls-1" d="m12.12,138.95c0-1.94.56-3.44,1.68-4.49,1.12-1.04,2.58-1.57,4.38-1.57,1.94,0,3.44.56,4.49,1.68,1.04,1.12,1.57,2.58,1.57,4.38s-.56,3.25-1.68,4.38c-1.12,1.12-2.58,1.68-4.38,1.68-1.95,0-3.44-.56-4.49-1.68-1.05-1.12-1.57-2.58-1.57-4.38Z"/>
  <path class="cls-1" d="m12.12,151.07c0-1.8.56-3.25,1.68-4.38s2.58-1.68,4.38-1.68c1.94,0,3.44.56,4.49,1.68,1.04,1.12,1.57,2.58,1.57,4.38,0,1.95-.56,3.44-1.68,4.49-1.12,1.05-2.58,1.57-4.38,1.57-1.95,0-3.44-.56-4.49-1.68-1.05-1.12-1.57-2.58-1.57-4.38Z"/>
  <path class="cls-1" d="m30.3,84.62c-1.95,0-3.44-.56-4.49-1.68-1.05-1.12-1.57-2.58-1.57-4.38,0-1.94.56-3.44,1.68-4.49,1.12-1.04,2.58-1.57,4.38-1.57,1.94,0,3.44.56,4.49,1.68,1.04,1.12,1.57,2.58,1.57,4.38s-.56,3.25-1.68,4.38c-1.12,1.12-2.58,1.68-4.38,1.68Z"/>
  <path class="cls-1" d="m36.36,90.68c0,1.8-.56,3.25-1.68,4.38-1.12,1.12-2.58,1.68-4.38,1.68-1.95,0-3.44-.56-4.49-1.68-1.05-1.12-1.57-2.58-1.57-4.38,0-1.94.56-3.44,1.68-4.49,1.12-1.04,2.58-1.57,4.38-1.57,1.94,0,3.44.56,4.49,1.68,1.04,1.12,1.57,2.58,1.57,4.38Z"/>
  <path class="cls-1" d="m24.24,102.81c0-1.94.56-3.44,1.68-4.49,1.12-1.04,2.58-1.57,4.38-1.57,1.94,0,3.44.56,4.49,1.68,1.04,1.12,1.57,2.58,1.57,4.38s-.56,3.25-1.68,4.38c-1.12,1.12-2.58,1.68-4.38,1.68-1.95,0-3.44-.56-4.49-1.68-1.05-1.12-1.57-2.58-1.57-4.38Z"/>
  <path class="cls-1" d="m24.24,114.93c0-1.8.52-3.25,1.57-4.38,1.04-1.12,2.47-1.68,4.26-1.68,4.19,0,6.29,1.95,6.29,5.84v.22c0,3.89-1.95,5.84-5.84,5.84-4.19,0-6.28-1.94-6.28-5.84Z"/>
  <path class="cls-1" d="m24.24,126.82c0-1.94.56-3.44,1.68-4.49,1.12-1.04,2.58-1.57,4.38-1.57,1.94,0,3.44.56,4.49,1.68,1.04,1.12,1.57,2.58,1.57,4.38s-.56,3.25-1.68,4.38c-1.12,1.12-2.58,1.68-4.38,1.68-1.95,0-3.44-.56-4.49-1.68-1.05-1.12-1.57-2.58-1.57-4.38Z"/>
  <path class="cls-1" d="m36.36,42.42c0-1.8.52-3.25,1.57-4.38,1.04-1.12,2.47-1.68,4.26-1.68,4.19,0,6.29,1.95,6.29,5.84v.22c0,3.89-1.95,5.84-5.84,5.84-4.19,0-6.29-1.94-6.29-5.84Z"/>
  <path class="cls-1" d="m42.42,60.38c-1.95,0-3.44-.56-4.49-1.68-1.05-1.12-1.57-2.58-1.57-4.38,0-1.94.56-3.44,1.68-4.49,1.12-1.05,2.58-1.57,4.38-1.57,1.94,0,3.44.56,4.49,1.68,1.05,1.12,1.57,2.58,1.57,4.38s-.56,3.25-1.68,4.38c-1.12,1.12-2.58,1.68-4.38,1.68Z"/>
  <path class="cls-1" d="m42.42,72.5c-1.95,0-3.44-.56-4.49-1.68-1.05-1.12-1.57-2.58-1.57-4.38,0-1.94.56-3.44,1.68-4.49,1.12-1.05,2.58-1.57,4.38-1.57,1.94,0,3.44.56,4.49,1.68,1.05,1.12,1.57,2.58,1.57,4.38s-.56,3.25-1.68,4.38c-1.12,1.12-2.58,1.68-4.38,1.68Z"/>
  <path class="cls-1" d="m36.36,78.56c0-1.94.56-3.44,1.68-4.49,1.12-1.04,2.58-1.57,4.38-1.57,1.94,0,3.44.56,4.49,1.68,1.05,1.12,1.57,2.58,1.57,4.38s-.56,3.25-1.68,4.38c-1.12,1.12-2.58,1.68-4.38,1.68-1.95,0-3.44-.56-4.49-1.68-1.05-1.12-1.57-2.58-1.57-4.38Z"/>
  <path class="cls-1" d="m48.48,90.68c0,1.8-.56,3.25-1.68,4.38s-2.58,1.68-4.38,1.68c-1.95,0-3.44-.56-4.49-1.68-1.05-1.12-1.57-2.58-1.57-4.38,0-1.94.56-3.44,1.68-4.49,1.12-1.04,2.58-1.57,4.38-1.57,1.94,0,3.44.56,4.49,1.68,1.05,1.12,1.57,2.58,1.57,4.38Z"/>
  <path class="cls-1" d="m36.36,102.81c0-1.94.56-3.44,1.68-4.49,1.12-1.04,2.58-1.57,4.38-1.57,1.94,0,3.44.56,4.49,1.68,1.05,1.12,1.57,2.58,1.57,4.38s-.56,3.25-1.68,4.38-2.58,1.68-4.38,1.68c-1.95,0-3.44-.56-4.49-1.68-1.05-1.12-1.57-2.58-1.57-4.38Z"/>
  <path class="cls-1" d="m36.36,114.93c0-1.94.56-3.44,1.68-4.49,1.12-1.05,2.58-1.57,4.38-1.57,1.94,0,3.44.56,4.49,1.68,1.05,1.12,1.57,2.58,1.57,4.38s-.56,3.25-1.68,4.38c-1.12,1.12-2.58,1.68-4.38,1.68-1.95,0-3.44-.56-4.49-1.68-1.05-1.12-1.57-2.58-1.57-4.38Z"/>
  <path class="cls-1" d="m54.55,24.24c-1.95,0-3.44-.56-4.49-1.68-1.05-1.12-1.57-2.58-1.57-4.38,0-1.94.56-3.44,1.68-4.49,1.12-1.05,2.58-1.57,4.38-1.57,1.94,0,3.44.56,4.49,1.68,1.05,1.12,1.57,2.58,1.57,4.38s-.56,3.25-1.68,4.38c-1.12,1.12-2.58,1.68-4.38,1.68Z"/>
  <path class="cls-1" d="m54.55,36.36c-1.95,0-3.44-.56-4.49-1.68-1.05-1.12-1.57-2.58-1.57-4.38,0-1.94.56-3.44,1.68-4.49,1.12-1.05,2.58-1.57,4.38-1.57,1.94,0,3.44.56,4.49,1.68,1.05,1.12,1.57,2.58,1.57,4.38s-.56,3.25-1.68,4.38c-1.12,1.12-2.58,1.68-4.38,1.68Z"/>
  <path class="cls-1" d="m48.48,42.42c0-1.8.52-3.25,1.57-4.38,1.05-1.12,2.47-1.68,4.26-1.68,4.19,0,6.29,1.95,6.29,5.84v.22c0,3.89-1.95,5.84-5.84,5.84-4.19,0-6.29-1.94-6.29-5.84Z"/>
  <path class="cls-1" d="m48.48,54.32c0-1.94.56-3.44,1.68-4.49,1.12-1.05,2.58-1.57,4.38-1.57,1.94,0,3.44.56,4.49,1.68,1.05,1.12,1.57,2.58,1.57,4.38s-.56,3.25-1.68,4.38c-1.12,1.12-2.58,1.68-4.38,1.68-1.95,0-3.44-.56-4.49-1.68-1.05-1.12-1.57-2.58-1.57-4.38Z"/>
  <path class="cls-1" d="m48.48,66.44c0-1.94.56-3.44,1.68-4.49,1.12-1.05,2.58-1.57,4.38-1.57,1.94,0,3.44.56,4.49,1.68,1.05,1.12,1.57,2.58,1.57,4.38s-.56,3.25-1.68,4.38c-1.12,1.12-2.58,1.68-4.38,1.68-1.95,0-3.44-.56-4.49-1.68-1.05-1.12-1.57-2.58-1.57-4.38Z"/>
  <path class="cls-1" d="m48.48,102.81c0-1.94.56-3.44,1.68-4.49,1.12-1.04,2.58-1.57,4.38-1.57,1.94,0,3.44.56,4.49,1.68,1.05,1.12,1.57,2.58,1.57,4.38s-.56,3.25-1.68,4.38-2.58,1.68-4.38,1.68c-1.95,0-3.44-.56-4.49-1.68-1.05-1.12-1.57-2.58-1.57-4.38Z"/>
  <path class="cls-1" d="m48.48,114.93c0-1.94.56-3.44,1.68-4.49,1.12-1.05,2.58-1.57,4.38-1.57,1.94,0,3.44.56,4.49,1.68,1.05,1.12,1.57,2.58,1.57,4.38s-.56,3.25-1.68,4.38c-1.12,1.12-2.58,1.68-4.38,1.68-1.95,0-3.44-.56-4.49-1.68-1.05-1.12-1.57-2.58-1.57-4.38Z"/>
  <path class="cls-1" d="m60.61,6.06c0-1.8.56-3.25,1.68-4.38,1.12-1.12,2.58-1.68,4.38-1.68,1.94,0,3.44.56,4.49,1.68,1.04,1.12,1.57,2.58,1.57,4.38,0,1.95-.56,3.44-1.68,4.49-1.12,1.05-2.58,1.57-4.38,1.57-1.95,0-3.44-.56-4.49-1.68-1.05-1.12-1.57-2.58-1.57-4.38Z"/>
  <path class="cls-1" d="m60.61,18.18c0-1.94.56-3.44,1.68-4.49,1.12-1.05,2.58-1.57,4.38-1.57,1.94,0,3.44.56,4.49,1.68,1.04,1.12,1.57,2.58,1.57,4.38s-.56,3.25-1.68,4.38c-1.12,1.12-2.58,1.68-4.38,1.68-1.95,0-3.44-.56-4.49-1.68-1.05-1.12-1.57-2.58-1.57-4.38Z"/>
  <path class="cls-1" d="m60.61,30.3c0-1.94.56-3.44,1.68-4.49,1.12-1.05,2.58-1.57,4.38-1.57,1.94,0,3.44.56,4.49,1.68,1.04,1.12,1.57,2.58,1.57,4.38s-.56,3.25-1.68,4.38-2.58,1.68-4.38,1.68c-1.95,0-3.44-.56-4.49-1.68-1.05-1.12-1.57-2.58-1.57-4.38Z"/>
  <path class="cls-1" d="m60.61,102.81c0-1.94.56-3.44,1.68-4.49,1.12-1.04,2.58-1.57,4.38-1.57,1.94,0,3.44.56,4.49,1.68,1.04,1.12,1.57,2.58,1.57,4.38s-.56,3.25-1.68,4.38c-1.12,1.12-2.58,1.68-4.38,1.68-1.95,0-3.44-.56-4.49-1.68-1.05-1.12-1.57-2.58-1.57-4.38Z"/>
  <path class="cls-1" d="m60.61,114.93c0-1.94.56-3.44,1.68-4.49,1.12-1.05,2.58-1.57,4.38-1.57,1.94,0,3.44.56,4.49,1.68,1.04,1.12,1.57,2.58,1.57,4.38s-.56,3.25-1.68,4.38-2.58,1.68-4.38,1.68c-1.95,0-3.44-.56-4.49-1.68-1.05-1.12-1.57-2.58-1.57-4.38Z"/>
  <path class="cls-1" d="m72.73,6.06c0-1.8.56-3.25,1.68-4.38,1.12-1.12,2.58-1.68,4.38-1.68,1.94,0,3.44.56,4.49,1.68,1.04,1.12,1.57,2.58,1.57,4.38,0,1.95-.56,3.44-1.68,4.49-1.12,1.05-2.58,1.57-4.38,1.57-1.95,0-3.44-.56-4.49-1.68-1.05-1.12-1.57-2.58-1.57-4.38Z"/>
  <path class="cls-1" d="m84.85,18.18c0,1.8-.56,3.25-1.68,4.38-1.12,1.12-2.58,1.68-4.38,1.68-1.95,0-3.44-.56-4.49-1.68-1.05-1.12-1.57-2.58-1.57-4.38,0-1.94.56-3.44,1.68-4.49,1.12-1.05,2.58-1.57,4.38-1.57,1.94,0,3.44.56,4.49,1.68,1.04,1.12,1.57,2.58,1.57,4.38Z"/>
  <path class="cls-1" d="m84.85,30.3c0,1.8-.56,3.25-1.68,4.38s-2.58,1.68-4.38,1.68c-1.95,0-3.44-.56-4.49-1.68-1.05-1.12-1.57-2.58-1.57-4.38,0-1.94.56-3.44,1.68-4.49,1.12-1.05,2.58-1.57,4.38-1.57,1.94,0,3.44.56,4.49,1.68,1.04,1.12,1.57,2.58,1.57,4.38Z"/>
  <path class="cls-1" d="m84.62,103.03c0,3.89-1.95,5.84-5.84,5.84-1.8,0-3.25-.52-4.38-1.57-1.12-1.05-1.68-2.47-1.68-4.27,0-4.19,1.94-6.28,5.84-6.28,1.8,0,3.25.53,4.38,1.57,1.12,1.05,1.68,2.47,1.68,4.27v.45Z"/>
  <path class="cls-1" d="m84.62,115.15c0,3.89-1.95,5.84-5.84,5.84-1.8,0-3.25-.52-4.38-1.57-1.12-1.04-1.68-2.47-1.68-4.26,0-4.19,1.94-6.29,5.84-6.29,1.8,0,3.25.53,4.38,1.57,1.12,1.05,1.68,2.47,1.68,4.26v.45Z"/>
  <path class="cls-1" d="m84.62,42.42c0-1.8.52-3.25,1.57-4.38,1.05-1.12,2.47-1.68,4.26-1.68,4.19,0,6.29,1.95,6.29,5.84v.22c0,3.89-1.95,5.84-5.84,5.84-4.19,0-6.29-1.94-6.29-5.84Z"/>
  <path class="cls-1" d="m90.68,60.38c-1.95,0-3.44-.56-4.49-1.68-1.05-1.12-1.57-2.58-1.57-4.38,0-1.94.56-3.44,1.68-4.49,1.12-1.05,2.58-1.57,4.38-1.57,1.94,0,3.44.56,4.49,1.68,1.05,1.12,1.57,2.58,1.57,4.38s-.56,3.25-1.68,4.38c-1.12,1.12-2.58,1.68-4.38,1.68Z"/>
  <path class="cls-1" d="m90.68,72.5c-1.95,0-3.44-.56-4.49-1.68-1.05-1.12-1.57-2.58-1.57-4.38,0-1.94.56-3.44,1.68-4.49,1.12-1.05,2.58-1.57,4.38-1.57,1.94,0,3.44.56,4.49,1.68,1.05,1.12,1.57,2.58,1.57,4.38s-.56,3.25-1.68,4.38c-1.12,1.12-2.58,1.68-4.38,1.68Z"/>
  <path class="cls-1" d="m96.75,102.81c0,1.8-.56,3.25-1.68,4.38s-2.58,1.68-4.38,1.68c-1.95,0-3.44-.56-4.49-1.68-1.05-1.12-1.57-2.58-1.57-4.38,0-1.94.56-3.44,1.68-4.49,1.12-1.04,2.58-1.57,4.38-1.57,1.94,0,3.44.56,4.49,1.68,1.05,1.12,1.57,2.58,1.57,4.38Z"/>
  <path class="cls-1" d="m96.75,114.93c0,1.8-.56,3.25-1.68,4.38-1.12,1.12-2.58,1.68-4.38,1.68-1.95,0-3.44-.56-4.49-1.68-1.05-1.12-1.57-2.58-1.57-4.38,0-1.94.56-3.44,1.68-4.49,1.12-1.05,2.58-1.57,4.38-1.57,1.94,0,3.44.56,4.49,1.68,1.05,1.12,1.57,2.58,1.57,4.38Z"/>
  <path class="cls-1" d="m96.75,18.41c0,3.89-1.95,5.84-5.84,5.84-1.8,0-3.25-.52-4.38-1.57-1.12-1.05-1.68-2.47-1.68-4.27,0-4.19,1.94-6.28,5.84-6.28,1.8,0,3.25.53,4.38,1.57,1.12,1.05,1.68,2.47,1.68,4.26v.45Z"/>
  <path class="cls-1" d="m96.75,30.53c0,3.89-1.95,5.84-5.84,5.84-1.8,0-3.25-.52-4.38-1.57-1.12-1.04-1.68-2.47-1.68-4.26,0-4.19,1.94-6.29,5.84-6.29,1.8,0,3.25.53,4.38,1.57,1.12,1.05,1.68,2.47,1.68,4.26v.45Z"/>
  <path class="cls-1" d="m96.75,42.42c0-1.8.52-3.25,1.57-4.38,1.05-1.12,2.47-1.68,4.27-1.68,4.19,0,6.29,1.95,6.29,5.84v.22c0,3.89-1.95,5.84-5.84,5.84-4.19,0-6.29-1.94-6.29-5.84Z"/>
  <path class="cls-1" d="m96.75,54.32c0-1.94.56-3.44,1.68-4.49,1.12-1.05,2.58-1.57,4.38-1.57,1.94,0,3.44.56,4.49,1.68,1.04,1.12,1.57,2.58,1.57,4.38s-.56,3.25-1.68,4.38c-1.12,1.12-2.58,1.68-4.38,1.68-1.95,0-3.44-.56-4.49-1.68-1.05-1.12-1.57-2.58-1.57-4.38Z"/>
  <path class="cls-1" d="m96.75,66.44c0-1.94.56-3.44,1.68-4.49,1.12-1.05,2.58-1.57,4.38-1.57,1.94,0,3.44.56,4.49,1.68,1.04,1.12,1.57,2.58,1.57,4.38s-.56,3.25-1.68,4.38-2.58,1.68-4.38,1.68c-1.95,0-3.44-.56-4.49-1.68-1.05-1.12-1.57-2.58-1.57-4.38Z"/>
  <path class="cls-1" d="m108.87,78.56c0,1.8-.56,3.25-1.68,4.38s-2.58,1.68-4.38,1.68c-1.95,0-3.44-.56-4.49-1.68-1.05-1.12-1.57-2.58-1.57-4.38,0-1.94.56-3.44,1.68-4.49,1.12-1.04,2.58-1.57,4.38-1.57,1.94,0,3.44.56,4.49,1.68,1.04,1.12,1.57,2.58,1.57,4.38Z"/>
  <path class="cls-1" d="m102.81,96.75c-1.95,0-3.44-.56-4.49-1.68-1.05-1.12-1.57-2.58-1.57-4.38,0-1.94.56-3.44,1.68-4.49,1.12-1.04,2.58-1.57,4.38-1.57,1.94,0,3.44.56,4.49,1.68,1.04,1.12,1.57,2.58,1.57,4.38s-.56,3.25-1.68,4.38c-1.12,1.12-2.58,1.68-4.38,1.68Z"/>
  <path class="cls-1" d="m108.87,102.81c0,1.8-.56,3.25-1.68,4.38-1.12,1.12-2.58,1.68-4.38,1.68-1.95,0-3.44-.56-4.49-1.68-1.05-1.12-1.57-2.58-1.57-4.38,0-1.94.56-3.44,1.68-4.49,1.12-1.04,2.58-1.57,4.38-1.57,1.94,0,3.44.56,4.49,1.68,1.04,1.12,1.57,2.58,1.57,4.38Z"/>
  <path class="cls-1" d="m108.87,114.93c0,1.8-.56,3.25-1.68,4.38s-2.58,1.68-4.38,1.68c-1.95,0-3.44-.56-4.49-1.68-1.05-1.12-1.57-2.58-1.57-4.38,0-1.94.56-3.44,1.68-4.49,1.12-1.05,2.58-1.57,4.38-1.57,1.94,0,3.44.56,4.49,1.68,1.04,1.12,1.57,2.58,1.57,4.38Z"/>
  <path class="cls-1" d="m120.99,78.56c0,1.8-.56,3.25-1.68,4.38-1.12,1.12-2.58,1.68-4.38,1.68-1.95,0-3.44-.56-4.49-1.68-1.05-1.12-1.57-2.58-1.57-4.38,0-1.94.56-3.44,1.68-4.49,1.12-1.04,2.58-1.57,4.38-1.57,1.94,0,3.44.56,4.49,1.68,1.04,1.12,1.57,2.58,1.57,4.38Z"/>
  <path class="cls-1" d="m108.87,90.68c0-1.94.56-3.44,1.68-4.49,1.12-1.04,2.58-1.57,4.38-1.57,1.94,0,3.44.56,4.49,1.68,1.04,1.12,1.57,2.58,1.57,4.38s-.56,3.25-1.68,4.38c-1.12,1.12-2.58,1.68-4.38,1.68-1.95,0-3.44-.56-4.49-1.68-1.05-1.12-1.57-2.58-1.57-4.38Z"/>
  <path class="cls-1" d="m120.99,102.81c0,1.8-.56,3.25-1.68,4.38-1.12,1.12-2.58,1.68-4.38,1.68-1.95,0-3.44-.56-4.49-1.68-1.05-1.12-1.57-2.58-1.57-4.38,0-1.94.56-3.44,1.68-4.49,1.12-1.04,2.58-1.57,4.38-1.57,1.94,0,3.44.56,4.49,1.68,1.04,1.12,1.57,2.58,1.57,4.38Z"/>
  <path class="cls-1" d="m120.99,114.93c0,3.89-1.95,5.84-5.84,5.84-4.19,0-6.28-1.94-6.28-5.84,0-1.8.52-3.25,1.57-4.38,1.05-1.12,2.47-1.68,4.27-1.68,4.19,0,6.29,1.95,6.29,5.84v.22Z"/>
  <path class="cls-1" d="m114.93,132.88c-1.95,0-3.44-.56-4.49-1.68-1.05-1.12-1.57-2.58-1.57-4.38,0-1.94.56-3.44,1.68-4.49,1.12-1.04,2.58-1.57,4.38-1.57,1.94,0,3.44.56,4.49,1.68,1.04,1.12,1.57,2.58,1.57,4.38s-.56,3.25-1.68,4.38c-1.12,1.12-2.58,1.68-4.38,1.68Z"/>
  <path class="cls-1" d="m133.11,102.81c0,1.8-.56,3.25-1.68,4.38s-2.58,1.68-4.38,1.68c-1.95,0-3.44-.56-4.49-1.68-1.05-1.12-1.57-2.58-1.57-4.38,0-1.94.56-3.44,1.68-4.49,1.12-1.04,2.58-1.57,4.38-1.57,1.94,0,3.44.56,4.49,1.68,1.05,1.12,1.57,2.58,1.57,4.38Z"/>
  <path class="cls-1" d="m133.11,114.93c0,3.89-1.95,5.84-5.84,5.84-4.19,0-6.29-1.94-6.29-5.84,0-1.8.52-3.25,1.57-4.38,1.04-1.12,2.47-1.68,4.26-1.68,4.19,0,6.29,1.95,6.29,5.84v.22Z"/>
  <path class="cls-1" d="m120.99,126.82c0-1.94.56-3.44,1.68-4.49,1.12-1.04,2.58-1.57,4.38-1.57,1.94,0,3.44.56,4.49,1.68,1.05,1.12,1.57,2.58,1.57,4.38s-.56,3.25-1.68,4.38-2.58,1.68-4.38,1.68c-1.95,0-3.44-.56-4.49-1.68-1.05-1.12-1.57-2.58-1.57-4.38Z"/>
  <path class="cls-1" d="m120.99,138.95c0-1.8.56-3.25,1.68-4.38s2.58-1.68,4.38-1.68c1.94,0,3.44.56,4.49,1.68,1.05,1.12,1.57,2.58,1.57,4.38,0,1.95-.56,3.44-1.68,4.49-1.12,1.05-2.58,1.57-4.38,1.57-1.95,0-3.44-.56-4.49-1.68-1.05-1.12-1.57-2.58-1.57-4.38Z"/>
  <path class="cls-1" d="m120.99,151.07c0-1.8.56-3.25,1.68-4.38,1.12-1.12,2.58-1.68,4.38-1.68,1.94,0,3.44.56,4.49,1.68,1.05,1.12,1.57,2.58,1.57,4.38,0,1.95-.56,3.44-1.68,4.49-1.12,1.05-2.58,1.57-4.38,1.57-1.95,0-3.44-.56-4.49-1.68-1.05-1.12-1.57-2.58-1.57-4.38Z"/>
  <path class="cls-1" d="m133.11,126.82c0-1.94.56-3.44,1.68-4.49,1.12-1.04,2.58-1.57,4.38-1.57,1.94,0,3.44.56,4.49,1.68,1.05,1.12,1.57,2.58,1.57,4.38s-.56,3.25-1.68,4.38-2.58,1.68-4.38,1.68c-1.95,0-3.44-.56-4.49-1.68-1.05-1.12-1.57-2.58-1.57-4.38Z"/>
  <path class="cls-1" d="m133.11,138.95c0-1.8.56-3.25,1.68-4.38s2.58-1.68,4.38-1.68c1.94,0,3.44.56,4.49,1.68,1.05,1.12,1.57,2.58,1.57,4.38,0,1.95-.56,3.44-1.68,4.49-1.12,1.05-2.58,1.57-4.38,1.57-1.95,0-3.44-.56-4.49-1.68-1.05-1.12-1.57-2.58-1.57-4.38Z"/>
  <path class="cls-1" d="m133.11,151.07c0-1.8.56-3.25,1.68-4.38,1.12-1.12,2.58-1.68,4.38-1.68,1.94,0,3.44.56,4.49,1.68,1.05,1.12,1.57,2.58,1.57,4.38,0,1.95-.56,3.44-1.68,4.49-1.12,1.05-2.58,1.57-4.38,1.57-1.95,0-3.44-.56-4.49-1.68-1.05-1.12-1.57-2.58-1.57-4.38Z"/>
  <path class="cls-1" d="m157.35,5.84c0-1.8.56-3.22,1.68-4.27,1.12-1.04,2.58-1.57,4.38-1.57,3.89,0,5.84,2.1,5.84,6.29,0,1.8-.56,3.22-1.68,4.27-1.12,1.05-2.58,1.57-4.38,1.57-3.89,0-5.84-1.94-5.84-5.84v-.45Z"/>
  <path class="cls-1" d="m169.25,18.41c0,1.8-.56,3.22-1.68,4.27-1.12,1.05-2.58,1.57-4.38,1.57-3.89,0-5.84-2.09-5.84-6.29,0-1.8.56-3.22,1.68-4.26,1.12-1.05,2.58-1.57,4.38-1.57,3.89,0,5.84,1.95,5.84,5.84v.45Z"/>
  <path class="cls-1" d="m169.25,30.53c0,1.8-.56,3.22-1.68,4.26-1.12,1.05-2.58,1.57-4.38,1.57-3.89,0-5.84-2.09-5.84-6.29,0-1.8.56-3.22,1.68-4.26,1.12-1.05,2.58-1.57,4.38-1.57,3.89,0,5.84,1.95,5.84,5.84v.45Z"/>
  <path class="cls-1" d="m169.25,42.42c0,1.8-.56,3.22-1.68,4.27-1.12,1.05-2.58,1.57-4.38,1.57s-3.22-.56-4.27-1.68c-1.05-1.12-1.57-2.58-1.57-4.38,0-3.89,2.02-5.84,6.06-5.84s5.84,1.95,5.84,5.84v.22Z"/>
  <path class="cls-1" d="m169.25,54.55c0,1.8-.56,3.22-1.68,4.27-1.12,1.05-2.58,1.57-4.38,1.57-3.89,0-5.84-2.09-5.84-6.29,0-1.8.56-3.22,1.68-4.26,1.12-1.05,2.58-1.57,4.38-1.57,3.89,0,5.84,1.95,5.84,5.84v.45Z"/>
  <path class="cls-1" d="m169.25,66.67c0,1.8-.56,3.22-1.68,4.26-1.12,1.05-2.58,1.57-4.38,1.57-3.89,0-5.84-2.09-5.84-6.29,0-1.8.56-3.22,1.68-4.26,1.12-1.05,2.58-1.57,4.38-1.57,3.89,0,5.84,1.95,5.84,5.84v.45Z"/>
  <path class="cls-1" d="m169.25,78.79c0,1.8-.56,3.22-1.68,4.26-1.12,1.05-2.58,1.57-4.38,1.57-3.89,0-5.84-2.09-5.84-6.29,0-1.8.56-3.22,1.68-4.26,1.12-1.04,2.58-1.57,4.38-1.57,3.89,0,5.84,1.95,5.84,5.84v.45Z"/>
  <path class="cls-1" d="m169.25,90.91c0,1.8-.56,3.22-1.68,4.27-1.12,1.05-2.58,1.57-4.38,1.57-3.89,0-5.84-2.09-5.84-6.29,0-1.8.56-3.22,1.68-4.27,1.12-1.04,2.58-1.57,4.38-1.57,3.89,0,5.84,1.95,5.84,5.84v.45Z"/>
  <path class="cls-1" d="m169.25,103.03c0,1.8-.56,3.22-1.68,4.27-1.12,1.05-2.58,1.57-4.38,1.57-3.89,0-5.84-2.09-5.84-6.29,0-1.8.56-3.22,1.68-4.27,1.12-1.04,2.58-1.57,4.38-1.57,3.89,0,5.84,1.95,5.84,5.84v.45Z"/>
  <path class="cls-1" d="m169.25,114.93c0,1.8-.56,3.22-1.68,4.26-1.12,1.05-2.58,1.57-4.38,1.57s-3.22-.56-4.27-1.68c-1.05-1.12-1.57-2.58-1.57-4.38,0-3.89,2.02-5.84,6.06-5.84s5.84,1.95,5.84,5.84v.22Z"/>
  <path class="cls-1" d="m169.25,127.05c0,1.8-.56,3.22-1.68,4.27-1.12,1.05-2.58,1.57-4.38,1.57-3.89,0-5.84-2.09-5.84-6.29,0-1.8.56-3.22,1.68-4.27,1.12-1.04,2.58-1.57,4.38-1.57,3.89,0,5.84,1.95,5.84,5.84v.45Z"/>
  <path class="cls-1" d="m169.25,139.17c0,1.8-.56,3.22-1.68,4.27-1.12,1.05-2.58,1.57-4.38,1.57-3.89,0-5.84-2.09-5.84-6.29,0-1.8.56-3.22,1.68-4.27,1.12-1.04,2.58-1.57,4.38-1.57,3.89,0,5.84,1.95,5.84,5.84v.45Z"/>
  <path class="cls-1" d="m157.35,150.84c0-1.8.56-3.22,1.68-4.26,1.12-1.05,2.58-1.57,4.38-1.57,3.89,0,5.84,2.1,5.84,6.29,0,1.8-.56,3.22-1.68,4.26-1.12,1.05-2.58,1.57-4.38,1.57-3.89,0-5.84-1.94-5.84-5.84v-.45Z"/>
  <path class="cls-1" d="m169.25,5.84c0-1.8.56-3.22,1.68-4.27,1.12-1.04,2.58-1.57,4.38-1.57,3.89,0,5.84,2.1,5.84,6.29,0,1.8-.56,3.22-1.68,4.27-1.12,1.05-2.58,1.57-4.38,1.57-3.89,0-5.84-1.94-5.84-5.84v-.45Z"/>
  <path class="cls-1" d="m181.14,18.41c0,1.8-.56,3.22-1.68,4.27-1.12,1.05-2.58,1.57-4.38,1.57-3.89,0-5.84-2.09-5.84-6.29,0-1.8.56-3.22,1.68-4.26,1.12-1.05,2.58-1.57,4.38-1.57,3.89,0,5.84,1.95,5.84,5.84v.45Z"/>
  <path class="cls-1" d="m181.14,30.53c0,1.8-.56,3.22-1.68,4.26-1.12,1.05-2.58,1.57-4.38,1.57-3.89,0-5.84-2.09-5.84-6.29,0-1.8.56-3.22,1.68-4.26,1.12-1.05,2.58-1.57,4.38-1.57,3.89,0,5.84,1.95,5.84,5.84v.45Z"/>
  <path class="cls-1" d="m181.14,42.42c0,1.8-.56,3.22-1.68,4.27-1.12,1.05-2.58,1.57-4.38,1.57s-3.22-.56-4.26-1.68c-1.05-1.12-1.57-2.58-1.57-4.38,0-3.89,2.02-5.84,6.06-5.84s5.84,1.95,5.84,5.84v.22Z"/>
  <path class="cls-1" d="m181.14,54.55c0,1.8-.56,3.22-1.68,4.27-1.12,1.05-2.58,1.57-4.38,1.57-3.89,0-5.84-2.09-5.84-6.29,0-1.8.56-3.22,1.68-4.26,1.12-1.05,2.58-1.57,4.38-1.57,3.89,0,5.84,1.95,5.84,5.84v.45Z"/>
  <path class="cls-1" d="m181.14,66.67c0,1.8-.56,3.22-1.68,4.26-1.12,1.05-2.58,1.57-4.38,1.57-3.89,0-5.84-2.09-5.84-6.29,0-1.8.56-3.22,1.68-4.26,1.12-1.05,2.58-1.57,4.38-1.57,3.89,0,5.84,1.95,5.84,5.84v.45Z"/>
  <path class="cls-1" d="m181.14,78.79c0,1.8-.56,3.22-1.68,4.26-1.12,1.05-2.58,1.57-4.38,1.57-3.89,0-5.84-2.09-5.84-6.29,0-1.8.56-3.22,1.68-4.26,1.12-1.04,2.58-1.57,4.38-1.57,3.89,0,5.84,1.95,5.84,5.84v.45Z"/>
  <path class="cls-1" d="m181.14,90.91c0,1.8-.56,3.22-1.68,4.27-1.12,1.05-2.58,1.57-4.38,1.57-3.89,0-5.84-2.09-5.84-6.29,0-1.8.56-3.22,1.68-4.27,1.12-1.04,2.58-1.57,4.38-1.57,3.89,0,5.84,1.95,5.84,5.84v.45Z"/>
  <path class="cls-1" d="m181.14,103.03c0,1.8-.56,3.22-1.68,4.27-1.12,1.05-2.58,1.57-4.38,1.57-3.89,0-5.84-2.09-5.84-6.29,0-1.8.56-3.22,1.68-4.27,1.12-1.04,2.58-1.57,4.38-1.57,3.89,0,5.84,1.95,5.84,5.84v.45Z"/>
  <path class="cls-1" d="m181.14,114.93c0,1.8-.56,3.22-1.68,4.26-1.12,1.05-2.58,1.57-4.38,1.57s-3.22-.56-4.26-1.68c-1.05-1.12-1.57-2.58-1.57-4.38,0-3.89,2.02-5.84,6.06-5.84s5.84,1.95,5.84,5.84v.22Z"/>
  <path class="cls-1" d="m181.14,127.05c0,1.8-.56,3.22-1.68,4.27-1.12,1.05-2.58,1.57-4.38,1.57-3.89,0-5.84-2.09-5.84-6.29,0-1.8.56-3.22,1.68-4.27,1.12-1.04,2.58-1.57,4.38-1.57,3.89,0,5.84,1.95,5.84,5.84v.45Z"/>
  <path class="cls-1" d="m181.14,139.17c0,1.8-.56,3.22-1.68,4.27-1.12,1.05-2.58,1.57-4.38,1.57-3.89,0-5.84-2.09-5.84-6.29,0-1.8.56-3.22,1.68-4.27,1.12-1.04,2.58-1.57,4.38-1.57,3.89,0,5.84,1.95,5.84,5.84v.45Z"/>
  <path class="cls-1" d="m169.25,150.84c0-1.8.56-3.22,1.68-4.26,1.12-1.05,2.58-1.57,4.38-1.57,3.89,0,5.84,2.1,5.84,6.29,0,1.8-.56,3.22-1.68,4.26-1.12,1.05-2.58,1.57-4.38,1.57-3.89,0-5.84-1.94-5.84-5.84v-.45Z"/>
  <path class="cls-1" d="m193.26,66.44c0,3.29-1.57,5.31-4.71,6.06,3.14.45,4.71,2.4,4.71,5.84,0,1.8-.53,3.25-1.57,4.38-1.05,1.12-2.55,1.68-4.49,1.68-1.8,0-3.25-.52-4.38-1.57-1.12-1.05-1.68-2.54-1.68-4.49,0-3.29,1.57-5.31,4.71-6.06-3.14-.45-4.71-2.39-4.71-5.84,0-1.8.52-3.25,1.57-4.38,1.05-1.12,2.54-1.68,4.49-1.68,1.8,0,3.25.56,4.38,1.68s1.68,2.58,1.68,4.38Z"/>
  <path class="cls-1" d="m193.26,126.82c0,1.8-.53,3.25-1.57,4.38-1.05,1.12-2.55,1.68-4.49,1.68-1.8,0-3.25-.52-4.38-1.57-1.12-1.05-1.68-2.54-1.68-4.49,0-1.8.52-3.25,1.57-4.38,1.05-1.12,2.54-1.68,4.49-1.68,1.8,0,3.25.56,4.38,1.68,1.12,1.12,1.68,2.58,1.68,4.38Z"/>
  <path class="cls-1" d="m193.26,138.95c0,1.8-.53,3.25-1.57,4.38-1.05,1.12-2.55,1.68-4.49,1.68-1.8,0-3.25-.52-4.38-1.57-1.12-1.05-1.68-2.54-1.68-4.49,0-1.8.52-3.25,1.57-4.38,1.05-1.12,2.54-1.68,4.49-1.68,1.8,0,3.25.56,4.38,1.68,1.12,1.12,1.68,2.58,1.68,4.38Z"/>
  <path class="cls-1" d="m205.38,66.22c0,1.8-.53,3.25-1.57,4.38-1.05,1.12-2.55,1.68-4.49,1.68-1.8,0-3.25-.52-4.38-1.57-1.12-1.04-1.68-2.54-1.68-4.49,0-3.29,1.57-5.31,4.71-6.06-3.14-.45-4.71-2.39-4.71-5.84,0-1.8.52-3.25,1.57-4.38,1.05-1.12,2.54-1.68,4.49-1.68,1.8,0,3.25.56,4.38,1.68,1.12,1.12,1.68,2.58,1.68,4.38,0,3.29-1.57,5.31-4.71,6.06,3.14.45,4.71,2.4,4.71,5.84Z"/>
  <path class="cls-1" d="m193.26,138.95c0-1.8.52-3.25,1.57-4.38,1.05-1.12,2.54-1.68,4.49-1.68,1.8,0,3.25.53,4.38,1.57,1.12,1.05,1.68,2.55,1.68,4.49,0,1.8-.53,3.25-1.57,4.38-1.05,1.12-2.55,1.68-4.49,1.68-1.8,0-3.25-.56-4.38-1.68-1.12-1.12-1.68-2.58-1.68-4.38Z"/>
  <path class="cls-1" d="m193.26,151.07c0-1.8.52-3.25,1.57-4.38,1.05-1.12,2.54-1.68,4.49-1.68,1.8,0,3.25.53,4.38,1.57,1.12,1.05,1.68,2.55,1.68,4.49,0,1.8-.53,3.25-1.57,4.38-1.05,1.12-2.55,1.68-4.49,1.68-1.8,0-3.25-.56-4.38-1.68s-1.68-2.58-1.68-4.38Z"/>
  <path class="cls-1" d="m217.51,42.42c0,3.89-2.1,5.84-6.29,5.84-1.8,0-3.22-.56-4.26-1.68-1.05-1.12-1.57-2.58-1.57-4.38,0-3.89,2.09-5.84,6.28-5.84,3.89,0,5.84,1.95,5.84,5.84v.22Z"/>
  <path class="cls-1" d="m205.38,54.32c0-1.8.52-3.25,1.57-4.38,1.04-1.12,2.54-1.68,4.49-1.68,1.8,0,3.25.56,4.38,1.68s1.68,2.58,1.68,4.38-.53,3.25-1.57,4.38c-1.05,1.12-2.55,1.68-4.49,1.68-1.8,0-3.25-.52-4.38-1.57-1.12-1.05-1.68-2.54-1.68-4.49Z"/>
  <path class="cls-1" d="m205.38,138.95c0-1.8.52-3.25,1.57-4.38,1.04-1.12,2.54-1.68,4.49-1.68,1.8,0,3.25.53,4.38,1.57,1.12,1.05,1.68,2.55,1.68,4.49,0,1.8-.53,3.25-1.57,4.38-1.05,1.12-2.55,1.68-4.49,1.68-1.8,0-3.25-.56-4.38-1.68-1.12-1.12-1.68-2.58-1.68-4.38Z"/>
  <path class="cls-1" d="m205.38,151.07c0-1.8.52-3.25,1.57-4.38,1.04-1.12,2.54-1.68,4.49-1.68,1.8,0,3.25.53,4.38,1.57,1.12,1.05,1.68,2.55,1.68,4.49,0,1.8-.53,3.25-1.57,4.38-1.05,1.12-2.55,1.68-4.49,1.68-1.8,0-3.25-.56-4.38-1.68s-1.68-2.58-1.68-4.38Z"/>
  <path class="cls-1" d="m229.63,42.42c0,3.89-2.1,5.84-6.29,5.84-1.8,0-3.22-.56-4.26-1.68-1.05-1.12-1.57-2.58-1.57-4.38,0-3.89,2.09-5.84,6.29-5.84,3.89,0,5.84,1.95,5.84,5.84v.22Z"/>
  <path class="cls-1" d="m217.51,54.32c0-1.8.52-3.25,1.57-4.38,1.04-1.12,2.54-1.68,4.49-1.68,1.8,0,3.25.56,4.38,1.68s1.68,2.58,1.68,4.38-.53,3.25-1.57,4.38c-1.05,1.12-2.55,1.68-4.49,1.68-1.8,0-3.25-.52-4.38-1.57-1.12-1.05-1.68-2.54-1.68-4.49Z"/>
  <path class="cls-1" d="m217.51,138.95c0-1.8.52-3.25,1.57-4.38,1.04-1.12,2.54-1.68,4.49-1.68,1.8,0,3.25.53,4.38,1.57,1.12,1.05,1.68,2.55,1.68,4.49,0,1.8-.53,3.25-1.57,4.38-1.05,1.12-2.55,1.68-4.49,1.68-1.8,0-3.25-.56-4.38-1.68s-1.68-2.58-1.68-4.38Z"/>
  <path class="cls-1" d="m229.63,151.07c0,1.8-.53,3.25-1.57,4.38-1.05,1.12-2.55,1.68-4.49,1.68-1.8,0-3.25-.56-4.38-1.68-1.12-1.12-1.68-2.58-1.68-4.38s.52-3.25,1.57-4.38c1.04-1.12,2.54-1.68,4.49-1.68,1.8,0,3.25.53,4.38,1.57,1.12,1.05,1.68,2.55,1.68,4.49Z"/>
  <path class="cls-1" d="m241.75,42.42c0,3.89-2.1,5.84-6.28,5.84-1.8,0-3.22-.56-4.27-1.68-1.05-1.12-1.57-2.58-1.57-4.38,0-3.89,2.09-5.84,6.29-5.84,3.89,0,5.84,1.95,5.84,5.84v.22Z"/>
  <path class="cls-1" d="m241.75,54.32c0,1.8-.53,3.25-1.57,4.38-1.05,1.12-2.55,1.68-4.49,1.68-1.8,0-3.25-.52-4.38-1.57-1.12-1.05-1.68-2.54-1.68-4.49,0-1.8.52-3.25,1.57-4.38,1.05-1.12,2.54-1.68,4.49-1.68,1.8,0,3.25.56,4.38,1.68,1.12,1.12,1.68,2.58,1.68,4.38Z"/>
  <path class="cls-1" d="m241.75,66.44c0,1.8-.53,3.25-1.57,4.38-1.05,1.12-2.55,1.68-4.49,1.68-1.8,0-3.25-.52-4.38-1.57-1.12-1.04-1.68-2.54-1.68-4.49,0-1.8.52-3.25,1.57-4.38,1.05-1.12,2.54-1.68,4.49-1.68,1.8,0,3.25.56,4.38,1.68s1.68,2.58,1.68,4.38Z"/>
  <path class="cls-1" d="m241.75,126.82c0,1.8-.53,3.25-1.57,4.38-1.05,1.12-2.55,1.68-4.49,1.68-1.8,0-3.25-.52-4.38-1.57-1.12-1.05-1.68-2.54-1.68-4.49,0-1.8.52-3.25,1.57-4.38,1.05-1.12,2.54-1.68,4.49-1.68,1.8,0,3.25.56,4.38,1.68,1.12,1.12,1.68,2.58,1.68,4.38Z"/>
  <path class="cls-1" d="m241.75,138.95c0,1.8-.53,3.25-1.57,4.38-1.05,1.12-2.55,1.68-4.49,1.68-1.8,0-3.25-.52-4.38-1.57-1.12-1.05-1.68-2.54-1.68-4.49,0-1.8.52-3.25,1.57-4.38,1.05-1.12,2.54-1.68,4.49-1.68,1.8,0,3.25.56,4.38,1.68,1.12,1.12,1.68,2.58,1.68,4.38Z"/>
  <path class="cls-1" d="m235.69,157.13c-1.8,0-3.25-.56-4.38-1.68-1.12-1.12-1.68-2.58-1.68-4.38s.52-3.25,1.57-4.38c1.05-1.12,2.54-1.68,4.49-1.68,1.8,0,3.25.53,4.38,1.57,1.12,1.05,1.68,2.55,1.68,4.49,0,1.8-.53,3.25-1.57,4.38-1.05,1.12-2.55,1.68-4.49,1.68Z"/>
  <path class="cls-1" d="m253.87,54.32c0,1.8-.53,3.25-1.57,4.38-1.05,1.12-2.55,1.68-4.49,1.68-1.8,0-3.25-.52-4.38-1.57-1.12-1.05-1.68-2.54-1.68-4.49,0-1.8.52-3.25,1.57-4.38,1.05-1.12,2.54-1.68,4.49-1.68,1.8,0,3.25.56,4.38,1.68,1.12,1.12,1.68,2.58,1.68,4.38Z"/>
  <path class="cls-1" d="m241.75,66.44c0-1.8.52-3.25,1.57-4.38,1.05-1.12,2.54-1.68,4.49-1.68,1.8,0,3.25.53,4.38,1.57,1.12,1.05,1.68,2.55,1.68,4.49,0,1.8-.53,3.25-1.57,4.38-1.05,1.12-2.55,1.68-4.49,1.68-1.8,0-3.25-.56-4.38-1.68s-1.68-2.58-1.68-4.38Z"/>
  <path class="cls-1" d="m241.75,78.56c0-1.8.52-3.25,1.57-4.38,1.05-1.12,2.54-1.68,4.49-1.68,1.8,0,3.25.53,4.38,1.57,1.12,1.05,1.68,2.55,1.68,4.49,0,1.8-.53,3.25-1.57,4.38-1.05,1.12-2.55,1.68-4.49,1.68-1.8,0-3.25-.56-4.38-1.68s-1.68-2.58-1.68-4.38Z"/>
  <path class="cls-1" d="m241.75,90.68c0-1.8.52-3.25,1.57-4.38,1.05-1.12,2.54-1.68,4.49-1.68,1.8,0,3.25.53,4.38,1.57,1.12,1.05,1.68,2.55,1.68,4.49,0,1.8-.53,3.25-1.57,4.38-1.05,1.12-2.55,1.68-4.49,1.68-1.8,0-3.25-.56-4.38-1.68-1.12-1.12-1.68-2.58-1.68-4.38Z"/>
  <path class="cls-1" d="m241.75,102.81c0-1.8.52-3.25,1.57-4.38,1.05-1.12,2.54-1.68,4.49-1.68,1.8,0,3.25.53,4.38,1.57,1.12,1.05,1.68,2.55,1.68,4.49,0,1.8-.53,3.25-1.57,4.38-1.05,1.12-2.55,1.68-4.49,1.68-1.8,0-3.25-.56-4.38-1.68-1.12-1.12-1.68-2.58-1.68-4.38Z"/>
  <path class="cls-1" d="m241.75,114.7c0-3.89,2.09-5.84,6.29-5.84,1.8,0,3.22.56,4.27,1.68,1.04,1.12,1.57,2.58,1.57,4.38,0,3.89-2.1,5.84-6.29,5.84-3.89,0-5.84-1.94-5.84-5.84v-.22Z"/>
  <path class="cls-1" d="m241.75,126.82c0-1.8.52-3.25,1.57-4.38,1.05-1.12,2.54-1.68,4.49-1.68,1.8,0,3.25.53,4.38,1.57,1.12,1.05,1.68,2.55,1.68,4.49,0,1.8-.53,3.25-1.57,4.38-1.05,1.12-2.55,1.68-4.49,1.68-1.8,0-3.25-.56-4.38-1.68-1.12-1.12-1.68-2.58-1.68-4.38Z"/>
  <path class="cls-1" d="m253.87,138.95c0,1.8-.53,3.25-1.57,4.38-1.05,1.12-2.55,1.68-4.49,1.68-1.8,0-3.25-.52-4.38-1.57-1.12-1.05-1.68-2.54-1.68-4.49,0-1.8.52-3.25,1.57-4.38,1.05-1.12,2.54-1.68,4.49-1.68,1.8,0,3.25.56,4.38,1.68,1.12,1.12,1.68,2.58,1.68,4.38Z"/>
  <path class="cls-1" d="m253.87,66.22c0-1.8.56-3.22,1.68-4.26,1.12-1.05,2.58-1.57,4.38-1.57,3.89,0,5.84,2.1,5.84,6.29,0,1.8-.56,3.22-1.68,4.26-1.12,1.05-2.58,1.57-4.38,1.57-3.89,0-5.84-1.94-5.84-5.84v-.45Z"/>
  <path class="cls-1" d="m253.87,78.34c0-1.8.56-3.22,1.68-4.26,1.12-1.04,2.58-1.57,4.38-1.57,3.89,0,5.84,2.1,5.84,6.29,0,1.8-.56,3.22-1.68,4.26-1.12,1.05-2.58,1.57-4.38,1.57-3.89,0-5.84-1.94-5.84-5.84v-.45Z"/>
  <path class="cls-1" d="m253.87,90.46c0-1.8.56-3.22,1.68-4.27,1.12-1.04,2.58-1.57,4.38-1.57,3.89,0,5.84,2.1,5.84,6.29,0,1.8-.56,3.22-1.68,4.27-1.12,1.05-2.58,1.57-4.38,1.57-3.89,0-5.84-1.94-5.84-5.84v-.45Z"/>
  <path class="cls-1" d="m253.87,102.58c0-1.8.56-3.22,1.68-4.27,1.12-1.04,2.58-1.57,4.38-1.57,3.89,0,5.84,2.1,5.84,6.28,0,1.8-.56,3.22-1.68,4.27-1.12,1.05-2.58,1.57-4.38,1.57-3.89,0-5.84-1.94-5.84-5.84v-.45Z"/>
  <path class="cls-1" d="m253.87,114.7c0-1.8.56-3.22,1.68-4.26,1.12-1.05,2.58-1.57,4.38-1.57s3.22.56,4.26,1.68c1.05,1.12,1.57,2.58,1.57,4.38,0,3.89-2.02,5.84-6.06,5.84s-5.84-1.94-5.84-5.84v-.22Z"/>
  <path class="cls-1" d="m253.87,126.6c0-1.8.56-3.22,1.68-4.27,1.12-1.04,2.58-1.57,4.38-1.57,3.89,0,5.84,2.1,5.84,6.29,0,1.8-.56,3.22-1.68,4.27-1.12,1.05-2.58,1.57-4.38,1.57-3.89,0-5.84-1.94-5.84-5.84v-.45Z"/>
  <path class="cls-1" d="m283.95,72.5c-1.95,0-3.44-.56-4.49-1.68-1.05-1.12-1.57-2.58-1.57-4.38,0-1.94.56-3.44,1.68-4.49,1.12-1.05,2.58-1.57,4.38-1.57,1.94,0,3.44.56,4.49,1.68,1.05,1.12,1.57,2.58,1.57,4.38s-.56,3.25-1.68,4.38-2.58,1.68-4.38,1.68Z"/>
  <path class="cls-1" d="m290.01,78.56c0,1.8-.56,3.25-1.68,4.38s-2.58,1.68-4.38,1.68c-1.95,0-3.44-.56-4.49-1.68-1.05-1.12-1.57-2.58-1.57-4.38,0-1.94.56-3.44,1.68-4.49,1.12-1.04,2.58-1.57,4.38-1.57,1.94,0,3.44.56,4.49,1.68,1.05,1.12,1.57,2.58,1.57,4.38Z"/>
  <path class="cls-1" d="m290.01,90.68c0,1.8-.56,3.25-1.68,4.38-1.12,1.12-2.58,1.68-4.38,1.68-1.95,0-3.44-.56-4.49-1.68-1.05-1.12-1.57-2.58-1.57-4.38,0-1.94.56-3.44,1.68-4.49,1.12-1.04,2.58-1.57,4.38-1.57,1.94,0,3.44.56,4.49,1.68,1.05,1.12,1.57,2.58,1.57,4.38Z"/>
  <path class="cls-1" d="m290.01,102.81c0,1.8-.56,3.25-1.68,4.38-1.12,1.12-2.58,1.68-4.38,1.68-1.95,0-3.44-.56-4.49-1.68-1.05-1.12-1.57-2.58-1.57-4.38,0-1.94.56-3.44,1.68-4.49,1.12-1.04,2.58-1.57,4.38-1.57,1.94,0,3.44.56,4.49,1.68,1.05,1.12,1.57,2.58,1.57,4.38Z"/>
  <path class="cls-1" d="m290.01,114.93c0,3.89-1.95,5.84-5.84,5.84-4.19,0-6.29-1.94-6.29-5.84,0-1.8.52-3.25,1.57-4.38,1.05-1.12,2.47-1.68,4.27-1.68,4.19,0,6.28,1.95,6.28,5.84v.22Z"/>
  <path class="cls-1" d="m283.95,132.88c-1.95,0-3.44-.56-4.49-1.68-1.05-1.12-1.57-2.58-1.57-4.38,0-1.94.56-3.44,1.68-4.49,1.12-1.04,2.58-1.57,4.38-1.57,1.94,0,3.44.56,4.49,1.68,1.05,1.12,1.57,2.58,1.57,4.38s-.56,3.25-1.68,4.38c-1.12,1.12-2.58,1.68-4.38,1.68Z"/>
  <path class="cls-1" d="m296.07,60.38c-1.95,0-3.44-.56-4.49-1.68-1.05-1.12-1.57-2.58-1.57-4.38,0-1.94.56-3.44,1.68-4.49,1.12-1.05,2.58-1.57,4.38-1.57,1.94,0,3.44.56,4.49,1.68,1.04,1.12,1.57,2.58,1.57,4.38s-.56,3.25-1.68,4.38c-1.12,1.12-2.58,1.68-4.38,1.68Z"/>
  <path class="cls-1" d="m290.01,66.44c0-1.94.56-3.44,1.68-4.49,1.12-1.05,2.58-1.57,4.38-1.57,1.94,0,3.44.56,4.49,1.68,1.04,1.12,1.57,2.58,1.57,4.38s-.56,3.25-1.68,4.38-2.58,1.68-4.38,1.68c-1.95,0-3.44-.56-4.49-1.68-1.05-1.12-1.57-2.58-1.57-4.38Z"/>
  <path class="cls-1" d="m302.13,78.56c0,1.8-.56,3.25-1.68,4.38s-2.58,1.68-4.38,1.68c-1.95,0-3.44-.56-4.49-1.68-1.05-1.12-1.57-2.58-1.57-4.38,0-1.94.56-3.44,1.68-4.49,1.12-1.04,2.58-1.57,4.38-1.57,1.94,0,3.44.56,4.49,1.68,1.04,1.12,1.57,2.58,1.57,4.38Z"/>
  <path class="cls-1" d="m302.13,90.68c0,1.8-.56,3.25-1.68,4.38-1.12,1.12-2.58,1.68-4.38,1.68-1.95,0-3.44-.56-4.49-1.68-1.05-1.12-1.57-2.58-1.57-4.38,0-1.94.56-3.44,1.68-4.49,1.12-1.04,2.58-1.57,4.38-1.57,1.94,0,3.44.56,4.49,1.68,1.04,1.12,1.57,2.58,1.57,4.38Z"/>
  <path class="cls-1" d="m302.13,102.81c0,1.8-.56,3.25-1.68,4.38-1.12,1.12-2.58,1.68-4.38,1.68-1.95,0-3.44-.56-4.49-1.68-1.05-1.12-1.57-2.58-1.57-4.38,0-1.94.56-3.44,1.68-4.49,1.12-1.04,2.58-1.57,4.38-1.57,1.94,0,3.44.56,4.49,1.68,1.04,1.12,1.57,2.58,1.57,4.38Z"/>
  <path class="cls-1" d="m302.13,114.93c0,3.89-1.95,5.84-5.84,5.84-4.19,0-6.29-1.94-6.29-5.84,0-1.8.52-3.25,1.57-4.38,1.05-1.12,2.47-1.68,4.27-1.68,4.19,0,6.29,1.95,6.29,5.84v.22Z"/>
  <path class="cls-1" d="m290.01,126.82c0-1.94.56-3.44,1.68-4.49,1.12-1.04,2.58-1.57,4.38-1.57,1.94,0,3.44.56,4.49,1.68,1.04,1.12,1.57,2.58,1.57,4.38s-.56,3.25-1.68,4.38c-1.12,1.12-2.58,1.68-4.38,1.68-1.95,0-3.44-.56-4.49-1.68-1.05-1.12-1.57-2.58-1.57-4.38Z"/>
  <path class="cls-1" d="m296.07,145.01c-1.95,0-3.44-.56-4.49-1.68-1.05-1.12-1.57-2.58-1.57-4.38,0-1.94.56-3.44,1.68-4.49,1.12-1.04,2.58-1.57,4.38-1.57,1.94,0,3.44.56,4.49,1.68,1.04,1.12,1.57,2.58,1.57,4.38s-.56,3.25-1.68,4.38c-1.12,1.12-2.58,1.68-4.38,1.68Z"/>
  <path class="cls-1" d="m314.25,42.42c0,3.89-1.95,5.84-5.84,5.84-4.19,0-6.28-1.94-6.28-5.84,0-1.8.52-3.25,1.57-4.38,1.04-1.12,2.47-1.68,4.26-1.68,4.19,0,6.29,1.95,6.29,5.84v.22Z"/>
  <path class="cls-1" d="m302.13,54.32c0-1.94.56-3.44,1.68-4.49,1.12-1.05,2.58-1.57,4.38-1.57,1.94,0,3.44.56,4.49,1.68,1.04,1.12,1.57,2.58,1.57,4.38,0,3.44-1.57,5.39-4.71,5.84,3.14.75,4.71,2.77,4.71,6.06,0,1.8-.56,3.25-1.68,4.38-1.12,1.12-2.58,1.68-4.38,1.68-1.95,0-3.44-.56-4.49-1.68-1.05-1.12-1.57-2.58-1.57-4.38,0-3.29,1.57-5.31,4.71-6.06-3.14-.45-4.71-2.39-4.71-5.84Z"/>
  <path class="cls-1" d="m302.13,126.82c0-1.94.56-3.44,1.68-4.49,1.12-1.04,2.58-1.57,4.38-1.57s3.25.56,4.38,1.68c1.12,1.12,1.68,2.58,1.68,4.38,0,1.95-.56,3.44-1.68,4.49-1.12,1.05-2.58,1.57-4.38,1.57-1.95,0-3.44-.56-4.49-1.68-1.05-1.12-1.57-2.58-1.57-4.38Z"/>
  <path class="cls-1" d="m302.13,138.95c0-1.94.56-3.44,1.68-4.49,1.12-1.04,2.58-1.57,4.38-1.57,1.94,0,3.44.56,4.49,1.68,1.04,1.12,1.57,2.58,1.57,4.38s-.56,3.25-1.68,4.38c-1.12,1.12-2.58,1.68-4.38,1.68-1.95,0-3.44-.56-4.49-1.68-1.05-1.12-1.57-2.58-1.57-4.38Z"/>
  <path class="cls-1" d="m302.13,151.07c0-1.8.56-3.25,1.68-4.38s2.58-1.68,4.38-1.68c1.94,0,3.44.56,4.49,1.68,1.04,1.12,1.57,2.58,1.57,4.38,0,1.95-.56,3.44-1.68,4.49-1.12,1.05-2.58,1.57-4.38,1.57-1.95,0-3.44-.56-4.49-1.68-1.05-1.12-1.57-2.58-1.57-4.38Z"/>
  <path class="cls-1" d="m314.25,42.42c0-1.8.52-3.25,1.57-4.38,1.04-1.12,2.47-1.68,4.26-1.68,4.19,0,6.29,1.95,6.29,5.84v.22c0,3.89-1.95,5.84-5.84,5.84-4.19,0-6.29-1.94-6.29-5.84Z"/>
  <path class="cls-1" d="m314.25,54.32c0-1.8.52-3.25,1.57-4.38,1.04-1.12,2.47-1.68,4.26-1.68,4.19,0,6.29,1.95,6.29,5.84v.22c0,3.89-1.95,5.84-5.84,5.84-4.19,0-6.29-1.94-6.29-5.84Z"/>
  <path class="cls-1" d="m314.25,138.95c0-1.94.56-3.44,1.68-4.49,1.12-1.04,2.58-1.57,4.38-1.57s3.25.56,4.38,1.68,1.68,2.58,1.68,4.38c0,1.95-.56,3.44-1.68,4.49-1.12,1.05-2.58,1.57-4.38,1.57-1.95,0-3.44-.56-4.49-1.68-1.05-1.12-1.57-2.58-1.57-4.38Z"/>
  <path class="cls-1" d="m314.25,151.07c0-1.8.56-3.25,1.68-4.38,1.12-1.12,2.58-1.68,4.38-1.68,1.94,0,3.44.56,4.49,1.68,1.05,1.12,1.57,2.58,1.57,4.38,0,1.95-.56,3.44-1.68,4.49-1.12,1.05-2.58,1.57-4.38,1.57-1.95,0-3.44-.56-4.49-1.68-1.05-1.12-1.57-2.58-1.57-4.38Z"/>
  <path class="cls-1" d="m326.37,42.42c0-1.8.52-3.25,1.57-4.38,1.05-1.12,2.47-1.68,4.26-1.68,4.19,0,6.29,1.95,6.29,5.84v.22c0,3.89-1.95,5.84-5.84,5.84-4.19,0-6.29-1.94-6.29-5.84Z"/>
  <path class="cls-1" d="m326.37,54.32c0-1.8.52-3.25,1.57-4.38,1.05-1.12,2.47-1.68,4.26-1.68,4.19,0,6.29,1.95,6.29,5.84v.22c0,3.89-1.95,5.84-5.84,5.84-4.19,0-6.29-1.94-6.29-5.84Z"/>
  <path class="cls-1" d="m332.43,132.88c1.8,0,3.25.56,4.38,1.68s1.68,2.58,1.68,4.38c0,1.95-.56,3.44-1.68,4.49-1.12,1.05-2.58,1.57-4.38,1.57-1.95,0-3.44-.56-4.49-1.68-1.05-1.12-1.57-2.58-1.57-4.38,0-1.94.56-3.44,1.68-4.49,1.12-1.04,2.58-1.57,4.38-1.57Z"/>
  <path class="cls-1" d="m338.49,151.07c0,1.95-.56,3.44-1.68,4.49-1.12,1.05-2.58,1.57-4.38,1.57-1.95,0-3.44-.56-4.49-1.68-1.05-1.12-1.57-2.58-1.57-4.38s.56-3.25,1.68-4.38c1.12-1.12,2.58-1.68,4.38-1.68,1.94,0,3.44.56,4.49,1.68,1.05,1.12,1.57,2.58,1.57,4.38Z"/>
  <path class="cls-1" d="m350.61,42.42c0,3.89-1.95,5.84-5.84,5.84-4.19,0-6.29-1.94-6.29-5.84,0-1.8.52-3.25,1.57-4.38,1.05-1.12,2.47-1.68,4.27-1.68,4.19,0,6.29,1.95,6.29,5.84v.22Z"/>
  <path class="cls-1" d="m338.49,54.32c0-1.94.56-3.44,1.68-4.49,1.12-1.05,2.58-1.57,4.38-1.57,1.94,0,3.44.56,4.49,1.68,1.04,1.12,1.57,2.58,1.57,4.38,0,3.29-1.57,5.31-4.71,6.06,3.14.45,4.71,2.4,4.71,5.84,0,1.95-.56,3.44-1.68,4.49-1.12,1.05-2.58,1.57-4.38,1.57s-3.25-.56-4.38-1.68c-1.12-1.12-1.68-2.58-1.68-4.38,0-3.29,1.57-5.31,4.71-6.06-3.14-.45-4.71-2.39-4.71-5.84Z"/>
  <path class="cls-1" d="m338.49,126.82c0-1.8.56-3.25,1.68-4.38,1.12-1.12,2.58-1.68,4.38-1.68,1.94,0,3.44.56,4.49,1.68,1.04,1.12,1.57,2.58,1.57,4.38,0,1.95-.56,3.44-1.68,4.49-1.12,1.05-2.58,1.57-4.38,1.57-1.95,0-3.44-.56-4.49-1.68-1.05-1.12-1.57-2.58-1.57-4.38Z"/>
  <path class="cls-1" d="m344.55,145.01c-1.8,0-3.25-.56-4.38-1.68-1.12-1.12-1.68-2.58-1.68-4.38,0-1.94.56-3.44,1.68-4.49,1.12-1.04,2.58-1.57,4.38-1.57,1.94,0,3.44.56,4.49,1.68,1.04,1.12,1.57,2.58,1.57,4.38,0,1.95-.56,3.44-1.68,4.49-1.12,1.05-2.58,1.57-4.38,1.57Z"/>
  <path class="cls-1" d="m344.55,157.13c-1.95,0-3.44-.56-4.49-1.68-1.05-1.12-1.57-2.58-1.57-4.38s.56-3.25,1.68-4.38,2.58-1.68,4.38-1.68c1.94,0,3.44.56,4.49,1.68,1.04,1.12,1.57,2.58,1.57,4.38,0,1.95-.56,3.44-1.68,4.49-1.12,1.05-2.58,1.57-4.38,1.57Z"/>
  <path class="cls-1" d="m362.73,54.32c0,1.8-.56,3.25-1.68,4.38-1.12,1.12-2.58,1.68-4.38,1.68-1.95,0-3.44-.56-4.49-1.68-1.05-1.12-1.57-2.58-1.57-4.38,0-1.94.56-3.44,1.68-4.49,1.12-1.05,2.58-1.57,4.38-1.57,1.94,0,3.44.56,4.49,1.68,1.04,1.12,1.57,2.58,1.57,4.38Z"/>
  <path class="cls-1" d="m356.67,72.5c-1.8,0-3.25-.56-4.38-1.68s-1.68-2.58-1.68-4.38c0-1.94.56-3.44,1.68-4.49,1.12-1.05,2.58-1.57,4.38-1.57,1.94,0,3.44.56,4.49,1.68,1.04,1.12,1.57,2.58,1.57,4.38,0,1.95-.56,3.44-1.68,4.49-1.12,1.05-2.58,1.57-4.38,1.57Z"/>
  <path class="cls-1" d="m356.67,84.62c-1.8,0-3.25-.56-4.38-1.68s-1.68-2.58-1.68-4.38c0-1.94.56-3.44,1.68-4.49,1.12-1.04,2.58-1.57,4.38-1.57,1.94,0,3.44.56,4.49,1.68,1.04,1.12,1.57,2.58,1.57,4.38,0,1.95-.56,3.44-1.68,4.49-1.12,1.05-2.58,1.57-4.38,1.57Z"/>
  <path class="cls-1" d="m356.67,96.75c-1.8,0-3.25-.56-4.38-1.68-1.12-1.12-1.68-2.58-1.68-4.38,0-1.94.56-3.44,1.68-4.49,1.12-1.04,2.58-1.57,4.38-1.57,1.94,0,3.44.56,4.49,1.68,1.04,1.12,1.57,2.58,1.57,4.38,0,1.95-.56,3.44-1.68,4.49-1.12,1.05-2.58,1.57-4.38,1.57Z"/>
  <path class="cls-1" d="m356.67,108.87c-1.8,0-3.25-.56-4.38-1.68-1.12-1.12-1.68-2.58-1.68-4.38,0-1.94.56-3.44,1.68-4.49,1.12-1.04,2.58-1.57,4.38-1.57,1.94,0,3.44.56,4.49,1.68,1.04,1.12,1.57,2.58,1.57,4.38,0,1.95-.56,3.44-1.68,4.49-1.12,1.05-2.58,1.57-4.38,1.57Z"/>
  <path class="cls-1" d="m356.45,120.76c-3.89,0-5.84-1.94-5.84-5.84,0-1.8.52-3.25,1.57-4.38,1.05-1.12,2.47-1.68,4.27-1.68,4.19,0,6.29,1.95,6.29,5.84,0,1.8-.53,3.25-1.57,4.38-1.05,1.12-2.47,1.68-4.27,1.68h-.45Z"/>
  <path class="cls-1" d="m356.67,132.88c-1.8,0-3.25-.56-4.38-1.68-1.12-1.12-1.68-2.58-1.68-4.38,0-1.94.56-3.44,1.68-4.49,1.12-1.04,2.58-1.57,4.38-1.57,1.94,0,3.44.56,4.49,1.68,1.04,1.12,1.57,2.58,1.57,4.38,0,1.95-.56,3.44-1.68,4.49-1.12,1.05-2.58,1.57-4.38,1.57Z"/>
  <path class="cls-1" d="m362.73,138.95c0,1.8-.56,3.25-1.68,4.38-1.12,1.12-2.58,1.68-4.38,1.68-1.95,0-3.44-.56-4.49-1.68-1.05-1.12-1.57-2.58-1.57-4.38,0-1.94.56-3.44,1.68-4.49,1.12-1.04,2.58-1.57,4.38-1.57,1.94,0,3.44.56,4.49,1.68,1.04,1.12,1.57,2.58,1.57,4.38Z"/>
  <path class="cls-1" d="m374.85,66.44c0,1.8-.56,3.25-1.68,4.38-1.12,1.12-2.58,1.68-4.38,1.68-1.95,0-3.44-.56-4.49-1.68-1.05-1.12-1.57-2.58-1.57-4.38,0-1.94.56-3.44,1.68-4.49,1.12-1.05,2.58-1.57,4.38-1.57,1.94,0,3.44.56,4.49,1.68,1.05,1.12,1.57,2.58,1.57,4.38Z"/>
  <path class="cls-1" d="m362.73,78.56c0-1.8.56-3.25,1.68-4.38,1.12-1.12,2.58-1.68,4.38-1.68,1.94,0,3.44.56,4.49,1.68,1.05,1.12,1.57,2.58,1.57,4.38,0,1.95-.56,3.44-1.68,4.49-1.12,1.05-2.58,1.57-4.38,1.57-1.95,0-3.44-.56-4.49-1.68-1.05-1.12-1.57-2.58-1.57-4.38Z"/>
  <path class="cls-1" d="m362.73,90.68c0-1.8.56-3.25,1.68-4.38s2.58-1.68,4.38-1.68c1.94,0,3.44.56,4.49,1.68,1.05,1.12,1.57,2.58,1.57,4.38,0,1.95-.56,3.44-1.68,4.49-1.12,1.05-2.58,1.57-4.38,1.57-1.95,0-3.44-.56-4.49-1.68-1.05-1.12-1.57-2.58-1.57-4.38Z"/>
  <path class="cls-1" d="m362.73,102.81c0-1.8.56-3.25,1.68-4.38s2.58-1.68,4.38-1.68c1.94,0,3.44.56,4.49,1.68,1.05,1.12,1.57,2.58,1.57,4.38,0,1.95-.56,3.44-1.68,4.49-1.12,1.05-2.58,1.57-4.38,1.57-1.95,0-3.44-.56-4.49-1.68-1.05-1.12-1.57-2.58-1.57-4.38Z"/>
  <path class="cls-1" d="m362.73,114.7c0-3.89,1.94-5.84,5.84-5.84,4.19,0,6.29,1.95,6.29,5.84,0,1.8-.53,3.25-1.57,4.38-1.05,1.12-2.47,1.68-4.26,1.68-4.19,0-6.29-1.94-6.29-5.84v-.22Z"/>
  <path class="cls-1" d="m374.85,126.82c0,1.8-.56,3.25-1.68,4.38s-2.58,1.68-4.38,1.68c-1.95,0-3.44-.56-4.49-1.68-1.05-1.12-1.57-2.58-1.57-4.38,0-1.94.56-3.44,1.68-4.49,1.12-1.04,2.58-1.57,4.38-1.57,1.94,0,3.44.56,4.49,1.68,1.05,1.12,1.57,2.58,1.57,4.38Z"/>
  <path class="cls-1" d="m393.03,48.26c-1.95,0-3.44-.56-4.49-1.68-1.05-1.12-1.57-2.58-1.57-4.38,0-1.94.56-3.44,1.68-4.49,1.12-1.04,2.58-1.57,4.38-1.57,1.94,0,3.44.56,4.49,1.68,1.05,1.12,1.57,2.58,1.57,4.38s-.56,3.25-1.68,4.38c-1.12,1.12-2.58,1.68-4.38,1.68Z"/>
  <path class="cls-1" d="m399.09,54.32c0,1.8-.56,3.25-1.68,4.38-1.12,1.12-2.58,1.68-4.38,1.68-1.95,0-3.44-.56-4.49-1.68-1.05-1.12-1.57-2.58-1.57-4.38,0-1.94.56-3.44,1.68-4.49,1.12-1.05,2.58-1.57,4.38-1.57,1.94,0,3.44.56,4.49,1.68,1.05,1.12,1.57,2.58,1.57,4.38Z"/>
  <path class="cls-1" d="m393.03,72.5c-1.95,0-3.44-.56-4.49-1.68-1.05-1.12-1.57-2.58-1.57-4.38,0-1.94.56-3.44,1.68-4.49,1.12-1.05,2.58-1.57,4.38-1.57,1.94,0,3.44.56,4.49,1.68,1.05,1.12,1.57,2.58,1.57,4.38s-.56,3.25-1.68,4.38-2.58,1.68-4.38,1.68Z"/>
  <path class="cls-1" d="m393.03,84.62c-1.95,0-3.44-.56-4.49-1.68-1.05-1.12-1.57-2.58-1.57-4.38,0-1.94.56-3.44,1.68-4.49,1.12-1.04,2.58-1.57,4.38-1.57,1.94,0,3.44.56,4.49,1.68,1.05,1.12,1.57,2.58,1.57,4.38s-.56,3.25-1.68,4.38-2.58,1.68-4.38,1.68Z"/>
  <path class="cls-1" d="m393.03,96.75c-1.95,0-3.44-.56-4.49-1.68-1.05-1.12-1.57-2.58-1.57-4.38,0-1.94.56-3.44,1.68-4.49,1.12-1.04,2.58-1.57,4.38-1.57,1.94,0,3.44.56,4.49,1.68,1.05,1.12,1.57,2.58,1.57,4.38s-.56,3.25-1.68,4.38c-1.12,1.12-2.58,1.68-4.38,1.68Z"/>
  <path class="cls-1" d="m393.03,108.87c-1.95,0-3.44-.56-4.49-1.68-1.05-1.12-1.57-2.58-1.57-4.38,0-1.94.56-3.44,1.68-4.49,1.12-1.04,2.58-1.57,4.38-1.57,1.94,0,3.44.56,4.49,1.68,1.05,1.12,1.57,2.58,1.57,4.38s-.56,3.25-1.68,4.38c-1.12,1.12-2.58,1.68-4.38,1.68Z"/>
  <path class="cls-1" d="m399.09,114.93c0,3.89-1.95,5.84-5.84,5.84-4.19,0-6.29-1.94-6.29-5.84,0-1.8.52-3.25,1.57-4.38,1.05-1.12,2.47-1.68,4.27-1.68,4.19,0,6.28,1.95,6.28,5.84v.22Z"/>
  <path class="cls-1" d="m393.03,132.88c-1.95,0-3.44-.56-4.49-1.68-1.05-1.12-1.57-2.58-1.57-4.38,0-1.94.56-3.44,1.68-4.49,1.12-1.04,2.58-1.57,4.38-1.57,1.94,0,3.44.56,4.49,1.68,1.05,1.12,1.57,2.58,1.57,4.38s-.56,3.25-1.68,4.38c-1.12,1.12-2.58,1.68-4.38,1.68Z"/>
  <path class="cls-1" d="m399.09,42.2c0-1.94.56-3.44,1.68-4.49,1.12-1.04,2.58-1.57,4.38-1.57,1.94,0,3.44.56,4.49,1.68,1.04,1.12,1.57,2.58,1.57,4.38s-.56,3.25-1.68,4.38c-1.12,1.12-2.58,1.68-4.38,1.68-1.95,0-3.44-.56-4.49-1.68-1.05-1.12-1.57-2.58-1.57-4.38Z"/>
  <path class="cls-1" d="m411.22,54.32c0,1.8-.56,3.25-1.68,4.38-1.12,1.12-2.58,1.68-4.38,1.68-1.95,0-3.44-.56-4.49-1.68-1.05-1.12-1.57-2.58-1.57-4.38,0-1.94.56-3.44,1.68-4.49,1.12-1.05,2.58-1.57,4.38-1.57,1.94,0,3.44.56,4.49,1.68,1.04,1.12,1.57,2.58,1.57,4.38Z"/>
  <path class="cls-1" d="m399.09,66.44c0-1.94.56-3.44,1.68-4.49,1.12-1.05,2.58-1.57,4.38-1.57,1.94,0,3.44.56,4.49,1.68,1.04,1.12,1.57,2.58,1.57,4.38s-.56,3.25-1.68,4.38-2.58,1.68-4.38,1.68c-1.95,0-3.44-.56-4.49-1.68-1.05-1.12-1.57-2.58-1.57-4.38Z"/>
  <path class="cls-1" d="m399.09,78.56c0-1.94.56-3.44,1.68-4.49,1.12-1.04,2.58-1.57,4.38-1.57,1.94,0,3.44.56,4.49,1.68,1.04,1.12,1.57,2.58,1.57,4.38s-.56,3.25-1.68,4.38-2.58,1.68-4.38,1.68c-1.95,0-3.44-.56-4.49-1.68-1.05-1.12-1.57-2.58-1.57-4.38Z"/>
  <path class="cls-1" d="m399.09,90.68c0-1.94.56-3.44,1.68-4.49,1.12-1.04,2.58-1.57,4.38-1.57,1.94,0,3.44.56,4.49,1.68,1.04,1.12,1.57,2.58,1.57,4.38s-.56,3.25-1.68,4.38c-1.12,1.12-2.58,1.68-4.38,1.68-1.95,0-3.44-.56-4.49-1.68-1.05-1.12-1.57-2.58-1.57-4.38Z"/>
  <path class="cls-1" d="m399.09,102.81c0-1.94.56-3.44,1.68-4.49,1.12-1.04,2.58-1.57,4.38-1.57,1.94,0,3.44.56,4.49,1.68,1.04,1.12,1.57,2.58,1.57,4.38s-.56,3.25-1.68,4.38c-1.12,1.12-2.58,1.68-4.38,1.68-1.95,0-3.44-.56-4.49-1.68-1.05-1.12-1.57-2.58-1.57-4.38Z"/>
  <path class="cls-1" d="m411.22,114.93c0,3.89-1.95,5.84-5.84,5.84-4.19,0-6.29-1.94-6.29-5.84,0-1.8.52-3.25,1.57-4.38,1.05-1.12,2.47-1.68,4.27-1.68,4.19,0,6.29,1.95,6.29,5.84v.22Z"/>
  <path class="cls-1" d="m399.09,126.82c0-1.94.56-3.44,1.68-4.49,1.12-1.04,2.58-1.57,4.38-1.57,1.94,0,3.44.56,4.49,1.68,1.04,1.12,1.57,2.58,1.57,4.38s-.56,3.25-1.68,4.38c-1.12,1.12-2.58,1.68-4.38,1.68-1.95,0-3.44-.56-4.49-1.68-1.05-1.12-1.57-2.58-1.57-4.38Z"/>
  <path class="cls-1" d="m411.22,138.95c0,1.8-.56,3.25-1.68,4.38-1.12,1.12-2.58,1.68-4.38,1.68-1.95,0-3.44-.56-4.49-1.68-1.05-1.12-1.57-2.58-1.57-4.38,0-1.94.56-3.44,1.68-4.49,1.12-1.04,2.58-1.57,4.38-1.57,1.94,0,3.44.56,4.49,1.68,1.04,1.12,1.57,2.58,1.57,4.38Z"/>
  <path class="cls-1" d="m411.22,126.82c0-1.94.56-3.44,1.68-4.49,1.12-1.04,2.58-1.57,4.38-1.57,1.94,0,3.44.56,4.49,1.68,1.04,1.12,1.57,2.58,1.57,4.38s-.56,3.25-1.68,4.38c-1.12,1.12-2.58,1.68-4.38,1.68-1.95,0-3.44-.56-4.49-1.68-1.05-1.12-1.57-2.58-1.57-4.38Z"/>
  <path class="cls-1" d="m423.34,138.95c0,1.8-.56,3.25-1.68,4.38-1.12,1.12-2.58,1.68-4.38,1.68-1.95,0-3.44-.56-4.49-1.68-1.05-1.12-1.57-2.58-1.57-4.38,0-1.94.56-3.44,1.68-4.49,1.12-1.04,2.58-1.57,4.38-1.57,1.94,0,3.44.56,4.49,1.68,1.04,1.12,1.57,2.58,1.57,4.38Z"/>
  <path class="cls-1" d="m411.22,151.07c0-1.8.56-3.25,1.68-4.38s2.58-1.68,4.38-1.68c1.94,0,3.44.56,4.49,1.68,1.04,1.12,1.57,2.58,1.57,4.38,0,1.95-.56,3.44-1.68,4.49-1.12,1.05-2.58,1.57-4.38,1.57-1.95,0-3.44-.56-4.49-1.68-1.05-1.12-1.57-2.58-1.57-4.38Z"/>
  <path class="cls-1" d="m423.34,138.95c0-1.8.56-3.25,1.68-4.38s2.58-1.68,4.38-1.68c1.94,0,3.44.56,4.49,1.68,1.05,1.12,1.57,2.58,1.57,4.38,0,1.95-.56,3.44-1.68,4.49-1.12,1.05-2.58,1.57-4.38,1.57-1.95,0-3.44-.56-4.49-1.68-1.05-1.12-1.57-2.58-1.57-4.38Z"/>
  <path class="cls-1" d="m423.34,151.07c0-1.8.56-3.25,1.68-4.38,1.12-1.12,2.58-1.68,4.38-1.68,1.94,0,3.44.56,4.49,1.68,1.05,1.12,1.57,2.58,1.57,4.38,0,1.95-.56,3.44-1.68,4.49-1.12,1.05-2.58,1.57-4.38,1.57-1.95,0-3.44-.56-4.49-1.68-1.05-1.12-1.57-2.58-1.57-4.38Z"/>
  <path class="cls-1" d="m435.46,138.95c0-1.8.56-3.25,1.68-4.38s2.58-1.68,4.38-1.68c1.94,0,3.44.56,4.49,1.68,1.05,1.12,1.57,2.58,1.57,4.38,0,1.95-.56,3.44-1.68,4.49-1.12,1.05-2.58,1.57-4.38,1.57-1.95,0-3.44-.56-4.49-1.68-1.05-1.12-1.57-2.58-1.57-4.38Z"/>
  <path class="cls-1" d="m435.46,151.07c0-1.8.56-3.25,1.68-4.38,1.12-1.12,2.58-1.68,4.38-1.68,1.94,0,3.44.56,4.49,1.68,1.05,1.12,1.57,2.58,1.57,4.38,0,1.95-.56,3.44-1.68,4.49-1.12,1.05-2.58,1.57-4.38,1.57-1.95,0-3.44-.56-4.49-1.68-1.05-1.12-1.57-2.58-1.57-4.38Z"/>
  <path class="cls-1" d="m459.7,126.82c0,1.8-.56,3.25-1.68,4.38-1.12,1.12-2.58,1.68-4.38,1.68-1.95,0-3.44-.56-4.49-1.68-1.05-1.12-1.57-2.58-1.57-4.38,0-1.94.56-3.44,1.68-4.49,1.12-1.04,2.58-1.57,4.38-1.57,1.94,0,3.44.56,4.49,1.68,1.04,1.12,1.57,2.58,1.57,4.38Z"/>
  <path class="cls-1" d="m459.7,138.95c0,1.8-.56,3.25-1.68,4.38-1.12,1.12-2.58,1.68-4.38,1.68-1.95,0-3.44-.56-4.49-1.68-1.05-1.12-1.57-2.58-1.57-4.38,0-1.94.56-3.44,1.68-4.49,1.12-1.04,2.58-1.57,4.38-1.57,1.94,0,3.44.56,4.49,1.68,1.04,1.12,1.57,2.58,1.57,4.38Z"/>
  <path class="cls-1" d="m459.25,151.07c0-1.8.56-3.25,1.68-4.38,1.12-1.12,2.58-1.68,4.38-1.68,2.09,0,3.67.56,4.71,1.68,1.05,1.12,1.57,2.58,1.57,4.38,0,1.95-.56,3.44-1.68,4.49-1.12,1.05-2.58,1.57-4.38,1.57-2.1,0-3.67-.56-4.71-1.68-1.05-1.12-1.57-2.58-1.57-4.38Z"/>
  <path class="cls-1" d="m459.7,41.98c0-3.89,1.94-5.84,5.84-5.84,1.8,0,3.25.53,4.38,1.57,1.12,1.05,1.68,2.47,1.68,4.27,0,4.19-1.95,6.29-5.84,6.29-1.8,0-3.25-.52-4.38-1.57-1.12-1.05-1.68-2.47-1.68-4.27v-.45Z"/>
  <path class="cls-1" d="m459.7,54.1c0-3.89,1.94-5.84,5.84-5.84,1.8,0,3.25.53,4.38,1.57,1.12,1.05,1.68,2.47,1.68,4.26,0,4.19-1.95,6.29-5.84,6.29-1.8,0-3.25-.52-4.38-1.57-1.12-1.05-1.68-2.47-1.68-4.27v-.45Z"/>
  <path class="cls-1" d="m459.7,66.22c0-3.89,1.94-5.84,5.84-5.84,1.8,0,3.25.53,4.38,1.57,1.12,1.05,1.68,2.47,1.68,4.26,0,4.19-1.95,6.29-5.84,6.29-1.8,0-3.25-.52-4.38-1.57-1.12-1.04-1.68-2.47-1.68-4.26v-.45Z"/>
  <path class="cls-1" d="m459.7,78.34c0-3.89,1.94-5.84,5.84-5.84,1.8,0,3.25.53,4.38,1.57,1.12,1.05,1.68,2.47,1.68,4.26,0,4.19-1.95,6.29-5.84,6.29-1.8,0-3.25-.52-4.38-1.57-1.12-1.04-1.68-2.47-1.68-4.26v-.45Z"/>
  <path class="cls-1" d="m459.7,90.46c0-3.89,1.94-5.84,5.84-5.84,1.8,0,3.25.53,4.38,1.57,1.12,1.05,1.68,2.47,1.68,4.27,0,4.19-1.95,6.29-5.84,6.29-1.8,0-3.25-.52-4.38-1.57-1.12-1.05-1.68-2.47-1.68-4.27v-.45Z"/>
  <path class="cls-1" d="m459.7,102.58c0-3.89,1.94-5.84,5.84-5.84,1.8,0,3.25.53,4.38,1.57,1.12,1.05,1.68,2.47,1.68,4.27,0,4.19-1.95,6.29-5.84,6.29-1.8,0-3.25-.52-4.38-1.57-1.12-1.05-1.68-2.47-1.68-4.27v-.45Z"/>
  <path class="cls-1" d="m459.7,114.7c0-3.89,1.94-5.84,5.84-5.84s6.06,1.95,6.06,5.84c0,1.8-.53,3.25-1.57,4.38-1.05,1.12-2.47,1.68-4.26,1.68s-3.25-.52-4.38-1.57c-1.12-1.04-1.68-2.47-1.68-4.26v-.22Z"/>
  <path class="cls-1" d="m459.7,126.6c0-3.89,1.94-5.84,5.84-5.84,1.8,0,3.25.53,4.38,1.57,1.12,1.05,1.68,2.47,1.68,4.27,0,4.19-1.95,6.29-5.84,6.29-1.8,0-3.25-.52-4.38-1.57-1.12-1.05-1.68-2.47-1.68-4.27v-.45Z"/>
  <path class="cls-1" d="m459.7,138.72c0-3.89,1.94-5.84,5.84-5.84,1.8,0,3.25.53,4.38,1.57,1.12,1.05,1.68,2.47,1.68,4.27,0,4.19-1.95,6.29-5.84,6.29-1.8,0-3.25-.52-4.38-1.57-1.12-1.05-1.68-2.47-1.68-4.27v-.45Z"/>
  <path class="cls-1" d="m471.6,41.98c0-3.89,1.94-5.84,5.84-5.84,1.8,0,3.25.53,4.38,1.57,1.12,1.05,1.68,2.47,1.68,4.27,0,4.19-1.95,6.29-5.84,6.29-1.8,0-3.25-.52-4.38-1.57-1.12-1.05-1.68-2.47-1.68-4.27v-.45Z"/>
  <path class="cls-1" d="m471.6,54.1c0-3.89,1.94-5.84,5.84-5.84,1.8,0,3.25.53,4.38,1.57,1.12,1.05,1.68,2.47,1.68,4.26,0,4.19-1.95,6.29-5.84,6.29-1.8,0-3.25-.52-4.38-1.57-1.12-1.05-1.68-2.47-1.68-4.27v-.45Z"/>
  <path class="cls-1" d="m471.6,66.22c0-3.89,1.94-5.84,5.84-5.84,1.8,0,3.25.53,4.38,1.57,1.12,1.05,1.68,2.47,1.68,4.26,0,4.19-1.95,6.29-5.84,6.29-1.8,0-3.25-.52-4.38-1.57-1.12-1.04-1.68-2.47-1.68-4.26v-.45Z"/>
  <path class="cls-1" d="m471.6,78.34c0-3.89,1.94-5.84,5.84-5.84,1.8,0,3.25.53,4.38,1.57,1.12,1.05,1.68,2.47,1.68,4.26,0,4.19-1.95,6.29-5.84,6.29-1.8,0-3.25-.52-4.38-1.57-1.12-1.04-1.68-2.47-1.68-4.26v-.45Z"/>
  <path class="cls-1" d="m471.6,90.46c0-3.89,1.94-5.84,5.84-5.84,1.8,0,3.25.53,4.38,1.57,1.12,1.05,1.68,2.47,1.68,4.27,0,4.19-1.95,6.29-5.84,6.29-1.8,0-3.25-.52-4.38-1.57-1.12-1.05-1.68-2.47-1.68-4.27v-.45Z"/>
  <path class="cls-1" d="m471.6,102.58c0-3.89,1.94-5.84,5.84-5.84,1.8,0,3.25.53,4.38,1.57,1.12,1.05,1.68,2.47,1.68,4.27,0,4.19-1.95,6.29-5.84,6.29-1.8,0-3.25-.52-4.38-1.57-1.12-1.05-1.68-2.47-1.68-4.27v-.45Z"/>
  <path class="cls-1" d="m471.6,114.7c0-3.89,1.94-5.84,5.84-5.84s6.06,1.95,6.06,5.84c0,1.8-.53,3.25-1.57,4.38-1.05,1.12-2.47,1.68-4.27,1.68s-3.25-.52-4.38-1.57c-1.12-1.04-1.68-2.47-1.68-4.26v-.22Z"/>
  <path class="cls-1" d="m471.6,126.6c0-3.89,1.94-5.84,5.84-5.84,1.8,0,3.25.53,4.38,1.57,1.12,1.05,1.68,2.47,1.68,4.27,0,4.19-1.95,6.29-5.84,6.29-1.8,0-3.25-.52-4.38-1.57-1.12-1.05-1.68-2.47-1.68-4.27v-.45Z"/>
  <path class="cls-1" d="m471.6,138.72c0-3.89,1.94-5.84,5.84-5.84,1.8,0,3.25.53,4.38,1.57,1.12,1.05,1.68,2.47,1.68,4.27,0,4.19-1.95,6.29-5.84,6.29-1.8,0-3.25-.52-4.38-1.57-1.12-1.05-1.68-2.47-1.68-4.27v-.45Z"/>
  <path class="cls-1" d="m471.6,150.84c0-3.89,1.94-5.84,5.84-5.84,1.8,0,3.25.53,4.38,1.57,1.12,1.05,1.68,2.47,1.68,4.26,0,4.19-1.95,6.29-5.84,6.29-1.8,0-3.25-.52-4.38-1.57-1.12-1.04-1.68-2.47-1.68-4.26v-.45Z"/>
  <path class="cls-1" d="m507.74,54.32c0,1.8-.56,3.25-1.68,4.38-1.12,1.12-2.58,1.68-4.38,1.68-1.95,0-3.44-.56-4.49-1.68-1.05-1.12-1.57-2.58-1.57-4.38,0-1.94.56-3.44,1.68-4.49,1.12-1.05,2.58-1.57,4.38-1.57,1.94,0,3.44.56,4.49,1.68,1.05,1.12,1.57,2.58,1.57,4.38Z"/>
  <path class="cls-1" d="m507.74,66.44c0,1.8-.56,3.25-1.68,4.38s-2.58,1.68-4.38,1.68c-1.95,0-3.44-.56-4.49-1.68-1.05-1.12-1.57-2.58-1.57-4.38,0-1.94.56-3.44,1.68-4.49,1.12-1.05,2.58-1.57,4.38-1.57,1.94,0,3.44.56,4.49,1.68,1.05,1.12,1.57,2.58,1.57,4.38Z"/>
  <path class="cls-1" d="m519.86,42.42c0,3.89-1.95,5.84-5.84,5.84-4.19,0-6.29-1.94-6.29-5.84,0-1.8.52-3.25,1.57-4.38,1.05-1.12,2.47-1.68,4.27-1.68,4.19,0,6.29,1.95,6.29,5.84v.22Z"/>
  <path class="cls-1" d="m519.86,54.32c0,1.8-.56,3.25-1.68,4.38-1.12,1.12-2.58,1.68-4.38,1.68-1.95,0-3.44-.56-4.49-1.68-1.05-1.12-1.57-2.58-1.57-4.38,0-1.94.56-3.44,1.68-4.49,1.12-1.05,2.58-1.57,4.38-1.57,1.94,0,3.44.56,4.49,1.68,1.04,1.12,1.57,2.58,1.57,4.38Z"/>
  <path class="cls-1" d="m519.86,66.44c0,1.8-.56,3.25-1.68,4.38s-2.58,1.68-4.38,1.68c-1.95,0-3.44-.56-4.49-1.68-1.05-1.12-1.57-2.58-1.57-4.38,0-1.94.56-3.44,1.68-4.49,1.12-1.05,2.58-1.57,4.38-1.57,1.94,0,3.44.56,4.49,1.68,1.04,1.12,1.57,2.58,1.57,4.38Z"/>
  <path class="cls-1" d="m531.98,18.18c0,1.8-.56,3.25-1.68,4.38s-2.58,1.68-4.38,1.68c-1.95,0-3.44-.56-4.49-1.68-1.05-1.12-1.57-2.58-1.57-4.38,0-1.94.56-3.44,1.68-4.49,1.12-1.05,2.58-1.57,4.38-1.57,1.94,0,3.44.56,4.49,1.68,1.04,1.12,1.57,2.58,1.57,4.38Z"/>
  <path class="cls-1" d="m531.98,30.3c0,1.8-.56,3.25-1.68,4.38-1.12,1.12-2.58,1.68-4.38,1.68-1.95,0-3.44-.56-4.49-1.68-1.05-1.12-1.57-2.58-1.57-4.38,0-1.94.56-3.44,1.68-4.49,1.12-1.05,2.58-1.57,4.38-1.57,1.94,0,3.44.56,4.49,1.68,1.04,1.12,1.57,2.58,1.57,4.38Z"/>
  <path class="cls-1" d="m531.98,42.42c0,3.89-1.95,5.84-5.84,5.84-4.19,0-6.28-1.94-6.28-5.84,0-1.8.52-3.25,1.57-4.38,1.04-1.12,2.47-1.68,4.26-1.68,4.19,0,6.29,1.95,6.29,5.84v.22Z"/>
  <path class="cls-1" d="m531.98,54.32c0,1.8-.56,3.25-1.68,4.38s-2.58,1.68-4.38,1.68c-1.95,0-3.44-.56-4.49-1.68-1.05-1.12-1.57-2.58-1.57-4.38,0-1.94.56-3.44,1.68-4.49,1.12-1.05,2.58-1.57,4.38-1.57,1.94,0,3.44.56,4.49,1.68,1.04,1.12,1.57,2.58,1.57,4.38Z"/>
  <path class="cls-1" d="m519.86,66.44c0-1.94.56-3.44,1.68-4.49,1.12-1.05,2.58-1.57,4.38-1.57,1.94,0,3.44.56,4.49,1.68,1.04,1.12,1.57,2.58,1.57,4.38s-.56,3.25-1.68,4.38c-1.12,1.12-2.58,1.68-4.38,1.68-1.95,0-3.44-.56-4.49-1.68-1.05-1.12-1.57-2.58-1.57-4.38Z"/>
  <path class="cls-1" d="m531.98,78.56c0,1.8-.56,3.25-1.68,4.38-1.12,1.12-2.58,1.68-4.38,1.68-1.95,0-3.44-.56-4.49-1.68-1.05-1.12-1.57-2.58-1.57-4.38,0-1.94.56-3.44,1.68-4.49,1.12-1.04,2.58-1.57,4.38-1.57,1.94,0,3.44.56,4.49,1.68,1.04,1.12,1.57,2.58,1.57,4.38Z"/>
  <path class="cls-1" d="m531.98,90.68c0,1.8-.56,3.25-1.68,4.38-1.12,1.12-2.58,1.68-4.38,1.68-1.95,0-3.44-.56-4.49-1.68-1.05-1.12-1.57-2.58-1.57-4.38,0-1.94.56-3.44,1.68-4.49,1.12-1.04,2.58-1.57,4.38-1.57,1.94,0,3.44.56,4.49,1.68,1.04,1.12,1.57,2.58,1.57,4.38Z"/>
  <path class="cls-1" d="m531.98,102.81c0,1.8-.56,3.25-1.68,4.38-1.12,1.12-2.58,1.68-4.38,1.68-1.95,0-3.44-.56-4.49-1.68-1.05-1.12-1.57-2.58-1.57-4.38,0-1.94.56-3.44,1.68-4.49,1.12-1.04,2.58-1.57,4.38-1.57,1.94,0,3.44.56,4.49,1.68,1.04,1.12,1.57,2.58,1.57,4.38Z"/>
  <path class="cls-1" d="m531.98,114.93c0,3.89-1.95,5.84-5.84,5.84-4.19,0-6.28-1.94-6.28-5.84,0-1.8.52-3.25,1.57-4.38,1.04-1.12,2.47-1.68,4.26-1.68,4.19,0,6.29,1.95,6.29,5.84v.22Z"/>
  <path class="cls-1" d="m531.98,126.82c0,1.8-.56,3.25-1.68,4.38-1.12,1.12-2.58,1.68-4.38,1.68-1.95,0-3.44-.56-4.49-1.68-1.05-1.12-1.57-2.58-1.57-4.38,0-1.94.56-3.44,1.68-4.49,1.12-1.04,2.58-1.57,4.38-1.57,1.94,0,3.44.56,4.49,1.68,1.04,1.12,1.57,2.58,1.57,4.38Z"/>
  <path class="cls-1" d="m531.98,138.95c0,1.8-.56,3.25-1.68,4.38-1.12,1.12-2.58,1.68-4.38,1.68-1.95,0-3.44-.56-4.49-1.68-1.05-1.12-1.57-2.58-1.57-4.38,0-1.94.56-3.44,1.68-4.49,1.12-1.04,2.58-1.57,4.38-1.57,1.94,0,3.44.56,4.49,1.68,1.04,1.12,1.57,2.58,1.57,4.38Z"/>
  <path class="cls-1" d="m544.1,18.18c0,1.8-.56,3.25-1.68,4.38-1.12,1.12-2.58,1.68-4.38,1.68-1.95,0-3.44-.56-4.49-1.68-1.05-1.12-1.57-2.58-1.57-4.38,0-1.94.56-3.44,1.68-4.49,1.12-1.05,2.58-1.57,4.38-1.57,1.94,0,3.44.56,4.49,1.68,1.05,1.12,1.57,2.58,1.57,4.38Z"/>
  <path class="cls-1" d="m544.1,30.3c0,1.8-.56,3.25-1.68,4.38-1.12,1.12-2.58,1.68-4.38,1.68-1.95,0-3.44-.56-4.49-1.68-1.05-1.12-1.57-2.58-1.57-4.38,0-1.94.56-3.44,1.68-4.49,1.12-1.05,2.58-1.57,4.38-1.57,1.94,0,3.44.56,4.49,1.68,1.05,1.12,1.57,2.58,1.57,4.38Z"/>
  <path class="cls-1" d="m538.04,60.38c-1.95,0-3.44-.56-4.49-1.68-1.05-1.12-1.57-2.58-1.57-4.38,0-1.94.56-3.44,1.68-4.49,1.12-1.05,2.58-1.57,4.38-1.57,1.94,0,3.44.56,4.49,1.68,1.05,1.12,1.57,2.58,1.57,4.38s-.56,3.25-1.68,4.38c-1.12,1.12-2.58,1.68-4.38,1.68Z"/>
  <path class="cls-1" d="m531.98,66.44c0-1.94.56-3.44,1.68-4.49,1.12-1.05,2.58-1.57,4.38-1.57,1.94,0,3.44.56,4.49,1.68,1.05,1.12,1.57,2.58,1.57,4.38s-.56,3.25-1.68,4.38c-1.12,1.12-2.58,1.68-4.38,1.68-1.95,0-3.44-.56-4.49-1.68-1.05-1.12-1.57-2.58-1.57-4.38Z"/>
  <path class="cls-1" d="m544.1,78.56c0,1.8-.56,3.25-1.68,4.38-1.12,1.12-2.58,1.68-4.38,1.68-1.95,0-3.44-.56-4.49-1.68-1.05-1.12-1.57-2.58-1.57-4.38,0-1.94.56-3.44,1.68-4.49,1.12-1.04,2.58-1.57,4.38-1.57,1.94,0,3.44.56,4.49,1.68,1.05,1.12,1.57,2.58,1.57,4.38Z"/>
  <path class="cls-1" d="m544.1,90.68c0,1.8-.56,3.25-1.68,4.38s-2.58,1.68-4.38,1.68c-1.95,0-3.44-.56-4.49-1.68-1.05-1.12-1.57-2.58-1.57-4.38,0-1.94.56-3.44,1.68-4.49,1.12-1.04,2.58-1.57,4.38-1.57,1.94,0,3.44.56,4.49,1.68,1.05,1.12,1.57,2.58,1.57,4.38Z"/>
  <path class="cls-1" d="m544.1,102.81c0,1.8-.56,3.25-1.68,4.38s-2.58,1.68-4.38,1.68c-1.95,0-3.44-.56-4.49-1.68-1.05-1.12-1.57-2.58-1.57-4.38,0-1.94.56-3.44,1.68-4.49,1.12-1.04,2.58-1.57,4.38-1.57,1.94,0,3.44.56,4.49,1.68,1.05,1.12,1.57,2.58,1.57,4.38Z"/>
  <path class="cls-1" d="m544.1,114.93c0,3.89-1.95,5.84-5.84,5.84-4.19,0-6.29-1.94-6.29-5.84,0-1.8.52-3.25,1.57-4.38,1.04-1.12,2.47-1.68,4.26-1.68,4.19,0,6.29,1.95,6.29,5.84v.22Z"/>
  <path class="cls-1" d="m544.1,126.82c0,1.8-.56,3.25-1.68,4.38s-2.58,1.68-4.38,1.68c-1.95,0-3.44-.56-4.49-1.68-1.05-1.12-1.57-2.58-1.57-4.38,0-1.94.56-3.44,1.68-4.49,1.12-1.04,2.58-1.57,4.38-1.57,1.94,0,3.44.56,4.49,1.68,1.05,1.12,1.57,2.58,1.57,4.38Z"/>
  <path class="cls-1" d="m544.1,138.95c0,1.8-.56,3.25-1.68,4.38s-2.58,1.68-4.38,1.68c-1.95,0-3.44-.56-4.49-1.68-1.05-1.12-1.57-2.58-1.57-4.38,0-1.94.56-3.44,1.68-4.49,1.12-1.04,2.58-1.57,4.38-1.57,1.94,0,3.44.56,4.49,1.68,1.05,1.12,1.57,2.58,1.57,4.38Z"/>
  <path class="cls-1" d="m531.98,151.07c0-1.8.56-3.25,1.68-4.38,1.12-1.12,2.58-1.68,4.38-1.68,1.94,0,3.44.56,4.49,1.68,1.05,1.12,1.57,2.58,1.57,4.38,0,1.95-.56,3.44-1.68,4.49-1.12,1.05-2.58,1.57-4.38,1.57-1.95,0-3.44-.56-4.49-1.68-1.05-1.12-1.57-2.58-1.57-4.38Z"/>
  <path class="cls-1" d="m544.1,54.32c0-1.94.56-3.44,1.68-4.49,1.12-1.05,2.58-1.57,4.38-1.57,1.94,0,3.44.56,4.49,1.68,1.05,1.12,1.57,2.58,1.57,4.38s-.56,3.25-1.68,4.38c-1.12,1.12-2.58,1.68-4.38,1.68-1.95,0-3.44-.56-4.49-1.68-1.05-1.12-1.57-2.58-1.57-4.38Z"/>
  <path class="cls-1" d="m544.1,66.44c0-1.94.56-3.44,1.68-4.49,1.12-1.05,2.58-1.57,4.38-1.57,1.94,0,3.44.56,4.49,1.68,1.05,1.12,1.57,2.58,1.57,4.38s-.56,3.25-1.68,4.38c-1.12,1.12-2.58,1.68-4.38,1.68-1.95,0-3.44-.56-4.49-1.68-1.05-1.12-1.57-2.58-1.57-4.38Z"/>
  <path class="cls-1" d="m544.1,138.95c0-1.8.56-3.25,1.68-4.38s2.58-1.68,4.38-1.68c1.94,0,3.44.56,4.49,1.68,1.05,1.12,1.57,2.58,1.57,4.38,0,1.95-.56,3.44-1.68,4.49-1.12,1.05-2.58,1.57-4.38,1.57-1.95,0-3.44-.56-4.49-1.68-1.05-1.12-1.57-2.58-1.57-4.38Z"/>
  <path class="cls-1" d="m544.1,151.07c0-1.8.56-3.25,1.68-4.38,1.12-1.12,2.58-1.68,4.38-1.68,1.94,0,3.44.56,4.49,1.68,1.05,1.12,1.57,2.58,1.57,4.38,0,1.95-.56,3.44-1.68,4.49-1.12,1.05-2.58,1.57-4.38,1.57-1.95,0-3.44-.56-4.49-1.68-1.05-1.12-1.57-2.58-1.57-4.38Z"/>
  <path class="cls-1" d="m556.22,54.32c0-1.94.56-3.44,1.68-4.49,1.12-1.05,2.58-1.57,4.38-1.57,1.94,0,3.44.56,4.49,1.68,1.04,1.12,1.57,2.58,1.57,4.38s-.56,3.25-1.68,4.38c-1.12,1.12-2.58,1.68-4.38,1.68-1.95,0-3.44-.56-4.49-1.68-1.05-1.12-1.57-2.58-1.57-4.38Z"/>
  <path class="cls-1" d="m556.22,66.44c0-1.94.56-3.44,1.68-4.49,1.12-1.05,2.58-1.57,4.38-1.57,1.94,0,3.44.56,4.49,1.68,1.04,1.12,1.57,2.58,1.57,4.38s-.56,3.25-1.68,4.38-2.58,1.68-4.38,1.68c-1.95,0-3.44-.56-4.49-1.68-1.05-1.12-1.57-2.58-1.57-4.38Z"/>
  <path class="cls-1" d="m556.22,126.82c0-1.8.56-3.25,1.68-4.38,1.12-1.12,2.58-1.68,4.38-1.68,1.94,0,3.44.56,4.49,1.68,1.04,1.12,1.57,2.58,1.57,4.38,0,1.95-.56,3.44-1.68,4.49-1.12,1.05-2.58,1.57-4.38,1.57-1.95,0-3.44-.56-4.49-1.68-1.05-1.12-1.57-2.58-1.57-4.38Z"/>
  <path class="cls-1" d="m556.22,138.95c0-1.8.56-3.25,1.68-4.38,1.12-1.12,2.58-1.68,4.38-1.68,1.94,0,3.44.56,4.49,1.68,1.04,1.12,1.57,2.58,1.57,4.38,0,1.95-.56,3.44-1.68,4.49-1.12,1.05-2.58,1.57-4.38,1.57-1.95,0-3.44-.56-4.49-1.68-1.05-1.12-1.57-2.58-1.57-4.38Z"/>
  <path class="cls-1" d="m556.22,151.07c0-1.8.56-3.25,1.68-4.38s2.58-1.68,4.38-1.68c1.94,0,3.44.56,4.49,1.68,1.04,1.12,1.57,2.58,1.57,4.38,0,1.95-.56,3.44-1.68,4.49-1.12,1.05-2.58,1.57-4.38,1.57-1.95,0-3.44-.56-4.49-1.68-1.05-1.12-1.57-2.58-1.57-4.38Z"/>
  <path class="cls-1" d="m568.34,54.32c0-1.8.56-3.25,1.68-4.38,1.12-1.12,2.58-1.68,4.38-1.68,1.94,0,3.44.56,4.49,1.68,1.04,1.12,1.57,2.58,1.57,4.38,0,1.95-.56,3.44-1.68,4.49-1.12,1.05-2.58,1.57-4.38,1.57-1.95,0-3.44-.56-4.49-1.68-1.05-1.12-1.57-2.58-1.57-4.38Z"/>
  <path class="cls-1" d="m568.34,66.44c0-1.8.56-3.25,1.68-4.38s2.58-1.68,4.38-1.68c1.94,0,3.44.56,4.49,1.68,1.04,1.12,1.57,2.58,1.57,4.38,0,1.95-.56,3.44-1.68,4.49-1.12,1.05-2.58,1.57-4.38,1.57-1.95,0-3.44-.56-4.49-1.68-1.05-1.12-1.57-2.58-1.57-4.38Z"/>
  <path class="cls-1" d="m568.34,126.82c0-1.8.56-3.25,1.68-4.38,1.12-1.12,2.58-1.68,4.38-1.68,1.94,0,3.44.56,4.49,1.68,1.04,1.12,1.57,2.58,1.57,4.38,0,1.95-.56,3.44-1.68,4.49-1.12,1.05-2.58,1.57-4.38,1.57-1.95,0-3.44-.56-4.49-1.68-1.05-1.12-1.57-2.58-1.57-4.38Z"/>
  <path class="cls-1" d="m568.34,138.95c0-1.8.56-3.25,1.68-4.38,1.12-1.12,2.58-1.68,4.38-1.68,1.94,0,3.44.56,4.49,1.68,1.04,1.12,1.57,2.58,1.57,4.38,0,1.95-.56,3.44-1.68,4.49-1.12,1.05-2.58,1.57-4.38,1.57-1.95,0-3.44-.56-4.49-1.68-1.05-1.12-1.57-2.58-1.57-4.38Z"/>
</svg>