<?xml version="1.0" encoding="utf-8"?>
<!-- Generator: Adobe Illustrator 28.0.0, SVG Export Plug-In . SVG Version: 6.00 Build 0)  -->
<svg version="1.1" id="Calque_1" xmlns="http://www.w3.org/2000/svg" xmlns:xlink="http://www.w3.org/1999/xlink" x="0px" y="0px"
	 viewBox="0 0 580.5 157.1" style="enable-background:new 0 0 580.5 157.1;" xml:space="preserve">
<style type="text/css">
	.st0{fill:#DBFAFF;}
</style>
<path class="st0" d="M6.1,132.9c-2,0-3.4-0.6-4.5-1.7S0,128.6,0,126.8c0-1.9,0.6-3.4,1.7-4.5c1.1-1,2.6-1.6,4.4-1.6
	c1.9,0,3.4,0.6,4.5,1.7s1.6,2.6,1.6,4.4s-0.6,3.2-1.7,4.4C9.3,132.3,7.9,132.9,6.1,132.9z"/>
<path class="st0" d="M6.1,145c-2,0-3.4-0.6-4.5-1.7S0,140.7,0,138.9c0-1.9,0.6-3.4,1.7-4.5c1.1-1,2.6-1.6,4.4-1.6
	c1.9,0,3.4,0.6,4.5,1.7s1.6,2.6,1.6,4.4s-0.6,3.2-1.7,4.4C9.3,144.4,7.9,145,6.1,145L6.1,145z"/>
<path class="st0" d="M0,151.1c0-1.8,0.6-3.2,1.7-4.4c1.1-1.1,2.6-1.7,4.4-1.7c1.9,0,3.4,0.6,4.5,1.7s1.6,2.6,1.6,4.4
	c0,1.9-0.6,3.4-1.7,4.5s-2.6,1.6-4.4,1.6c-1.9,0-3.4-0.6-4.5-1.7S0,152.9,0,151.1L0,151.1z"/>
<path class="st0" d="M18.2,108.9c-2,0-3.4-0.6-4.5-1.7s-1.6-2.6-1.6-4.4c0-1.9,0.6-3.4,1.7-4.5c1.1-1,2.6-1.6,4.4-1.6
	c1.9,0,3.4,0.6,4.5,1.7c1,1.1,1.6,2.6,1.6,4.4s-0.6,3.2-1.7,4.4C21.4,108.3,20,108.9,18.2,108.9z"/>
<path class="st0" d="M24.2,114.9c0,3.9-2,5.8-5.8,5.8c-4.2,0-6.3-1.9-6.3-5.8c0-1.8,0.5-3.2,1.6-4.4c1.1-1.1,2.5-1.7,4.3-1.7
	c4.2,0,6.3,1.9,6.3,5.8C24.2,114.7,24.2,114.9,24.2,114.9z"/>
<path class="st0" d="M12.1,126.8c0-1.9,0.6-3.4,1.7-4.5c1.1-1,2.6-1.6,4.4-1.6c1.9,0,3.4,0.6,4.5,1.7c1,1.1,1.6,2.6,1.6,4.4
	s-0.6,3.3-1.7,4.4c-1.1,1.1-2.6,1.7-4.4,1.7c-2,0-3.4-0.6-4.5-1.7S12.1,128.6,12.1,126.8z"/>
<path class="st0" d="M12.1,138.9c0-1.9,0.6-3.4,1.7-4.5c1.1-1,2.6-1.6,4.4-1.6c1.9,0,3.4,0.6,4.5,1.7c1,1.1,1.6,2.6,1.6,4.4
	s-0.6,3.2-1.7,4.4c-1.1,1.1-2.6,1.7-4.4,1.7c-2,0-3.4-0.6-4.5-1.7S12.1,140.7,12.1,138.9L12.1,138.9z"/>
<path class="st0" d="M12.1,151.1c0-1.8,0.6-3.2,1.7-4.4s2.6-1.7,4.4-1.7c1.9,0,3.4,0.6,4.5,1.7c1,1.1,1.6,2.6,1.6,4.4
	c0,1.9-0.6,3.4-1.7,4.5s-2.6,1.6-4.4,1.6c-2,0-3.4-0.6-4.5-1.7S12.1,152.9,12.1,151.1L12.1,151.1z"/>
<path class="st0" d="M30.3,84.6c-2,0-3.4-0.6-4.5-1.7s-1.6-2.6-1.6-4.4c0-1.9,0.6-3.4,1.7-4.5c1.1-1,2.6-1.6,4.4-1.6
	c1.9,0,3.4,0.6,4.5,1.7c1,1.1,1.6,2.6,1.6,4.4s-0.6,3.2-1.7,4.4C33.6,84.1,32.1,84.6,30.3,84.6z"/>
<path class="st0" d="M36.4,90.7c0,1.8-0.6,3.2-1.7,4.4c-1.1,1.1-2.6,1.7-4.4,1.7c-2,0-3.4-0.6-4.5-1.7s-1.6-2.6-1.6-4.4
	c0-1.9,0.6-3.4,1.7-4.5c1.1-1,2.6-1.6,4.4-1.6c1.9,0,3.4,0.6,4.5,1.7C35.8,87.4,36.4,88.9,36.4,90.7z"/>
<path class="st0" d="M24.2,102.8c0-1.9,0.6-3.4,1.7-4.5c1.1-1,2.6-1.6,4.4-1.6c1.9,0,3.4,0.6,4.5,1.7c1,1.1,1.6,2.6,1.6,4.4
	s-0.6,3.2-1.7,4.4c-1.1,1.1-2.6,1.7-4.4,1.7c-2,0-3.4-0.6-4.5-1.7S24.2,104.6,24.2,102.8z"/>
<path class="st0" d="M24.2,114.9c0-1.8,0.5-3.2,1.6-4.4c1-1.1,2.5-1.7,4.3-1.7c4.2,0,6.3,1.9,6.3,5.8v0.2c0,3.9-2,5.8-5.8,5.8
	C26.3,120.8,24.2,118.8,24.2,114.9z"/>
<path class="st0" d="M24.2,126.8c0-1.9,0.6-3.4,1.7-4.5c1.1-1,2.6-1.6,4.4-1.6c1.9,0,3.4,0.6,4.5,1.7c1,1.1,1.6,2.6,1.6,4.4
	s-0.6,3.3-1.7,4.4c-1.1,1.1-2.6,1.7-4.4,1.7c-2,0-3.4-0.6-4.5-1.7S24.2,128.6,24.2,126.8z"/>
<path class="st0" d="M36.4,42.4c0-1.8,0.5-3.2,1.6-4.4c1-1.1,2.5-1.7,4.3-1.7c4.2,0,6.3,2,6.3,5.8v0.2c0,3.9-2,5.8-5.8,5.8
	C38.5,48.3,36.4,46.3,36.4,42.4L36.4,42.4z"/>
<path class="st0" d="M42.4,60.4c-2,0-3.4-0.6-4.5-1.7c-1-1.1-1.6-2.6-1.6-4.4c0-1.9,0.6-3.4,1.7-4.5c1.1-1,2.6-1.6,4.4-1.6
	c1.9,0,3.4,0.6,4.5,1.7c1,1.1,1.6,2.6,1.6,4.4s-0.6,3.2-1.7,4.4C45.7,59.8,44.2,60.4,42.4,60.4z"/>
<path class="st0" d="M42.4,72.5c-2,0-3.4-0.6-4.5-1.7c-1-1.1-1.6-2.6-1.6-4.4c0-1.9,0.6-3.4,1.7-4.5s2.6-1.6,4.4-1.6
	c1.9,0,3.4,0.6,4.5,1.7c1,1.1,1.6,2.6,1.6,4.4s-0.6,3.2-1.7,4.4C45.7,71.9,44.2,72.5,42.4,72.5z"/>
<path class="st0" d="M36.4,78.6c0-1.9,0.6-3.4,1.7-4.5c1.1-1,2.6-1.6,4.4-1.6c1.9,0,3.4,0.6,4.5,1.7c1,1.1,1.6,2.6,1.6,4.4
	s-0.6,3.2-1.7,4.4c-1.1,1.1-2.6,1.7-4.4,1.7c-2,0-3.4-0.6-4.5-1.7C36.9,81.8,36.4,80.4,36.4,78.6z"/>
<path class="st0" d="M48.5,90.7c0,1.8-0.6,3.2-1.7,4.4s-2.6,1.7-4.4,1.7c-2,0-3.4-0.6-4.5-1.7s-1.6-2.6-1.6-4.4
	c0-1.9,0.6-3.4,1.7-4.5c1.1-1,2.6-1.6,4.4-1.6c1.9,0,3.4,0.6,4.5,1.7C48,87.4,48.5,88.9,48.5,90.7z"/>
<path class="st0" d="M36.4,102.8c0-1.9,0.6-3.4,1.7-4.5c1.1-1,2.6-1.6,4.4-1.6c1.9,0,3.4,0.6,4.5,1.7c1,1.1,1.6,2.6,1.6,4.4
	s-0.6,3.2-1.7,4.4s-2.6,1.7-4.4,1.7c-2,0-3.4-0.6-4.5-1.7C36.9,106.1,36.4,104.6,36.4,102.8z"/>
<path class="st0" d="M36.4,114.9c0-1.9,0.6-3.4,1.7-4.5c1.1-1.1,2.6-1.6,4.4-1.6c1.9,0,3.4,0.6,4.5,1.7c1,1.1,1.6,2.6,1.6,4.4
	s-0.6,3.2-1.7,4.4c-1.1,1.1-2.6,1.7-4.4,1.7c-2,0-3.4-0.6-4.5-1.7C36.9,118.2,36.4,116.7,36.4,114.9z"/>
<path class="st0" d="M54.5,24.2c-2,0-3.4-0.6-4.5-1.7c-1-1.1-1.6-2.6-1.6-4.4c0-1.9,0.6-3.4,1.7-4.5s2.6-1.6,4.4-1.6
	c1.9,0,3.4,0.6,4.5,1.7c1,1.1,1.6,2.6,1.6,4.4s-0.6,3.2-1.7,4.4C57.8,23.7,56.3,24.2,54.5,24.2z"/>
<path class="st0" d="M54.5,36.4c-2,0-3.4-0.6-4.5-1.7c-1-1.1-1.6-2.6-1.6-4.4c0-1.9,0.6-3.4,1.7-4.5s2.6-1.6,4.4-1.6
	c1.9,0,3.4,0.6,4.5,1.7c1,1.1,1.6,2.6,1.6,4.4s-0.6,3.2-1.7,4.4C57.8,35.8,56.3,36.4,54.5,36.4z"/>
<path class="st0" d="M48.5,42.4c0-1.8,0.5-3.2,1.6-4.4c1-1.1,2.5-1.7,4.3-1.7c4.2,0,6.3,2,6.3,5.8v0.2c0,3.9-2,5.8-5.8,5.8
	C50.6,48.3,48.5,46.3,48.5,42.4L48.5,42.4z"/>
<path class="st0" d="M48.5,54.3c0-1.9,0.6-3.4,1.7-4.5s2.6-1.6,4.4-1.6c1.9,0,3.4,0.6,4.5,1.7c1,1.1,1.6,2.6,1.6,4.4
	s-0.6,3.2-1.7,4.4c-1.1,1.1-2.6,1.7-4.4,1.7c-2,0-3.4-0.6-4.5-1.7C49,57.6,48.5,56.1,48.5,54.3z"/>
<path class="st0" d="M48.5,66.4c0-1.9,0.6-3.4,1.7-4.5s2.6-1.6,4.4-1.6c1.9,0,3.4,0.6,4.5,1.7c1,1.1,1.6,2.6,1.6,4.4
	s-0.6,3.2-1.7,4.4c-1.1,1.1-2.6,1.7-4.4,1.7c-2,0-3.4-0.6-4.5-1.7C49,69.7,48.5,68.2,48.5,66.4z"/>
<path class="st0" d="M48.5,102.8c0-1.9,0.6-3.4,1.7-4.5c1.1-1,2.6-1.6,4.4-1.6c1.9,0,3.4,0.6,4.5,1.7c1,1.1,1.6,2.6,1.6,4.4
	s-0.6,3.2-1.7,4.4s-2.6,1.7-4.4,1.7c-2,0-3.4-0.6-4.5-1.7C49,106.1,48.5,104.6,48.5,102.8z"/>
<path class="st0" d="M48.5,114.9c0-1.9,0.6-3.4,1.7-4.5c1.1-1.1,2.6-1.6,4.4-1.6c1.9,0,3.4,0.6,4.5,1.7c1,1.1,1.6,2.6,1.6,4.4
	s-0.6,3.2-1.7,4.4c-1.1,1.1-2.6,1.7-4.4,1.7c-2,0-3.4-0.6-4.5-1.7C49,118.2,48.5,116.7,48.5,114.9z"/>
<path class="st0" d="M60.6,6.1c0-1.8,0.6-3.2,1.7-4.4C63.4,0.6,64.9,0,66.7,0c1.9,0,3.4,0.6,4.5,1.7c1,1.1,1.6,2.6,1.6,4.4
	c0,2-0.6,3.4-1.7,4.5s-2.6,1.6-4.4,1.6c-1.9,0-3.4-0.6-4.5-1.7S60.6,7.9,60.6,6.1z"/>
<path class="st0" d="M60.6,18.2c0-1.9,0.6-3.4,1.7-4.5s2.6-1.6,4.4-1.6c1.9,0,3.4,0.6,4.5,1.7c1,1.1,1.6,2.6,1.6,4.4
	s-0.6,3.2-1.7,4.4c-1.1,1.1-2.6,1.7-4.4,1.7c-1.9,0-3.4-0.6-4.5-1.7S60.6,20,60.6,18.2z"/>
<path class="st0" d="M60.6,30.3c0-1.9,0.6-3.4,1.7-4.5s2.6-1.6,4.4-1.6c1.9,0,3.4,0.6,4.5,1.7c1,1.1,1.6,2.6,1.6,4.4
	s-0.6,3.2-1.7,4.4s-2.6,1.7-4.4,1.7c-1.9,0-3.4-0.6-4.5-1.7S60.6,32.1,60.6,30.3z"/>
<path class="st0" d="M60.6,102.8c0-1.9,0.6-3.4,1.7-4.5c1.1-1,2.6-1.6,4.4-1.6c1.9,0,3.4,0.6,4.5,1.7c1,1.1,1.6,2.6,1.6,4.4
	s-0.6,3.2-1.7,4.4c-1.1,1.1-2.6,1.7-4.4,1.7c-1.9,0-3.4-0.6-4.5-1.7S60.6,104.6,60.6,102.8z"/>
<path class="st0" d="M60.6,114.9c0-1.9,0.6-3.4,1.7-4.5c1.1-1.1,2.6-1.6,4.4-1.6c1.9,0,3.4,0.6,4.5,1.7c1,1.1,1.6,2.6,1.6,4.4
	s-0.6,3.2-1.7,4.4s-2.6,1.7-4.4,1.7c-1.9,0-3.4-0.6-4.5-1.7S60.6,116.7,60.6,114.9z"/>
<path class="st0" d="M72.7,6.1c0-1.8,0.6-3.2,1.7-4.4C75.5,0.6,77,0,78.8,0c1.9,0,3.4,0.6,4.5,1.7c1,1.1,1.6,2.6,1.6,4.4
	c0,2-0.6,3.4-1.7,4.5s-2.6,1.6-4.4,1.6c-1.9,0-3.4-0.6-4.5-1.7C73.2,9.3,72.7,7.9,72.7,6.1z"/>
<path class="st0" d="M84.9,18.2c0,1.8-0.6,3.2-1.7,4.4c-1.1,1.1-2.6,1.7-4.4,1.7c-1.9,0-3.4-0.6-4.5-1.7c-1.1-1.1-1.6-2.6-1.6-4.4
	c0-1.9,0.6-3.4,1.7-4.5s2.6-1.6,4.4-1.6c1.9,0,3.4,0.6,4.5,1.7C84.3,14.9,84.9,16.4,84.9,18.2z"/>
<path class="st0" d="M84.9,30.3c0,1.8-0.6,3.2-1.7,4.4s-2.6,1.7-4.4,1.7c-1.9,0-3.4-0.6-4.5-1.7c-1.1-1.1-1.6-2.6-1.6-4.4
	c0-1.9,0.6-3.4,1.7-4.5s2.6-1.6,4.4-1.6c1.9,0,3.4,0.6,4.5,1.7C84.3,27,84.9,28.5,84.9,30.3z"/>
<path class="st0" d="M84.6,103c0,3.9-1.9,5.8-5.8,5.8c-1.8,0-3.2-0.5-4.4-1.6c-1.1-1.1-1.7-2.5-1.7-4.3c0-4.2,1.9-6.3,5.8-6.3
	c1.8,0,3.2,0.5,4.4,1.6c1.1,1.1,1.7,2.5,1.7,4.3V103L84.6,103z"/>
<path class="st0" d="M84.6,115.2c0,3.9-1.9,5.8-5.8,5.8c-1.8,0-3.2-0.5-4.4-1.6c-1.1-1-1.7-2.5-1.7-4.3c0-4.2,1.9-6.3,5.8-6.3
	c1.8,0,3.2,0.5,4.4,1.6c1.1,1.1,1.7,2.5,1.7,4.3V115.2z"/>
<path class="st0" d="M84.6,42.4c0-1.8,0.5-3.2,1.6-4.4c1.1-1.1,2.5-1.7,4.3-1.7c4.2,0,6.3,2,6.3,5.8v0.2c0,3.9-1.9,5.8-5.8,5.8
	C86.7,48.3,84.6,46.3,84.6,42.4L84.6,42.4z"/>
<path class="st0" d="M90.7,60.4c-1.9,0-3.4-0.6-4.5-1.7c-1.1-1.1-1.6-2.6-1.6-4.4c0-1.9,0.6-3.4,1.7-4.5c1.1-1,2.6-1.6,4.4-1.6
	c1.9,0,3.4,0.6,4.5,1.7c1.1,1.1,1.6,2.6,1.6,4.4s-0.6,3.2-1.7,4.4C93.9,59.8,92.5,60.4,90.7,60.4z"/>
<path class="st0" d="M90.7,72.5c-1.9,0-3.4-0.6-4.5-1.7c-1.1-1.1-1.6-2.6-1.6-4.4c0-1.9,0.6-3.4,1.7-4.5s2.6-1.6,4.4-1.6
	c1.9,0,3.4,0.6,4.5,1.7c1.1,1.1,1.6,2.6,1.6,4.4s-0.6,3.2-1.7,4.4C93.9,71.9,92.5,72.5,90.7,72.5z"/>
<path class="st0" d="M96.8,102.8c0,1.8-0.6,3.2-1.7,4.4s-2.6,1.7-4.4,1.7c-1.9,0-3.4-0.6-4.5-1.7c-1.1-1.1-1.6-2.6-1.6-4.4
	c0-1.9,0.6-3.4,1.7-4.5c1.1-1,2.6-1.6,4.4-1.6c1.9,0,3.4,0.6,4.5,1.7C96.2,99.5,96.8,101,96.8,102.8z"/>
<path class="st0" d="M96.8,114.9c0,1.8-0.6,3.2-1.7,4.4c-1.1,1.1-2.6,1.7-4.4,1.7c-1.9,0-3.4-0.6-4.5-1.7c-1.1-1.1-1.6-2.6-1.6-4.4
	c0-1.9,0.6-3.4,1.7-4.5c1.1-1.1,2.6-1.6,4.4-1.6c1.9,0,3.4,0.6,4.5,1.7C96.2,111.7,96.8,113.1,96.8,114.9z"/>
<path class="st0" d="M96.8,18.4c0,3.9-1.9,5.8-5.8,5.8c-1.8,0-3.2-0.5-4.4-1.6c-1.1-1-1.7-2.5-1.7-4.3c0-4.2,1.9-6.3,5.8-6.3
	c1.8,0,3.2,0.5,4.4,1.6c1.1,1.1,1.7,2.5,1.7,4.3V18.4z"/>
<path class="st0" d="M96.8,30.5c0,3.9-1.9,5.8-5.8,5.8c-1.8,0-3.2-0.5-4.4-1.6c-1.1-1-1.7-2.5-1.7-4.3c0-4.2,1.9-6.3,5.8-6.3
	c1.8,0,3.2,0.5,4.4,1.6c1.1,1,1.7,2.5,1.7,4.3C96.8,30.1,96.8,30.5,96.8,30.5z"/>
<path class="st0" d="M96.8,42.4c0-1.8,0.5-3.2,1.6-4.4c1.1-1.1,2.5-1.7,4.3-1.7c4.2,0,6.3,2,6.3,5.8v0.2c0,3.9-1.9,5.8-5.8,5.8
	C98.8,48.3,96.7,46.3,96.8,42.4z"/>
<path class="st0" d="M96.8,54.3c0-1.9,0.6-3.4,1.7-4.5s2.6-1.6,4.4-1.6c1.9,0,3.4,0.6,4.5,1.7c1,1.1,1.6,2.6,1.6,4.4
	s-0.6,3.2-1.7,4.4c-1.1,1.1-2.6,1.7-4.4,1.7c-1.9,0-3.4-0.6-4.5-1.7C97.3,57.6,96.8,56.1,96.8,54.3z"/>
<path class="st0" d="M96.8,66.4c0-1.9,0.6-3.4,1.7-4.5s2.6-1.6,4.4-1.6c1.9,0,3.4,0.6,4.5,1.7c1,1.1,1.6,2.6,1.6,4.4
	s-0.6,3.2-1.7,4.4s-2.6,1.7-4.4,1.7c-1.9,0-3.4-0.6-4.5-1.7C97.3,69.7,96.8,68.2,96.8,66.4z"/>
<path class="st0" d="M108.9,78.6c0,1.8-0.6,3.2-1.7,4.4s-2.6,1.7-4.4,1.7c-1.9,0-3.4-0.6-4.5-1.7c-1.1-1.1-1.6-2.6-1.6-4.4
	c0-1.9,0.6-3.4,1.7-4.5c1.1-1,2.6-1.6,4.4-1.6c1.9,0,3.4,0.6,4.5,1.7C108.3,75.3,108.9,76.8,108.9,78.6z"/>
<path class="st0" d="M102.8,96.7c-1.9,0-3.4-0.6-4.5-1.7c-1.1-1.1-1.6-2.6-1.6-4.4c0-1.9,0.6-3.4,1.7-4.5c1.1-1,2.6-1.6,4.4-1.6
	c1.9,0,3.4,0.6,4.5,1.7c1,1.1,1.6,2.6,1.6,4.4s-0.6,3.2-1.7,4.4C106.1,96.2,104.6,96.7,102.8,96.7z"/>
<path class="st0" d="M108.9,102.8c0,1.8-0.6,3.2-1.7,4.4c-1.1,1.1-2.6,1.7-4.4,1.7c-1.9,0-3.4-0.6-4.5-1.7c-1.1-1.1-1.6-2.6-1.6-4.4
	c0-1.9,0.6-3.4,1.7-4.5c1.1-1,2.6-1.6,4.4-1.6c1.9,0,3.4,0.6,4.5,1.7C108.3,99.5,108.9,101,108.9,102.8z"/>
<path class="st0" d="M108.9,114.9c0,1.8-0.6,3.2-1.7,4.4s-2.6,1.7-4.4,1.7c-1.9,0-3.4-0.6-4.5-1.7c-1.1-1.1-1.6-2.6-1.6-4.4
	c0-1.9,0.6-3.4,1.7-4.5c1.1-1.1,2.6-1.6,4.4-1.6c1.9,0,3.4,0.6,4.5,1.7C108.3,111.7,108.9,113.1,108.9,114.9z"/>
<path class="st0" d="M121,78.6c0,1.8-0.6,3.2-1.7,4.4c-1.1,1.1-2.6,1.7-4.4,1.7c-1.9,0-3.4-0.6-4.5-1.7c-1.1-1.1-1.6-2.6-1.6-4.4
	c0-1.9,0.6-3.4,1.7-4.5c1.1-1,2.6-1.6,4.4-1.6c1.9,0,3.4,0.6,4.5,1.7C120.5,75.3,121,76.8,121,78.6z"/>
<path class="st0" d="M108.9,90.7c0-1.9,0.6-3.4,1.7-4.5c1.1-1,2.6-1.6,4.4-1.6c1.9,0,3.4,0.6,4.5,1.7c1,1.1,1.6,2.6,1.6,4.4
	s-0.6,3.2-1.7,4.4c-1.1,1.1-2.6,1.7-4.4,1.7c-1.9,0-3.4-0.6-4.5-1.7C109.4,93.9,108.9,92.5,108.9,90.7z"/>
<path class="st0" d="M121,102.8c0,1.8-0.6,3.2-1.7,4.4c-1.1,1.1-2.6,1.7-4.4,1.7c-1.9,0-3.4-0.6-4.5-1.7c-1.1-1.1-1.6-2.6-1.6-4.4
	c0-1.9,0.6-3.4,1.7-4.5c1.1-1,2.6-1.6,4.4-1.6c1.9,0,3.4,0.6,4.5,1.7C120.5,99.5,121,101,121,102.8z"/>
<path class="st0" d="M121,114.9c0,3.9-1.9,5.8-5.8,5.8c-4.2,0-6.3-1.9-6.3-5.8c0-1.8,0.5-3.2,1.6-4.4c1.1-1.1,2.5-1.7,4.3-1.7
	c4.2,0,6.3,1.9,6.3,5.8L121,114.9L121,114.9z"/>
<path class="st0" d="M114.9,132.9c-1.9,0-3.4-0.6-4.5-1.7c-1.1-1.1-1.6-2.6-1.6-4.4c0-1.9,0.6-3.4,1.7-4.5c1.1-1,2.6-1.6,4.4-1.6
	c1.9,0,3.4,0.6,4.5,1.7c1,1.1,1.6,2.6,1.6,4.4s-0.6,3.3-1.7,4.4C118.2,132.3,116.7,132.9,114.9,132.9z"/>
<path class="st0" d="M133.1,102.8c0,1.8-0.6,3.2-1.7,4.4s-2.6,1.7-4.4,1.7c-1.9,0-3.4-0.6-4.5-1.7c-1.1-1.1-1.6-2.6-1.6-4.4
	c0-1.9,0.6-3.4,1.7-4.5c1.1-1,2.6-1.6,4.4-1.6c1.9,0,3.4,0.6,4.5,1.7S133.1,101,133.1,102.8L133.1,102.8z"/>
<path class="st0" d="M133.1,114.9c0,3.9-1.9,5.8-5.8,5.8c-4.2,0-6.3-1.9-6.3-5.8c0-1.8,0.5-3.2,1.6-4.4c1-1.1,2.5-1.7,4.3-1.7
	c4.2,0,6.3,1.9,6.3,5.8L133.1,114.9L133.1,114.9z"/>
<path class="st0" d="M121,126.8c0-1.9,0.6-3.4,1.7-4.5c1.1-1,2.6-1.6,4.4-1.6c1.9,0,3.4,0.6,4.5,1.7s1.6,2.6,1.6,4.4
	c0,1.8-0.6,3.2-1.7,4.4s-2.6,1.7-4.4,1.7c-1.9,0-3.4-0.6-4.5-1.7C121.5,130.1,121,128.6,121,126.8L121,126.8z"/>
<path class="st0" d="M121,138.9c0-1.8,0.6-3.2,1.7-4.4s2.6-1.7,4.4-1.7c1.9,0,3.4,0.6,4.5,1.7s1.6,2.6,1.6,4.4
	c0,1.9-0.6,3.4-1.7,4.5s-2.6,1.6-4.4,1.6c-1.9,0-3.4-0.6-4.5-1.7C121.5,142.2,121,140.7,121,138.9L121,138.9z"/>
<path class="st0" d="M121,151.1c0-1.8,0.6-3.2,1.7-4.4c1.1-1.1,2.6-1.7,4.4-1.7c1.9,0,3.4,0.6,4.5,1.7s1.6,2.6,1.6,4.4
	c0,1.9-0.6,3.4-1.7,4.5s-2.6,1.6-4.4,1.6c-1.9,0-3.4-0.6-4.5-1.7C121.5,154.3,121,152.9,121,151.1L121,151.1z"/>
<path class="st0" d="M133.1,126.8c0-1.9,0.6-3.4,1.7-4.5c1.1-1,2.6-1.6,4.4-1.6c1.9,0,3.4,0.6,4.5,1.7s1.6,2.6,1.6,4.4
	s-0.6,3.2-1.7,4.4s-2.6,1.7-4.4,1.7c-1.9,0-3.4-0.6-4.5-1.7S133.1,128.6,133.1,126.8z"/>
<path class="st0" d="M133.1,138.9c0-1.8,0.6-3.2,1.7-4.4s2.6-1.7,4.4-1.7c1.9,0,3.4,0.6,4.5,1.7s1.6,2.6,1.6,4.4
	c0,1.9-0.6,3.4-1.7,4.5s-2.6,1.6-4.4,1.6c-1.9,0-3.4-0.6-4.5-1.7S133.1,140.7,133.1,138.9L133.1,138.9z"/>
<path class="st0" d="M133.1,151.1c0-1.8,0.6-3.2,1.7-4.4c1.1-1.1,2.6-1.7,4.4-1.7c1.9,0,3.4,0.6,4.5,1.7s1.6,2.6,1.6,4.4
	c0,1.9-0.6,3.4-1.7,4.5s-2.6,1.6-4.4,1.6c-1.9,0-3.4-0.6-4.5-1.7S133.1,152.9,133.1,151.1L133.1,151.1z"/>
<path class="st0" d="M157.4,5.8c0-1.8,0.6-3.2,1.7-4.3c1.1-1,2.6-1.6,4.4-1.6c3.9,0,5.8,2.1,5.8,6.3c0,1.8-0.6,3.2-1.7,4.3
	s-2.6,1.6-4.4,1.6c-3.9,0-5.8-1.9-5.8-5.8C157.4,6.3,157.4,5.8,157.4,5.8z"/>
<path class="st0" d="M169.2,18.4c0,1.8-0.6,3.2-1.7,4.3c-1.1,1-2.6,1.6-4.4,1.6c-3.9,0-5.8-2.1-5.8-6.3c0-1.8,0.6-3.2,1.7-4.3
	c1.1-1.1,2.6-1.6,4.4-1.6c3.9,0,5.8,1.9,5.8,5.8V18.4L169.2,18.4z"/>
<path class="st0" d="M169.2,30.5c0,1.8-0.6,3.2-1.7,4.3c-1.1,1-2.6,1.6-4.4,1.6c-3.9,0-5.8-2.1-5.8-6.3c0-1.8,0.6-3.2,1.7-4.3
	c1.1-1,2.6-1.6,4.4-1.6c3.9,0,5.8,2,5.8,5.8C169.2,30.1,169.2,30.5,169.2,30.5z"/>
<path class="st0" d="M169.2,42.4c0,1.8-0.6,3.2-1.7,4.3s-2.6,1.6-4.4,1.6s-3.2-0.6-4.3-1.7s-1.6-2.6-1.6-4.4c0-3.9,2-5.8,6.1-5.8
	s5.8,2,5.8,5.8L169.2,42.4L169.2,42.4z"/>
<path class="st0" d="M169.2,54.5c0,1.8-0.6,3.2-1.7,4.3s-2.6,1.6-4.4,1.6c-3.9,0-5.8-2.1-5.8-6.3c0-1.8,0.6-3.2,1.7-4.3
	c1.1-1,2.6-1.6,4.4-1.6c3.9,0,5.8,2,5.8,5.8V54.5L169.2,54.5z"/>
<path class="st0" d="M169.2,66.7c0,1.8-0.6,3.2-1.7,4.3c-1.1,1.1-2.6,1.6-4.4,1.6c-3.9,0-5.8-2.1-5.8-6.3c0-1.8,0.6-3.2,1.7-4.3
	c1.1-1,2.6-1.6,4.4-1.6c3.9,0,5.8,2,5.8,5.8V66.7z"/>
<path class="st0" d="M169.2,78.8c0,1.8-0.6,3.2-1.7,4.3c-1.1,1.1-2.6,1.6-4.4,1.6c-3.9,0-5.8-2.1-5.8-6.3c0-1.8,0.6-3.2,1.7-4.3
	s2.6-1.6,4.4-1.6c3.9,0,5.8,1.9,5.8,5.8C169.2,78.3,169.2,78.8,169.2,78.8z"/>
<path class="st0" d="M169.2,90.9c0,1.8-0.6,3.2-1.7,4.3c-1.1,1.1-2.6,1.6-4.4,1.6c-3.9,0-5.8-2.1-5.8-6.3c0-1.8,0.6-3.2,1.7-4.3
	c1.1-1,2.6-1.6,4.4-1.6c3.9,0,5.8,1.9,5.8,5.8V90.9z"/>
<path class="st0" d="M169.2,103c0,1.8-0.6,3.2-1.7,4.3c-1.1,1.1-2.6,1.6-4.4,1.6c-3.9,0-5.8-2.1-5.8-6.3c0-1.8,0.6-3.2,1.7-4.3
	c1.1-1,2.6-1.6,4.4-1.6c3.9,0,5.8,1.9,5.8,5.8C169.2,102.6,169.2,103,169.2,103z"/>
<path class="st0" d="M169.2,114.9c0,1.8-0.6,3.2-1.7,4.3c-1.1,1.1-2.6,1.6-4.4,1.6s-3.2-0.6-4.3-1.7s-1.6-2.6-1.6-4.4
	c0-3.9,2-5.8,6.1-5.8s5.8,1.9,5.8,5.8L169.2,114.9L169.2,114.9z"/>
<path class="st0" d="M169.2,127.1c0,1.8-0.6,3.2-1.7,4.3s-2.6,1.6-4.4,1.6c-3.9,0-5.8-2.1-5.8-6.3c0-1.8,0.6-3.2,1.7-4.3
	c1.1-1,2.6-1.6,4.4-1.6c3.9,0,5.8,1.9,5.8,5.8C169.2,126.6,169.2,127.1,169.2,127.1z"/>
<path class="st0" d="M169.2,139.2c0,1.8-0.6,3.2-1.7,4.3s-2.6,1.6-4.4,1.6c-3.9,0-5.8-2.1-5.8-6.3c0-1.8,0.6-3.2,1.7-4.3
	c1.1-1,2.6-1.6,4.4-1.6c3.9,0,5.8,1.9,5.8,5.8V139.2z"/>
<path class="st0" d="M157.4,150.8c0-1.8,0.6-3.2,1.7-4.3c1.1-1.1,2.6-1.6,4.4-1.6c3.9,0,5.8,2.1,5.8,6.3c0,1.8-0.6,3.2-1.7,4.3
	c-1.1,1.1-2.6,1.6-4.4,1.6c-3.9,0-5.8-1.9-5.8-5.8V150.8z"/>
<path class="st0" d="M169.2,5.8c0-1.8,0.6-3.2,1.7-4.3c1.1-1,2.6-1.6,4.4-1.6c3.9,0,5.8,2.1,5.8,6.3c0,1.8-0.6,3.2-1.7,4.3
	s-2.6,1.6-4.4,1.6c-3.9,0-5.8-1.9-5.8-5.8C169.2,6.3,169.2,5.8,169.2,5.8z"/>
<path class="st0" d="M181.1,18.4c0,1.8-0.6,3.2-1.7,4.3c-1.1,1-2.6,1.6-4.4,1.6c-3.9,0-5.8-2.1-5.8-6.3c0-1.8,0.6-3.2,1.7-4.3
	c1.1-1.1,2.6-1.6,4.4-1.6c3.9,0,5.8,1.9,5.8,5.8V18.4L181.1,18.4z"/>
<path class="st0" d="M181.1,30.5c0,1.8-0.6,3.2-1.7,4.3c-1.1,1-2.6,1.6-4.4,1.6c-3.9,0-5.8-2.1-5.8-6.3c0-1.8,0.6-3.2,1.7-4.3
	c1.1-1,2.6-1.6,4.4-1.6c3.9,0,5.8,2,5.8,5.8C181.1,30.1,181.1,30.5,181.1,30.5z"/>
<path class="st0" d="M181.1,42.4c0,1.8-0.6,3.2-1.7,4.3s-2.6,1.6-4.4,1.6s-3.2-0.6-4.3-1.7c-1.1-1.1-1.6-2.6-1.6-4.4
	c0-3.9,2-5.8,6.1-5.8s5.8,2,5.8,5.8L181.1,42.4L181.1,42.4z"/>
<path class="st0" d="M181.1,54.5c0,1.8-0.6,3.2-1.7,4.3s-2.6,1.6-4.4,1.6c-3.9,0-5.8-2.1-5.8-6.3c0-1.8,0.6-3.2,1.7-4.3
	c1.1-1,2.6-1.6,4.4-1.6c3.9,0,5.8,2,5.8,5.8V54.5L181.1,54.5z"/>
<path class="st0" d="M181.1,66.7c0,1.8-0.6,3.2-1.7,4.3c-1.1,1.1-2.6,1.6-4.4,1.6c-3.9,0-5.8-2.1-5.8-6.3c0-1.8,0.6-3.2,1.7-4.3
	c1.1-1,2.6-1.6,4.4-1.6c3.9,0,5.8,2,5.8,5.8V66.7z"/>
<path class="st0" d="M181.1,78.8c0,1.8-0.6,3.2-1.7,4.3c-1.1,1.1-2.6,1.6-4.4,1.6c-3.9,0-5.8-2.1-5.8-6.3c0-1.8,0.6-3.2,1.7-4.3
	s2.6-1.6,4.4-1.6c3.9,0,5.8,1.9,5.8,5.8C181.1,78.3,181.1,78.8,181.1,78.8z"/>
<path class="st0" d="M181.1,90.9c0,1.8-0.6,3.2-1.7,4.3c-1.1,1.1-2.6,1.6-4.4,1.6c-3.9,0-5.8-2.1-5.8-6.3c0-1.8,0.6-3.2,1.7-4.3
	c1.1-1,2.6-1.6,4.4-1.6c3.9,0,5.8,1.9,5.8,5.8V90.9z"/>
<path class="st0" d="M181.1,103c0,1.8-0.6,3.2-1.7,4.3c-1.1,1.1-2.6,1.6-4.4,1.6c-3.9,0-5.8-2.1-5.8-6.3c0-1.8,0.6-3.2,1.7-4.3
	c1.1-1,2.6-1.6,4.4-1.6c3.9,0,5.8,1.9,5.8,5.8C181.1,102.6,181.1,103,181.1,103z"/>
<path class="st0" d="M181.1,114.9c0,1.8-0.6,3.2-1.7,4.3c-1.1,1.1-2.6,1.6-4.4,1.6s-3.2-0.6-4.3-1.7c-1.1-1.1-1.6-2.6-1.6-4.4
	c0-3.9,2-5.8,6.1-5.8s5.8,1.9,5.8,5.8L181.1,114.9L181.1,114.9z"/>
<path class="st0" d="M181.1,127.1c0,1.8-0.6,3.2-1.7,4.3s-2.6,1.6-4.4,1.6c-3.9,0-5.8-2.1-5.8-6.3c0-1.8,0.6-3.2,1.7-4.3
	c1.1-1,2.6-1.6,4.4-1.6c3.9,0,5.8,1.9,5.8,5.8C181.1,126.6,181.1,127.1,181.1,127.1z"/>
<path class="st0" d="M181.1,139.2c0,1.8-0.6,3.2-1.7,4.3s-2.6,1.6-4.4,1.6c-3.9,0-5.8-2.1-5.8-6.3c0-1.8,0.6-3.2,1.7-4.3
	c1.1-1,2.6-1.6,4.4-1.6c3.9,0,5.8,1.9,5.8,5.8V139.2z"/>
<path class="st0" d="M169.2,150.8c0-1.8,0.6-3.2,1.7-4.3c1.1-1.1,2.6-1.6,4.4-1.6c3.9,0,5.8,2.1,5.8,6.3c0,1.8-0.6,3.2-1.7,4.3
	c-1.1,1.1-2.6,1.6-4.4,1.6c-3.9,0-5.8-1.9-5.8-5.8V150.8z"/>
<path class="st0" d="M193.3,66.4c0,3.3-1.6,5.3-4.7,6.1c3.1,0.4,4.7,2.4,4.7,5.8c0,1.8-0.5,3.2-1.6,4.4c-1.1,1.1-2.6,1.7-4.5,1.7
	c-1.8,0-3.2-0.5-4.4-1.6c-1.1-1.1-1.7-2.5-1.7-4.5c0-3.3,1.6-5.3,4.7-6.1c-3.1-0.4-4.7-2.4-4.7-5.8c0-1.8,0.5-3.2,1.6-4.4
	c1.1-1.1,2.5-1.7,4.5-1.7c1.8,0,3.2,0.6,4.4,1.7S193.3,64.6,193.3,66.4z"/>
<path class="st0" d="M193.3,126.8c0,1.8-0.5,3.2-1.6,4.4c-1.1,1.1-2.6,1.7-4.5,1.7c-1.8,0-3.2-0.5-4.4-1.6c-1.1-1.1-1.7-2.5-1.7-4.5
	c0-1.8,0.5-3.2,1.6-4.4c1.1-1.1,2.5-1.7,4.5-1.7c1.8,0,3.2,0.6,4.4,1.7C192.7,123.6,193.3,125,193.3,126.8z"/>
<path class="st0" d="M193.3,138.9c0,1.8-0.5,3.2-1.6,4.4c-1.1,1.1-2.6,1.7-4.5,1.7c-1.8,0-3.2-0.5-4.4-1.6c-1.1-1.1-1.7-2.5-1.7-4.5
	c0-1.8,0.5-3.2,1.6-4.4c1.1-1.1,2.5-1.7,4.5-1.7c1.8,0,3.2,0.6,4.4,1.7C192.7,135.7,193.3,137.1,193.3,138.9L193.3,138.9z"/>
<path class="st0" d="M205.4,66.2c0,1.8-0.5,3.2-1.6,4.4c-1.1,1.1-2.6,1.7-4.5,1.7c-1.8,0-3.2-0.5-4.4-1.6c-1.1-1-1.7-2.5-1.7-4.5
	c0-3.3,1.6-5.3,4.7-6.1c-3.1-0.5-4.7-2.4-4.7-5.8c0-1.8,0.5-3.2,1.6-4.4c1.1-1.1,2.5-1.7,4.5-1.7c1.8,0,3.2,0.6,4.4,1.7
	c1.1,1.1,1.7,2.6,1.7,4.4c0,3.3-1.6,5.3-4.7,6.1C203.8,60.8,205.4,62.8,205.4,66.2z"/>
<path class="st0" d="M193.3,138.9c0-1.8,0.5-3.2,1.6-4.4c1.1-1.1,2.5-1.7,4.5-1.7c1.8,0,3.2,0.5,4.4,1.6c1.1,1.1,1.7,2.6,1.7,4.5
	c0,1.8-0.5,3.2-1.6,4.4c-1.1,1.1-2.6,1.7-4.5,1.7c-1.8,0-3.2-0.6-4.4-1.7C193.8,142.2,193.3,140.7,193.3,138.9L193.3,138.9z"/>
<path class="st0" d="M193.3,151.1c0-1.8,0.5-3.2,1.6-4.4c1.1-1.1,2.5-1.7,4.5-1.7c1.8,0,3.2,0.5,4.4,1.6c1.1,1.1,1.7,2.6,1.7,4.5
	c0,1.8-0.5,3.2-1.6,4.4c-1.1,1.1-2.6,1.7-4.5,1.7c-1.8,0-3.2-0.6-4.4-1.7S193.3,152.9,193.3,151.1L193.3,151.1z"/>
<path class="st0" d="M217.5,42.4c0,3.9-2.1,5.8-6.3,5.8c-1.8,0-3.2-0.6-4.3-1.7c-1.1-1.1-1.6-2.6-1.6-4.4c0-3.9,2.1-5.8,6.3-5.8
	c3.9,0,5.8,2,5.8,5.8V42.4z"/>
<path class="st0" d="M205.4,54.3c0-1.8,0.5-3.2,1.6-4.4c1-1.1,2.5-1.7,4.5-1.7c1.8,0,3.2,0.6,4.4,1.7s1.7,2.6,1.7,4.4
	s-0.5,3.2-1.6,4.4c-1.1,1.1-2.6,1.7-4.5,1.7c-1.8,0-3.2-0.5-4.4-1.6C206,57.8,205.4,56.3,205.4,54.3z"/>
<path class="st0" d="M205.4,138.9c0-1.8,0.5-3.2,1.6-4.4c1-1.1,2.5-1.7,4.5-1.7c1.8,0,3.2,0.5,4.4,1.6c1.1,1.1,1.7,2.6,1.7,4.5
	c0,1.8-0.5,3.2-1.6,4.4c-1.1,1.1-2.6,1.7-4.5,1.7c-1.8,0-3.2-0.6-4.4-1.7C206,142.2,205.4,140.7,205.4,138.9L205.4,138.9z"/>
<path class="st0" d="M205.4,151.1c0-1.8,0.5-3.2,1.6-4.4c1-1.1,2.5-1.7,4.5-1.7c1.8,0,3.2,0.5,4.4,1.6c1.1,1.1,1.7,2.6,1.7,4.5
	c0,1.8-0.5,3.2-1.6,4.4c-1.1,1.1-2.6,1.7-4.5,1.7c-1.8,0-3.2-0.6-4.4-1.7S205.4,152.9,205.4,151.1L205.4,151.1z"/>
<path class="st0" d="M229.6,42.4c0,3.9-2.1,5.8-6.3,5.8c-1.8,0-3.2-0.6-4.3-1.7c-1.1-1.1-1.6-2.6-1.6-4.4c0-3.9,2.1-5.8,6.3-5.8
	c3.9,0,5.8,2,5.8,5.8L229.6,42.4L229.6,42.4z"/>
<path class="st0" d="M217.5,54.3c0-1.8,0.5-3.2,1.6-4.4c1-1.1,2.5-1.7,4.5-1.7c1.8,0,3.2,0.6,4.4,1.7s1.7,2.6,1.7,4.4
	s-0.5,3.2-1.6,4.4c-1.1,1.1-2.6,1.7-4.5,1.7c-1.8,0-3.2-0.5-4.4-1.6C218.1,57.8,217.5,56.3,217.5,54.3z"/>
<path class="st0" d="M217.5,138.9c0-1.8,0.5-3.2,1.6-4.4c1-1.1,2.5-1.7,4.5-1.7c1.8,0,3.2,0.5,4.4,1.6c1.1,1.1,1.7,2.6,1.7,4.5
	c0,1.8-0.5,3.2-1.6,4.4c-1.1,1.1-2.6,1.7-4.5,1.7c-1.8,0-3.2-0.6-4.4-1.7S217.5,140.7,217.5,138.9L217.5,138.9z"/>
<path class="st0" d="M229.6,151.1c0,1.8-0.5,3.2-1.6,4.4c-1.1,1.1-2.6,1.7-4.5,1.7c-1.8,0-3.2-0.6-4.4-1.7c-1.1-1.1-1.7-2.6-1.7-4.4
	s0.5-3.2,1.6-4.4c1-1.1,2.5-1.7,4.5-1.7c1.8,0,3.2,0.5,4.4,1.6C229.1,147.6,229.6,149.1,229.6,151.1L229.6,151.1z"/>
<path class="st0" d="M241.8,42.4c0,3.9-2.1,5.8-6.3,5.8c-1.8,0-3.2-0.6-4.3-1.7s-1.6-2.6-1.6-4.4c0-3.9,2.1-5.8,6.3-5.8
	c3.9,0,5.8,2,5.8,5.8L241.8,42.4L241.8,42.4z"/>
<path class="st0" d="M241.8,54.3c0,1.8-0.5,3.2-1.6,4.4c-1.1,1.1-2.6,1.7-4.5,1.7c-1.8,0-3.2-0.5-4.4-1.6c-1.1-1-1.7-2.5-1.7-4.5
	c0-1.8,0.5-3.2,1.6-4.4c1.1-1.1,2.5-1.7,4.5-1.7c1.8,0,3.2,0.6,4.4,1.7C241.2,51.1,241.8,52.5,241.8,54.3z"/>
<path class="st0" d="M241.8,66.4c0,1.8-0.5,3.2-1.6,4.4c-1.1,1.1-2.6,1.7-4.5,1.7c-1.8,0-3.2-0.5-4.4-1.6c-1.1-1-1.7-2.5-1.7-4.5
	c0-1.8,0.5-3.2,1.6-4.4c1.1-1.1,2.5-1.7,4.5-1.7c1.8,0,3.2,0.6,4.4,1.7S241.8,64.6,241.8,66.4z"/>
<path class="st0" d="M241.8,126.8c0,1.8-0.5,3.2-1.6,4.4c-1.1,1.1-2.6,1.7-4.5,1.7c-1.8,0-3.2-0.5-4.4-1.6c-1.1-1.1-1.7-2.5-1.7-4.5
	c0-1.8,0.5-3.2,1.6-4.4c1.1-1.1,2.5-1.7,4.5-1.7c1.8,0,3.2,0.6,4.4,1.7C241.2,123.6,241.8,125,241.8,126.8z"/>
<path class="st0" d="M241.8,138.9c0,1.8-0.5,3.2-1.6,4.4c-1.1,1.1-2.6,1.7-4.5,1.7c-1.8,0-3.2-0.5-4.4-1.6c-1.1-1.1-1.7-2.5-1.7-4.5
	c0-1.8,0.5-3.2,1.6-4.4c1.1-1.1,2.5-1.7,4.5-1.7c1.8,0,3.2,0.6,4.4,1.7C241.2,135.7,241.8,137.1,241.8,138.9L241.8,138.9z"/>
<path class="st0" d="M235.7,157.1c-1.8,0-3.2-0.6-4.4-1.7c-1.1-1.1-1.7-2.6-1.7-4.4s0.5-3.2,1.6-4.4c1.1-1.1,2.5-1.7,4.5-1.7
	c1.8,0,3.2,0.5,4.4,1.6c1.1,1.1,1.7,2.6,1.7,4.5c0,1.8-0.5,3.2-1.6,4.4C239.1,156.6,237.6,157.1,235.7,157.1L235.7,157.1z"/>
<path class="st0" d="M253.9,54.3c0,1.8-0.5,3.2-1.6,4.4c-1.1,1.1-2.6,1.7-4.5,1.7c-1.8,0-3.2-0.5-4.4-1.6c-1.1-1-1.7-2.5-1.7-4.5
	c0-1.8,0.5-3.2,1.6-4.4c1.1-1.1,2.5-1.7,4.5-1.7c1.8,0,3.2,0.6,4.4,1.7C253.3,51,253.9,52.5,253.9,54.3z"/>
<path class="st0" d="M241.8,66.4c0-1.8,0.5-3.2,1.6-4.4c1.1-1.1,2.5-1.7,4.5-1.7c1.8,0,3.2,0.5,4.4,1.6c1.1,1,1.7,2.5,1.7,4.5
	c0,1.8-0.5,3.2-1.6,4.4c-1.1,1.1-2.6,1.7-4.5,1.7c-1.8,0-3.2-0.6-4.4-1.7S241.8,68.2,241.8,66.4z"/>
<path class="st0" d="M241.8,78.6c0-1.8,0.5-3.2,1.6-4.4c1.1-1.1,2.5-1.7,4.5-1.7c1.8,0,3.2,0.5,4.4,1.6c1.1,1.1,1.7,2.6,1.7,4.5
	c0,1.8-0.5,3.2-1.6,4.4c-1.1,1.1-2.6,1.7-4.5,1.7c-1.8,0-3.2-0.6-4.4-1.7S241.8,80.3,241.8,78.6z"/>
<path class="st0" d="M241.8,90.7c0-1.8,0.5-3.2,1.6-4.4c1.1-1.1,2.5-1.7,4.5-1.7c1.8,0,3.2,0.5,4.4,1.6c1.1,1.1,1.7,2.6,1.7,4.5
	c0,1.8-0.5,3.2-1.6,4.4c-1.1,1.1-2.6,1.7-4.5,1.7c-1.8,0-3.2-0.6-4.4-1.7C242.3,93.9,241.8,92.5,241.8,90.7z"/>
<path class="st0" d="M241.8,102.8c0-1.8,0.5-3.2,1.6-4.4c1.1-1.1,2.5-1.7,4.5-1.7c1.8,0,3.2,0.5,4.4,1.6c1.1,1.1,1.7,2.6,1.7,4.5
	c0,1.8-0.5,3.2-1.6,4.4c-1.1,1.1-2.6,1.7-4.5,1.7c-1.8,0-3.2-0.6-4.4-1.7C242.3,106.1,241.8,104.6,241.8,102.8z"/>
<path class="st0" d="M241.8,114.7c0-3.9,2.1-5.8,6.3-5.8c1.8,0,3.2,0.6,4.3,1.7c1,1.1,1.6,2.6,1.6,4.4c0,3.9-2.1,5.8-6.3,5.8
	c-3.9,0-5.8-1.9-5.8-5.8L241.8,114.7L241.8,114.7z"/>
<path class="st0" d="M241.8,126.8c0-1.8,0.5-3.2,1.6-4.4c1.1-1.1,2.5-1.7,4.5-1.7c1.8,0,3.2,0.5,4.4,1.6c1.1,1.1,1.7,2.6,1.7,4.5
	c0,1.8-0.5,3.2-1.6,4.4c-1.1,1.1-2.6,1.7-4.5,1.7c-1.8,0-3.2-0.6-4.4-1.7C242.3,130.1,241.8,128.6,241.8,126.8z"/>
<path class="st0" d="M253.9,138.9c0,1.8-0.5,3.2-1.6,4.4c-1.1,1.1-2.6,1.7-4.5,1.7c-1.8,0-3.2-0.5-4.4-1.6c-1.1-1.1-1.7-2.5-1.7-4.5
	c0-1.8,0.5-3.2,1.6-4.4c1.1-1.1,2.5-1.7,4.5-1.7c1.8,0,3.2,0.6,4.4,1.7C253.3,135.7,253.9,137.1,253.9,138.9L253.9,138.9z"/>
<path class="st0" d="M253.9,66.2c0-1.8,0.6-3.2,1.7-4.3c1.1-1,2.6-1.6,4.4-1.6c3.9,0,5.8,2.1,5.8,6.3c0,1.8-0.6,3.2-1.7,4.3
	c-1.1,1.1-2.6,1.6-4.4,1.6c-3.9,0-5.8-1.9-5.8-5.8C253.9,66.7,253.9,66.2,253.9,66.2z"/>
<path class="st0" d="M253.9,78.3c0-1.8,0.6-3.2,1.7-4.3s2.6-1.6,4.4-1.6c3.9,0,5.8,2.1,5.8,6.3c0,1.8-0.6,3.2-1.7,4.3
	c-1.1,1.1-2.6,1.6-4.4,1.6c-3.9,0-5.8-1.9-5.8-5.8V78.3z"/>
<path class="st0" d="M253.9,90.4c0-1.8,0.6-3.2,1.7-4.3c1.1-1,2.6-1.6,4.4-1.6c3.9,0,5.8,2.1,5.8,6.3c0,1.8-0.6,3.2-1.7,4.3
	c-1.1,1.1-2.6,1.6-4.4,1.6c-3.9,0-5.8-1.9-5.8-5.8C253.9,90.9,253.9,90.4,253.9,90.4z"/>
<path class="st0" d="M253.9,102.6c0-1.8,0.6-3.2,1.7-4.3c1.1-1,2.6-1.6,4.4-1.6c3.9,0,5.8,2.1,5.8,6.3c0,1.8-0.6,3.2-1.7,4.3
	c-1.1,1.1-2.6,1.6-4.4,1.6c-3.9,0-5.8-1.9-5.8-5.8V102.6L253.9,102.6z"/>
<path class="st0" d="M253.9,114.7c0-1.8,0.6-3.2,1.7-4.3c1.1-1.1,2.6-1.6,4.4-1.6s3.2,0.6,4.3,1.7c1,1.1,1.6,2.6,1.6,4.4
	c0,3.9-2,5.8-6.1,5.8s-5.8-1.9-5.8-5.8L253.9,114.7L253.9,114.7z"/>
<path class="st0" d="M253.9,126.6c0-1.8,0.6-3.2,1.7-4.3c1.1-1,2.6-1.6,4.4-1.6c3.9,0,5.8,2.1,5.8,6.3c0,1.8-0.6,3.2-1.7,4.3
	s-2.6,1.6-4.4,1.6c-3.9,0-5.8-1.9-5.8-5.8V126.6L253.9,126.6z"/>
<path class="st0" d="M284,72.5c-2,0-3.4-0.6-4.5-1.7s-1.6-2.6-1.6-4.4c0-1.9,0.6-3.4,1.7-4.5s2.6-1.6,4.4-1.6c1.9,0,3.4,0.6,4.5,1.7
	s1.6,2.6,1.6,4.4s-0.6,3.2-1.7,4.4S285.8,72.5,284,72.5z"/>
<path class="st0" d="M290,78.6c0,1.8-0.6,3.2-1.7,4.4s-2.6,1.7-4.4,1.7c-2,0-3.4-0.6-4.5-1.7s-1.6-2.6-1.6-4.4
	c0-1.9,0.6-3.4,1.7-4.5c1.1-1,2.6-1.6,4.4-1.6c1.9,0,3.4,0.6,4.5,1.7S290,76.8,290,78.6z"/>
<path class="st0" d="M290,90.7c0,1.8-0.6,3.2-1.7,4.4c-1.1,1.1-2.6,1.7-4.4,1.7c-2,0-3.4-0.6-4.5-1.7s-1.6-2.6-1.6-4.4
	c0-1.9,0.6-3.4,1.7-4.5c1.1-1,2.6-1.6,4.4-1.6c1.9,0,3.4,0.6,4.5,1.7S290,88.9,290,90.7z"/>
<path class="st0" d="M290,102.8c0,1.8-0.6,3.2-1.7,4.4c-1.1,1.1-2.6,1.7-4.4,1.7c-2,0-3.4-0.6-4.5-1.7s-1.6-2.6-1.6-4.4
	c0-1.9,0.6-3.4,1.7-4.5c1.1-1,2.6-1.6,4.4-1.6c1.9,0,3.4,0.6,4.5,1.7S290,101,290,102.8z"/>
<path class="st0" d="M290,114.9c0,3.9-2,5.8-5.8,5.8c-4.2,0-6.3-1.9-6.3-5.8c0-1.8,0.5-3.2,1.6-4.4c1-1.1,2.5-1.7,4.3-1.7
	c4.2,0,6.3,1.9,6.3,5.8L290,114.9L290,114.9z"/>
<path class="st0" d="M284,132.9c-2,0-3.4-0.6-4.5-1.7s-1.6-2.6-1.6-4.4c0-1.9,0.6-3.4,1.7-4.5c1.1-1,2.6-1.6,4.4-1.6
	c1.9,0,3.4,0.6,4.5,1.7s1.6,2.6,1.6,4.4s-0.6,3.2-1.7,4.4C287.2,132.3,285.8,132.9,284,132.9z"/>
<path class="st0" d="M296.1,60.4c-2,0-3.4-0.6-4.5-1.7s-1.6-2.6-1.6-4.4c0-1.9,0.6-3.4,1.7-4.5c1.1-1,2.6-1.6,4.4-1.6
	c1.9,0,3.4,0.6,4.5,1.7c1,1.1,1.6,2.6,1.6,4.4s-0.6,3.2-1.7,4.4C299.3,59.8,297.9,60.4,296.1,60.4z"/>
<path class="st0" d="M290,66.4c0-1.9,0.6-3.4,1.7-4.5s2.6-1.6,4.4-1.6c1.9,0,3.4,0.6,4.5,1.7c1,1.1,1.6,2.6,1.6,4.4
	s-0.6,3.2-1.7,4.4s-2.6,1.7-4.4,1.7c-2,0-3.4-0.6-4.5-1.7S290,68.2,290,66.4z"/>
<path class="st0" d="M302.1,78.6c0,1.8-0.6,3.2-1.7,4.4s-2.6,1.7-4.4,1.7c-2,0-3.4-0.6-4.5-1.7s-1.6-2.6-1.6-4.4
	c0-1.9,0.6-3.4,1.7-4.5c1.1-1,2.6-1.6,4.4-1.6c1.9,0,3.4,0.6,4.5,1.7C301.6,75.3,302.1,76.8,302.1,78.6z"/>
<path class="st0" d="M302.1,90.7c0,1.8-0.6,3.2-1.7,4.4c-1.1,1.1-2.6,1.7-4.4,1.7c-2,0-3.4-0.6-4.5-1.7s-1.6-2.6-1.6-4.4
	c0-1.9,0.6-3.4,1.7-4.5c1.1-1,2.6-1.6,4.4-1.6c1.9,0,3.4,0.6,4.5,1.7C301.6,87.4,302.1,88.9,302.1,90.7z"/>
<path class="st0" d="M302.1,102.8c0,1.8-0.6,3.2-1.7,4.4c-1.1,1.1-2.6,1.7-4.4,1.7c-2,0-3.4-0.6-4.5-1.7s-1.6-2.6-1.6-4.4
	c0-1.9,0.6-3.4,1.7-4.5c1.1-1,2.6-1.6,4.4-1.6c1.9,0,3.4,0.6,4.5,1.7C301.6,99.5,302.1,101,302.1,102.8z"/>
<path class="st0" d="M302.1,114.9c0,3.9-2,5.8-5.8,5.8c-4.2,0-6.3-1.9-6.3-5.8c0-1.8,0.5-3.2,1.6-4.4c1-1.1,2.5-1.7,4.3-1.7
	c4.2,0,6.3,1.9,6.3,5.8V114.9z"/>
<path class="st0" d="M290,126.8c0-1.9,0.6-3.4,1.7-4.5c1.1-1,2.6-1.6,4.4-1.6c1.9,0,3.4,0.6,4.5,1.7c1,1.1,1.6,2.6,1.6,4.4
	s-0.6,3.2-1.7,4.4c-1.1,1.1-2.6,1.7-4.4,1.7c-2,0-3.4-0.6-4.5-1.7S290,128.6,290,126.8z"/>
<path class="st0" d="M296.1,145c-2,0-3.4-0.6-4.5-1.7s-1.6-2.6-1.6-4.4c0-1.9,0.6-3.4,1.7-4.5c1.1-1,2.6-1.6,4.4-1.6
	c1.9,0,3.4,0.6,4.5,1.7c1,1.1,1.6,2.6,1.6,4.4s-0.6,3.2-1.7,4.4C299.3,144.4,297.9,145,296.1,145L296.1,145z"/>
<path class="st0" d="M314.2,42.4c0,3.9-2,5.8-5.8,5.8c-4.2,0-6.3-1.9-6.3-5.8c0-1.8,0.5-3.2,1.6-4.4c1-1.1,2.5-1.7,4.3-1.7
	c4.2,0,6.3,2,6.3,5.8L314.2,42.4L314.2,42.4z"/>
<path class="st0" d="M302.1,54.3c0-1.9,0.6-3.4,1.7-4.5s2.6-1.6,4.4-1.6c1.9,0,3.4,0.6,4.5,1.7c1,1.1,1.6,2.6,1.6,4.4
	c0,3.4-1.6,5.4-4.7,5.8c3.1,0.8,4.7,2.8,4.7,6.1c0,1.8-0.6,3.2-1.7,4.4c-1.1,1.1-2.6,1.7-4.4,1.7c-2,0-3.4-0.6-4.5-1.7
	s-1.6-2.6-1.6-4.4c0-3.3,1.6-5.3,4.7-6.1C303.7,59.7,302.1,57.8,302.1,54.3z"/>
<path class="st0" d="M302.1,126.8c0-1.9,0.6-3.4,1.7-4.5c1.1-1,2.6-1.6,4.4-1.6s3.2,0.6,4.4,1.7c1.1,1.1,1.7,2.6,1.7,4.4
	c0,2-0.6,3.4-1.7,4.5s-2.6,1.6-4.4,1.6c-2,0-3.4-0.6-4.5-1.7S302.1,128.6,302.1,126.8L302.1,126.8z"/>
<path class="st0" d="M302.1,138.9c0-1.9,0.6-3.4,1.7-4.5c1.1-1,2.6-1.6,4.4-1.6c1.9,0,3.4,0.6,4.5,1.7c1,1.1,1.6,2.6,1.6,4.4
	s-0.6,3.2-1.7,4.4c-1.1,1.1-2.6,1.7-4.4,1.7c-2,0-3.4-0.6-4.5-1.7S302.1,140.7,302.1,138.9L302.1,138.9z"/>
<path class="st0" d="M302.1,151.1c0-1.8,0.6-3.2,1.7-4.4s2.6-1.7,4.4-1.7c1.9,0,3.4,0.6,4.5,1.7c1,1.1,1.6,2.6,1.6,4.4
	c0,1.9-0.6,3.4-1.7,4.5s-2.6,1.6-4.4,1.6c-2,0-3.4-0.6-4.5-1.7S302.1,152.9,302.1,151.1L302.1,151.1z"/>
<path class="st0" d="M314.2,42.4c0-1.8,0.5-3.2,1.6-4.4c1-1.1,2.5-1.7,4.3-1.7c4.2,0,6.3,2,6.3,5.8v0.2c0,3.9-2,5.8-5.8,5.8
	C316.3,48.3,314.2,46.3,314.2,42.4L314.2,42.4z"/>
<path class="st0" d="M314.2,54.3c0-1.8,0.5-3.2,1.6-4.4c1-1.1,2.5-1.7,4.3-1.7c4.2,0,6.3,2,6.3,5.8v0.2c0,3.9-2,5.8-5.8,5.8
	C316.3,60.2,314.2,58.2,314.2,54.3L314.2,54.3z"/>
<path class="st0" d="M314.2,138.9c0-1.9,0.6-3.4,1.7-4.5c1.1-1,2.6-1.6,4.4-1.6s3.2,0.6,4.4,1.7s1.7,2.6,1.7,4.4
	c0,1.9-0.6,3.4-1.7,4.5s-2.6,1.6-4.4,1.6c-2,0-3.4-0.6-4.5-1.7S314.2,140.7,314.2,138.9z"/>
<path class="st0" d="M314.2,151.1c0-1.8,0.6-3.2,1.7-4.4c1.1-1.1,2.6-1.7,4.4-1.7c1.9,0,3.4,0.6,4.5,1.7s1.6,2.6,1.6,4.4
	c0,1.9-0.6,3.4-1.7,4.5s-2.6,1.6-4.4,1.6c-2,0-3.4-0.6-4.5-1.7S314.2,152.9,314.2,151.1L314.2,151.1z"/>
<path class="st0" d="M326.4,42.4c0-1.8,0.5-3.2,1.6-4.4c1-1.1,2.5-1.7,4.3-1.7c4.2,0,6.3,2,6.3,5.8v0.2c0,3.9-2,5.8-5.8,5.8
	C328.5,48.3,326.4,46.3,326.4,42.4L326.4,42.4z"/>
<path class="st0" d="M326.4,54.3c0-1.8,0.5-3.2,1.6-4.4c1-1.1,2.5-1.7,4.3-1.7c4.2,0,6.3,2,6.3,5.8v0.2c0,3.9-2,5.8-5.8,5.8
	C328.5,60.2,326.4,58.2,326.4,54.3L326.4,54.3z"/>
<path class="st0" d="M332.4,132.9c1.8,0,3.2,0.6,4.4,1.7s1.7,2.6,1.7,4.4c0,1.9-0.6,3.4-1.7,4.5s-2.6,1.6-4.4,1.6
	c-2,0-3.4-0.6-4.5-1.7s-1.6-2.6-1.6-4.4c0-1.9,0.6-3.4,1.7-4.5C329.2,133.4,330.6,132.9,332.4,132.9z"/>
<path class="st0" d="M338.5,151.1c0,1.9-0.6,3.4-1.7,4.5s-2.6,1.6-4.4,1.6c-2,0-3.4-0.6-4.5-1.7s-1.6-2.6-1.6-4.4s0.6-3.2,1.7-4.4
	c1.1-1.1,2.6-1.7,4.4-1.7c1.9,0,3.4,0.6,4.5,1.7S338.5,149.3,338.5,151.1L338.5,151.1z"/>
<path class="st0" d="M350.6,42.4c0,3.9-2,5.8-5.8,5.8c-4.2,0-6.3-1.9-6.3-5.8c0-1.8,0.5-3.2,1.6-4.4c1-1.1,2.5-1.7,4.3-1.7
	c4.2,0,6.3,2,6.3,5.8V42.4z"/>
<path class="st0" d="M338.5,54.3c0-1.9,0.6-3.4,1.7-4.5s2.6-1.6,4.4-1.6c1.9,0,3.4,0.6,4.5,1.7c1,1.1,1.6,2.6,1.6,4.4
	c0,3.3-1.6,5.3-4.7,6.1c3.1,0.5,4.7,2.4,4.7,5.8c0,1.9-0.6,3.4-1.7,4.5c-1.1,1.1-2.6,1.6-4.4,1.6s-3.2-0.6-4.4-1.7
	c-1.1-1.1-1.7-2.6-1.7-4.4c0-3.3,1.6-5.3,4.7-6.1C340.1,59.7,338.5,57.8,338.5,54.3z"/>
<path class="st0" d="M338.5,126.8c0-1.8,0.6-3.2,1.7-4.4c1.1-1.1,2.6-1.7,4.4-1.7c1.9,0,3.4,0.6,4.5,1.7c1,1.1,1.6,2.6,1.6,4.4
	c0,2-0.6,3.4-1.7,4.5s-2.6,1.6-4.4,1.6c-2,0-3.4-0.6-4.5-1.7S338.5,128.6,338.5,126.8L338.5,126.8z"/>
<path class="st0" d="M344.5,145c-1.8,0-3.2-0.6-4.4-1.7c-1.1-1.1-1.7-2.6-1.7-4.4c0-1.9,0.6-3.4,1.7-4.5c1.1-1,2.6-1.6,4.4-1.6
	c1.9,0,3.4,0.6,4.5,1.7c1,1.1,1.6,2.6,1.6,4.4c0,1.9-0.6,3.4-1.7,4.5S346.4,145,344.5,145z"/>
<path class="st0" d="M344.5,157.1c-2,0-3.4-0.6-4.5-1.7s-1.6-2.6-1.6-4.4s0.6-3.2,1.7-4.4s2.6-1.7,4.4-1.7c1.9,0,3.4,0.6,4.5,1.7
	c1,1.1,1.6,2.6,1.6,4.4c0,1.9-0.6,3.4-1.7,4.5S346.4,157.1,344.5,157.1L344.5,157.1z"/>
<path class="st0" d="M362.7,54.3c0,1.8-0.6,3.2-1.7,4.4c-1.1,1.1-2.6,1.7-4.4,1.7c-2,0-3.4-0.6-4.5-1.7s-1.6-2.6-1.6-4.4
	c0-1.9,0.6-3.4,1.7-4.5s2.6-1.6,4.4-1.6c1.9,0,3.4,0.6,4.5,1.7C362.2,51,362.7,52.5,362.7,54.3z"/>
<path class="st0" d="M356.7,72.5c-1.8,0-3.2-0.6-4.4-1.7s-1.7-2.6-1.7-4.4c0-1.9,0.6-3.4,1.7-4.5s2.6-1.6,4.4-1.6
	c1.9,0,3.4,0.6,4.5,1.7c1,1.1,1.6,2.6,1.6,4.4c0,1.9-0.6,3.4-1.7,4.5C359.9,72,358.5,72.5,356.7,72.5z"/>
<path class="st0" d="M356.7,84.6c-1.8,0-3.2-0.6-4.4-1.7s-1.7-2.6-1.7-4.4c0-1.9,0.6-3.4,1.7-4.5c1.1-1,2.6-1.6,4.4-1.6
	c1.9,0,3.4,0.6,4.5,1.7c1,1.1,1.6,2.6,1.6,4.4c0,1.9-0.6,3.4-1.7,4.5C359.9,84.1,358.5,84.6,356.7,84.6z"/>
<path class="st0" d="M356.7,96.7c-1.8,0-3.2-0.6-4.4-1.7c-1.1-1.1-1.7-2.6-1.7-4.4c0-1.9,0.6-3.4,1.7-4.5c1.1-1,2.6-1.6,4.4-1.6
	c1.9,0,3.4,0.6,4.5,1.7c1,1.1,1.6,2.6,1.6,4.4c0,1.9-0.6,3.4-1.7,4.5C359.9,96.2,358.5,96.7,356.7,96.7z"/>
<path class="st0" d="M356.7,108.9c-1.8,0-3.2-0.6-4.4-1.7c-1.1-1.1-1.7-2.6-1.7-4.4c0-1.9,0.6-3.4,1.7-4.5c1.1-1,2.6-1.6,4.4-1.6
	c1.9,0,3.4,0.6,4.5,1.7c1,1.1,1.6,2.6,1.6,4.4c0,1.9-0.6,3.4-1.7,4.5C359.9,108.3,358.5,108.9,356.7,108.9z"/>
<path class="st0" d="M356.4,120.8c-3.9,0-5.8-1.9-5.8-5.8c0-1.8,0.5-3.2,1.6-4.4c1-1.1,2.5-1.7,4.3-1.7c4.2,0,6.3,1.9,6.3,5.8
	c0,1.8-0.5,3.2-1.6,4.4c-1,1.1-2.5,1.7-4.3,1.7C356.9,120.8,356.4,120.8,356.4,120.8z"/>
<path class="st0" d="M356.7,132.9c-1.8,0-3.2-0.6-4.4-1.7c-1.1-1.1-1.7-2.6-1.7-4.4c0-1.9,0.6-3.4,1.7-4.5c1.1-1,2.6-1.6,4.4-1.6
	c1.9,0,3.4,0.6,4.5,1.7c1,1.1,1.6,2.6,1.6,4.4c0,2-0.6,3.4-1.7,4.5S358.5,132.9,356.7,132.9L356.7,132.9z"/>
<path class="st0" d="M362.7,138.9c0,1.8-0.6,3.2-1.7,4.4c-1.1,1.1-2.6,1.7-4.4,1.7c-2,0-3.4-0.6-4.5-1.7s-1.6-2.6-1.6-4.4
	c0-1.9,0.6-3.4,1.7-4.5c1.1-1,2.6-1.6,4.4-1.6c1.9,0,3.4,0.6,4.5,1.7C362.2,135.7,362.7,137.1,362.7,138.9L362.7,138.9z"/>
<path class="st0" d="M374.8,66.4c0,1.8-0.6,3.2-1.7,4.4c-1.1,1.1-2.6,1.7-4.4,1.7c-2,0-3.4-0.6-4.5-1.7s-1.6-2.6-1.6-4.4
	c0-1.9,0.6-3.4,1.7-4.5s2.6-1.6,4.4-1.6c1.9,0,3.4,0.6,4.5,1.7S374.8,64.6,374.8,66.4z"/>
<path class="st0" d="M362.7,78.6c0-1.8,0.6-3.2,1.7-4.4c1.1-1.1,2.6-1.7,4.4-1.7c1.9,0,3.4,0.6,4.5,1.7s1.6,2.6,1.6,4.4
	c0,1.9-0.6,3.4-1.7,4.5c-1.1,1.1-2.6,1.6-4.4,1.6c-2,0-3.4-0.6-4.5-1.7S362.7,80.4,362.7,78.6z"/>
<path class="st0" d="M362.7,90.7c0-1.8,0.6-3.2,1.7-4.4s2.6-1.7,4.4-1.7c1.9,0,3.4,0.6,4.5,1.7s1.6,2.6,1.6,4.4
	c0,1.9-0.6,3.4-1.7,4.5c-1.1,1.1-2.6,1.6-4.4,1.6c-2,0-3.4-0.6-4.5-1.7S362.7,92.5,362.7,90.7z"/>
<path class="st0" d="M362.7,102.8c0-1.8,0.6-3.2,1.7-4.4s2.6-1.7,4.4-1.7c1.9,0,3.4,0.6,4.5,1.7s1.6,2.6,1.6,4.4
	c0,1.9-0.6,3.4-1.7,4.5c-1.1,1.1-2.6,1.6-4.4,1.6c-2,0-3.4-0.6-4.5-1.7S362.7,104.6,362.7,102.8z"/>
<path class="st0" d="M362.7,114.7c0-3.9,1.9-5.8,5.8-5.8c4.2,0,6.3,1.9,6.3,5.8c0,1.8-0.5,3.2-1.6,4.4c-1,1.1-2.5,1.7-4.3,1.7
	c-4.2,0-6.3-1.9-6.3-5.8L362.7,114.7L362.7,114.7z"/>
<path class="st0" d="M374.8,126.8c0,1.8-0.6,3.3-1.7,4.4s-2.6,1.7-4.4,1.7c-2,0-3.4-0.6-4.5-1.7s-1.6-2.6-1.6-4.4
	c0-1.9,0.6-3.4,1.7-4.5c1.1-1,2.6-1.6,4.4-1.6c1.9,0,3.4,0.6,4.5,1.7S374.8,125,374.8,126.8z"/>
<path class="st0" d="M393,48.3c-2,0-3.4-0.6-4.5-1.7S387,44,387,42.2c0-1.9,0.6-3.4,1.7-4.5c1.1-1,2.6-1.6,4.4-1.6
	c1.9,0,3.4,0.6,4.5,1.7s1.6,2.6,1.6,4.4s-0.6,3.2-1.7,4.4C396.3,47.7,394.8,48.3,393,48.3z"/>
<path class="st0" d="M399.1,54.3c0,1.8-0.6,3.2-1.7,4.4c-1.1,1.1-2.6,1.7-4.4,1.7c-2,0-3.4-0.6-4.5-1.7s-1.6-2.6-1.6-4.4
	c0-1.9,0.6-3.4,1.7-4.5s2.6-1.6,4.4-1.6c1.9,0,3.4,0.6,4.5,1.7S399.1,52.5,399.1,54.3z"/>
<path class="st0" d="M393,72.5c-2,0-3.4-0.6-4.5-1.7s-1.6-2.6-1.6-4.4c0-1.9,0.6-3.4,1.7-4.5s2.6-1.6,4.4-1.6c1.9,0,3.4,0.6,4.5,1.7
	s1.6,2.6,1.6,4.4s-0.6,3.2-1.7,4.4S394.8,72.5,393,72.5z"/>
<path class="st0" d="M393,84.6c-2,0-3.4-0.6-4.5-1.7s-1.6-2.6-1.6-4.4c0-1.9,0.6-3.4,1.7-4.5c1.1-1,2.6-1.6,4.4-1.6
	c1.9,0,3.4,0.6,4.5,1.7s1.6,2.6,1.6,4.4s-0.6,3.2-1.7,4.4S394.8,84.6,393,84.6z"/>
<path class="st0" d="M393,96.7c-2,0-3.4-0.6-4.5-1.7s-1.6-2.6-1.6-4.4c0-1.9,0.6-3.4,1.7-4.5c1.1-1,2.6-1.6,4.4-1.6
	c1.9,0,3.4,0.6,4.5,1.7s1.6,2.6,1.6,4.4s-0.6,3.2-1.7,4.4C396.3,96.2,394.8,96.7,393,96.7z"/>
<path class="st0" d="M393,108.9c-2,0-3.4-0.6-4.5-1.7s-1.6-2.6-1.6-4.4c0-1.9,0.6-3.4,1.7-4.5c1.1-1,2.6-1.6,4.4-1.6
	c1.9,0,3.4,0.6,4.5,1.7s1.6,2.6,1.6,4.4s-0.6,3.2-1.7,4.4C396.3,108.3,394.8,108.9,393,108.9z"/>
<path class="st0" d="M399.1,114.9c0,3.9-2,5.8-5.8,5.8c-4.2,0-6.3-1.9-6.3-5.8c0-1.8,0.5-3.2,1.6-4.4c1-1.1,2.5-1.7,4.3-1.7
	c4.2,0,6.3,1.9,6.3,5.8L399.1,114.9L399.1,114.9z"/>
<path class="st0" d="M393,132.9c-2,0-3.4-0.6-4.5-1.7s-1.6-2.6-1.6-4.4c0-1.9,0.6-3.4,1.7-4.5c1.1-1,2.6-1.6,4.4-1.6
	c1.9,0,3.4,0.6,4.5,1.7s1.6,2.6,1.6,4.4s-0.6,3.2-1.7,4.4C396.3,132.3,394.8,132.9,393,132.9z"/>
<path class="st0" d="M399.1,42.2c0-1.9,0.6-3.4,1.7-4.5c1.1-1,2.6-1.6,4.4-1.6c1.9,0,3.4,0.6,4.5,1.7c1,1.1,1.6,2.6,1.6,4.4
	s-0.6,3.2-1.7,4.4c-1.1,1.1-2.6,1.7-4.4,1.7c-2,0-3.4-0.6-4.5-1.7S399.1,44,399.1,42.2z"/>
<path class="st0" d="M411.2,54.3c0,1.8-0.6,3.2-1.7,4.4c-1.1,1.1-2.6,1.7-4.4,1.7c-2,0-3.4-0.6-4.5-1.7s-1.6-2.6-1.6-4.4
	c0-1.9,0.6-3.4,1.7-4.5c1.1-1,2.6-1.6,4.4-1.6c1.9,0,3.4,0.6,4.5,1.7C410.7,51,411.2,52.5,411.2,54.3z"/>
<path class="st0" d="M399.1,66.4c0-1.9,0.6-3.4,1.7-4.5s2.6-1.6,4.4-1.6c1.9,0,3.4,0.6,4.5,1.7c1,1.1,1.6,2.6,1.6,4.4
	s-0.6,3.2-1.7,4.4s-2.6,1.7-4.4,1.7c-2,0-3.4-0.6-4.5-1.7S399.1,68.2,399.1,66.4z"/>
<path class="st0" d="M399.1,78.6c0-1.9,0.6-3.4,1.7-4.5c1.1-1,2.6-1.6,4.4-1.6c1.9,0,3.4,0.6,4.5,1.7c1,1.1,1.6,2.6,1.6,4.4
	s-0.6,3.2-1.7,4.4s-2.6,1.7-4.4,1.7c-2,0-3.4-0.6-4.5-1.7S399.1,80.3,399.1,78.6z"/>
<path class="st0" d="M399.1,90.7c0-1.9,0.6-3.4,1.7-4.5c1.1-1,2.6-1.6,4.4-1.6c1.9,0,3.4,0.6,4.5,1.7c1,1.1,1.6,2.6,1.6,4.4
	s-0.6,3.2-1.7,4.4c-1.1,1.1-2.6,1.7-4.4,1.7c-2,0-3.4-0.6-4.5-1.7S399.1,92.5,399.1,90.7z"/>
<path class="st0" d="M399.1,102.8c0-1.9,0.6-3.4,1.7-4.5c1.1-1,2.6-1.6,4.4-1.6c1.9,0,3.4,0.6,4.5,1.7c1,1.1,1.6,2.6,1.6,4.4
	s-0.6,3.2-1.7,4.4c-1.1,1.1-2.6,1.7-4.4,1.7c-2,0-3.4-0.6-4.5-1.7S399.1,104.6,399.1,102.8z"/>
<path class="st0" d="M411.2,114.9c0,3.9-2,5.8-5.8,5.8c-4.2,0-6.3-1.9-6.3-5.8c0-1.8,0.5-3.2,1.6-4.4c1-1.1,2.5-1.7,4.3-1.7
	c4.2,0,6.3,1.9,6.3,5.8C411.2,114.7,411.2,114.9,411.2,114.9z"/>
<path class="st0" d="M399.1,126.8c0-1.9,0.6-3.4,1.7-4.5c1.1-1,2.6-1.6,4.4-1.6c1.9,0,3.4,0.6,4.5,1.7c1,1.1,1.6,2.6,1.6,4.4
	c0,1.8-0.6,3.2-1.7,4.4c-1.1,1.1-2.6,1.7-4.4,1.7c-2,0-3.4-0.6-4.5-1.7S399.1,128.6,399.1,126.8z"/>
<path class="st0" d="M411.2,138.9c0,1.8-0.6,3.2-1.7,4.4c-1.1,1.1-2.6,1.7-4.4,1.7c-2,0-3.4-0.6-4.5-1.7s-1.6-2.6-1.6-4.4
	c0-1.9,0.6-3.4,1.7-4.5c1.1-1,2.6-1.6,4.4-1.6c1.9,0,3.4,0.6,4.5,1.7C410.7,135.7,411.2,137.1,411.2,138.9L411.2,138.9z"/>
<path class="st0" d="M411.2,126.8c0-1.9,0.6-3.4,1.7-4.5c1.1-1,2.6-1.6,4.4-1.6c1.9,0,3.4,0.6,4.5,1.7c1,1.1,1.6,2.6,1.6,4.4
	s-0.6,3.2-1.7,4.4c-1.1,1.1-2.6,1.7-4.4,1.7c-2,0-3.4-0.6-4.5-1.7S411.2,128.6,411.2,126.8z"/>
<path class="st0" d="M423.3,138.9c0,1.8-0.6,3.2-1.7,4.4c-1.1,1.1-2.6,1.7-4.4,1.7c-2,0-3.4-0.6-4.5-1.7s-1.6-2.6-1.6-4.4
	c0-1.9,0.6-3.4,1.7-4.5c1.1-1,2.6-1.6,4.4-1.6c1.9,0,3.4,0.6,4.5,1.7C422.8,135.7,423.3,137.1,423.3,138.9L423.3,138.9z"/>
<path class="st0" d="M411.2,151.1c0-1.8,0.6-3.2,1.7-4.4s2.6-1.7,4.4-1.7c1.9,0,3.4,0.6,4.5,1.7c1,1.1,1.6,2.6,1.6,4.4
	c0,1.9-0.6,3.4-1.7,4.5s-2.6,1.6-4.4,1.6c-2,0-3.4-0.6-4.5-1.7S411.2,152.9,411.2,151.1L411.2,151.1z"/>
<path class="st0" d="M423.3,138.9c0-1.8,0.6-3.2,1.7-4.4s2.6-1.7,4.4-1.7c1.9,0,3.4,0.6,4.5,1.7s1.6,2.6,1.6,4.4
	c0,1.9-0.6,3.4-1.7,4.5s-2.6,1.6-4.4,1.6c-2,0-3.4-0.6-4.5-1.7S423.3,140.7,423.3,138.9L423.3,138.9z"/>
<path class="st0" d="M423.3,151.1c0-1.8,0.6-3.2,1.7-4.4c1.1-1.1,2.6-1.7,4.4-1.7c1.9,0,3.4,0.6,4.5,1.7s1.6,2.6,1.6,4.4
	c0,1.9-0.6,3.4-1.7,4.5s-2.6,1.6-4.4,1.6c-2,0-3.4-0.6-4.5-1.7S423.3,152.9,423.3,151.1L423.3,151.1z"/>
<path class="st0" d="M435.4,138.9c0-1.8,0.6-3.2,1.7-4.4s2.6-1.7,4.4-1.7c1.9,0,3.4,0.6,4.5,1.7s1.6,2.6,1.6,4.4
	c0,1.9-0.6,3.4-1.7,4.5s-2.6,1.6-4.4,1.6c-2,0-3.4-0.6-4.5-1.7S435.4,140.7,435.4,138.9L435.4,138.9z"/>
<path class="st0" d="M435.4,151.1c0-1.8,0.6-3.2,1.7-4.4c1.1-1.1,2.6-1.7,4.4-1.7c1.9,0,3.4,0.6,4.5,1.7s1.6,2.6,1.6,4.4
	c0,1.9-0.6,3.4-1.7,4.5s-2.6,1.6-4.4,1.6c-2,0-3.4-0.6-4.5-1.7S435.4,152.9,435.4,151.1L435.4,151.1z"/>
<path class="st0" d="M459.7,126.8c0,1.8-0.6,3.2-1.7,4.4c-1.1,1.1-2.6,1.7-4.4,1.7c-2,0-3.4-0.6-4.5-1.7s-1.6-2.6-1.6-4.4
	c0-1.9,0.6-3.4,1.7-4.5c1.1-1,2.6-1.6,4.4-1.6c1.9,0,3.4,0.6,4.5,1.7C459.2,123.6,459.7,125,459.7,126.8z"/>
<path class="st0" d="M459.7,138.9c0,1.8-0.6,3.2-1.7,4.4c-1.1,1.1-2.6,1.7-4.4,1.7c-2,0-3.4-0.6-4.5-1.7s-1.6-2.6-1.6-4.4
	c0-1.9,0.6-3.4,1.7-4.5c1.1-1,2.6-1.6,4.4-1.6c1.9,0,3.4,0.6,4.5,1.7C459.2,135.7,459.7,137.1,459.7,138.9L459.7,138.9z"/>
<path class="st0" d="M459.2,151.1c0-1.8,0.6-3.2,1.7-4.4c1.1-1.1,2.6-1.7,4.4-1.7c2.1,0,3.7,0.6,4.7,1.7c1,1.1,1.6,2.6,1.6,4.4
	c0,1.9-0.6,3.4-1.7,4.5s-2.6,1.6-4.4,1.6c-2.1,0-3.7-0.6-4.7-1.7C459.8,154.3,459.2,152.9,459.2,151.1L459.2,151.1z"/>
<path class="st0" d="M459.7,42c0-3.9,1.9-5.8,5.8-5.8c1.8,0,3.2,0.5,4.4,1.6c1.1,1,1.7,2.5,1.7,4.3c0,4.2-2,6.3-5.8,6.3
	c-1.8,0-3.2-0.5-4.4-1.6c-1.1-1-1.7-2.5-1.7-4.3V42z"/>
<path class="st0" d="M459.7,54.1c0-3.9,1.9-5.8,5.8-5.8c1.8,0,3.2,0.5,4.4,1.6c1.1,1,1.7,2.5,1.7,4.3c0,4.2-2,6.3-5.8,6.3
	c-1.8,0-3.2-0.5-4.4-1.6c-1.1-1-1.7-2.5-1.7-4.3V54.1L459.7,54.1z"/>
<path class="st0" d="M459.7,66.2c0-3.9,1.9-5.8,5.8-5.8c1.8,0,3.2,0.5,4.4,1.6c1.1,1,1.7,2.5,1.7,4.3c0,4.2-2,6.3-5.8,6.3
	c-1.8,0-3.2-0.5-4.4-1.6c-1.1-1-1.7-2.5-1.7-4.3V66.2z"/>
<path class="st0" d="M459.7,78.3c0-3.9,1.9-5.8,5.8-5.8c1.8,0,3.2,0.5,4.4,1.6c1.1,1.1,1.7,2.5,1.7,4.3c0,4.2-2,6.3-5.8,6.3
	c-1.8,0-3.2-0.5-4.4-1.6c-1.1-1-1.7-2.5-1.7-4.3C459.7,78.8,459.7,78.3,459.7,78.3z"/>
<path class="st0" d="M459.7,90.4c0-3.9,1.9-5.8,5.8-5.8c1.8,0,3.2,0.5,4.4,1.6c1.1,1.1,1.7,2.5,1.7,4.3c0,4.2-2,6.3-5.8,6.3
	c-1.8,0-3.2-0.5-4.4-1.6c-1.1-1.1-1.7-2.5-1.7-4.3V90.4z"/>
<path class="st0" d="M459.7,102.6c0-3.9,1.9-5.8,5.8-5.8c1.8,0,3.2,0.5,4.4,1.6c1.1,1.1,1.7,2.5,1.7,4.3c0,4.2-2,6.3-5.8,6.3
	c-1.8,0-3.2-0.5-4.4-1.6c-1.1-1.1-1.7-2.5-1.7-4.3C459.7,103,459.7,102.6,459.7,102.6z"/>
<path class="st0" d="M459.7,114.7c0-3.9,1.9-5.8,5.8-5.8s6.1,1.9,6.1,5.8c0,1.8-0.5,3.2-1.6,4.4c-1,1.1-2.5,1.7-4.3,1.7
	s-3.2-0.5-4.4-1.6c-1.1-1-1.7-2.5-1.7-4.3L459.7,114.7L459.7,114.7z"/>
<path class="st0" d="M459.7,126.6c0-3.9,1.9-5.8,5.8-5.8c1.8,0,3.2,0.5,4.4,1.6c1.1,1.1,1.7,2.5,1.7,4.3c0,4.2-2,6.3-5.8,6.3
	c-1.8,0-3.2-0.5-4.4-1.6c-1.1-1.1-1.7-2.5-1.7-4.3C459.7,127,459.7,126.6,459.7,126.6z"/>
<path class="st0" d="M459.7,138.7c0-3.9,1.9-5.8,5.8-5.8c1.8,0,3.2,0.5,4.4,1.6c1.1,1.1,1.7,2.5,1.7,4.3c0,4.2-2,6.3-5.8,6.3
	c-1.8,0-3.2-0.5-4.4-1.6c-1.1-1.1-1.7-2.5-1.7-4.3V138.7z"/>
<path class="st0" d="M471.6,42c0-3.9,1.9-5.8,5.8-5.8c1.8,0,3.2,0.5,4.4,1.6c1.1,1,1.7,2.5,1.7,4.3c0,4.2-2,6.3-5.8,6.3
	c-1.8,0-3.2-0.5-4.4-1.6c-1.1-1-1.7-2.5-1.7-4.3V42z"/>
<path class="st0" d="M471.6,54.1c0-3.9,1.9-5.8,5.8-5.8c1.8,0,3.2,0.5,4.4,1.6c1.1,1,1.7,2.5,1.7,4.3c0,4.2-2,6.3-5.8,6.3
	c-1.8,0-3.2-0.5-4.4-1.6c-1.1-1-1.7-2.5-1.7-4.3V54.1L471.6,54.1z"/>
<path class="st0" d="M471.6,66.2c0-3.9,1.9-5.8,5.8-5.8c1.8,0,3.2,0.5,4.4,1.6c1.1,1,1.7,2.5,1.7,4.3c0,4.2-2,6.3-5.8,6.3
	c-1.8,0-3.2-0.5-4.4-1.6c-1.1-1-1.7-2.5-1.7-4.3V66.2z"/>
<path class="st0" d="M471.6,78.3c0-3.9,1.9-5.8,5.8-5.8c1.8,0,3.2,0.5,4.4,1.6c1.1,1.1,1.7,2.5,1.7,4.3c0,4.2-2,6.3-5.8,6.3
	c-1.8,0-3.2-0.5-4.4-1.6c-1.1-1-1.7-2.5-1.7-4.3C471.6,78.8,471.6,78.3,471.6,78.3z"/>
<path class="st0" d="M471.6,90.4c0-3.9,1.9-5.8,5.8-5.8c1.8,0,3.2,0.5,4.4,1.6c1.1,1.1,1.7,2.5,1.7,4.3c0,4.2-2,6.3-5.8,6.3
	c-1.8,0-3.2-0.5-4.4-1.6c-1.1-1.1-1.7-2.5-1.7-4.3V90.4z"/>
<path class="st0" d="M471.6,102.6c0-3.9,1.9-5.8,5.8-5.8c1.8,0,3.2,0.5,4.4,1.6c1.1,1.1,1.7,2.5,1.7,4.3c0,4.2-2,6.3-5.8,6.3
	c-1.8,0-3.2-0.5-4.4-1.6c-1.1-1.1-1.7-2.5-1.7-4.3C471.6,103,471.6,102.6,471.6,102.6z"/>
<path class="st0" d="M471.6,114.7c0-3.9,1.9-5.8,5.8-5.8s6.1,1.9,6.1,5.8c0,1.8-0.5,3.2-1.6,4.4c-1,1.1-2.5,1.7-4.3,1.7
	s-3.2-0.5-4.4-1.6c-1.1-1-1.7-2.5-1.7-4.3V114.7L471.6,114.7z"/>
<path class="st0" d="M471.6,126.6c0-3.9,1.9-5.8,5.8-5.8c1.8,0,3.2,0.5,4.4,1.6c1.1,1.1,1.7,2.5,1.7,4.3c0,4.2-2,6.3-5.8,6.3
	c-1.8,0-3.2-0.5-4.4-1.6c-1.1-1.1-1.7-2.5-1.7-4.3C471.6,127,471.6,126.6,471.6,126.6z"/>
<path class="st0" d="M471.6,138.7c0-3.9,1.9-5.8,5.8-5.8c1.8,0,3.2,0.5,4.4,1.6c1.1,1.1,1.7,2.5,1.7,4.3c0,4.2-2,6.3-5.8,6.3
	c-1.8,0-3.2-0.5-4.4-1.6c-1.1-1.1-1.7-2.5-1.7-4.3V138.7z"/>
<path class="st0" d="M471.6,150.8c0-3.9,1.9-5.8,5.8-5.8c1.8,0,3.2,0.5,4.4,1.6c1.1,1.1,1.7,2.5,1.7,4.3c0,4.2-2,6.3-5.8,6.3
	c-1.8,0-3.2-0.5-4.4-1.6c-1.1-1-1.7-2.5-1.7-4.3V150.8z"/>
<path class="st0" d="M507.7,54.3c0,1.8-0.6,3.2-1.7,4.4c-1.1,1.1-2.6,1.7-4.4,1.7c-2,0-3.4-0.6-4.5-1.7s-1.6-2.6-1.6-4.4
	c0-1.9,0.6-3.4,1.7-4.5s2.6-1.6,4.4-1.6c1.9,0,3.4,0.6,4.5,1.7S507.7,52.5,507.7,54.3z"/>
<path class="st0" d="M507.7,66.4c0,1.8-0.6,3.2-1.7,4.4s-2.6,1.7-4.4,1.7c-2,0-3.4-0.6-4.5-1.7s-1.6-2.6-1.6-4.4
	c0-1.9,0.6-3.4,1.7-4.5s2.6-1.6,4.4-1.6c1.9,0,3.4,0.6,4.5,1.7S507.7,64.6,507.7,66.4z"/>
<path class="st0" d="M519.9,42.4c0,3.9-2,5.8-5.8,5.8c-4.2,0-6.3-1.9-6.3-5.8c0-1.8,0.5-3.2,1.6-4.4c1-1.1,2.5-1.7,4.3-1.7
	c4.2,0,6.3,2,6.3,5.8L519.9,42.4L519.9,42.4z"/>
<path class="st0" d="M519.9,54.3c0,1.8-0.6,3.2-1.7,4.4c-1.1,1.1-2.6,1.7-4.4,1.7c-2,0-3.4-0.6-4.5-1.7s-1.6-2.6-1.6-4.4
	c0-1.9,0.6-3.4,1.7-4.5s2.6-1.6,4.4-1.6c1.9,0,3.4,0.6,4.5,1.7C519.3,51.1,519.9,52.5,519.9,54.3z"/>
<path class="st0" d="M519.9,66.4c0,1.8-0.6,3.2-1.7,4.4s-2.6,1.7-4.4,1.7c-2,0-3.4-0.6-4.5-1.7s-1.6-2.6-1.6-4.4
	c0-1.9,0.6-3.4,1.7-4.5s2.6-1.6,4.4-1.6c1.9,0,3.4,0.6,4.5,1.7C519.3,63.2,519.9,64.6,519.9,66.4z"/>
<path class="st0" d="M532,18.2c0,1.8-0.6,3.2-1.7,4.4s-2.6,1.7-4.4,1.7c-2,0-3.4-0.6-4.5-1.7s-1.6-2.6-1.6-4.4
	c0-1.9,0.6-3.4,1.7-4.5s2.6-1.6,4.4-1.6c1.9,0,3.4,0.6,4.5,1.7C531.4,14.9,532,16.4,532,18.2z"/>
<path class="st0" d="M532,30.3c0,1.8-0.6,3.2-1.7,4.4c-1.1,1.1-2.6,1.7-4.4,1.7c-2,0-3.4-0.6-4.5-1.7s-1.6-2.6-1.6-4.4
	c0-1.9,0.6-3.4,1.7-4.5s2.6-1.6,4.4-1.6c1.9,0,3.4,0.6,4.5,1.7C531.4,27,532,28.5,532,30.3z"/>
<path class="st0" d="M532,42.4c0,3.9-2,5.8-5.8,5.8c-4.2,0-6.3-1.9-6.3-5.8c0-1.8,0.5-3.2,1.6-4.4c1-1.1,2.5-1.7,4.3-1.7
	c4.2,0,6.3,2,6.3,5.8L532,42.4L532,42.4z"/>
<path class="st0" d="M532,54.3c0,1.8-0.6,3.2-1.7,4.4s-2.6,1.7-4.4,1.7c-2,0-3.4-0.6-4.5-1.7s-1.6-2.6-1.6-4.4
	c0-1.9,0.6-3.4,1.7-4.5s2.6-1.6,4.4-1.6c1.9,0,3.4,0.6,4.5,1.7C531.4,51.1,532,52.5,532,54.3z"/>
<path class="st0" d="M519.9,66.4c0-1.9,0.6-3.4,1.7-4.5s2.6-1.6,4.4-1.6c1.9,0,3.4,0.6,4.5,1.7c1,1.1,1.6,2.6,1.6,4.4
	s-0.6,3.2-1.7,4.4c-1.1,1.1-2.6,1.7-4.4,1.7c-2,0-3.4-0.6-4.5-1.7S519.9,68.2,519.9,66.4z"/>
<path class="st0" d="M532,78.6c0,1.8-0.6,3.2-1.7,4.4c-1.1,1.1-2.6,1.7-4.4,1.7c-2,0-3.4-0.6-4.5-1.7s-1.6-2.6-1.6-4.4
	c0-1.9,0.6-3.4,1.7-4.5c1.1-1,2.6-1.6,4.4-1.6c1.9,0,3.4,0.6,4.5,1.7C531.4,75.3,532,76.8,532,78.6z"/>
<path class="st0" d="M532,90.7c0,1.8-0.6,3.2-1.7,4.4c-1.1,1.1-2.6,1.7-4.4,1.7c-2,0-3.4-0.6-4.5-1.7s-1.6-2.6-1.6-4.4
	c0-1.9,0.6-3.4,1.7-4.5c1.1-1,2.6-1.6,4.4-1.6c1.9,0,3.4,0.6,4.5,1.7C531.4,87.4,532,88.9,532,90.7z"/>
<path class="st0" d="M532,102.8c0,1.8-0.6,3.2-1.7,4.4c-1.1,1.1-2.6,1.7-4.4,1.7c-2,0-3.4-0.6-4.5-1.7s-1.6-2.6-1.6-4.4
	c0-1.9,0.6-3.4,1.7-4.5c1.1-1,2.6-1.6,4.4-1.6c1.9,0,3.4,0.6,4.5,1.7C531.4,99.5,532,101,532,102.8z"/>
<path class="st0" d="M532,114.9c0,3.9-2,5.8-5.8,5.8c-4.2,0-6.3-1.9-6.3-5.8c0-1.8,0.5-3.2,1.6-4.4c1-1.1,2.5-1.7,4.3-1.7
	c4.2,0,6.3,1.9,6.3,5.8L532,114.9L532,114.9z"/>
<path class="st0" d="M532,126.8c0,1.8-0.6,3.2-1.7,4.4c-1.1,1.1-2.6,1.7-4.4,1.7c-2,0-3.4-0.6-4.5-1.7s-1.6-2.6-1.6-4.4
	c0-1.9,0.6-3.4,1.7-4.5c1.1-1,2.6-1.6,4.4-1.6c1.9,0,3.4,0.6,4.5,1.7C531.4,123.6,532,125,532,126.8z"/>
<path class="st0" d="M532,138.9c0,1.8-0.6,3.2-1.7,4.4c-1.1,1.1-2.6,1.7-4.4,1.7c-2,0-3.4-0.6-4.5-1.7s-1.6-2.6-1.6-4.4
	c0-1.9,0.6-3.4,1.7-4.5c1.1-1,2.6-1.6,4.4-1.6c1.9,0,3.4,0.6,4.5,1.7C531.4,135.7,532,137.1,532,138.9L532,138.9z"/>
<path class="st0" d="M544.1,18.2c0,1.8-0.6,3.2-1.7,4.4c-1.1,1.1-2.6,1.7-4.4,1.7c-2,0-3.4-0.6-4.5-1.7S532,20,532,18.2
	c0-1.9,0.6-3.4,1.7-4.5s2.6-1.6,4.4-1.6c1.9,0,3.4,0.6,4.5,1.7S544.1,16.4,544.1,18.2z"/>
<path class="st0" d="M544.1,30.3c0,1.8-0.6,3.2-1.7,4.4c-1.1,1.1-2.6,1.7-4.4,1.7c-2,0-3.4-0.6-4.5-1.7s-1.6-2.6-1.6-4.4
	c0-1.9,0.6-3.4,1.7-4.5s2.6-1.6,4.4-1.6c1.9,0,3.4,0.6,4.5,1.7S544.1,28.5,544.1,30.3z"/>
<path class="st0" d="M538,60.4c-2,0-3.4-0.6-4.5-1.7s-1.6-2.6-1.6-4.4c0-1.9,0.6-3.4,1.7-4.5c1.1-1,2.6-1.6,4.4-1.6
	c1.9,0,3.4,0.6,4.5,1.7s1.6,2.6,1.6,4.4s-0.6,3.2-1.7,4.4C541.3,59.8,539.8,60.4,538,60.4z"/>
<path class="st0" d="M532,66.4c0-1.9,0.6-3.4,1.7-4.5s2.6-1.6,4.4-1.6c1.9,0,3.4,0.6,4.5,1.7s1.6,2.6,1.6,4.4s-0.6,3.2-1.7,4.4
	c-1.1,1.1-2.6,1.7-4.4,1.7c-2,0-3.4-0.6-4.5-1.7S532,68.2,532,66.4z"/>
<path class="st0" d="M544.1,78.6c0,1.8-0.6,3.2-1.7,4.4c-1.1,1.1-2.6,1.7-4.4,1.7c-2,0-3.4-0.6-4.5-1.7s-1.6-2.6-1.6-4.4
	c0-1.9,0.6-3.4,1.7-4.5c1.1-1,2.6-1.6,4.4-1.6c1.9,0,3.4,0.6,4.5,1.7S544.1,76.8,544.1,78.6z"/>
<path class="st0" d="M544.1,90.7c0,1.8-0.6,3.2-1.7,4.4s-2.6,1.7-4.4,1.7c-2,0-3.4-0.6-4.5-1.7s-1.6-2.6-1.6-4.4
	c0-1.9,0.6-3.4,1.7-4.5c1.1-1,2.6-1.6,4.4-1.6c1.9,0,3.4,0.6,4.5,1.7S544.1,88.9,544.1,90.7z"/>
<path class="st0" d="M544.1,102.8c0,1.8-0.6,3.2-1.7,4.4s-2.6,1.7-4.4,1.7c-2,0-3.4-0.6-4.5-1.7s-1.6-2.6-1.6-4.4
	c0-1.9,0.6-3.4,1.7-4.5c1.1-1,2.6-1.6,4.4-1.6c1.9,0,3.4,0.6,4.5,1.7S544.1,101,544.1,102.8z"/>
<path class="st0" d="M544.1,114.9c0,3.9-2,5.8-5.8,5.8c-4.2,0-6.3-1.9-6.3-5.8c0-1.8,0.5-3.2,1.6-4.4c1-1.1,2.5-1.7,4.3-1.7
	c4.2,0,6.3,1.9,6.3,5.8L544.1,114.9L544.1,114.9z"/>
<path class="st0" d="M544.1,126.8c0,1.8-0.6,3.2-1.7,4.4s-2.6,1.7-4.4,1.7c-2,0-3.4-0.6-4.5-1.7s-1.6-2.6-1.6-4.4
	c0-1.9,0.6-3.4,1.7-4.5c1.1-1,2.6-1.6,4.4-1.6c1.9,0,3.4,0.6,4.5,1.7S544.1,125,544.1,126.8z"/>
<path class="st0" d="M544.1,138.9c0,1.8-0.6,3.2-1.7,4.4s-2.6,1.7-4.4,1.7c-2,0-3.4-0.6-4.5-1.7s-1.6-2.6-1.6-4.4
	c0-1.9,0.6-3.4,1.7-4.5c1.1-1,2.6-1.6,4.4-1.6c1.9,0,3.4,0.6,4.5,1.7S544.1,137.1,544.1,138.9L544.1,138.9z"/>
<path class="st0" d="M532,151.1c0-1.8,0.6-3.2,1.7-4.4c1.1-1.1,2.6-1.7,4.4-1.7c1.9,0,3.4,0.6,4.5,1.7s1.6,2.6,1.6,4.4
	c0,1.9-0.6,3.4-1.7,4.5s-2.6,1.6-4.4,1.6c-2,0-3.4-0.6-4.5-1.7S532,152.9,532,151.1L532,151.1z"/>
<path class="st0" d="M544.1,54.3c0-1.9,0.6-3.4,1.7-4.5s2.6-1.6,4.4-1.6c1.9,0,3.4,0.6,4.5,1.7s1.6,2.6,1.6,4.4s-0.6,3.2-1.7,4.4
	c-1.1,1.1-2.6,1.7-4.4,1.7c-2,0-3.4-0.6-4.5-1.7S544.1,56.1,544.1,54.3z"/>
<path class="st0" d="M544.1,66.4c0-1.9,0.6-3.4,1.7-4.5s2.6-1.6,4.4-1.6c1.9,0,3.4,0.6,4.5,1.7s1.6,2.6,1.6,4.4s-0.6,3.2-1.7,4.4
	c-1.1,1.1-2.6,1.7-4.4,1.7c-2,0-3.4-0.6-4.5-1.7S544.1,68.2,544.1,66.4z"/>
<path class="st0" d="M544.1,138.9c0-1.8,0.6-3.2,1.7-4.4s2.6-1.7,4.4-1.7c1.9,0,3.4,0.6,4.5,1.7s1.6,2.6,1.6,4.4
	c0,1.9-0.6,3.4-1.7,4.5s-2.6,1.6-4.4,1.6c-2,0-3.4-0.6-4.5-1.7S544.1,140.7,544.1,138.9L544.1,138.9z"/>
<path class="st0" d="M544.1,151.1c0-1.8,0.6-3.2,1.7-4.4c1.1-1.1,2.6-1.7,4.4-1.7c1.9,0,3.4,0.6,4.5,1.7s1.6,2.6,1.6,4.4
	c0,1.9-0.6,3.4-1.7,4.5s-2.6,1.6-4.4,1.6c-2,0-3.4-0.6-4.5-1.7S544.1,152.9,544.1,151.1L544.1,151.1z"/>
<path class="st0" d="M556.2,54.3c0-1.9,0.6-3.4,1.7-4.5s2.6-1.6,4.4-1.6c1.9,0,3.4,0.6,4.5,1.7c1,1.1,1.6,2.6,1.6,4.4
	s-0.6,3.2-1.7,4.4c-1.1,1.1-2.6,1.7-4.4,1.7c-2,0-3.4-0.6-4.5-1.7S556.2,56.1,556.2,54.3z"/>
<path class="st0" d="M556.2,66.4c0-1.9,0.6-3.4,1.7-4.5s2.6-1.6,4.4-1.6c1.9,0,3.4,0.6,4.5,1.7c1,1.1,1.6,2.6,1.6,4.4
	s-0.6,3.2-1.7,4.4s-2.6,1.7-4.4,1.7c-2,0-3.4-0.6-4.5-1.7S556.2,68.2,556.2,66.4z"/>
<path class="st0" d="M556.2,126.8c0-1.8,0.6-3.2,1.7-4.4c1.1-1.1,2.6-1.7,4.4-1.7c1.9,0,3.4,0.6,4.5,1.7c1,1.1,1.6,2.6,1.6,4.4
	c0,1.9-0.6,3.4-1.7,4.5s-2.6,1.6-4.4,1.6c-2,0-3.4-0.6-4.5-1.7S556.2,128.6,556.2,126.8L556.2,126.8z"/>
<path class="st0" d="M556.2,138.9c0-1.8,0.6-3.2,1.7-4.4c1.1-1.1,2.6-1.7,4.4-1.7c1.9,0,3.4,0.6,4.5,1.7c1,1.1,1.6,2.6,1.6,4.4
	c0,1.9-0.6,3.4-1.7,4.5s-2.6,1.6-4.4,1.6c-2,0-3.4-0.6-4.5-1.7S556.2,140.7,556.2,138.9L556.2,138.9z"/>
<path class="st0" d="M556.2,151c0-1.8,0.6-3.2,1.7-4.4s2.6-1.7,4.4-1.7c1.9,0,3.4,0.6,4.5,1.7c1,1.1,1.6,2.6,1.6,4.4
	c0,1.9-0.6,3.4-1.7,4.5s-2.6,1.6-4.4,1.6c-2,0-3.4-0.6-4.5-1.7S556.2,152.8,556.2,151L556.2,151z"/>
<path class="st0" d="M568.3,54.3c0-1.8,0.6-3.2,1.7-4.4c1.1-1.1,2.6-1.7,4.4-1.7c1.9,0,3.4,0.6,4.5,1.7c1,1.1,1.6,2.6,1.6,4.4
	c0,2-0.6,3.4-1.7,4.5s-2.6,1.6-4.4,1.6c-2,0-3.4-0.6-4.5-1.7S568.3,56.1,568.3,54.3z"/>
<path class="st0" d="M568.3,66.4c0-1.8,0.6-3.2,1.7-4.4s2.6-1.7,4.4-1.7c1.9,0,3.4,0.6,4.5,1.7c1,1.1,1.6,2.6,1.6,4.4
	c0,1.9-0.6,3.4-1.7,4.5c-1.1,1.1-2.6,1.6-4.4,1.6c-2,0-3.4-0.6-4.5-1.7S568.3,68.2,568.3,66.4z"/>
<path class="st0" d="M568.3,126.8c0-1.8,0.6-3.2,1.7-4.4c1.1-1.1,2.6-1.7,4.4-1.7c1.9,0,3.4,0.6,4.5,1.7c1,1.1,1.6,2.6,1.6,4.4
	c0,1.9-0.6,3.4-1.7,4.5s-2.6,1.6-4.4,1.6c-2,0-3.4-0.6-4.5-1.7S568.3,128.6,568.3,126.8L568.3,126.8z"/>
<path class="st0" d="M568.3,138.9c0-1.8,0.6-3.2,1.7-4.4c1.1-1.1,2.6-1.7,4.4-1.7c1.9,0,3.4,0.6,4.5,1.7c1,1.1,1.6,2.6,1.6,4.4
	c0,1.9-0.6,3.4-1.7,4.5s-2.6,1.6-4.4,1.6c-2,0-3.4-0.6-4.5-1.7S568.3,140.7,568.3,138.9L568.3,138.9z"/>
</svg>
