<?xml version="1.0" encoding="UTF-8"?>
<svg id="Calque_1" data-name="Calque 1" xmlns="http://www.w3.org/2000/svg" viewBox="0 0 875.19 157.13">
  <defs>
    <style>
      .cls-1 {
        fill: #dbfaff;
        stroke-width: 0px;
      }
    </style>
  </defs>
  <rect class="cls-1" y="132.88" width="11.9" height="24.24"/>
  <polygon class="cls-1" points="24.02 108.87 24.02 132.88 11.9 132.88 11.9 96.75 24.02 96.75 24.02 72.5 36.14 72.5 36.14 96.75 96.52 96.75 96.52 72.5 108.64 72.5 108.64 96.75 120.76 96.75 120.76 132.88 108.64 132.88 108.64 108.87 24.02 108.87"/>
  <rect class="cls-1" x="36.14" y="36.36" width="12.12" height="36.14"/>
  <rect class="cls-1" x="48.26" y="12.12" width="12.12" height="24.24"/>
  <rect class="cls-1" x="60.38" width="12.12" height="12.12"/>
  <rect class="cls-1" x="72.5" y="12.12" width="11.9" height="24.24"/>
  <rect class="cls-1" x="84.4" y="36.36" width="12.12" height="36.14"/>
  <rect class="cls-1" x="120.76" y="132.88" width="12.12" height="24.24"/>
  <polygon class="cls-1" points="162.29 60.38 174.41 60.38 174.41 72.5 162.29 72.5 162.29 157.13 150.17 157.13 150.17 36.36 162.29 36.36 162.29 60.38"/>
  <rect class="cls-1" x="174.41" y="48.26" width="12.12" height="12.12"/>
  <rect class="cls-1" x="186.53" y="36.36" width="36.14" height="11.9"/>
  <rect class="cls-1" x="222.67" y="48.26" width="12.12" height="12.12"/>
  <rect class="cls-1" x="234.79" y="60.38" width="12.12" height="96.75"/>
  <rect class="cls-1" x="264.19" y="48.26" width="12.12" height="12.12"/>
  <rect class="cls-1" x="264.19" y="108.87" width="12.12" height="36.14"/>
  <rect class="cls-1" x="276.31" y="36.36" width="60.38" height="11.9"/>
  <rect class="cls-1" x="276.31" y="96.75" width="11.9" height="12.12"/>
  <rect class="cls-1" x="276.31" y="145.01" width="36.14" height="12.12"/>
  <rect class="cls-1" x="288.21" y="84.62" width="24.24" height="12.12"/>
  <polygon class="cls-1" points="336.7 84.62 312.45 84.62 312.45 72.5 336.7 72.5 336.7 48.26 348.82 48.26 348.82 145.01 336.7 145.01 336.7 132.88 324.58 132.88 324.58 120.76 336.7 120.76 336.7 84.62"/>
  <rect class="cls-1" x="312.45" y="132.88" width="12.12" height="12.12"/>
  <rect class="cls-1" x="348.82" y="145.01" width="11.9" height="12.12"/>
  <polygon class="cls-1" points="390.12 60.38 402.24 60.38 402.24 72.5 390.12 72.5 390.12 157.13 378 157.13 378 36.36 390.12 36.36 390.12 60.38"/>
  <rect class="cls-1" x="402.24" y="48.26" width="12.12" height="12.12"/>
  <rect class="cls-1" x="414.36" y="36.36" width="24.24" height="11.9"/>
  <rect class="cls-1" x="438.6" y="48.26" width="11.9" height="12.12"/>
  <polygon class="cls-1" points="491.8 72.5 467.78 72.5 467.78 60.38 479.68 60.38 479.68 48.26 491.8 48.26 491.8 60.38 540.29 60.38 540.29 72.5 503.92 72.5 503.92 145.01 491.8 145.01 491.8 72.5"/>
  <rect class="cls-1" x="491.8" y="12.12" width="12.12" height="36.14"/>
  <rect class="cls-1" x="503.92" y="145.01" width="24.24" height="12.12"/>
  <rect class="cls-1" x="528.17" y="132.88" width="12.12" height="12.12"/>
  <polygon class="cls-1" points="557.57 0 569.69 0 569.69 96.75 581.81 96.75 581.81 108.87 569.69 108.87 569.69 157.13 557.57 157.13 557.57 0"/>
  <rect class="cls-1" x="581.81" y="84.62" width="24.24" height="12.12"/>
  <rect class="cls-1" x="606.05" y="72.5" width="12.12" height="12.12"/>
  <rect class="cls-1" x="606.05" y="96.75" width="12.12" height="12.12"/>
  <rect class="cls-1" x="618.18" y="60.38" width="12.12" height="12.12"/>
  <rect class="cls-1" x="618.18" y="108.87" width="12.12" height="24.02"/>
  <rect class="cls-1" x="630.3" y="48.26" width="11.9" height="12.12"/>
  <rect class="cls-1" x="630.3" y="132.88" width="11.9" height="24.24"/>
  <rect class="cls-1" x="659.48" width="12.12" height="24.24"/>
  <rect class="cls-1" x="659.48" y="48.26" width="12.12" height="108.87"/>
  <rect class="cls-1" x="688.88" y="60.38" width="11.9" height="12.12"/>
  <rect class="cls-1" x="688.88" y="120.76" width="11.9" height="12.12"/>
  <rect class="cls-1" x="700.78" y="48.26" width="12.12" height="12.12"/>
  <rect class="cls-1" x="700.78" y="72.5" width="12.12" height="12.12"/>
  <rect class="cls-1" x="700.78" y="132.88" width="12.12" height="12.12"/>
  <rect class="cls-1" x="712.9" y="36.36" width="48.48" height="11.9"/>
  <rect class="cls-1" x="712.9" y="84.62" width="24.24" height="12.12"/>
  <rect class="cls-1" x="712.9" y="145.01" width="48.48" height="12.12"/>
  <rect class="cls-1" x="737.14" y="96.75" width="24.24" height="12.12"/>
  <rect class="cls-1" x="761.38" y="48.26" width="12.12" height="12.12"/>
  <rect class="cls-1" x="761.38" y="108.87" width="12.12" height="11.9"/>
  <rect class="cls-1" x="761.38" y="132.88" width="12.12" height="12.12"/>
  <rect class="cls-1" x="773.5" y="60.38" width="11.9" height="12.12"/>
  <rect class="cls-1" x="773.5" y="120.76" width="11.9" height="12.12"/>
  <polygon class="cls-1" points="826.7 72.5 802.68 72.5 802.68 60.38 814.58 60.38 814.58 48.26 826.7 48.26 826.7 60.38 875.19 60.38 875.19 72.5 838.82 72.5 838.82 145.01 826.7 145.01 826.7 72.5"/>
  <rect class="cls-1" x="826.7" y="12.12" width="12.12" height="36.14"/>
  <rect class="cls-1" x="838.82" y="145.01" width="24.24" height="12.12"/>
  <rect class="cls-1" x="863.06" y="132.88" width="12.12" height="12.12"/>
</svg>