<?xml version="1.0" encoding="utf-8"?>
<!-- Generator: Adobe Illustrator 28.0.0, SVG Export Plug-In . SVG Version: 6.00 Build 0)  -->
<svg version="1.1" id="Calque_1" xmlns="http://www.w3.org/2000/svg" xmlns:xlink="http://www.w3.org/1999/xlink" x="0px" y="0px"
	 viewBox="0 0 483.9 157.1" style="enable-background:new 0 0 483.9 157.1;" xml:space="preserve">
<style type="text/css">
	.st0{fill:#DBFAFF;}
</style>
<path class="st0" d="M0,5.8C0,4,0.6,2.6,1.7,1.6C2.8,0.5,4.3,0,6.1,0c3.9,0,5.8,2.1,5.8,6.3c0,1.8-0.6,3.2-1.7,4.3s-2.6,1.6-4.4,1.6
	C1.9,12.1,0,10.2,0,6.3C0,6.3,0,5.8,0,5.8z"/>
<path class="st0" d="M11.9,18.4c0,1.8-0.6,3.2-1.7,4.3c-1.1,1-2.6,1.6-4.4,1.6C1.9,24.2,0,22.2,0,18c0-1.8,0.6-3.2,1.7-4.3
	c1.1-1.1,2.6-1.6,4.4-1.6c3.9,0,5.8,1.9,5.8,5.8V18.4L11.9,18.4z"/>
<path class="st0" d="M11.9,30.5c0,1.8-0.6,3.2-1.7,4.3c-1.1,1-2.6,1.6-4.4,1.6c-3.9,0-5.8-2.1-5.8-6.3c0-1.8,0.6-3.2,1.7-4.3
	c1.1-1,2.6-1.6,4.4-1.6c3.9,0,5.8,2,5.8,5.8C11.9,30.1,11.9,30.5,11.9,30.5z"/>
<path class="st0" d="M11.9,42.4c0,1.8-0.6,3.2-1.7,4.3s-2.6,1.6-4.4,1.6s-3.2-0.6-4.3-1.7S0,44,0,42.2c0-3.9,2-5.8,6.1-5.8
	s5.8,2,5.8,5.8V42.4z"/>
<path class="st0" d="M11.9,54.5c0,1.8-0.6,3.2-1.7,4.3s-2.6,1.6-4.4,1.6c-3.9,0-5.8-2.1-5.8-6.3c0-1.8,0.6-3.2,1.7-4.3
	c1.1-1,2.6-1.6,4.4-1.6c3.9,0,5.8,2,5.8,5.8V54.5L11.9,54.5z"/>
<path class="st0" d="M11.9,66.7c0,1.8-0.6,3.2-1.7,4.3c-1.1,1.1-2.6,1.6-4.4,1.6c-3.9,0-5.8-2.1-5.8-6.3c0-1.8,0.6-3.2,1.7-4.3
	c1.1-1,2.6-1.6,4.4-1.6c3.9,0,5.8,2,5.8,5.8V66.7z"/>
<path class="st0" d="M11.9,78.8c0,1.8-0.6,3.2-1.7,4.3c-1.1,1.1-2.6,1.6-4.4,1.6c-3.9,0-5.8-2.1-5.8-6.3c0-1.8,0.6-3.2,1.7-4.3
	s2.6-1.6,4.4-1.6c3.9,0,5.8,1.9,5.8,5.8C11.9,78.3,11.9,78.8,11.9,78.8z"/>
<path class="st0" d="M11.9,90.9c0,1.8-0.6,3.2-1.7,4.3c-1.1,1.1-2.6,1.6-4.4,1.6c-3.9,0-5.8-2.1-5.8-6.3c0-1.8,0.6-3.2,1.7-4.3
	c1.1-1,2.6-1.6,4.4-1.6c3.9,0,5.8,1.9,5.8,5.8V90.9z"/>
<path class="st0" d="M11.9,103c0,1.8-0.6,3.2-1.7,4.3c-1.1,1.1-2.6,1.6-4.4,1.6c-3.9,0-5.8-2.1-5.8-6.3c0-1.8,0.6-3.2,1.7-4.3
	c1.1-1,2.6-1.6,4.4-1.6c3.9,0,5.8,1.9,5.8,5.8C11.9,102.6,11.9,103,11.9,103z"/>
<path class="st0" d="M11.9,114.9c0,1.8-0.6,3.2-1.7,4.3c-1.1,1.1-2.6,1.6-4.4,1.6s-3.2-0.6-4.3-1.7S0,116.5,0,114.7
	c0-3.9,2-5.8,6.1-5.8s5.8,1.9,5.8,5.8V114.9L11.9,114.9z"/>
<path class="st0" d="M11.9,127.1c0,1.8-0.6,3.2-1.7,4.3s-2.6,1.6-4.4,1.6c-3.9,0-5.8-2.1-5.8-6.3c0-1.8,0.6-3.2,1.7-4.3
	c1.1-1,2.6-1.6,4.4-1.6c3.9,0,5.8,1.9,5.8,5.8C11.9,126.6,11.9,127.1,11.9,127.1z"/>
<path class="st0" d="M11.9,139.2c0,1.8-0.6,3.2-1.7,4.3S7.6,145,5.8,145c-3.9,0-5.8-2.1-5.8-6.3c0-1.8,0.6-3.2,1.7-4.3
	c1.1-1,2.6-1.6,4.4-1.6c3.9,0,5.8,1.9,5.8,5.8V139.2z"/>
<path class="st0" d="M0,150.8c0-1.8,0.6-3.2,1.7-4.3c1.1-1.1,2.6-1.6,4.4-1.6c3.9,0,5.8,2.1,5.8,6.3c0,1.8-0.6,3.2-1.7,4.3
	c-1.1,1.1-2.6,1.6-4.4,1.6c-3.9,0-5.8-1.9-5.8-5.8C0,151.3,0,150.8,0,150.8z"/>
<path class="st0" d="M11.9,5.8c0-1.8,0.6-3.2,1.7-4.3C14.7,0.5,16.2,0,18,0c3.9,0,5.8,2.1,5.8,6.3c0,1.8-0.6,3.2-1.7,4.3
	s-2.6,1.6-4.4,1.6c-3.9,0-5.8-1.9-5.8-5.8C11.9,6.3,11.9,5.8,11.9,5.8z"/>
<path class="st0" d="M23.8,18.4c0,1.8-0.6,3.2-1.7,4.3c-1.1,1-2.6,1.6-4.4,1.6c-3.9,0-5.8-2.1-5.8-6.3c0-1.8,0.6-3.2,1.7-4.3
	c1.1-1.1,2.6-1.6,4.4-1.6c3.9,0,5.8,1.9,5.8,5.8V18.4L23.8,18.4z"/>
<path class="st0" d="M23.8,30.5c0,1.8-0.6,3.2-1.7,4.3c-1.1,1-2.6,1.6-4.4,1.6c-3.9,0-5.8-2.1-5.8-6.3c0-1.8,0.6-3.2,1.7-4.3
	c1.1-1,2.6-1.6,4.4-1.6c3.9,0,5.8,2,5.8,5.8C23.8,30.1,23.8,30.5,23.8,30.5z"/>
<path class="st0" d="M23.8,42.4c0,1.8-0.6,3.2-1.7,4.3s-2.6,1.6-4.4,1.6s-3.2-0.6-4.3-1.7c-1.1-1.1-1.6-2.6-1.6-4.4
	c0-3.9,2-5.8,6.1-5.8s5.8,2,5.8,5.8L23.8,42.4L23.8,42.4z"/>
<path class="st0" d="M23.8,54.5c0,1.8-0.6,3.2-1.7,4.3s-2.6,1.6-4.4,1.6c-3.9,0-5.8-2.1-5.8-6.3c0-1.8,0.6-3.2,1.7-4.3
	c1.1-1,2.6-1.6,4.4-1.6c3.9,0,5.8,2,5.8,5.8V54.5L23.8,54.5z"/>
<path class="st0" d="M23.8,66.7c0,1.8-0.6,3.2-1.7,4.3c-1.1,1.1-2.6,1.6-4.4,1.6c-3.9,0-5.8-2.1-5.8-6.3c0-1.8,0.6-3.2,1.7-4.3
	c1.1-1,2.6-1.6,4.4-1.6c3.9,0,5.8,2,5.8,5.8V66.7z"/>
<path class="st0" d="M24,78.6c0,1.8-0.5,3.2-1.6,4.4c-1,1.1-2.5,1.7-4.5,1.7c-1.8,0-3.2-0.5-4.4-1.6c-1.1-1-1.7-2.5-1.7-4.5
	c0-1.8,0.5-3.2,1.6-4.4c1-1.1,2.5-1.7,4.5-1.7c1.8,0,3.2,0.6,4.4,1.7C23.5,75.3,24,76.8,24,78.6z"/>
<path class="st0" d="M24,90.7c0,1.8-0.5,3.2-1.6,4.4c-1,1.1-2.5,1.7-4.5,1.7c-1.8,0-3.2-0.5-4.4-1.6c-1.1-1.1-1.7-2.5-1.7-4.5
	c0-1.8,0.5-3.2,1.6-4.4c1-1.1,2.5-1.7,4.5-1.7c1.8,0,3.2,0.6,4.4,1.7S24,88.9,24,90.7z"/>
<path class="st0" d="M23.8,103c0,1.8-0.6,3.2-1.7,4.3c-1.1,1.1-2.6,1.6-4.4,1.6c-3.9,0-5.8-2.1-5.8-6.3c0-1.8,0.6-3.2,1.7-4.3
	c1.1-1,2.6-1.6,4.4-1.6c3.9,0,5.8,1.9,5.8,5.8C23.8,102.6,23.8,103,23.8,103z"/>
<path class="st0" d="M23.8,114.9c0,1.8-0.6,3.2-1.7,4.3c-1.1,1.1-2.6,1.6-4.4,1.6s-3.2-0.6-4.3-1.7c-1.1-1.1-1.6-2.6-1.6-4.4
	c0-3.9,2-5.8,6.1-5.8s5.8,1.9,5.8,5.8L23.8,114.9L23.8,114.9z"/>
<path class="st0" d="M23.8,127.1c0,1.8-0.6,3.2-1.7,4.3s-2.6,1.6-4.4,1.6c-3.9,0-5.8-2.1-5.8-6.3c0-1.8,0.6-3.2,1.7-4.3
	c1.1-1,2.6-1.6,4.4-1.6c3.9,0,5.8,1.9,5.8,5.8C23.8,126.6,23.8,127.1,23.8,127.1z"/>
<path class="st0" d="M23.8,139.2c0,1.8-0.6,3.2-1.7,4.3s-2.6,1.6-4.4,1.6c-3.9,0-5.8-2.1-5.8-6.3c0-1.8,0.6-3.2,1.7-4.3
	c1.1-1,2.6-1.6,4.4-1.6c3.9,0,5.8,1.9,5.8,5.8V139.2z"/>
<path class="st0" d="M11.9,150.9c0-1.8,0.6-3.2,1.7-4.3c1.1-1.1,2.6-1.6,4.4-1.6c3.9,0,5.8,2.1,5.8,6.3c0,1.8-0.6,3.2-1.7,4.3
	c-1.1,1.1-2.6,1.6-4.4,1.6c-3.9,0-5.8-1.9-5.8-5.8C11.9,151.3,11.9,150.9,11.9,150.9z"/>
<path class="st0" d="M36.1,78.6c0,1.8-0.5,3.2-1.6,4.4c-1,1.1-2.5,1.7-4.5,1.7c-1.8,0-3.2-0.5-4.4-1.6c-1.1-1-1.7-2.5-1.7-4.5
	c0-1.8,0.5-3.2,1.6-4.4c1-1.1,2.5-1.7,4.5-1.7c1.8,0,3.3,0.6,4.4,1.7C35.6,75.3,36.1,76.8,36.1,78.6z"/>
<path class="st0" d="M36.1,90.7c0,1.8-0.5,3.2-1.6,4.4c-1,1.1-2.5,1.7-4.5,1.7c-1.8,0-3.2-0.5-4.4-1.6c-1.1-1.1-1.7-2.5-1.7-4.5
	c0-1.8,0.5-3.2,1.6-4.4c1-1.1,2.5-1.7,4.5-1.7c1.8,0,3.3,0.6,4.4,1.7S36.1,88.9,36.1,90.7z"/>
<path class="st0" d="M48.3,78.6c0,1.8-0.5,3.2-1.6,4.4c-1,1.1-2.5,1.7-4.5,1.7c-1.8,0-3.2-0.5-4.4-1.6c-1.1-1-1.7-2.5-1.7-4.5
	c0-1.8,0.5-3.2,1.6-4.4c1-1.1,2.5-1.7,4.5-1.7c1.8,0,3.2,0.6,4.4,1.7S48.3,76.8,48.3,78.6z"/>
<path class="st0" d="M48.3,90.7c0,1.8-0.5,3.2-1.6,4.4c-1,1.1-2.5,1.7-4.5,1.7c-1.8,0-3.2-0.5-4.4-1.6c-1.1-1.1-1.7-2.5-1.7-4.5
	c0-1.8,0.5-3.2,1.6-4.4c1-1.1,2.5-1.7,4.5-1.7c1.8,0,3.2,0.6,4.4,1.7C47.7,87.4,48.3,88.9,48.3,90.7z"/>
<path class="st0" d="M54.3,84.6c-1.8,0-3.2-0.5-4.4-1.6c-1.1-1-1.7-2.5-1.7-4.5c0-1.8,0.5-3.2,1.6-4.4c1-1.1,2.5-1.7,4.5-1.7
	c1.8,0,3.2,0.6,4.4,1.7s1.7,2.6,1.7,4.4s-0.5,3.2-1.6,4.4C57.8,84.1,56.3,84.6,54.3,84.6z"/>
<path class="st0" d="M60.4,90.7c0,1.8-0.5,3.2-1.6,4.4c-1,1.1-2.5,1.7-4.5,1.7c-1.8,0-3.2-0.5-4.4-1.6c-1.1-1.1-1.7-2.5-1.7-4.5
	c0-1.8,0.5-3.2,1.6-4.4c1-1.1,2.5-1.7,4.5-1.7c1.8,0,3.2,0.6,4.4,1.7C59.8,87.4,60.4,88.9,60.4,90.7z"/>
<path class="st0" d="M60.4,78.6c0-1.8,0.5-3.2,1.6-4.4c1-1.1,2.5-1.7,4.5-1.7c1.8,0,3.2,0.6,4.4,1.7c1.1,1.1,1.7,2.6,1.7,4.4
	S72,81.8,70.9,83c-1.1,1.1-2.6,1.7-4.5,1.7c-1.8,0-3.2-0.5-4.4-1.6C60.9,82,60.4,80.5,60.4,78.6z"/>
<path class="st0" d="M72.5,90.7c0,1.8-0.5,3.2-1.6,4.4c-1.1,1.1-2.6,1.7-4.5,1.7c-1.8,0-3.2-0.5-4.4-1.6c-1.1-1.1-1.7-2.5-1.7-4.5
	c0-1.8,0.5-3.2,1.6-4.4c1-1.1,2.5-1.7,4.5-1.7c1.8,0,3.2,0.6,4.4,1.7C71.9,87.4,72.5,88.9,72.5,90.7z"/>
<path class="st0" d="M72.5,78.6c0-1.8,0.5-3.2,1.6-4.4c1-1.1,2.5-1.7,4.5-1.7c1.8,0,3.2,0.6,4.4,1.7c1.1,1.1,1.7,2.6,1.7,4.4
	S84.1,81.8,83,83c-1.1,1.1-2.6,1.7-4.5,1.7c-1.8,0-3.2-0.5-4.4-1.6C73.1,82,72.5,80.5,72.5,78.6z"/>
<path class="st0" d="M96.5,90.7c0,1.8-0.5,3.2-1.6,4.4c-1.1,1.1-2.6,1.7-4.5,1.7c-3.4,0-5.4-1.6-5.8-4.7c-0.8,3.1-2.8,4.7-6.1,4.7
	c-1.8,0-3.2-0.5-4.4-1.6c-1.1-1.1-1.7-2.5-1.7-4.5c0-1.8,0.5-3.2,1.6-4.4c1-1.1,2.5-1.7,4.5-1.7c3.4,0,5.4,1.6,5.8,4.7
	c0.8-3.1,2.8-4.7,6.1-4.7c1.8,0,3.2,0.5,4.4,1.6C96,87.3,96.5,88.8,96.5,90.7z"/>
<path class="st0" d="M84.4,6.1c0-1.8,0.5-3.2,1.6-4.4C87,0.6,88.5,0,90.5,0c1.8,0,3.2,0.5,4.4,1.6c1.1,1,1.7,2.5,1.7,4.5
	c0,1.8-0.5,3.2-1.6,4.4c-1.1,1.1-2.6,1.7-4.5,1.7c-1.8,0-3.2-0.6-4.4-1.7C85,9.3,84.4,7.9,84.4,6.1z"/>
<path class="st0" d="M96.5,18.2c0,1.8-0.5,3.2-1.6,4.4c-1.1,1.1-2.6,1.7-4.5,1.7c-1.8,0-3.2-0.6-4.4-1.7c-1.1-1.1-1.7-2.6-1.7-4.4
	s0.5-3.2,1.6-4.4c1.1-1.1,2.5-1.7,4.5-1.7c1.8,0,3.2,0.5,4.4,1.6C96,14.7,96.5,16.2,96.5,18.2z"/>
<path class="st0" d="M96.5,30.3c0,1.8-0.5,3.2-1.6,4.4c-1.1,1.1-2.6,1.7-4.5,1.7c-1.8,0-3.2-0.6-4.4-1.7s-1.7-2.6-1.7-4.4
	s0.5-3.2,1.6-4.4c1.1-1.1,2.5-1.7,4.5-1.7c1.8,0,3.2,0.5,4.4,1.6C96,26.9,96.5,28.4,96.5,30.3z"/>
<path class="st0" d="M84.4,42.2c0-3.9,2.1-5.8,6.3-5.8c1.8,0,3.2,0.6,4.3,1.7c1,1.1,1.6,2.6,1.6,4.4c0,3.9-2.1,5.8-6.3,5.8
	c-3.9,0-5.8-1.9-5.8-5.8C84.4,42.4,84.4,42.2,84.4,42.2z"/>
<path class="st0" d="M96.5,54.3c0,1.8-0.5,3.2-1.6,4.4c-1.1,1.1-2.6,1.7-4.5,1.7c-1.8,0-3.2-0.6-4.4-1.7c-1.1-1.1-1.7-2.6-1.7-4.4
	s0.5-3.2,1.6-4.4c1.1-1.1,2.5-1.7,4.5-1.7c1.8,0,3.2,0.5,4.4,1.6C96,50.9,96.5,52.4,96.5,54.3z"/>
<path class="st0" d="M96.5,66.4c0,1.8-0.5,3.2-1.6,4.4c-1.1,1.1-2.6,1.7-4.5,1.7c-1.8,0-3.2-0.6-4.4-1.7s-1.7-2.6-1.7-4.4
	s0.5-3.2,1.6-4.4c1.1-1.1,2.5-1.7,4.5-1.7c1.8,0,3.2,0.5,4.4,1.6C96,63,96.5,64.5,96.5,66.4z"/>
<path class="st0" d="M84.4,102.8c0-1.8,0.5-3.2,1.6-4.4c1.1-1.1,2.5-1.7,4.5-1.7c1.8,0,3.2,0.5,4.4,1.6c1.1,1.1,1.7,2.6,1.7,4.5
	c0,1.8-0.5,3.2-1.6,4.4c-1.1,1.1-2.6,1.7-4.5,1.7c-1.8,0-3.2-0.6-4.4-1.7C85,106.1,84.4,104.6,84.4,102.8z"/>
<path class="st0" d="M84.4,114.7c0-3.9,2.1-5.8,6.3-5.8c1.8,0,3.2,0.6,4.3,1.7c1,1.1,1.6,2.6,1.6,4.4c0,3.9-2.1,5.8-6.3,5.8
	c-3.9,0-5.8-1.9-5.8-5.8C84.4,114.9,84.4,114.7,84.4,114.7z"/>
<path class="st0" d="M84.4,126.8c0-1.8,0.5-3.2,1.6-4.4c1.1-1.1,2.5-1.7,4.5-1.7c1.8,0,3.2,0.5,4.4,1.6c1.1,1.1,1.7,2.6,1.7,4.5
	c0,1.8-0.5,3.3-1.6,4.4c-1.1,1.1-2.6,1.7-4.5,1.7c-1.8,0-3.2-0.6-4.4-1.7C85,130.1,84.4,128.6,84.4,126.8z"/>
<path class="st0" d="M96.5,138.9c0,1.8-0.5,3.2-1.6,4.4c-1.1,1.1-2.6,1.7-4.5,1.7c-1.8,0-3.2-0.6-4.4-1.7c-1.1-1.1-1.7-2.6-1.7-4.4
	s0.5-3.2,1.6-4.4c1.1-1.1,2.5-1.7,4.5-1.7c1.8,0,3.2,0.5,4.4,1.6C96,135.5,96.5,137,96.5,138.9L96.5,138.9z"/>
<path class="st0" d="M84.4,151.1c0-1.8,0.5-3.2,1.6-4.4c1.1-1.1,2.5-1.7,4.5-1.7c1.8,0,3.2,0.5,4.4,1.6c1.1,1.1,1.7,2.6,1.7,4.5
	c0,1.8-0.5,3.2-1.6,4.4c-1.1,1.1-2.6,1.7-4.5,1.7c-1.8,0-3.2-0.6-4.4-1.7S84.4,152.9,84.4,151.1L84.4,151.1z"/>
<path class="st0" d="M96.5,78.8c0,1.8-0.6,3.2-1.7,4.3c-1.1,1.1-2.6,1.6-4.4,1.6c-3.9,0-5.8-2.1-5.8-6.3c0-1.8,0.6-3.2,1.7-4.3
	s2.6-1.6,4.4-1.6c3.9,0,5.8,1.9,5.8,5.8V78.8z"/>
<path class="st0" d="M96.5,6c0-1.8,0.5-3.2,1.6-4.4c1-1.1,2.5-1.7,4.5-1.7c1.8,0,3.2,0.5,4.4,1.6c1.1,1,1.7,2.5,1.7,4.5
	c0,1.8-0.5,3.2-1.6,4.4c-1.1,1.1-2.6,1.7-4.5,1.7c-1.8,0-3.2-0.6-4.4-1.7C97.1,9.3,96.5,7.8,96.5,6z"/>
<path class="st0" d="M102.6,24.2c-1.8,0-3.2-0.6-4.4-1.7c-1.1-1.1-1.7-2.6-1.7-4.4s0.5-3.2,1.6-4.4c1-1.1,2.5-1.7,4.5-1.7
	c1.8,0,3.2,0.5,4.4,1.6c1.1,1.1,1.7,2.6,1.7,4.5c0,1.8-0.5,3.2-1.6,4.4C106,23.7,104.5,24.2,102.6,24.2z"/>
<path class="st0" d="M102.6,36.3c-1.8,0-3.2-0.6-4.4-1.7s-1.7-2.6-1.7-4.4s0.5-3.2,1.6-4.4c1-1.1,2.5-1.7,4.5-1.7
	c1.8,0,3.2,0.5,4.4,1.6c1.1,1,1.7,2.5,1.7,4.5c0,1.8-0.5,3.3-1.6,4.4C106,35.8,104.5,36.3,102.6,36.3z"/>
<path class="st0" d="M96.5,42.2c0-3.9,2.1-5.8,6.3-5.8c1.8,0,3.2,0.6,4.3,1.7c1,1.1,1.6,2.6,1.6,4.4c0,3.9-2.1,5.8-6.3,5.8
	c-3.9,0-5.8-1.9-5.8-5.8L96.5,42.2L96.5,42.2z"/>
<path class="st0" d="M102.6,60.4c-1.8,0-3.2-0.6-4.4-1.7c-1.1-1.1-1.7-2.6-1.7-4.4s0.5-3.2,1.6-4.4c1-1.1,2.5-1.7,4.5-1.7
	c1.8,0,3.2,0.5,4.4,1.6c1.1,1,1.7,2.5,1.7,4.5c0,1.8-0.5,3.2-1.6,4.4C106,59.8,104.5,60.4,102.6,60.4z"/>
<path class="st0" d="M102.6,72.5c-1.8,0-3.2-0.6-4.4-1.7s-1.7-2.6-1.7-4.4s0.5-3.2,1.6-4.4c1-1.1,2.5-1.7,4.5-1.7
	c1.8,0,3.2,0.5,4.4,1.6c1.1,1,1.7,2.5,1.7,4.5c0,1.8-0.5,3.2-1.6,4.4C106,71.9,104.5,72.5,102.6,72.5z"/>
<path class="st0" d="M96.5,78.5c0-1.8,0.5-3.2,1.6-4.4c1-1.1,2.5-1.7,4.5-1.7c1.8,0,3.2,0.5,4.4,1.6c1.1,1.1,1.7,2.6,1.7,4.5
	c0,1.8-0.5,3.2-1.6,4.4c-1.1,1.1-2.6,1.7-4.5,1.7c-1.8,0-3.2-0.6-4.4-1.7S96.5,80.3,96.5,78.5z"/>
<path class="st0" d="M102.6,96.7c-1.8,0-3.2-0.6-4.4-1.7c-1.1-1.1-1.7-2.6-1.7-4.4s0.5-3.2,1.6-4.4c1-1.1,2.5-1.7,4.5-1.7
	c1.8,0,3.2,0.5,4.4,1.6c1.1,1.1,1.7,2.6,1.7,4.5c0,1.8-0.5,3.2-1.6,4.4C106,96.2,104.5,96.7,102.6,96.7z"/>
<path class="st0" d="M96.5,102.8c0-1.8,0.5-3.2,1.6-4.4c1-1.1,2.5-1.7,4.5-1.7c1.8,0,3.2,0.5,4.4,1.6c1.1,1.1,1.7,2.6,1.7,4.5
	c0,1.8-0.5,3.2-1.6,4.4c-1.1,1.1-2.6,1.7-4.5,1.7c-1.8,0-3.2-0.6-4.4-1.7C97.1,106,96.5,104.6,96.5,102.8z"/>
<path class="st0" d="M96.5,114.7c0-3.9,2.1-5.8,6.3-5.8c1.8,0,3.2,0.6,4.3,1.7c1,1.1,1.6,2.6,1.6,4.4c0,3.9-2.1,5.8-6.3,5.8
	c-3.9,0-5.8-1.9-5.8-5.8L96.5,114.7L96.5,114.7z"/>
<path class="st0" d="M96.5,126.8c0-1.8,0.5-3.2,1.6-4.4c1-1.1,2.5-1.7,4.5-1.7c1.8,0,3.2,0.5,4.4,1.6c1.1,1.1,1.7,2.6,1.7,4.5
	c0,1.8-0.5,3.2-1.6,4.4c-1.1,1.1-2.6,1.7-4.5,1.7c-1.8,0-3.2-0.6-4.4-1.7C97.1,130.1,96.5,128.6,96.5,126.8z"/>
<path class="st0" d="M102.6,145c-1.8,0-3.2-0.6-4.4-1.7c-1.1-1.1-1.7-2.6-1.7-4.4s0.5-3.2,1.6-4.4c1-1.1,2.5-1.7,4.5-1.7
	c1.8,0,3.2,0.5,4.4,1.6c1.1,1.1,1.7,2.6,1.7,4.5c0,1.8-0.5,3.2-1.6,4.4C106,144.4,104.5,145,102.6,145L102.6,145z"/>
<path class="st0" d="M96.5,151c0-1.8,0.5-3.2,1.6-4.4c1-1.1,2.5-1.7,4.5-1.7c1.8,0,3.2,0.5,4.4,1.6c1.1,1.1,1.7,2.6,1.7,4.5
	c0,1.8-0.5,3.2-1.6,4.4c-1.1,1.1-2.6,1.7-4.5,1.7c-1.8,0-3.2-0.6-4.4-1.7S96.5,152.9,96.5,151L96.5,151z"/>
<path class="st0" d="M126.8,72.5c-1.9,0-3.4-0.6-4.5-1.7c-1.1-1.1-1.6-2.6-1.6-4.4c0-1.9,0.6-3.4,1.7-4.5s2.6-1.6,4.4-1.6
	c1.9,0,3.4,0.6,4.5,1.7s1.6,2.6,1.6,4.4s-0.6,3.2-1.7,4.4S128.6,72.5,126.8,72.5L126.8,72.5z"/>
<path class="st0" d="M132.9,78.6c0,1.8-0.6,3.2-1.7,4.4s-2.6,1.7-4.4,1.7c-1.9,0-3.4-0.6-4.5-1.7c-1.1-1.1-1.6-2.6-1.6-4.4
	c0-1.9,0.6-3.4,1.7-4.5c1.1-1,2.6-1.6,4.4-1.6c1.9,0,3.4,0.6,4.5,1.7S132.9,76.8,132.9,78.6L132.9,78.6z"/>
<path class="st0" d="M132.9,90.7c0,1.8-0.6,3.2-1.7,4.4c-1.1,1.1-2.6,1.7-4.4,1.7c-1.9,0-3.4-0.6-4.5-1.7c-1.1-1.1-1.6-2.6-1.6-4.4
	c0-1.9,0.6-3.4,1.7-4.5c1.1-1,2.6-1.6,4.4-1.6c1.9,0,3.4,0.6,4.5,1.7S132.9,88.9,132.9,90.7L132.9,90.7z"/>
<path class="st0" d="M132.9,102.8c0,1.8-0.6,3.2-1.7,4.4c-1.1,1.1-2.6,1.7-4.4,1.7c-1.9,0-3.4-0.6-4.5-1.7c-1.1-1.1-1.6-2.6-1.6-4.4
	c0-1.9,0.6-3.4,1.7-4.5c1.1-1,2.6-1.6,4.4-1.6c1.9,0,3.4,0.6,4.5,1.7S132.9,101,132.9,102.8L132.9,102.8z"/>
<path class="st0" d="M132.9,114.9c0,3.9-1.9,5.8-5.8,5.8c-4.2,0-6.3-1.9-6.3-5.8c0-1.8,0.5-3.2,1.6-4.4c1.1-1.1,2.5-1.7,4.3-1.7
	c4.2,0,6.3,1.9,6.3,5.8L132.9,114.9L132.9,114.9z"/>
<path class="st0" d="M126.8,132.9c-1.9,0-3.4-0.6-4.5-1.7c-1.1-1.1-1.6-2.6-1.6-4.4c0-1.9,0.6-3.4,1.7-4.5c1.1-1,2.6-1.6,4.4-1.6
	c1.9,0,3.4,0.6,4.5,1.7s1.6,2.6,1.6,4.4s-0.6,3.2-1.7,4.4C130.1,132.3,128.6,132.9,126.8,132.9L126.8,132.9z"/>
<path class="st0" d="M138.9,60.4c-1.9,0-3.4-0.6-4.5-1.7s-1.6-2.6-1.6-4.4c0-1.9,0.6-3.4,1.7-4.5c1.1-1,2.6-1.6,4.4-1.6
	c1.9,0,3.4,0.6,4.5,1.7c1,1.1,1.6,2.6,1.6,4.4s-0.6,3.2-1.7,4.4C142.2,59.8,140.7,60.4,138.9,60.4z"/>
<path class="st0" d="M132.9,66.4c0-1.9,0.6-3.4,1.7-4.5s2.6-1.6,4.4-1.6c1.9,0,3.4,0.6,4.5,1.7c1,1.1,1.6,2.6,1.6,4.4
	s-0.6,3.2-1.7,4.4s-2.6,1.7-4.4,1.7c-1.9,0-3.4-0.6-4.5-1.7S132.9,68.2,132.9,66.4z"/>
<path class="st0" d="M145,78.6c0,1.8-0.6,3.2-1.7,4.4s-2.6,1.7-4.4,1.7c-1.9,0-3.4-0.6-4.5-1.7s-1.6-2.6-1.6-4.4
	c0-1.9,0.6-3.4,1.7-4.5c1.1-1,2.6-1.6,4.4-1.6c1.9,0,3.4,0.6,4.5,1.7C144.5,75.3,145,76.8,145,78.6z"/>
<path class="st0" d="M145,90.7c0,1.8-0.6,3.2-1.7,4.4c-1.1,1.1-2.6,1.7-4.4,1.7c-1.9,0-3.4-0.6-4.5-1.7s-1.6-2.6-1.6-4.4
	c0-1.9,0.6-3.4,1.7-4.5c1.1-1,2.6-1.6,4.4-1.6c1.9,0,3.4,0.6,4.5,1.7C144.5,87.4,145,88.9,145,90.7z"/>
<path class="st0" d="M145,102.8c0,1.8-0.6,3.2-1.7,4.4c-1.1,1.1-2.6,1.7-4.4,1.7c-1.9,0-3.4-0.6-4.5-1.7s-1.6-2.6-1.6-4.4
	c0-1.9,0.6-3.4,1.7-4.5c1.1-1,2.6-1.6,4.4-1.6c1.9,0,3.4,0.6,4.5,1.7C144.5,99.5,145,101,145,102.8z"/>
<path class="st0" d="M145,114.9c0,3.9-1.9,5.8-5.8,5.8c-4.2,0-6.3-1.9-6.3-5.8c0-1.8,0.5-3.2,1.6-4.4c1.1-1.1,2.5-1.7,4.3-1.7
	c4.2,0,6.3,1.9,6.3,5.8L145,114.9L145,114.9z"/>
<path class="st0" d="M132.9,126.8c0-1.9,0.6-3.4,1.7-4.5c1.1-1,2.6-1.6,4.4-1.6c1.9,0,3.4,0.6,4.5,1.7c1,1.1,1.6,2.6,1.6,4.4
	s-0.6,3.2-1.7,4.4c-1.1,1.1-2.6,1.7-4.4,1.7c-1.9,0-3.4-0.6-4.5-1.7S132.9,128.6,132.9,126.8z"/>
<path class="st0" d="M138.9,145c-1.9,0-3.4-0.6-4.5-1.7s-1.6-2.6-1.6-4.4c0-1.9,0.6-3.4,1.7-4.5c1.1-1,2.6-1.6,4.4-1.6
	c1.9,0,3.4,0.6,4.5,1.7c1,1.1,1.6,2.6,1.6,4.4s-0.6,3.2-1.7,4.4C142.2,144.4,140.7,145,138.9,145L138.9,145z"/>
<path class="st0" d="M157.1,42.4c0,3.9-1.9,5.8-5.8,5.8c-4.2,0-6.3-1.9-6.3-5.8c0-1.8,0.5-3.2,1.6-4.4c1-1.1,2.5-1.7,4.3-1.7
	c4.2,0,6.3,2,6.3,5.8V42.4z"/>
<path class="st0" d="M145,54.3c0-1.9,0.6-3.4,1.7-4.5s2.6-1.6,4.4-1.6c1.9,0,3.4,0.6,4.5,1.7c1,1.1,1.6,2.6,1.6,4.4
	c0,3.4-1.6,5.4-4.7,5.8c3.1,0.8,4.7,2.8,4.7,6.1c0,1.8-0.6,3.2-1.7,4.4c-1.1,1.1-2.6,1.7-4.4,1.7c-1.9,0-3.4-0.6-4.5-1.7
	S145,68,145,66.2c0-3.3,1.6-5.3,4.7-6.1C146.6,59.7,145,57.8,145,54.3z"/>
<path class="st0" d="M145,126.8c0-1.9,0.6-3.4,1.7-4.5c1.1-1,2.6-1.6,4.4-1.6s3.2,0.6,4.4,1.7c1.1,1.1,1.7,2.6,1.7,4.4
	c0,2-0.6,3.4-1.7,4.5s-2.6,1.6-4.4,1.6c-1.9,0-3.4-0.6-4.5-1.7S145,128.6,145,126.8L145,126.8z"/>
<path class="st0" d="M145,138.9c0-1.9,0.6-3.4,1.7-4.5c1.1-1,2.6-1.6,4.4-1.6c1.9,0,3.4,0.6,4.5,1.7c1,1.1,1.6,2.6,1.6,4.4
	s-0.6,3.2-1.7,4.4c-1.1,1.1-2.6,1.7-4.4,1.7c-1.9,0-3.4-0.6-4.5-1.7S145,140.7,145,138.9L145,138.9z"/>
<path class="st0" d="M145,151.1c0-1.8,0.6-3.2,1.7-4.4s2.6-1.7,4.4-1.7c1.9,0,3.4,0.6,4.5,1.7c1,1.1,1.6,2.6,1.6,4.4
	c0,1.9-0.6,3.4-1.7,4.5s-2.6,1.6-4.4,1.6c-1.9,0-3.4-0.6-4.5-1.7S145,152.9,145,151.1L145,151.1z"/>
<path class="st0" d="M157.1,42.4c0-1.8,0.5-3.2,1.6-4.4c1-1.1,2.5-1.7,4.3-1.7c4.2,0,6.3,2,6.3,5.8v0.2c0,3.9-1.9,5.8-5.8,5.8
	C159.2,48.3,157.1,46.3,157.1,42.4L157.1,42.4z"/>
<path class="st0" d="M157.1,54.3c0-1.8,0.5-3.2,1.6-4.4c1-1.1,2.5-1.7,4.3-1.7c4.2,0,6.3,2,6.3,5.8v0.2c0,3.9-1.9,5.8-5.8,5.8
	C159.2,60.2,157.1,58.2,157.1,54.3L157.1,54.3z"/>
<path class="st0" d="M157.1,138.9c0-1.9,0.6-3.4,1.7-4.5c1.1-1,2.6-1.6,4.4-1.6s3.2,0.6,4.4,1.7s1.7,2.6,1.7,4.4
	c0,1.9-0.6,3.4-1.7,4.5s-2.6,1.6-4.4,1.6c-1.9,0-3.4-0.6-4.5-1.7S157.1,140.7,157.1,138.9L157.1,138.9z"/>
<path class="st0" d="M157.1,151.1c0-1.8,0.6-3.2,1.7-4.4c1.1-1.1,2.6-1.7,4.4-1.7c1.9,0,3.4,0.6,4.5,1.7s1.6,2.6,1.6,4.4
	c0,1.9-0.6,3.4-1.7,4.5s-2.6,1.6-4.4,1.6c-1.9,0-3.4-0.6-4.5-1.7S157.1,152.9,157.1,151.1L157.1,151.1z"/>
<path class="st0" d="M169.2,42.4c0-1.8,0.5-3.2,1.6-4.4c1.1-1.1,2.5-1.7,4.3-1.7c4.2,0,6.3,2,6.3,5.8v0.2c0,3.9-1.9,5.8-5.8,5.8
	C171.3,48.3,169.2,46.3,169.2,42.4L169.2,42.4z"/>
<path class="st0" d="M169.2,54.3c0-1.8,0.5-3.2,1.6-4.4c1.1-1.1,2.5-1.7,4.3-1.7c4.2,0,6.3,2,6.3,5.8v0.2c0,3.9-1.9,5.8-5.8,5.8
	C171.3,60.2,169.2,58.2,169.2,54.3L169.2,54.3z"/>
<path class="st0" d="M175.3,132.9c1.8,0,3.2,0.6,4.4,1.7s1.7,2.6,1.7,4.4c0,1.9-0.6,3.4-1.7,4.5s-2.6,1.6-4.4,1.6
	c-1.9,0-3.4-0.6-4.5-1.7s-1.6-2.6-1.6-4.4c0-1.9,0.6-3.4,1.7-4.5C172,133.4,173.5,132.9,175.3,132.9L175.3,132.9z"/>
<path class="st0" d="M181.4,151.1c0,1.9-0.6,3.4-1.7,4.5s-2.6,1.6-4.4,1.6c-1.9,0-3.4-0.6-4.5-1.7s-1.6-2.6-1.6-4.4s0.6-3.2,1.7-4.4
	c1.1-1.1,2.6-1.7,4.4-1.7c1.9,0,3.4,0.6,4.5,1.7S181.4,149.3,181.4,151.1L181.4,151.1z"/>
<path class="st0" d="M193.5,42.4c0,3.9-1.9,5.8-5.8,5.8c-4.2,0-6.3-1.9-6.3-5.8c0-1.8,0.5-3.2,1.6-4.4c1.1-1.1,2.5-1.7,4.3-1.7
	c4.2,0,6.3,2,6.3,5.8L193.5,42.4L193.5,42.4z"/>
<path class="st0" d="M181.4,54.3c0-1.9,0.6-3.4,1.7-4.5s2.6-1.6,4.4-1.6c1.9,0,3.4,0.6,4.5,1.7c1,1.1,1.6,2.6,1.6,4.4
	c0,3.3-1.6,5.3-4.7,6.1c3.1,0.5,4.7,2.4,4.7,5.8c0,1.9-0.6,3.4-1.7,4.5c-1.1,1.1-2.6,1.6-4.4,1.6s-3.2-0.6-4.4-1.7
	c-1.1-1.1-1.7-2.6-1.7-4.4c0-3.3,1.6-5.3,4.7-6.1C182.9,59.7,181.4,57.8,181.4,54.3L181.4,54.3z"/>
<path class="st0" d="M181.4,126.8c0-1.8,0.6-3.2,1.7-4.4c1.1-1.1,2.6-1.7,4.4-1.7c1.9,0,3.4,0.6,4.5,1.7c1,1.1,1.6,2.6,1.6,4.4
	c0,2-0.6,3.4-1.7,4.5s-2.6,1.6-4.4,1.6c-1.9,0-3.4-0.6-4.5-1.7S181.4,128.6,181.4,126.8L181.4,126.8z"/>
<path class="st0" d="M187.4,145c-1.8,0-3.2-0.6-4.4-1.7c-1.1-1.1-1.7-2.6-1.7-4.4c0-1.9,0.6-3.4,1.7-4.5c1.1-1,2.6-1.6,4.4-1.6
	c1.9,0,3.4,0.6,4.5,1.7c1,1.1,1.6,2.6,1.6,4.4c0,1.9-0.6,3.4-1.7,4.5S189.2,145,187.4,145L187.4,145z"/>
<path class="st0" d="M187.4,157.1c-1.9,0-3.4-0.6-4.5-1.7s-1.6-2.6-1.6-4.4s0.6-3.2,1.7-4.4s2.6-1.7,4.4-1.7c1.9,0,3.4,0.6,4.5,1.7
	c1,1.1,1.6,2.6,1.6,4.4c0,1.9-0.6,3.4-1.7,4.5S189.2,157.1,187.4,157.1L187.4,157.1z"/>
<path class="st0" d="M205.6,54.3c0,1.8-0.6,3.2-1.7,4.4c-1.1,1.1-2.6,1.7-4.4,1.7c-1.9,0-3.4-0.6-4.5-1.7s-1.6-2.6-1.6-4.4
	c0-1.9,0.6-3.4,1.7-4.5s2.6-1.6,4.4-1.6c1.9,0,3.4,0.6,4.5,1.7C205.1,51,205.6,52.5,205.6,54.3z"/>
<path class="st0" d="M199.5,72.5c-1.8,0-3.2-0.6-4.4-1.7s-1.7-2.6-1.7-4.4c0-1.9,0.6-3.4,1.7-4.5s2.6-1.6,4.4-1.6
	c1.9,0,3.4,0.6,4.5,1.7c1,1.1,1.6,2.6,1.6,4.4c0,1.9-0.6,3.4-1.7,4.5C202.8,72,201.3,72.5,199.5,72.5L199.5,72.5z"/>
<path class="st0" d="M199.5,84.6c-1.8,0-3.2-0.6-4.4-1.7s-1.7-2.6-1.7-4.4c0-1.9,0.6-3.4,1.7-4.5c1.1-1,2.6-1.6,4.4-1.6
	c1.9,0,3.4,0.6,4.5,1.7c1,1.1,1.6,2.6,1.6,4.4c0,1.9-0.6,3.4-1.7,4.5C202.8,84.1,201.3,84.6,199.5,84.6L199.5,84.6z"/>
<path class="st0" d="M199.5,96.7c-1.8,0-3.2-0.6-4.4-1.7c-1.1-1.1-1.7-2.6-1.7-4.4c0-1.9,0.6-3.4,1.7-4.5c1.1-1,2.6-1.6,4.4-1.6
	c1.9,0,3.4,0.6,4.5,1.7c1,1.1,1.6,2.6,1.6,4.4c0,1.9-0.6,3.4-1.7,4.5C202.8,96.2,201.3,96.7,199.5,96.7L199.5,96.7z"/>
<path class="st0" d="M199.5,108.9c-1.8,0-3.2-0.6-4.4-1.7c-1.1-1.1-1.7-2.6-1.7-4.4c0-1.9,0.6-3.4,1.7-4.5c1.1-1,2.6-1.6,4.4-1.6
	c1.9,0,3.4,0.6,4.5,1.7c1,1.1,1.6,2.6,1.6,4.4c0,1.9-0.6,3.4-1.7,4.5C202.8,108.3,201.3,108.9,199.5,108.9L199.5,108.9z"/>
<path class="st0" d="M199.3,120.8c-3.9,0-5.8-1.9-5.8-5.8c0-1.8,0.5-3.2,1.6-4.4c1.1-1.1,2.5-1.7,4.3-1.7c4.2,0,6.3,1.9,6.3,5.8
	c0,1.8-0.5,3.2-1.6,4.4c-1.1,1.1-2.5,1.7-4.3,1.7C199.8,120.8,199.3,120.8,199.3,120.8z"/>
<path class="st0" d="M199.5,132.9c-1.8,0-3.2-0.6-4.4-1.7c-1.1-1.1-1.7-2.6-1.7-4.4c0-1.9,0.6-3.4,1.7-4.5c1.1-1,2.6-1.6,4.4-1.6
	c1.9,0,3.4,0.6,4.5,1.7c1,1.1,1.6,2.6,1.6,4.4c0,2-0.6,3.4-1.7,4.5S201.3,132.9,199.5,132.9L199.5,132.9z"/>
<path class="st0" d="M205.6,138.9c0,1.8-0.6,3.2-1.7,4.4c-1.1,1.1-2.6,1.7-4.4,1.7c-1.9,0-3.4-0.6-4.5-1.7s-1.6-2.6-1.6-4.4
	c0-1.9,0.6-3.4,1.7-4.5c1.1-1,2.6-1.6,4.4-1.6c1.9,0,3.4,0.6,4.5,1.7C205.1,135.7,205.6,137.1,205.6,138.9L205.6,138.9z"/>
<path class="st0" d="M217.7,66.4c0,1.8-0.6,3.2-1.7,4.4c-1.1,1.1-2.6,1.7-4.4,1.7c-1.9,0-3.4-0.6-4.5-1.7s-1.6-2.6-1.6-4.4
	c0-1.9,0.6-3.4,1.7-4.5s2.6-1.6,4.4-1.6c1.9,0,3.4,0.6,4.5,1.7S217.7,64.6,217.7,66.4z"/>
<path class="st0" d="M205.6,78.6c0-1.8,0.6-3.2,1.7-4.4c1.1-1.1,2.6-1.7,4.4-1.7c1.9,0,3.4,0.6,4.5,1.7s1.6,2.6,1.6,4.4
	c0,1.9-0.6,3.4-1.7,4.5c-1.1,1.1-2.6,1.6-4.4,1.6c-1.9,0-3.4-0.6-4.5-1.7S205.6,80.4,205.6,78.6z"/>
<path class="st0" d="M205.6,90.7c0-1.8,0.6-3.2,1.7-4.4s2.6-1.7,4.4-1.7c1.9,0,3.4,0.6,4.5,1.7s1.6,2.6,1.6,4.4
	c0,1.9-0.6,3.4-1.7,4.5c-1.1,1.1-2.6,1.6-4.4,1.6c-1.9,0-3.4-0.6-4.5-1.7S205.6,92.5,205.6,90.7z"/>
<path class="st0" d="M205.6,102.8c0-1.8,0.6-3.2,1.7-4.4s2.6-1.7,4.4-1.7c1.9,0,3.4,0.6,4.5,1.7s1.6,2.6,1.6,4.4
	c0,1.9-0.6,3.4-1.7,4.5c-1.1,1.1-2.6,1.6-4.4,1.6c-1.9,0-3.4-0.6-4.5-1.7S205.6,104.6,205.6,102.8z"/>
<path class="st0" d="M205.6,114.7c0-3.9,1.9-5.8,5.8-5.8c4.2,0,6.3,1.9,6.3,5.8c0,1.8-0.5,3.2-1.6,4.4c-1.1,1.1-2.5,1.7-4.3,1.7
	c-4.2,0-6.3-1.9-6.3-5.8L205.6,114.7L205.6,114.7z"/>
<path class="st0" d="M217.7,126.8c0,1.8-0.6,3.3-1.7,4.4s-2.6,1.7-4.4,1.7c-1.9,0-3.4-0.6-4.5-1.7s-1.6-2.6-1.6-4.4
	c0-1.9,0.6-3.4,1.7-4.5c1.1-1,2.6-1.6,4.4-1.6c1.9,0,3.4,0.6,4.5,1.7S217.7,125,217.7,126.8z"/>
<path class="st0" d="M242,42.4c0,3.9-1.9,5.8-5.8,5.8c-4.2,0-6.3-1.9-6.3-5.8c0-1.8,0.5-3.2,1.6-4.4c1.1-1.1,2.5-1.7,4.3-1.7
	c4.2,0,6.3,2,6.3,5.8L242,42.4L242,42.4z"/>
<path class="st0" d="M235.9,60.4c-1.9,0-3.4-0.6-4.5-1.7s-1.6-2.6-1.6-4.4c0-1.9,0.6-3.4,1.7-4.5c1.1-1,2.6-1.6,4.4-1.6
	c1.9,0,3.4,0.6,4.5,1.7s1.6,2.6,1.6,4.4s-0.6,3.2-1.7,4.4C239.2,59.8,237.7,60.4,235.9,60.4z"/>
<path class="st0" d="M242,66.4c0,1.8-0.6,3.2-1.7,4.4s-2.6,1.7-4.4,1.7c-1.9,0-3.4-0.6-4.5-1.7s-1.6-2.6-1.6-4.4
	c0-1.9,0.6-3.4,1.7-4.5s2.6-1.6,4.4-1.6c1.9,0,3.4,0.6,4.5,1.7S242,64.6,242,66.4z"/>
<path class="st0" d="M242,78.6c0,1.8-0.6,3.2-1.7,4.4s-2.6,1.7-4.4,1.7c-1.9,0-3.4-0.6-4.5-1.7s-1.6-2.6-1.6-4.4
	c0-1.9,0.6-3.4,1.7-4.5c1.1-1,2.6-1.6,4.4-1.6c1.9,0,3.4,0.6,4.5,1.7S242,76.8,242,78.6z"/>
<path class="st0" d="M242,90.7c0,1.8-0.6,3.2-1.7,4.4c-1.1,1.1-2.6,1.7-4.4,1.7c-1.9,0-3.4-0.6-4.5-1.7s-1.6-2.6-1.6-4.4
	c0-1.9,0.6-3.4,1.7-4.5c1.1-1,2.6-1.6,4.4-1.6c1.9,0,3.4,0.6,4.5,1.7S242,88.9,242,90.7z"/>
<path class="st0" d="M235.9,108.9c-1.9,0-3.4-0.6-4.5-1.7s-1.6-2.6-1.6-4.4c0-1.9,0.6-3.4,1.7-4.5c1.1-1,2.6-1.6,4.4-1.6
	c1.9,0,3.4,0.6,4.5,1.7s1.6,2.6,1.6,4.4s-0.6,3.2-1.7,4.4C239.2,108.3,237.7,108.9,235.9,108.9z"/>
<path class="st0" d="M229.9,114.9c0-1.8,0.5-3.2,1.6-4.4c1.1-1.1,2.5-1.7,4.3-1.7c4.2,0,6.3,1.9,6.3,5.8v0.2c0,3.9-1.9,5.8-5.8,5.8
	C231.9,120.8,229.8,118.8,229.9,114.9L229.9,114.9z"/>
<path class="st0" d="M235.9,132.9c-1.9,0-3.4-0.6-4.5-1.7s-1.6-2.6-1.6-4.4c0-1.9,0.6-3.4,1.7-4.5c1.1-1,2.6-1.6,4.4-1.6
	c1.9,0,3.4,0.6,4.5,1.7s1.6,2.6,1.6,4.4s-0.6,3.2-1.7,4.4C239.2,132.3,237.7,132.9,235.9,132.9z"/>
<path class="st0" d="M242,138.9c0,1.8-0.6,3.2-1.7,4.4c-1.1,1.1-2.6,1.7-4.4,1.7c-1.9,0-3.4-0.6-4.5-1.7s-1.6-2.6-1.6-4.4
	c0-1.9,0.6-3.4,1.7-4.5c1.1-1,2.6-1.6,4.4-1.6c1.9,0,3.4,0.6,4.5,1.7S242,137.1,242,138.9L242,138.9z"/>
<path class="st0" d="M229.9,151.1c0-1.8,0.6-3.2,1.7-4.4c1.1-1.1,2.6-1.7,4.4-1.7c1.9,0,3.4,0.6,4.5,1.7s1.6,2.6,1.6,4.4
	c0,1.9-0.6,3.4-1.7,4.5s-2.6,1.6-4.4,1.6c-1.9,0-3.4-0.6-4.5-1.7S229.9,152.9,229.9,151.1L229.9,151.1z"/>
<path class="st0" d="M254.1,42.4c0,3.9-1.9,5.8-5.8,5.8c-4.2,0-6.3-1.9-6.3-5.8c0-1.8,0.5-3.2,1.6-4.4c1.1-1.1,2.5-1.7,4.3-1.7
	c4.2,0,6.3,2,6.3,5.8L254.1,42.4L254.1,42.4z"/>
<path class="st0" d="M242,54.3c0-1.9,0.6-3.4,1.7-4.5s2.6-1.6,4.4-1.6c1.9,0,3.4,0.6,4.5,1.7c1,1.1,1.6,2.6,1.6,4.4
	s-0.6,3.2-1.7,4.4c-1.1,1.1-2.6,1.7-4.4,1.7c-1.9,0-3.4-0.6-4.5-1.7S242,56.1,242,54.3z"/>
<path class="st0" d="M248,72.5c-1.9,0-3.4-0.6-4.5-1.7s-1.6-2.6-1.6-4.4c0-1.9,0.6-3.4,1.7-4.5s2.6-1.6,4.4-1.6
	c1.9,0,3.4,0.6,4.5,1.7c1,1.1,1.6,2.6,1.6,4.4s-0.6,3.2-1.7,4.4S249.8,72.5,248,72.5z"/>
<path class="st0" d="M254.1,78.6c0,1.8-0.6,3.2-1.7,4.4s-2.6,1.7-4.4,1.7c-1.9,0-3.4-0.6-4.5-1.7s-1.6-2.6-1.6-4.4
	c0-1.9,0.6-3.4,1.7-4.5c1.1-1,2.6-1.6,4.4-1.6c1.9,0,3.4,0.6,4.5,1.7C253.6,75.3,254.1,76.8,254.1,78.6z"/>
<path class="st0" d="M254.1,90.7c0,1.8-0.6,3.2-1.7,4.4c-1.1,1.1-2.6,1.7-4.4,1.7c-1.9,0-3.4-0.6-4.5-1.7s-1.6-2.6-1.6-4.4
	c0-1.9,0.6-3.4,1.7-4.5c1.1-1,2.6-1.6,4.4-1.6c1.9,0,3.4,0.6,4.5,1.7C253.6,87.4,254.1,88.9,254.1,90.7z"/>
<path class="st0" d="M242,102.8c0-1.9,0.6-3.4,1.7-4.5c1.1-1,2.6-1.6,4.4-1.6c1.9,0,3.4,0.6,4.5,1.7c1,1.1,1.6,2.6,1.6,4.4
	s-0.6,3.2-1.7,4.4c-1.1,1.1-2.6,1.7-4.4,1.7c-1.9,0-3.4-0.6-4.5-1.7S242,104.6,242,102.8z"/>
<path class="st0" d="M242,114.9c0-1.8,0.5-3.2,1.6-4.4c1.1-1.1,2.5-1.7,4.3-1.7c4.2,0,6.3,1.9,6.3,5.8v0.2c0,3.9-1.9,5.8-5.8,5.8
	C244.1,120.8,242,118.8,242,114.9L242,114.9z"/>
<path class="st0" d="M242,126.8c0-1.9,0.6-3.4,1.7-4.5c1.1-1,2.6-1.6,4.4-1.6c1.9,0,3.4,0.6,4.5,1.7c1,1.1,1.6,2.6,1.6,4.4
	c0,1.8-0.6,3.2-1.7,4.4c-1.1,1.1-2.6,1.7-4.4,1.7c-1.9,0-3.4-0.6-4.5-1.7S242,128.6,242,126.8z"/>
<path class="st0" d="M254.1,138.9c0,1.8-0.6,3.2-1.7,4.4c-1.1,1.1-2.6,1.7-4.4,1.7c-1.9,0-3.4-0.6-4.5-1.7s-1.6-2.6-1.6-4.4
	c0-1.9,0.6-3.4,1.7-4.5c1.1-1,2.6-1.6,4.4-1.6c1.9,0,3.4,0.6,4.5,1.7C253.6,135.7,254.1,137.1,254.1,138.9L254.1,138.9z"/>
<path class="st0" d="M242,151.1c0-1.8,0.6-3.2,1.7-4.4s2.6-1.7,4.4-1.7c1.9,0,3.4,0.6,4.5,1.7c1,1.1,1.6,2.6,1.6,4.4
	c0,1.9-0.6,3.4-1.7,4.5s-2.6,1.6-4.4,1.6c-1.9,0-3.4-0.6-4.5-1.7S242,152.9,242,151.1L242,151.1z"/>
<path class="st0" d="M266.2,54.3c0,1.8-0.6,3.2-1.7,4.4s-2.6,1.7-4.4,1.7c-2,0-3.4-0.6-4.5-1.7s-1.6-2.6-1.6-4.4
	c0-1.9,0.6-3.4,1.7-4.5c1.1-1,2.6-1.6,4.4-1.6c1.9,0,3.4,0.6,4.5,1.7C265.7,51,266.2,52.5,266.2,54.3L266.2,54.3z"/>
<path class="st0" d="M254.1,66.4c0-1.9,0.6-3.4,1.7-4.5s2.6-1.6,4.4-1.6c1.9,0,3.4,0.6,4.5,1.7c1,1.1,1.6,2.6,1.6,4.4
	s-0.6,3.2-1.7,4.4c-1.1,1.1-2.6,1.7-4.4,1.7c-2,0-3.4-0.6-4.5-1.7S254.1,68.2,254.1,66.4L254.1,66.4z"/>
<path class="st0" d="M266.2,42.4c0-1.8,0.5-3.2,1.6-4.4c1-1.1,2.5-1.7,4.3-1.7s3.2,0.5,4.4,1.6c1.1,1,1.7,2.5,1.7,4.3v0.2
	c0,3.9-2,5.8-5.8,5.8S266.2,46.3,266.2,42.4L266.2,42.4z"/>
<path class="st0" d="M278.3,54.3c0,1.8-0.6,3.2-1.7,4.4c-1.1,1.1-2.6,1.7-4.4,1.7c-2,0-3.4-0.6-4.5-1.7s-1.6-2.6-1.6-4.4
	c0-1.9,0.6-3.4,1.7-4.5s2.6-1.6,4.4-1.6c1.9,0,3.4,0.6,4.5,1.7S278.3,52.5,278.3,54.3z"/>
<path class="st0" d="M278.1,42.4c0-1.8,0.5-3.2,1.6-4.4c1-1.1,2.5-1.7,4.3-1.7c4.2,0,6.3,2,6.3,5.8v0.2c0,3.9-2,5.8-5.8,5.8
	C280.2,48.2,278.1,46.3,278.1,42.4z"/>
<path class="st0" d="M290.5,66.2c0,1.8-0.6,3.2-1.7,4.4s-2.6,1.7-4.4,1.7c-2,0-3.4-0.6-4.5-1.7s-1.6-2.6-1.6-4.4
	c0-3.3,1.6-5.3,4.7-6.1c-3.1-0.5-4.7-2.4-4.7-5.8c0-1.9,0.6-3.4,1.7-4.5s2.6-1.6,4.4-1.6c1.9,0,3.4,0.6,4.5,1.7s1.6,2.6,1.6,4.4
	c0,3.4-1.6,5.4-4.7,5.8C288.9,60.9,290.5,62.9,290.5,66.2z"/>
<path class="st0" d="M290.5,54.3c0-1.9,0.6-3.4,1.7-4.5s2.6-1.6,4.4-1.6c1.9,0,3.4,0.6,4.5,1.7c1,1.1,1.6,2.6,1.6,4.4
	s-0.6,3.2-1.7,4.4c-1.1,1.1-2.6,1.7-4.4,1.7c-2,0-3.4-0.6-4.5-1.7S290.5,56.1,290.5,54.3z"/>
<path class="st0" d="M296.5,72.5c-2,0-3.4-0.6-4.5-1.7s-1.6-2.6-1.6-4.4c0-1.9,0.6-3.4,1.7-4.5s2.6-1.6,4.4-1.6
	c1.9,0,3.4,0.6,4.5,1.7c1,1.1,1.6,2.6,1.6,4.4s-0.6,3.2-1.7,4.4S298.3,72.5,296.5,72.5z"/>
<path class="st0" d="M302.6,78.5c0,1.8-0.6,3.2-1.7,4.4s-2.6,1.7-4.4,1.7c-2,0-3.4-0.6-4.5-1.7s-1.6-2.6-1.6-4.4
	c0-1.9,0.6-3.4,1.7-4.5c1.1-1,2.6-1.6,4.4-1.6c1.9,0,3.4,0.6,4.5,1.7C302.1,75.3,302.6,76.7,302.6,78.5z"/>
<path class="st0" d="M296.5,96.7c-2,0-3.4-0.6-4.5-1.7s-1.6-2.6-1.6-4.4c0-1.9,0.6-3.4,1.7-4.5c1.1-1,2.6-1.6,4.4-1.6
	c1.9,0,3.4,0.6,4.5,1.7c1,1.1,1.6,2.6,1.6,4.4s-0.6,3.2-1.7,4.4C299.8,96.2,298.3,96.7,296.5,96.7z"/>
<path class="st0" d="M296.5,108.8c-2,0-3.4-0.6-4.5-1.7s-1.6-2.6-1.6-4.4c0-1.9,0.6-3.4,1.7-4.5c1.1-1,2.6-1.6,4.4-1.6
	c1.9,0,3.4,0.6,4.5,1.7c1,1.1,1.6,2.6,1.6,4.4s-0.6,3.2-1.7,4.4C299.8,108.3,298.3,108.8,296.5,108.8z"/>
<path class="st0" d="M302.6,114.9c0,3.9-2,5.8-5.8,5.8c-4.2,0-6.3-1.9-6.3-5.8c0-1.8,0.5-3.2,1.6-4.4c1-1.1,2.5-1.7,4.3-1.7
	c4.2,0,6.3,1.9,6.3,5.8V114.9z"/>
<path class="st0" d="M302.6,126.8c0,1.8-0.6,3.2-1.7,4.4c-1.1,1.1-2.6,1.7-4.4,1.7c-2,0-3.4-0.6-4.5-1.7s-1.6-2.6-1.6-4.4
	c0-1.9,0.6-3.4,1.7-4.5c1.1-1,2.6-1.6,4.4-1.6c1.9,0,3.4,0.6,4.5,1.7C302.1,123.5,302.6,125,302.6,126.8z"/>
<path class="st0" d="M296.5,145c-2,0-3.4-0.6-4.5-1.7s-1.6-2.6-1.6-4.4c0-1.9,0.6-3.4,1.7-4.5c1.1-1,2.6-1.6,4.4-1.6
	c1.9,0,3.4,0.6,4.5,1.7c1,1.1,1.6,2.6,1.6,4.4s-0.6,3.2-1.7,4.4C299.8,144.4,298.3,145,296.5,145L296.5,145z"/>
<path class="st0" d="M290.5,151c0-1.8,0.6-3.2,1.7-4.4s2.6-1.7,4.4-1.7c1.9,0,3.4,0.6,4.5,1.7c1,1.1,1.6,2.6,1.6,4.4
	c0,1.9-0.6,3.4-1.7,4.5s-2.6,1.6-4.4,1.6c-2,0-3.4-0.6-4.5-1.7S290.5,152.8,290.5,151L290.5,151z"/>
<path class="st0" d="M302.6,66.4c0-1.9,0.6-3.4,1.7-4.5s2.6-1.6,4.4-1.6c1.9,0,3.4,0.6,4.5,1.7c1,1.1,1.6,2.6,1.6,4.4
	s-0.6,3.2-1.7,4.4s-2.6,1.7-4.4,1.7c-2,0-3.4-0.6-4.5-1.7S302.6,68.2,302.6,66.4z"/>
<path class="st0" d="M314.7,78.5c0,1.8-0.6,3.2-1.7,4.4s-2.6,1.7-4.4,1.7c-2,0-3.4-0.6-4.5-1.7s-1.6-2.6-1.6-4.4
	c0-1.9,0.6-3.4,1.7-4.5c1.1-1,2.6-1.6,4.4-1.6c1.9,0,3.4,0.6,4.5,1.7C314.2,75.3,314.7,76.7,314.7,78.5z"/>
<path class="st0" d="M302.6,90.7c0-1.9,0.6-3.4,1.7-4.5c1.1-1,2.6-1.6,4.4-1.6c1.9,0,3.4,0.6,4.5,1.7c1,1.1,1.6,2.6,1.6,4.4
	s-0.6,3.2-1.7,4.4c-1.1,1.1-2.6,1.7-4.4,1.7c-2,0-3.4-0.6-4.5-1.7S302.6,92.5,302.6,90.7z"/>
<path class="st0" d="M302.6,102.8c0-1.9,0.6-3.4,1.7-4.5c1.1-1,2.6-1.6,4.4-1.6c1.9,0,3.4,0.6,4.5,1.7c1,1.1,1.6,2.6,1.6,4.4
	s-0.6,3.2-1.7,4.4c-1.1,1.1-2.6,1.7-4.4,1.7c-2,0-3.4-0.6-4.5-1.7S302.6,104.6,302.6,102.8z"/>
<path class="st0" d="M314.7,114.9c0,3.9-2,5.8-5.8,5.8c-4.2,0-6.3-1.9-6.3-5.8c0-1.8,0.5-3.2,1.6-4.4c1-1.1,2.5-1.7,4.3-1.7
	c4.2,0,6.3,1.9,6.3,5.8L314.7,114.9L314.7,114.9z"/>
<path class="st0" d="M314.7,126.8c0,1.8-0.6,3.2-1.7,4.4c-1.1,1.1-2.6,1.7-4.4,1.7c-2,0-3.4-0.6-4.5-1.7s-1.6-2.6-1.6-4.4
	c0-1.9,0.6-3.4,1.7-4.5c1.1-1,2.6-1.6,4.4-1.6c1.9,0,3.4,0.6,4.5,1.7C314.2,123.5,314.7,125,314.7,126.8z"/>
<path class="st0" d="M302.6,138.9c0-1.9,0.6-3.4,1.7-4.5c1.1-1,2.6-1.6,4.4-1.6c1.9,0,3.4,0.6,4.5,1.7c1,1.1,1.6,2.6,1.6,4.4
	s-0.6,3.2-1.7,4.4c-1.1,1.1-2.6,1.7-4.4,1.7c-2,0-3.4-0.6-4.5-1.7S302.6,140.7,302.6,138.9L302.6,138.9z"/>
<path class="st0" d="M302.6,151c0-1.8,0.6-3.2,1.7-4.4s2.6-1.7,4.4-1.7c1.9,0,3.4,0.6,4.5,1.7c1,1.1,1.6,2.6,1.6,4.4
	c0,1.9-0.6,3.4-1.7,4.5s-2.6,1.6-4.4,1.6c-2,0-3.4-0.6-4.5-1.7S302.6,152.8,302.6,151L302.6,151z"/>
<path class="st0" d="M320.8,60.4c-2,0-3.4-0.6-4.5-1.7s-1.6-2.6-1.6-4.4c0-1.9,0.6-3.4,1.7-4.5c1.1-1,2.6-1.6,4.4-1.6
	c1.9,0,3.4,0.6,4.5,1.7s1.6,2.6,1.6,4.4s-0.6,3.2-1.7,4.4C324,59.8,322.6,60.4,320.8,60.4z"/>
<path class="st0" d="M314.7,66.4c0-1.9,0.6-3.4,1.7-4.5s2.6-1.6,4.4-1.6c1.9,0,3.4,0.6,4.5,1.7s1.6,2.6,1.6,4.4s-0.6,3.2-1.7,4.4
	c-1.1,1.1-2.6,1.7-4.4,1.7c-2,0-3.4-0.6-4.5-1.7S314.7,68.2,314.7,66.4z"/>
<path class="st0" d="M326.8,42.4c0-1.8,0.5-3.2,1.6-4.4c1-1.1,2.5-1.7,4.3-1.7s3.2,0.5,4.4,1.6c1.1,1,1.7,2.5,1.7,4.3v0.2
	c0,3.9-2,5.8-5.8,5.8S326.8,46.3,326.8,42.4L326.8,42.4z"/>
<path class="st0" d="M326.8,54.3c0-1.9,0.6-3.4,1.7-4.5s2.6-1.6,4.4-1.6c3.3,0,5.3,1.6,6.1,4.7c0.5-3.1,2.4-4.7,5.8-4.7
	c1.9,0,3.4,0.6,4.5,1.7c1,1.1,1.6,2.6,1.6,4.4s-0.6,3.2-1.7,4.4s-2.6,1.7-4.4,1.7c-3.3,0-5.3-1.6-6.1-4.7c-0.5,3.1-2.4,4.7-5.8,4.7
	c-2,0-3.4-0.6-4.5-1.7S326.8,56.1,326.8,54.3z"/>
<path class="st0" d="M338.7,42.4c0-1.8,0.5-3.2,1.6-4.4c1-1.1,2.5-1.7,4.3-1.7c4.2,0,6.3,2,6.3,5.8v0.2c0,3.9-2,5.8-5.8,5.8
	C340.8,48.2,338.7,46.3,338.7,42.4L338.7,42.4z"/>
<path class="st0" d="M350.8,66.4c0,1.8-0.6,3.2-1.7,4.4c-1.1,1.1-2.6,1.7-4.4,1.7c-2,0-3.4-0.6-4.5-1.7s-1.6-2.6-1.6-4.4
	c0-1.9,0.6-3.4,1.7-4.5s2.6-1.6,4.4-1.6c1.9,0,3.4,0.6,4.5,1.7C350.3,63.2,350.8,64.6,350.8,66.4z"/>
<path class="st0" d="M363,54.3c0,3.4-1.6,5.4-4.7,5.8c3.1,0.8,4.7,2.8,4.7,6.1v0.2c0,1.8-0.6,3.2-1.7,4.4c-1.1,1.1-2.6,1.7-4.4,1.7
	c-2,0-3.4-0.6-4.5-1.7s-1.6-2.6-1.6-4.4c0-3.4,1.6-5.5,4.7-6.3c-3.1-0.5-4.7-2.4-4.7-5.8c0-1.9,0.6-3.4,1.7-4.5
	c1.1-1,2.6-1.6,4.4-1.6c1.9,0,3.4,0.6,4.5,1.7S363,52.5,363,54.3L363,54.3z"/>
<path class="st0" d="M350.8,78.5c0-1.8,0.6-3.2,1.7-4.4c1.1-1.1,2.6-1.7,4.4-1.7c1.9,0,3.4,0.6,4.5,1.7s1.6,2.6,1.6,4.4
	c0,1.9-0.6,3.4-1.7,4.5c-1.1,1.1-2.6,1.6-4.4,1.6c-2,0-3.4-0.6-4.5-1.7S350.8,80.3,350.8,78.5z"/>
<path class="st0" d="M350.8,90.7c0-1.8,0.6-3.2,1.7-4.4s2.6-1.7,4.4-1.7c1.9,0,3.4,0.6,4.5,1.7s1.6,2.6,1.6,4.4
	c0,1.9-0.6,3.4-1.7,4.5c-1.1,1.1-2.6,1.6-4.4,1.6c-2,0-3.4-0.6-4.5-1.7S350.8,92.5,350.8,90.7z"/>
<path class="st0" d="M350.8,102.8c0-1.8,0.6-3.2,1.7-4.4s2.6-1.7,4.4-1.7c1.9,0,3.4,0.6,4.5,1.7s1.6,2.6,1.6,4.4
	c0,1.9-0.6,3.4-1.7,4.5c-1.1,1.1-2.6,1.6-4.4,1.6c-2,0-3.4-0.6-4.5-1.7S350.8,104.6,350.8,102.8z"/>
<path class="st0" d="M350.8,114.7c0-3.9,1.9-5.8,5.8-5.8c4.2,0,6.3,1.9,6.3,5.8c0,1.8-0.5,3.2-1.6,4.4c-1,1.1-2.5,1.7-4.3,1.7
	c-4.2,0-6.3-1.9-6.3-5.8L350.8,114.7L350.8,114.7z"/>
<path class="st0" d="M350.8,126.8c0-1.8,0.6-3.2,1.7-4.4s2.6-1.7,4.4-1.7c1.9,0,3.4,0.6,4.5,1.7s1.6,2.6,1.6,4.4
	c0,2-0.6,3.4-1.7,4.5s-2.6,1.6-4.4,1.6c-2,0-3.4-0.6-4.5-1.7S350.8,128.6,350.8,126.8L350.8,126.8z"/>
<path class="st0" d="M350.8,138.9c0-1.8,0.6-3.2,1.7-4.4s2.6-1.7,4.4-1.7c1.9,0,3.4,0.6,4.5,1.7s1.6,2.6,1.6,4.4
	c0,1.9-0.6,3.4-1.7,4.5s-2.6,1.6-4.4,1.6c-2,0-3.4-0.6-4.5-1.7S350.8,140.7,350.8,138.9L350.8,138.9z"/>
<path class="st0" d="M350.8,151c0-1.8,0.6-3.2,1.7-4.4c1.1-1.1,2.6-1.7,4.4-1.7c1.9,0,3.4,0.6,4.5,1.7s1.6,2.6,1.6,4.4
	c0,1.9-0.6,3.4-1.7,4.5s-2.6,1.6-4.4,1.6c-2,0-3.4-0.6-4.5-1.7S350.8,152.8,350.8,151L350.8,151z"/>
<path class="st0" d="M363,66.4c0-1.8,0.6-3.2,1.7-4.4c1.1-1.1,2.6-1.7,4.4-1.7c1.9,0,3.4,0.6,4.5,1.7s1.6,2.6,1.6,4.4
	c0,1.9-0.6,3.4-1.7,4.5c-1.1,1.1-2.6,1.6-4.4,1.6c-2,0-3.4-0.6-4.5-1.7S363,68.2,363,66.4z"/>
<path class="st0" d="M363,78.5c0-1.8,0.6-3.2,1.7-4.4c1.1-1.1,2.6-1.7,4.4-1.7c1.9,0,3.4,0.6,4.5,1.7s1.6,2.6,1.6,4.4
	c0,1.9-0.6,3.4-1.7,4.5c-1.1,1.1-2.6,1.6-4.4,1.6c-2,0-3.4-0.6-4.5-1.7S363,80.3,363,78.5z"/>
<path class="st0" d="M363,90.7c0-1.8,0.6-3.2,1.7-4.4s2.6-1.7,4.4-1.7c1.9,0,3.4,0.6,4.5,1.7s1.6,2.6,1.6,4.4c0,1.9-0.6,3.4-1.7,4.5
	c-1.1,1.1-2.6,1.6-4.4,1.6c-2,0-3.4-0.6-4.5-1.7S363,92.5,363,90.7z"/>
<path class="st0" d="M363,102.8c0-1.8,0.6-3.2,1.7-4.4s2.6-1.7,4.4-1.7c1.9,0,3.4,0.6,4.5,1.7s1.6,2.6,1.6,4.4
	c0,1.9-0.6,3.4-1.7,4.5c-1.1,1.1-2.6,1.6-4.4,1.6c-2,0-3.4-0.6-4.5-1.7S363,104.6,363,102.8z"/>
<path class="st0" d="M363,114.7c0-3.9,1.9-5.8,5.8-5.8c4.2,0,6.3,1.9,6.3,5.8c0,1.8-0.5,3.2-1.6,4.4c-1,1.1-2.5,1.7-4.3,1.7
	c-4.2,0-6.3-1.9-6.3-5.8L363,114.7L363,114.7z"/>
<path class="st0" d="M363,126.8c0-1.8,0.6-3.2,1.7-4.4s2.6-1.7,4.4-1.7c1.9,0,3.4,0.6,4.5,1.7s1.6,2.6,1.6,4.4
	c0,1.9-0.6,3.4-1.7,4.5s-2.6,1.6-4.4,1.6c-2,0-3.4-0.6-4.5-1.7S363,128.6,363,126.8L363,126.8z"/>
<path class="st0" d="M363,138.9c0-1.8,0.6-3.2,1.7-4.4s2.6-1.7,4.4-1.7c1.9,0,3.4,0.6,4.5,1.7s1.6,2.6,1.6,4.4
	c0,1.9-0.6,3.4-1.7,4.5s-2.6,1.6-4.4,1.6c-2,0-3.4-0.6-4.5-1.7S363,140.7,363,138.9L363,138.9z"/>
<path class="st0" d="M363,151c0-1.8,0.6-3.2,1.7-4.4c1.1-1.1,2.6-1.7,4.4-1.7c1.9,0,3.4,0.6,4.5,1.7s1.6,2.6,1.6,4.4
	c0,1.9-0.6,3.4-1.7,4.5s-2.6,1.6-4.4,1.6c-2,0-3.4-0.6-4.5-1.7S363,152.8,363,151L363,151z"/>
<path class="st0" d="M399.3,66.4c0,1.8-0.6,3.2-1.7,4.4s-2.6,1.7-4.4,1.7c-2,0-3.4-0.6-4.5-1.7s-1.6-2.6-1.6-4.4
	c0-1.9,0.6-3.4,1.7-4.5s2.6-1.6,4.4-1.6c1.9,0,3.4,0.6,4.5,1.7S399.3,64.6,399.3,66.4z"/>
<path class="st0" d="M399.3,78.6c0,1.8-0.6,3.2-1.7,4.4s-2.6,1.7-4.4,1.7c-2,0-3.4-0.6-4.5-1.7s-1.6-2.6-1.6-4.4
	c0-1.9,0.6-3.4,1.7-4.5c1.1-1,2.6-1.6,4.4-1.6c1.9,0,3.4,0.6,4.5,1.7S399.3,76.8,399.3,78.6z"/>
<path class="st0" d="M393.3,96.7c-2,0-3.4-0.6-4.5-1.7s-1.6-2.6-1.6-4.4c0-1.9,0.6-3.4,1.7-4.5c1.1-1,2.6-1.6,4.4-1.6
	c1.9,0,3.4,0.6,4.5,1.7s1.6,2.6,1.6,4.4s-0.6,3.2-1.7,4.4C396.5,96.2,395.1,96.7,393.3,96.7z"/>
<path class="st0" d="M393.3,108.9c-2,0-3.4-0.6-4.5-1.7s-1.6-2.6-1.6-4.4c0-1.9,0.6-3.4,1.7-4.5c1.1-1,2.6-1.6,4.4-1.6
	c1.9,0,3.4,0.6,4.5,1.7s1.6,2.6,1.6,4.4s-0.6,3.2-1.7,4.4C396.5,108.3,395.1,108.9,393.3,108.9z"/>
<path class="st0" d="M387.2,114.9c0-1.8,0.5-3.2,1.6-4.4c1-1.1,2.5-1.7,4.3-1.7c4.2,0,6.3,1.9,6.3,5.8v0.2c0,3.9-2,5.8-5.8,5.8
	C389.3,120.8,387.2,118.8,387.2,114.9L387.2,114.9z"/>
<path class="st0" d="M393.3,132.9c-2,0-3.4-0.6-4.5-1.7s-1.6-2.6-1.6-4.4c0-1.9,0.6-3.4,1.7-4.5c1.1-1,2.6-1.6,4.4-1.6
	c1.9,0,3.4,0.6,4.5,1.7s1.6,2.6,1.6,4.4s-0.6,3.2-1.7,4.4C396.5,132.3,395.1,132.9,393.3,132.9z"/>
<path class="st0" d="M411.4,54.3c0,1.8-0.6,3.2-1.7,4.4c-1.1,1.1-2.6,1.7-4.4,1.7c-2,0-3.4-0.6-4.5-1.7s-1.6-2.6-1.6-4.4
	c0-1.9,0.6-3.4,1.7-4.5s2.6-1.6,4.4-1.6c1.9,0,3.4,0.6,4.5,1.7C410.9,51.1,411.4,52.5,411.4,54.3z"/>
<path class="st0" d="M405.4,72.5c-2,0-3.4-0.6-4.5-1.7s-1.6-2.6-1.6-4.4c0-1.9,0.6-3.4,1.7-4.5s2.6-1.6,4.4-1.6
	c1.9,0,3.4,0.6,4.5,1.7c1,1.1,1.6,2.6,1.6,4.4s-0.6,3.2-1.7,4.4S407.2,72.5,405.4,72.5z"/>
<path class="st0" d="M411.4,78.6c0,1.8-0.6,3.2-1.7,4.4s-2.6,1.7-4.4,1.7c-2,0-3.4-0.6-4.5-1.7s-1.6-2.6-1.6-4.4
	c0-1.9,0.6-3.4,1.7-4.5c1.1-1,2.6-1.6,4.4-1.6c1.9,0,3.4,0.6,4.5,1.7C410.9,75.3,411.4,76.8,411.4,78.6z"/>
<path class="st0" d="M399.3,90.7c0-1.9,0.6-3.4,1.7-4.5c1.1-1,2.6-1.6,4.4-1.6c3.3,0,5.3,1.6,6.1,4.7c0.5-3.1,2.4-4.7,5.8-4.7
	c1.9,0,3.4,0.6,4.5,1.7s1.6,2.6,1.6,4.4s-0.6,3.2-1.7,4.4s-2.6,1.7-4.4,1.7c-3.3,0-5.3-1.6-6.1-4.7c-0.5,3.1-2.4,4.7-5.8,4.7
	c-2,0-3.4-0.6-4.5-1.7S399.3,92.5,399.3,90.7z"/>
<path class="st0" d="M399.3,102.8c0-1.8,0.5-3.2,1.6-4.4c1-1.1,2.5-1.7,4.5-1.7c3.3,0,5.3,1.6,6.1,4.7c0.5-3.1,2.4-4.7,5.8-4.7
	c1.9,0,3.4,0.6,4.5,1.7s1.6,2.6,1.6,4.4s-0.6,3.2-1.7,4.4s-2.6,1.7-4.4,1.7c-3.3,0-5.3-1.6-6.1-4.7c-0.3,1.5-1,2.7-2,3.5
	c-1,0.8-2.3,1.2-3.8,1.2c-0.1,0-0.4,0-0.7-0.1c-0.3-0.1-1.1-0.3-2.5-0.6C400.3,107.1,399.3,105.4,399.3,102.8L399.3,102.8z"/>
<path class="st0" d="M399.3,114.9c0-1.8,0.5-3.2,1.6-4.4c1-1.1,2.5-1.7,4.3-1.7c4.2,0,6.3,1.9,6.3,5.8v0.2c0,3.9-2,5.8-5.8,5.8
	C401.4,120.8,399.3,118.8,399.3,114.9z"/>
<path class="st0" d="M399.3,126.8c0-1.9,0.6-3.4,1.7-4.5c1.1-1,2.6-1.6,4.4-1.6c3.3,0,5.3,1.6,6.1,4.7c0.5-3.1,2.4-4.7,5.8-4.7
	c1.9,0,3.4,0.6,4.5,1.7s1.6,2.6,1.6,4.4s-0.6,3.2-1.7,4.4s-2.6,1.7-4.4,1.7c-3.3,0-5.3-1.6-6.1-4.7c-0.5,3.1-2.4,4.7-5.8,4.7
	c-2,0-3.4-0.6-4.5-1.7S399.3,128.6,399.3,126.8z"/>
<path class="st0" d="M411.2,139.2c0,3.9-2,5.8-5.8,5.8c-1.8,0-3.2-0.5-4.4-1.6c-1.1-1.1-1.7-2.5-1.7-4.3c0-4.2,1.9-6.3,5.8-6.3
	c1.8,0,3.2,0.5,4.4,1.6c1.1,1.1,1.7,2.5,1.7,4.3V139.2L411.2,139.2z"/>
<path class="st0" d="M423.3,42.4c0,3.9-2,5.8-5.8,5.8c-4.2,0-6.3-1.9-6.3-5.8c0-1.8,0.5-3.2,1.6-4.4c1-1.1,2.5-1.7,4.3-1.7
	c4.2,0,6.3,2,6.3,5.8L423.3,42.4L423.3,42.4z"/>
<path class="st0" d="M423.3,138.9c0,1.8-0.6,3.2-1.7,4.4s-2.6,1.7-4.4,1.7c-2,0-3.4-0.6-4.5-1.7s-1.6-2.6-1.6-4.4
	c0-1.9,0.6-3.4,1.7-4.5c1.1-1,2.6-1.6,4.4-1.6c1.9,0,3.4,0.6,4.5,1.7S423.3,137.1,423.3,138.9L423.3,138.9z"/>
<path class="st0" d="M411.2,151.1c0-1.8,0.6-3.2,1.7-4.4c1.1-1.1,2.6-1.7,4.4-1.7c1.9,0,3.4,0.6,4.5,1.7s1.6,2.6,1.6,4.4
	c0,1.9-0.6,3.4-1.7,4.5s-2.6,1.6-4.4,1.6c-2,0-3.4-0.6-4.5-1.7S411.2,152.9,411.2,151.1L411.2,151.1z"/>
<path class="st0" d="M411.4,66.4c0-3.4,1.6-5.5,4.7-6.3c-3.1-0.5-4.7-2.3-4.7-5.6c0-4.2,1.9-6.3,5.8-6.3c1.8,0,3.2,0.5,4.4,1.6
	c1.1,1,1.7,2.5,1.7,4.3v0.5c0,3.4-1.6,5.4-4.7,5.8c3.1,0.5,4.7,2.3,4.7,5.6v0.4c0,3.9-2,5.8-5.8,5.8c-1.8,0-3.2-0.5-4.4-1.6
	C412,69.7,411.4,68.2,411.4,66.4L411.4,66.4z"/>
<path class="st0" d="M435.5,42.4c0,3.9-2,5.8-5.8,5.8c-4.2,0-6.3-1.9-6.3-5.8c0-1.8,0.5-3.2,1.6-4.4c1-1.1,2.5-1.7,4.3-1.7
	c4.2,0,6.3,2,6.3,5.8L435.5,42.4L435.5,42.4z"/>
<path class="st0" d="M423.3,54.3c0-1.8,0.5-3.2,1.6-4.4c1-1.1,2.5-1.7,4.3-1.7c4.2,0,6.3,2,6.3,5.8v0.2c0,3.9-2,5.8-5.8,5.8
	C425.4,60.2,423.3,58.2,423.3,54.3L423.3,54.3z"/>
<path class="st0" d="M423.3,90.7c0-1.9,0.6-3.4,1.7-4.5c1.1-1,2.6-1.6,4.4-1.6c1.9,0,3.4,0.6,4.5,1.7s1.6,2.6,1.6,4.4
	s-0.6,3.2-1.7,4.4c-1.1,1.1-2.6,1.7-4.4,1.7c-2,0-3.4-0.6-4.5-1.7S423.3,92.5,423.3,90.7z"/>
<path class="st0" d="M423.3,102.8c0-1.9,0.6-3.4,1.7-4.5c1.1-1,2.6-1.6,4.4-1.6c1.9,0,3.4,0.6,4.5,1.7s1.6,2.6,1.6,4.4
	s-0.6,3.2-1.7,4.4c-1.1,1.1-2.6,1.7-4.4,1.7c-2,0-3.4-0.6-4.5-1.7S423.3,104.6,423.3,102.8z"/>
<path class="st0" d="M423.3,138.9c0-1.8,0.6-3.2,1.7-4.4s2.6-1.7,4.4-1.7c1.9,0,3.4,0.6,4.5,1.7s1.6,2.6,1.6,4.4
	c0,1.9-0.6,3.4-1.7,4.5s-2.6,1.6-4.4,1.6c-2,0-3.4-0.6-4.5-1.7S423.3,140.7,423.3,138.9L423.3,138.9z"/>
<path class="st0" d="M423.3,151.1c0-1.8,0.6-3.2,1.7-4.4c1.1-1.1,2.6-1.7,4.4-1.7c1.9,0,3.4,0.6,4.5,1.7s1.6,2.6,1.6,4.4
	c0,1.9-0.6,3.4-1.7,4.5s-2.6,1.6-4.4,1.6c-2,0-3.4-0.6-4.5-1.7S423.3,152.9,423.3,151.1L423.3,151.1z"/>
<path class="st0" d="M447.6,42.4c0,3.9-2,5.8-5.8,5.8c-4.2,0-6.3-1.9-6.3-5.8c0-1.8,0.5-3.2,1.6-4.4c1-1.1,2.5-1.7,4.3-1.7
	c4.2,0,6.3,2,6.3,5.8V42.4z"/>
<path class="st0" d="M435.5,54.3c0-1.8,0.5-3.2,1.6-4.4c1-1.1,2.5-1.7,4.3-1.7c4.2,0,6.3,2,6.3,5.8v0.2c0,3.9-2,5.8-5.8,5.8
	C437.6,60.2,435.5,58.2,435.5,54.3z"/>
<path class="st0" d="M435.5,90.7c0-1.9,0.6-3.4,1.7-4.5c1.1-1,2.6-1.6,4.4-1.6c1.9,0,3.4,0.6,4.5,1.7c1,1.1,1.6,2.6,1.6,4.4
	s-0.6,3.2-1.7,4.4c-1.1,1.1-2.6,1.7-4.4,1.7c-2,0-3.4-0.6-4.5-1.7S435.5,92.5,435.5,90.7z"/>
<path class="st0" d="M435.5,102.8c0-1.9,0.6-3.4,1.7-4.5c1.1-1,2.6-1.6,4.4-1.6c1.9,0,3.4,0.6,4.5,1.7c1,1.1,1.6,2.6,1.6,4.4
	s-0.6,3.2-1.7,4.4c-1.1,1.1-2.6,1.7-4.4,1.7c-2,0-3.4-0.6-4.5-1.7S435.5,104.6,435.5,102.8z"/>
<path class="st0" d="M435.5,138.9c0-1.8,0.6-3.2,1.7-4.4c1.1-1.1,2.6-1.7,4.4-1.7c1.9,0,3.4,0.6,4.5,1.7c1,1.1,1.6,2.6,1.6,4.4
	c0,1.9-0.6,3.4-1.7,4.5s-2.6,1.6-4.4,1.6c-2,0-3.4-0.6-4.5-1.7S435.5,140.7,435.5,138.9L435.5,138.9z"/>
<path class="st0" d="M435.5,151.1c0-1.8,0.6-3.2,1.7-4.4s2.6-1.7,4.4-1.7c1.9,0,3.4,0.6,4.5,1.7c1,1.1,1.6,2.6,1.6,4.4
	c0,1.9-0.6,3.4-1.7,4.5s-2.6,1.6-4.4,1.6c-2,0-3.4-0.6-4.5-1.7S435.5,152.9,435.5,151.1L435.5,151.1z"/>
<path class="st0" d="M459.7,42.4c0,3.9-2,5.8-5.8,5.8c-4.2,0-6.3-1.9-6.3-5.8c0-1.8,0.5-3.2,1.6-4.4c1-1.1,2.5-1.7,4.3-1.7
	c4.2,0,6.3,2,6.3,5.8L459.7,42.4L459.7,42.4z"/>
<path class="st0" d="M459.7,54.3c0,3.4-1.6,5.4-4.7,5.8c3.1,0.8,4.7,2.8,4.7,6.1c0,1.8-0.6,3.2-1.7,4.4c-1.1,1.1-2.6,1.7-4.4,1.7
	c-2,0-3.4-0.6-4.5-1.7s-1.6-2.6-1.6-4.4c0-3.3,1.6-5.3,4.7-6.1c-3.1-0.5-4.7-2.4-4.7-5.8c0-1.9,0.6-3.4,1.7-4.5s2.6-1.6,4.4-1.6
	c1.9,0,3.4,0.6,4.5,1.7C459.2,51.1,459.7,52.5,459.7,54.3z"/>
<path class="st0" d="M459.7,90.7c0,1.8-0.6,3.2-1.7,4.4c-1.1,1.1-2.6,1.7-4.4,1.7c-2,0-3.4-0.6-4.5-1.7s-1.6-2.6-1.6-4.4
	c0-1.9,0.6-3.4,1.7-4.5c1.1-1,2.6-1.6,4.4-1.6c1.9,0,3.4,0.6,4.5,1.7C459.2,87.4,459.7,88.9,459.7,90.7z"/>
<path class="st0" d="M447.6,102.8c0-1.9,0.6-3.4,1.7-4.5c1.1-1,2.6-1.6,4.4-1.6c1.9,0,3.4,0.6,4.5,1.7c1,1.1,1.6,2.6,1.6,4.4
	s-0.6,3.2-1.7,4.4c-1.1,1.1-2.6,1.7-4.4,1.7c-2,0-3.4-0.6-4.5-1.7S447.6,104.6,447.6,102.8z"/>
<path class="st0" d="M459.7,126.8c0,1.8-0.6,3.2-1.7,4.4c-1.1,1.1-2.6,1.7-4.4,1.7c-2,0-3.4-0.6-4.5-1.7s-1.6-2.6-1.6-4.4
	c0-1.9,0.6-3.4,1.7-4.5c1.1-1,2.6-1.6,4.4-1.6c1.9,0,3.4,0.6,4.5,1.7C459.2,123.6,459.7,125,459.7,126.8z"/>
<path class="st0" d="M459.7,138.9c0,1.8-0.6,3.2-1.7,4.4c-1.1,1.1-2.6,1.7-4.4,1.7c-2,0-3.4-0.6-4.5-1.7s-1.6-2.6-1.6-4.4
	c0-1.9,0.6-3.4,1.7-4.5c1.1-1,2.6-1.6,4.4-1.6c1.9,0,3.4,0.6,4.5,1.7C459.2,135.7,459.7,137.1,459.7,138.9L459.7,138.9z"/>
<path class="st0" d="M447.6,151.1c0-1.8,0.6-3.2,1.7-4.4s2.6-1.7,4.4-1.7c1.9,0,3.4,0.6,4.5,1.7c1,1.1,1.6,2.6,1.6,4.4
	c0,1.9-0.6,3.4-1.7,4.5s-2.6,1.6-4.4,1.6c-2,0-3.4-0.6-4.5-1.7S447.6,152.9,447.6,151.1L447.6,151.1z"/>
<path class="st0" d="M471.8,54.3c0,1.8-0.6,3.2-1.7,4.4c-1.1,1.1-2.6,1.7-4.4,1.7c-2,0-3.4-0.6-4.5-1.7s-1.6-2.6-1.6-4.4
	c0-1.9,0.6-3.4,1.7-4.5s2.6-1.6,4.4-1.6c1.9,0,3.4,0.6,4.5,1.7S471.8,52.5,471.8,54.3z"/>
<path class="st0" d="M471.8,66.4c0,1.9-0.6,3.4-1.7,4.5c-1.1,1.1-2.6,1.6-4.4,1.6c-2,0-3.4-0.6-4.5-1.7s-1.6-2.6-1.6-4.4
	s0.6-3.2,1.7-4.4c1.1-1.1,2.6-1.7,4.4-1.7c1.9,0,3.4,0.6,4.5,1.7S471.8,64.6,471.8,66.4z"/>
<path class="st0" d="M471.8,78.6c0,1.9-0.6,3.4-1.7,4.5c-1.1,1.1-2.6,1.6-4.4,1.6c-2,0-3.4-0.6-4.5-1.7s-1.6-2.6-1.6-4.4
	s0.6-3.2,1.7-4.4c1.1-1.1,2.6-1.7,4.4-1.7c1.9,0,3.4,0.6,4.5,1.7S471.8,76.8,471.8,78.6z"/>
<path class="st0" d="M459.7,90.7c0-1.8,0.6-3.2,1.7-4.4s2.6-1.7,4.4-1.7c1.9,0,3.4,0.6,4.5,1.7s1.6,2.6,1.6,4.4
	c0,1.9-0.6,3.4-1.7,4.5c-1.1,1.1-2.6,1.6-4.4,1.6c-2,0-3.4-0.6-4.5-1.7S459.7,92.5,459.7,90.7z"/>
<path class="st0" d="M459.7,102.8c0-1.9,0.6-3.4,1.7-4.5c1.1-1,2.6-1.6,4.4-1.6c1.9,0,3.4,0.6,4.5,1.7s1.6,2.6,1.6,4.4
	s-0.6,3.2-1.7,4.4s-2.6,1.7-4.4,1.7c-2,0-3.4-0.6-4.5-1.7S459.7,104.6,459.7,102.8z"/>
<path class="st0" d="M471.8,126.8c0,1.9-0.6,3.4-1.7,4.5s-2.6,1.6-4.4,1.6c-2,0-3.4-0.6-4.5-1.7s-1.6-2.6-1.6-4.4s0.6-3.2,1.7-4.4
	s2.6-1.7,4.4-1.7c1.9,0,3.4,0.6,4.5,1.7S471.8,125,471.8,126.8L471.8,126.8z"/>
<path class="st0" d="M471.8,138.9c0,1.8-0.6,3.2-1.7,4.4s-2.6,1.7-4.4,1.7c-2,0-3.4-0.6-4.5-1.7s-1.6-2.6-1.6-4.4
	c0-1.9,0.6-3.4,1.7-4.5c1.1-1,2.6-1.6,4.4-1.6c1.9,0,3.4,0.6,4.5,1.7S471.8,137.1,471.8,138.9L471.8,138.9z"/>
<path class="st0" d="M477.9,72.5c-2,0-3.4-0.6-4.5-1.7s-1.6-2.6-1.6-4.4s0.6-3.2,1.7-4.4c1.1-1.1,2.6-1.7,4.4-1.7
	c1.9,0,3.4,0.6,4.5,1.7s1.6,2.6,1.6,4.4c0,1.9-0.6,3.4-1.7,4.5C481.1,72,479.7,72.5,477.9,72.5z"/>
<path class="st0" d="M477.9,84.6c-2,0-3.4-0.6-4.5-1.7s-1.6-2.6-1.6-4.4s0.6-3.2,1.7-4.4c1.1-1.1,2.6-1.7,4.4-1.7
	c1.9,0,3.4,0.6,4.5,1.7s1.6,2.6,1.6,4.4c0,1.9-0.6,3.4-1.7,4.5C481.1,84.1,479.7,84.6,477.9,84.6z"/>
<path class="st0" d="M471.8,90.7c0-1.8,0.6-3.2,1.7-4.4s2.6-1.7,4.4-1.7c1.9,0,3.4,0.6,4.5,1.7s1.6,2.6,1.6,4.4
	c0,1.9-0.6,3.4-1.7,4.5c-1.1,1.1-2.6,1.6-4.4,1.6c-2,0-3.4-0.6-4.5-1.7S471.8,92.5,471.8,90.7z"/>
<path class="st0" d="M471.8,102.8c0-1.8,0.6-3.2,1.7-4.4s2.6-1.7,4.4-1.7c1.9,0,3.4,0.6,4.5,1.7s1.6,2.6,1.6,4.4
	c0,1.9-0.6,3.4-1.7,4.5c-1.1,1.1-2.6,1.6-4.4,1.6c-2,0-3.4-0.6-4.5-1.7S471.8,104.6,471.8,102.8z"/>
<path class="st0" d="M477.9,132.9c-2,0-3.4-0.6-4.5-1.7s-1.6-2.6-1.6-4.4s0.6-3.2,1.7-4.4s2.6-1.7,4.4-1.7c1.9,0,3.4,0.6,4.5,1.7
	s1.6,2.6,1.6,4.4c0,2-0.6,3.4-1.7,4.5S479.7,132.9,477.9,132.9L477.9,132.9z"/>
</svg>
