<?xml version="1.0" encoding="utf-8"?>
<!-- Generator: Adobe Illustrator 28.0.0, SVG Export Plug-In . SVG Version: 6.00 Build 0)  -->
<svg version="1.1" id="Calque_1" xmlns="http://www.w3.org/2000/svg" xmlns:xlink="http://www.w3.org/1999/xlink" x="0px" y="0px"
	 viewBox="0 0 471.4 157.1" style="enable-background:new 0 0 471.4 157.1;" xml:space="preserve">
<style type="text/css">
	.st0{fill:#DBFAFF;}
</style>
<path class="st0" d="M0,6.1c0-1.8,0.5-3.2,1.6-4.4C2.6,0.6,4.1,0,6.1,0c1.8,0,3.2,0.5,4.4,1.6c1.1,1,1.7,2.5,1.7,4.5
	c0,1.8-0.5,3.2-1.6,4.4c-1.1,1.1-2.6,1.7-4.5,1.7c-1.8,0-3.2-0.6-4.4-1.7S0,7.9,0,6.1z"/>
<path class="st0" d="M0,18.2c0-1.8,0.5-3.2,1.6-4.4c1-1.1,2.5-1.7,4.5-1.7c1.8,0,3.2,0.5,4.4,1.6c1.1,1.1,1.7,2.6,1.7,4.5
	c0,1.8-0.5,3.2-1.6,4.4c-1.1,1.1-2.6,1.7-4.5,1.7c-1.8,0-3.2-0.6-4.4-1.7C0.6,21.4,0,20,0,18.2z"/>
<path class="st0" d="M0,30.3c0-1.8,0.5-3.2,1.6-4.4c1-1.1,2.5-1.7,4.5-1.7c1.8,0,3.2,0.5,4.4,1.6c1.1,1,1.7,2.5,1.7,4.5
	c0,1.8-0.5,3.2-1.6,4.4c-1.1,1.1-2.6,1.7-4.5,1.7c-1.8,0-3.2-0.6-4.4-1.7C0.6,33.6,0,32.1,0,30.3z"/>
<path class="st0" d="M0,42.2c0-3.9,2.1-5.8,6.3-5.8c1.8,0,3.2,0.6,4.3,1.7c1.1,1.1,1.6,2.6,1.6,4.4c0,3.9-2.1,5.8-6.3,5.8
	c-3.9,0-5.8-1.9-5.8-5.8C0,42.4,0,42.2,0,42.2z"/>
<path class="st0" d="M0,54.3c0-1.8,0.5-3.2,1.6-4.4c1-1.1,2.5-1.7,4.5-1.7c1.8,0,3.2,0.5,4.4,1.6c1.1,1,1.7,2.5,1.7,4.5
	c0,1.8-0.5,3.2-1.6,4.4c-1.1,1.1-2.6,1.7-4.5,1.7c-1.8,0-3.2-0.6-4.4-1.7C0.6,57.6,0,56.1,0,54.3z"/>
<path class="st0" d="M0,66.4c0-1.8,0.5-3.2,1.6-4.4c1-1.1,2.5-1.7,4.5-1.7c1.8,0,3.2,0.5,4.4,1.6c1.1,1,1.7,2.5,1.7,4.5
	c0,1.8-0.5,3.2-1.6,4.4c-1.1,1.1-2.6,1.7-4.5,1.7c-1.8,0-3.2-0.6-4.4-1.7C0.6,69.7,0,68.2,0,66.4z"/>
<path class="st0" d="M0,78.6c0-1.8,0.5-3.2,1.6-4.4c1-1.1,2.5-1.7,4.5-1.7c1.8,0,3.2,0.5,4.4,1.6c1.1,1.1,1.7,2.6,1.7,4.5
	c0,1.8-0.5,3.2-1.6,4.4c-1.1,1.1-2.6,1.7-4.5,1.7c-1.8,0-3.2-0.6-4.4-1.7C0.6,81.8,0,80.4,0,78.6z"/>
<path class="st0" d="M0,90.7c0-1.8,0.5-3.2,1.6-4.4c1-1.1,2.5-1.7,4.5-1.7c1.8,0,3.2,0.5,4.4,1.6c1.1,1.1,1.7,2.6,1.7,4.5
	c0,1.8-0.5,3.2-1.6,4.4c-1.1,1.1-2.6,1.7-4.5,1.7c-1.8,0-3.2-0.6-4.4-1.7S0,92.5,0,90.7z"/>
<path class="st0" d="M0,102.8c0-1.8,0.5-3.2,1.6-4.4c1-1.1,2.5-1.7,4.5-1.7c1.8,0,3.2,0.5,4.4,1.6c1.1,1.1,1.7,2.6,1.7,4.5
	c0,1.8-0.5,3.2-1.6,4.4c-1.1,1.1-2.6,1.7-4.5,1.7c-1.8,0-3.2-0.6-4.4-1.7S0,104.6,0,102.8z"/>
<path class="st0" d="M0,114.7c0-3.9,2.1-5.8,6.3-5.8c1.8,0,3.2,0.6,4.3,1.7c1.1,1.1,1.6,2.6,1.6,4.4c0,3.9-2.1,5.8-6.3,5.8
	c-3.9,0-5.8-1.9-5.8-5.8C0,114.9,0,114.7,0,114.7z"/>
<path class="st0" d="M0,126.8c0-1.8,0.5-3.2,1.6-4.4c1-1.1,2.5-1.7,4.5-1.7c1.8,0,3.2,0.5,4.4,1.6c1.1,1.1,1.7,2.6,1.7,4.5
	c0,1.8-0.5,3.2-1.6,4.4c-1.1,1.1-2.6,1.7-4.5,1.7c-1.8,0-3.2-0.6-4.4-1.7S0,128.6,0,126.8z"/>
<path class="st0" d="M0,138.9c0-1.8,0.5-3.2,1.6-4.4c1-1.1,2.5-1.7,4.5-1.7c1.8,0,3.2,0.5,4.4,1.6c1.1,1.1,1.7,2.6,1.7,4.5
	c0,1.8-0.5,3.2-1.6,4.4C9.5,144.4,8,145,6.1,145c-1.8,0-3.2-0.6-4.4-1.7S0,140.7,0,138.9L0,138.9z"/>
<path class="st0" d="M0,151.1c0-1.8,0.5-3.2,1.6-4.4c1-1.1,2.5-1.7,4.5-1.7c1.8,0,3.2,0.5,4.4,1.6c1.1,1.1,1.7,2.6,1.7,4.5
	c0,1.8-0.5,3.2-1.6,4.4c-1.1,1.1-2.6,1.7-4.5,1.7c-1.8,0-3.2-0.6-4.4-1.7C0.6,154.3,0,152.9,0,151.1L0,151.1z"/>
<path class="st0" d="M12.1,6.1c0-1.8,0.5-3.2,1.6-4.4C14.7,0.6,16.2,0,18.2,0c1.8,0,3.2,0.5,4.4,1.6c1.1,1,1.7,2.5,1.7,4.5
	c0,1.8-0.5,3.2-1.6,4.4c-1,1.1-2.5,1.7-4.5,1.7c-1.8,0-3.2-0.6-4.4-1.7C12.7,9.3,12.1,7.9,12.1,6.1z"/>
<path class="st0" d="M12.1,18.2c0-1.8,0.5-3.2,1.6-4.4c1.1-1.1,2.5-1.7,4.5-1.7c1.8,0,3.2,0.5,4.4,1.6c1.1,1.1,1.7,2.6,1.7,4.5
	c0,1.8-0.5,3.2-1.6,4.4c-1,1.1-2.5,1.7-4.5,1.7c-1.8,0-3.2-0.6-4.4-1.7C12.7,21.4,12.1,20,12.1,18.2z"/>
<path class="st0" d="M12.1,30.3c0-1.8,0.5-3.2,1.6-4.4c1.1-1.1,2.5-1.7,4.5-1.7c1.8,0,3.2,0.5,4.4,1.6c1.1,1,1.7,2.5,1.7,4.5
	c0,1.8-0.5,3.2-1.6,4.4c-1,1.1-2.5,1.7-4.5,1.7c-1.8,0-3.2-0.6-4.4-1.7S12.1,32.1,12.1,30.3z"/>
<path class="st0" d="M12.1,42.2c0-3.9,2.1-5.8,6.3-5.8c1.8,0,3.2,0.6,4.3,1.7c1,1.1,1.6,2.6,1.6,4.4c0,3.9-2.1,5.8-6.3,5.8
	c-3.9,0-5.8-1.9-5.8-5.8C12.1,42.4,12.1,42.2,12.1,42.2z"/>
<path class="st0" d="M12.1,54.3c0-1.8,0.5-3.2,1.6-4.4c1.1-1.1,2.5-1.7,4.5-1.7c1.8,0,3.2,0.5,4.4,1.6c1.1,1,1.7,2.5,1.7,4.5
	c0,1.8-0.5,3.2-1.6,4.4c-1,1.1-2.5,1.7-4.5,1.7c-1.8,0-3.2-0.6-4.4-1.7C12.7,57.6,12.1,56.1,12.1,54.3z"/>
<path class="st0" d="M12.1,66.4c0-1.8,0.5-3.2,1.6-4.4c1.1-1.1,2.5-1.7,4.5-1.7c1.8,0,3.2,0.5,4.4,1.6c1.1,1,1.7,2.5,1.7,4.5
	c0,1.8-0.5,3.2-1.6,4.4c-1,1.1-2.5,1.7-4.5,1.7c-1.8,0-3.2-0.6-4.4-1.7S12.1,68.2,12.1,66.4z"/>
<path class="st0" d="M12.1,78.6c0-1.8,0.5-3.2,1.6-4.4c1.1-1.1,2.5-1.7,4.5-1.7c1.8,0,3.2,0.5,4.4,1.6c1.1,1.1,1.7,2.6,1.7,4.5
	c0,1.8-0.5,3.2-1.6,4.4c-1,1.1-2.5,1.7-4.5,1.7c-1.8,0-3.2-0.6-4.4-1.7S12.1,80.4,12.1,78.6z"/>
<path class="st0" d="M12.1,90.7c0-1.8,0.5-3.2,1.6-4.4c1.1-1.1,2.5-1.7,4.5-1.7c1.8,0,3.2,0.5,4.4,1.6c1.1,1.1,1.7,2.6,1.7,4.5
	c0,1.8-0.5,3.2-1.6,4.4c-1,1.1-2.5,1.7-4.5,1.7c-1.8,0-3.2-0.6-4.4-1.7C12.7,93.9,12.1,92.5,12.1,90.7z"/>
<path class="st0" d="M12.1,102.8c0-1.8,0.5-3.2,1.6-4.4c1.1-1.1,2.5-1.7,4.5-1.7c1.8,0,3.2,0.5,4.4,1.6c1.1,1.1,1.7,2.6,1.7,4.5
	c0,1.8-0.5,3.2-1.6,4.4c-1,1.1-2.5,1.7-4.5,1.7c-1.8,0-3.2-0.6-4.4-1.7C12.7,106.1,12.1,104.6,12.1,102.8z"/>
<path class="st0" d="M12.1,114.7c0-3.9,2.1-5.8,6.3-5.8c1.8,0,3.2,0.6,4.3,1.7c1,1.1,1.6,2.6,1.6,4.4c0,3.9-2.1,5.8-6.3,5.8
	c-3.9,0-5.8-1.9-5.8-5.8C12.1,114.9,12.1,114.7,12.1,114.7z"/>
<path class="st0" d="M12.1,126.8c0-1.8,0.5-3.2,1.6-4.4c1.1-1.1,2.5-1.7,4.5-1.7c1.8,0,3.2,0.5,4.4,1.6c1.1,1.1,1.7,2.6,1.7,4.5
	c0,1.8-0.5,3.2-1.6,4.4c-1,1.1-2.5,1.7-4.5,1.7c-1.8,0-3.2-0.6-4.4-1.7C12.7,130.1,12.1,128.6,12.1,126.8z"/>
<path class="st0" d="M12.1,138.9c0-1.8,0.5-3.2,1.6-4.4c1.1-1.1,2.5-1.7,4.5-1.7c1.8,0,3.2,0.5,4.4,1.6c1.1,1.1,1.7,2.6,1.7,4.5
	c0,1.8-0.5,3.2-1.6,4.4c-1,1.1-2.5,1.7-4.5,1.7c-1.8,0-3.2-0.6-4.4-1.7C12.7,142.2,12.1,140.7,12.1,138.9L12.1,138.9z"/>
<path class="st0" d="M12.1,151.1c0-1.8,0.5-3.2,1.6-4.4c1.1-1.1,2.5-1.7,4.5-1.7c1.8,0,3.2,0.5,4.4,1.6c1.1,1.1,1.7,2.6,1.7,4.5
	c0,1.8-0.5,3.2-1.6,4.4c-1,1.1-2.5,1.7-4.5,1.7c-1.8,0-3.2-0.6-4.4-1.7S12.1,152.9,12.1,151.1L12.1,151.1z"/>
<path class="st0" d="M48.5,42.4c0,3.9-2,5.8-5.8,5.8c-4.2,0-6.3-1.9-6.3-5.8c0-1.8,0.5-3.2,1.6-4.4c1-1.1,2.5-1.7,4.3-1.7
	c4.2,0,6.3,2,6.3,5.8L48.5,42.4L48.5,42.4z"/>
<path class="st0" d="M48.5,54.3c0,1.8-0.6,3.2-1.7,4.4c-1.1,1.1-2.6,1.7-4.4,1.7c-2,0-3.4-0.6-4.5-1.7s-1.6-2.6-1.6-4.4
	c0-1.9,0.6-3.4,1.7-4.5s2.6-1.6,4.4-1.6c1.9,0,3.4,0.6,4.5,1.7C48,51.1,48.5,52.5,48.5,54.3z"/>
<path class="st0" d="M42.4,72.5c-2,0-3.4-0.6-4.5-1.7s-1.6-2.6-1.6-4.4c0-1.9,0.6-3.4,1.7-4.5s2.6-1.6,4.4-1.6
	c1.9,0,3.4,0.6,4.5,1.7c1,1.1,1.6,2.6,1.6,4.4s-0.6,3.2-1.7,4.4S44.2,72.5,42.4,72.5z"/>
<path class="st0" d="M42.4,84.6c-2,0-3.4-0.6-4.5-1.7s-1.6-2.6-1.6-4.4c0-1.9,0.6-3.4,1.7-4.5c1.1-1,2.6-1.6,4.4-1.6
	c1.9,0,3.4,0.6,4.5,1.7c1,1.1,1.6,2.6,1.6,4.4s-0.6,3.2-1.7,4.4S44.2,84.6,42.4,84.6z"/>
<path class="st0" d="M42.4,96.7c-2,0-3.4-0.6-4.5-1.7s-1.6-2.6-1.6-4.4c0-1.9,0.6-3.4,1.7-4.5c1.1-1,2.6-1.6,4.4-1.6
	c1.9,0,3.4,0.6,4.5,1.7c1,1.1,1.6,2.6,1.6,4.4s-0.6,3.2-1.7,4.4C45.7,96.2,44.2,96.7,42.4,96.7z"/>
<path class="st0" d="M48.5,102.8c0,1.8-0.6,3.2-1.7,4.4c-1.1,1.1-2.6,1.7-4.4,1.7c-2,0-3.4-0.6-4.5-1.7s-1.6-2.6-1.6-4.4
	c0-1.9,0.6-3.4,1.7-4.5c1.1-1,2.6-1.6,4.4-1.6c1.9,0,3.4,0.6,4.5,1.7C48,99.5,48.5,101,48.5,102.8z"/>
<path class="st0" d="M36.4,114.9c0-1.8,0.5-3.2,1.6-4.4c1-1.1,2.5-1.7,4.3-1.7c4.2,0,6.3,1.9,6.3,5.8v0.2c0,3.9-2,5.8-5.8,5.8
	C38.5,120.8,36.3,118.8,36.4,114.9L36.4,114.9z"/>
<path class="st0" d="M48.5,126.8c0,1.8-0.6,3.2-1.7,4.4c-1.1,1.1-2.6,1.7-4.4,1.7c-2,0-3.4-0.6-4.5-1.7s-1.6-2.6-1.6-4.4
	c0-1.9,0.6-3.4,1.7-4.5c1.1-1,2.6-1.6,4.4-1.6c1.9,0,3.4,0.6,4.5,1.7C48,123.6,48.5,125,48.5,126.8z"/>
<path class="st0" d="M48.5,138.9c0,1.8-0.6,3.2-1.7,4.4c-1.1,1.1-2.6,1.7-4.4,1.7c-2,0-3.4-0.6-4.5-1.7s-1.6-2.6-1.6-4.4
	c0-1.9,0.6-3.4,1.7-4.5c1.1-1,2.6-1.6,4.4-1.6c1.9,0,3.4,0.6,4.5,1.7C48,135.7,48.5,137.1,48.5,138.9L48.5,138.9z"/>
<path class="st0" d="M36.4,151.1c0-1.8,0.6-3.2,1.7-4.4c1.1-1.1,2.6-1.7,4.4-1.7c1.9,0,3.4,0.6,4.5,1.7c1,1.1,1.6,2.6,1.6,4.4
	c0,1.9-0.6,3.4-1.7,4.5s-2.6,1.6-4.4,1.6c-2,0-3.4-0.6-4.5-1.7C36.9,154.3,36.4,152.9,36.4,151.1L36.4,151.1z"/>
<path class="st0" d="M60.6,42.4c0,3.9-2,5.8-5.8,5.8c-4.2,0-6.3-1.9-6.3-5.8c0-1.8,0.5-3.2,1.6-4.4c1-1.1,2.5-1.7,4.3-1.7
	c4.2,0,6.3,2,6.3,5.8V42.4z"/>
<path class="st0" d="M60.6,54.3c0,1.8-0.6,3.2-1.7,4.4c-1.1,1.1-2.6,1.7-4.4,1.7c-2,0-3.4-0.6-4.5-1.7c-1-1.1-1.6-2.6-1.6-4.4
	c0-1.9,0.6-3.4,1.7-4.5s2.6-1.6,4.4-1.6c1.9,0,3.4,0.6,4.5,1.7C60.1,51.1,60.6,52.5,60.6,54.3z"/>
<path class="st0" d="M48.5,66.4c0-1.9,0.6-3.4,1.7-4.5s2.6-1.6,4.4-1.6c1.9,0,3.4,0.6,4.5,1.7c1,1.1,1.6,2.6,1.6,4.4
	s-0.6,3.2-1.7,4.4s-2.6,1.7-4.4,1.7c-2,0-3.4-0.6-4.5-1.7C49,69.7,48.5,68.2,48.5,66.4z"/>
<path class="st0" d="M48.5,78.6c0-1.9,0.6-3.4,1.7-4.5c1.1-1,2.6-1.6,4.4-1.6c1.9,0,3.4,0.6,4.5,1.7c1,1.1,1.6,2.6,1.6,4.4
	s-0.6,3.2-1.7,4.4s-2.6,1.7-4.4,1.7c-2,0-3.4-0.6-4.5-1.7C49,81.8,48.5,80.4,48.5,78.6z"/>
<path class="st0" d="M48.5,90.7c0-1.9,0.6-3.4,1.7-4.5c1.1-1,2.6-1.6,4.4-1.6c1.9,0,3.4,0.6,4.5,1.7c1,1.1,1.6,2.6,1.6,4.4
	s-0.6,3.2-1.7,4.4c-1.1,1.1-2.6,1.7-4.4,1.7c-2,0-3.4-0.6-4.5-1.7C49,93.9,48.5,92.5,48.5,90.7z"/>
<path class="st0" d="M60.6,102.8c0,1.8-0.6,3.2-1.7,4.4c-1.1,1.1-2.6,1.7-4.4,1.7c-2,0-3.4-0.6-4.5-1.7c-1-1.1-1.6-2.6-1.6-4.4
	c0-1.9,0.6-3.4,1.7-4.5c1.1-1,2.6-1.6,4.4-1.6c1.9,0,3.4,0.6,4.5,1.7C60.1,99.5,60.6,101,60.6,102.8z"/>
<path class="st0" d="M48.5,114.9c0-1.8,0.5-3.2,1.6-4.4c1-1.1,2.5-1.7,4.3-1.7c4.2,0,6.3,1.9,6.3,5.8v0.2c0,3.9-2,5.8-5.8,5.8
	C50.6,120.8,48.5,118.8,48.5,114.9z"/>
<path class="st0" d="M60.6,126.8c0,1.8-0.6,3.2-1.7,4.4c-1.1,1.1-2.6,1.7-4.4,1.7c-2,0-3.4-0.6-4.5-1.7c-1-1.1-1.6-2.6-1.6-4.4
	c0-1.9,0.6-3.4,1.7-4.5c1.1-1,2.6-1.6,4.4-1.6c1.9,0,3.4,0.6,4.5,1.7C60.1,123.6,60.6,125,60.6,126.8z"/>
<path class="st0" d="M60.6,138.9c0,1.8-0.6,3.2-1.7,4.4c-1.1,1.1-2.6,1.7-4.4,1.7c-2,0-3.4-0.6-4.5-1.7c-1-1.1-1.6-2.6-1.6-4.4
	c0-1.9,0.6-3.4,1.7-4.5c1.1-1,2.6-1.6,4.4-1.6c1.9,0,3.4,0.6,4.5,1.7C60.1,135.7,60.6,137.1,60.6,138.9L60.6,138.9z"/>
<path class="st0" d="M48.5,151.1c0-1.8,0.6-3.2,1.7-4.4s2.6-1.7,4.4-1.7c1.9,0,3.4,0.6,4.5,1.7c1,1.1,1.6,2.6,1.6,4.4
	c0,1.9-0.6,3.4-1.7,4.5s-2.6,1.6-4.4,1.6c-2,0-3.4-0.6-4.5-1.7C49,154.3,48.5,152.9,48.5,151.1L48.5,151.1z"/>
<path class="st0" d="M66.7,60.4c-1.9,0-3.4-0.6-4.5-1.7s-1.6-2.6-1.6-4.4c0-1.9,0.6-3.4,1.7-4.5c1.1-1,2.6-1.6,4.4-1.6
	c1.9,0,3.4,0.6,4.5,1.7c1,1.1,1.6,2.6,1.6,4.4s-0.6,3.2-1.7,4.4S68.5,60.4,66.7,60.4z"/>
<path class="st0" d="M60.6,66.4c0-1.9,0.6-3.4,1.7-4.5s2.6-1.6,4.4-1.6c1.9,0,3.4,0.6,4.5,1.7c1,1.1,1.6,2.6,1.6,4.4
	s-0.6,3.2-1.7,4.4c-1.1,1.1-2.6,1.7-4.4,1.7c-1.9,0-3.4-0.6-4.5-1.7S60.6,68.2,60.6,66.4z"/>
<path class="st0" d="M72.7,42.4c0-1.8,0.5-3.2,1.6-4.4c1-1.1,2.5-1.7,4.3-1.7c4.2,0,6.3,2,6.3,5.8v0.2c0,3.9-1.9,5.8-5.8,5.8
	C74.8,48.3,72.7,46.3,72.7,42.4L72.7,42.4z"/>
<path class="st0" d="M72.7,54.3c0-1.9,0.6-3.4,1.7-4.5s2.6-1.6,4.4-1.6c1.9,0,3.4,0.6,4.5,1.7c1.1,1.1,1.6,2.6,1.6,4.4
	s-0.6,3.2-1.7,4.4c-1.1,1.1-2.6,1.7-4.4,1.7c-1.9,0-3.4-0.6-4.5-1.7C73.2,57.6,72.7,56.1,72.7,54.3z"/>
<path class="st0" d="M84.8,42.4c0-1.8,0.5-3.2,1.6-4.4c1.1-1.1,2.5-1.7,4.3-1.7s3.2,0.5,4.4,1.6c1.1,1,1.7,2.5,1.7,4.3v0.2
	c0,3.9-1.9,5.8-5.8,5.8S84.8,46.3,84.8,42.4L84.8,42.4z"/>
<path class="st0" d="M96.7,54.5c0,3.9-1.9,5.8-5.8,5.8c-1.8,0-3.2-0.5-4.4-1.6c-1.1-1-1.7-2.5-1.7-4.3c0-4.2,1.9-6.3,5.8-6.3
	c1.8,0,3.2,0.5,4.4,1.6c1.1,1,1.7,2.5,1.7,4.3V54.5z"/>
<path class="st0" d="M96.7,42.4c0-1.8,0.5-3.2,1.6-4.4c1-1.1,2.5-1.7,4.3-1.7c4.2,0,6.3,2,6.3,5.8v0.2c0,3.9-1.9,5.8-5.8,5.8
	C98.8,48.3,96.7,46.3,96.7,42.4z"/>
<path class="st0" d="M108.9,54.3c0,1.8-0.6,3.2-1.7,4.4s-2.6,1.7-4.4,1.7c-1.9,0-3.4-0.6-4.5-1.7c-1.1-1.1-1.6-2.6-1.6-4.4
	c0-1.9,0.6-3.4,1.7-4.5s2.6-1.6,4.4-1.6c1.9,0,3.4,0.6,4.5,1.7C108.3,51.1,108.9,52.5,108.9,54.3z"/>
<path class="st0" d="M108.9,66.4c0,1.9-0.6,3.4-1.7,4.5c-1.1,1.1-2.6,1.6-4.4,1.6c-1.9,0-3.4-0.6-4.5-1.7c-1.1-1.1-1.6-2.6-1.6-4.4
	s0.6-3.2,1.7-4.4s2.6-1.7,4.4-1.7c1.9,0,3.4,0.6,4.5,1.7C108.3,63.2,108.9,64.6,108.9,66.4z"/>
<path class="st0" d="M121,54.3c0,1.8-0.6,3.2-1.7,4.4c-1.1,1.1-2.6,1.7-4.4,1.7c-1.9,0-3.4-0.6-4.5-1.7c-1.1-1.1-1.6-2.6-1.6-4.4
	c0-1.9,0.6-3.4,1.7-4.5c1.1-1,2.6-1.6,4.4-1.6c1.9,0,3.4,0.6,4.5,1.7C120.5,51.1,121,52.5,121,54.3z"/>
<path class="st0" d="M114.9,72.5c-1.9,0-3.4-0.6-4.5-1.7c-1.1-1.1-1.6-2.6-1.6-4.4s0.6-3.2,1.7-4.4c1.1-1.1,2.6-1.7,4.4-1.7
	c1.9,0,3.4,0.6,4.5,1.7c1.1,1.1,1.6,2.6,1.6,4.4c0,1.9-0.6,3.4-1.7,4.5C118.2,72,116.7,72.5,114.9,72.5z"/>
<path class="st0" d="M108.9,78.6c0-1.8,0.6-3.2,1.7-4.4c1.1-1.1,2.6-1.7,4.4-1.7c1.9,0,3.4,0.6,4.5,1.7c1.1,1.1,1.6,2.6,1.6,4.4
	c0,1.9-0.6,3.4-1.7,4.5c-1.1,1.1-2.6,1.6-4.4,1.6c-1.9,0-3.4-0.6-4.5-1.7C109.4,81.8,108.9,80.4,108.9,78.6z"/>
<path class="st0" d="M108.9,90.7c0-1.8,0.6-3.2,1.7-4.4s2.6-1.7,4.4-1.7c1.9,0,3.4,0.6,4.5,1.7c1.1,1.1,1.6,2.6,1.6,4.4
	c0,1.9-0.6,3.4-1.7,4.5c-1.1,1.1-2.6,1.6-4.4,1.6c-1.9,0-3.4-0.6-4.5-1.7C109.4,93.9,108.9,92.5,108.9,90.7z"/>
<path class="st0" d="M108.9,102.8c0-1.8,0.6-3.2,1.7-4.4s2.6-1.7,4.4-1.7c1.9,0,3.4,0.6,4.5,1.7c1.1,1.1,1.6,2.6,1.6,4.4
	c0,1.9-0.6,3.4-1.7,4.5c-1.1,1.1-2.6,1.6-4.4,1.6c-1.9,0-3.4-0.6-4.5-1.7C109.4,106.1,108.9,104.6,108.9,102.8z"/>
<path class="st0" d="M108.9,114.7c0-3.9,1.9-5.8,5.8-5.8c4.2,0,6.3,1.9,6.3,5.8c0,1.8-0.5,3.2-1.6,4.4c-1.1,1.1-2.5,1.7-4.3,1.7
	c-4.2,0-6.3-1.9-6.3-5.8L108.9,114.7L108.9,114.7z"/>
<path class="st0" d="M108.9,126.8c0-1.8,0.6-3.2,1.7-4.4s2.6-1.7,4.4-1.7c1.9,0,3.4,0.6,4.5,1.7c1.1,1.1,1.6,2.6,1.6,4.4
	c0,1.9-0.6,3.4-1.7,4.5s-2.6,1.6-4.4,1.6c-1.9,0-3.4-0.6-4.5-1.7C109.4,130.1,108.9,128.6,108.9,126.8L108.9,126.8z"/>
<path class="st0" d="M108.9,138.9c0-1.8,0.6-3.2,1.7-4.4s2.6-1.7,4.4-1.7c1.9,0,3.4,0.6,4.5,1.7c1.1,1.1,1.6,2.6,1.6,4.4
	c0,1.9-0.6,3.4-1.7,4.5s-2.6,1.6-4.4,1.6c-1.9,0-3.4-0.6-4.5-1.7C109.4,142.2,108.9,140.7,108.9,138.9L108.9,138.9z"/>
<path class="st0" d="M121,151.1c0,1.9-0.6,3.4-1.7,4.5s-2.6,1.6-4.4,1.6c-1.9,0-3.4-0.6-4.5-1.7c-1.1-1.1-1.6-2.6-1.6-4.4
	s0.6-3.2,1.7-4.4c1.1-1.1,2.6-1.7,4.4-1.7c1.9,0,3.4,0.6,4.5,1.7C120.5,147.8,121,149.3,121,151.1L121,151.1z"/>
<path class="st0" d="M121,66.4c0-1.8,0.6-3.2,1.7-4.4c1.1-1.1,2.6-1.7,4.4-1.7c1.9,0,3.4,0.6,4.5,1.7s1.6,2.6,1.6,4.4
	c0,1.9-0.6,3.4-1.7,4.5c-1.1,1.1-2.6,1.6-4.4,1.6c-1.9,0-3.4-0.6-4.5-1.7C121.5,69.7,121,68.2,121,66.4L121,66.4z"/>
<path class="st0" d="M121,78.6c0-1.8,0.6-3.2,1.7-4.4c1.1-1.1,2.6-1.7,4.4-1.7c1.9,0,3.4,0.6,4.5,1.7s1.6,2.6,1.6,4.4
	c0,1.9-0.6,3.4-1.7,4.5c-1.1,1.1-2.6,1.6-4.4,1.6c-1.9,0-3.4-0.6-4.5-1.7C121.5,81.8,121,80.4,121,78.6L121,78.6z"/>
<path class="st0" d="M121,90.7c0-1.8,0.6-3.2,1.7-4.4s2.6-1.7,4.4-1.7c1.9,0,3.4,0.6,4.5,1.7s1.6,2.6,1.6,4.4c0,1.9-0.6,3.4-1.7,4.5
	c-1.1,1.1-2.6,1.6-4.4,1.6c-1.9,0-3.4-0.6-4.5-1.7C121.5,93.9,121,92.5,121,90.7L121,90.7z"/>
<path class="st0" d="M121,102.8c0-1.8,0.6-3.2,1.7-4.4s2.6-1.7,4.4-1.7c1.9,0,3.4,0.6,4.5,1.7s1.6,2.6,1.6,4.4
	c0,1.9-0.6,3.4-1.7,4.5c-1.1,1.1-2.6,1.6-4.4,1.6c-1.9,0-3.4-0.6-4.5-1.7C121.5,106.1,121,104.6,121,102.8L121,102.8z"/>
<path class="st0" d="M121,114.7c0-3.9,1.9-5.8,5.8-5.8c4.2,0,6.3,1.9,6.3,5.8c0,1.8-0.5,3.2-1.6,4.4c-1.1,1.1-2.5,1.7-4.3,1.7
	c-4.2,0-6.3-1.9-6.3-5.8L121,114.7L121,114.7z"/>
<path class="st0" d="M121,126.8c0-1.8,0.6-3.2,1.7-4.4s2.6-1.7,4.4-1.7c1.9,0,3.4,0.6,4.5,1.7s1.6,2.6,1.6,4.4
	c0,1.9-0.6,3.4-1.7,4.5s-2.6,1.6-4.4,1.6c-1.9,0-3.4-0.6-4.5-1.7C121.5,130.1,121,128.6,121,126.8L121,126.8z"/>
<path class="st0" d="M121,138.9c0-1.8,0.6-3.2,1.7-4.4s2.6-1.7,4.4-1.7c1.9,0,3.4,0.6,4.5,1.7s1.6,2.6,1.6,4.4
	c0,1.9-0.6,3.4-1.7,4.5s-2.6,1.6-4.4,1.6c-1.9,0-3.4-0.6-4.5-1.7C121.5,142.2,121,140.7,121,138.9L121,138.9z"/>
<path class="st0" d="M127,157.1c-1.9,0-3.4-0.6-4.5-1.7c-1.1-1.1-1.6-2.6-1.6-4.4s0.6-3.2,1.7-4.4c1.1-1.1,2.6-1.7,4.4-1.7
	c1.9,0,3.4,0.6,4.5,1.7s1.6,2.6,1.6,4.4c0,1.9-0.6,3.4-1.7,4.5S128.8,157.1,127,157.1L127,157.1z"/>
<path class="st0" d="M157.1,66.7c0,3.9-1.9,5.8-5.8,5.8c-1.8,0-3.2-0.5-4.4-1.6c-1.1-1-1.7-2.5-1.7-4.3c0-4.2,1.9-6.3,5.8-6.3
	c1.8,0,3.2,0.5,4.4,1.6c1.1,1,1.7,2.5,1.7,4.3C157.1,66.2,157.1,66.7,157.1,66.7z"/>
<path class="st0" d="M157.1,78.8c0,3.9-1.9,5.8-5.8,5.8c-1.8,0-3.2-0.5-4.4-1.6c-1.1-1-1.7-2.5-1.7-4.3c0-4.2,1.9-6.3,5.8-6.3
	c1.8,0,3.2,0.5,4.4,1.6c1.1,1.1,1.7,2.5,1.7,4.3V78.8z"/>
<path class="st0" d="M157.1,90.9c0,3.9-1.9,5.8-5.8,5.8c-1.8,0-3.2-0.5-4.4-1.6c-1.1-1.1-1.7-2.5-1.7-4.3c0-4.2,1.9-6.3,5.8-6.3
	c1.8,0,3.2,0.5,4.4,1.6c1.1,1.1,1.7,2.5,1.7,4.3C157.1,90.5,157.1,90.9,157.1,90.9z"/>
<path class="st0" d="M157.1,103c0,3.9-1.9,5.8-5.8,5.8c-1.8,0-3.2-0.5-4.4-1.6c-1.1-1.1-1.7-2.5-1.7-4.3c0-4.2,1.9-6.3,5.8-6.3
	c1.8,0,3.2,0.5,4.4,1.6c1.1,1.1,1.7,2.5,1.7,4.3V103L157.1,103z"/>
<path class="st0" d="M145.2,114.9c0-1.8,0.5-3.2,1.6-4.4c1.1-1.1,2.5-1.7,4.3-1.7s3.2,0.5,4.4,1.6c1.1,1.1,1.7,2.5,1.7,4.3v0.2
	c0,3.9-1.9,5.8-5.8,5.8S145.2,118.8,145.2,114.9L145.2,114.9z"/>
<path class="st0" d="M157.1,127.1c0,3.9-1.9,5.8-5.8,5.8c-1.8,0-3.2-0.5-4.4-1.6c-1.1-1.1-1.7-2.5-1.7-4.3c0-4.2,1.9-6.3,5.8-6.3
	c1.8,0,3.2,0.5,4.4,1.6c1.1,1.1,1.7,2.5,1.7,4.3C157.1,126.6,157.1,127.1,157.1,127.1z"/>
<path class="st0" d="M163.2,60.4c-1.9,0-3.4-0.6-4.5-1.7s-1.6-2.6-1.6-4.4c0-1.9,0.6-3.4,1.7-4.5c1.1-1,2.6-1.6,4.4-1.6
	c1.9,0,3.4,0.6,4.5,1.7c1,1.1,1.6,2.6,1.6,4.4s-0.6,3.2-1.7,4.4C166.4,59.8,165,60.4,163.2,60.4z"/>
<path class="st0" d="M163.2,72.5c-1.9,0-3.4-0.6-4.5-1.7s-1.6-2.6-1.6-4.4c0-1.9,0.6-3.4,1.7-4.5s2.6-1.6,4.4-1.6
	c1.9,0,3.4,0.6,4.5,1.7c1,1.1,1.6,2.6,1.6,4.4s-0.6,3.2-1.7,4.4C166.4,71.9,165,72.5,163.2,72.5z"/>
<path class="st0" d="M169.2,78.6c0,1.8-0.6,3.2-1.7,4.4c-1.1,1.1-2.6,1.7-4.4,1.7c-1.9,0-3.4-0.6-4.5-1.7s-1.6-2.6-1.6-4.4
	c0-1.9,0.6-3.4,1.7-4.5c1.1-1,2.6-1.6,4.4-1.6c1.9,0,3.4,0.6,4.5,1.7C168.7,75.3,169.2,76.8,169.2,78.6z"/>
<path class="st0" d="M169.2,90.7c0,1.8-0.6,3.2-1.7,4.4s-2.6,1.7-4.4,1.7c-1.9,0-3.4-0.6-4.5-1.7s-1.6-2.6-1.6-4.4
	c0-1.9,0.6-3.4,1.7-4.5c1.1-1,2.6-1.6,4.4-1.6c1.9,0,3.4,0.6,4.5,1.7C168.7,87.4,169.2,88.9,169.2,90.7z"/>
<path class="st0" d="M169.2,102.8c0,1.8-0.6,3.2-1.7,4.4s-2.6,1.7-4.4,1.7c-1.9,0-3.4-0.6-4.5-1.7s-1.6-2.6-1.6-4.4
	c0-1.9,0.6-3.4,1.7-4.5c1.1-1,2.6-1.6,4.4-1.6c1.9,0,3.4,0.6,4.5,1.7C168.7,99.5,169.2,101,169.2,102.8z"/>
<path class="st0" d="M157.1,114.9c0-1.8,0.5-3.2,1.6-4.4c1-1.1,2.5-1.7,4.3-1.7c4.2,0,6.3,1.9,6.3,5.8v0.2c0,3.9-1.9,5.8-5.8,5.8
	C159.2,120.8,157.1,118.8,157.1,114.9z"/>
<path class="st0" d="M163.2,132.9c-1.9,0-3.4-0.6-4.5-1.7s-1.6-2.6-1.6-4.4c0-1.9,0.6-3.4,1.7-4.5c1.1-1,2.6-1.6,4.4-1.6
	c1.9,0,3.4,0.6,4.5,1.7c1,1.1,1.6,2.6,1.6,4.4s-0.6,3.3-1.7,4.4S165,132.9,163.2,132.9z"/>
<path class="st0" d="M169.2,138.9c0,1.8-0.6,3.2-1.7,4.4s-2.6,1.7-4.4,1.7c-1.9,0-3.4-0.6-4.5-1.7s-1.6-2.6-1.6-4.4
	c0-1.9,0.6-3.4,1.7-4.5c1.1-1,2.6-1.6,4.4-1.6c1.9,0,3.4,0.6,4.5,1.7C168.7,135.7,169.2,137.1,169.2,138.9L169.2,138.9z"/>
<path class="st0" d="M181.4,42.4c0,3.9-1.9,5.8-5.8,5.8c-4.2,0-6.3-1.9-6.3-5.8c0-1.8,0.5-3.2,1.6-4.4c1-1.1,2.5-1.7,4.3-1.7
	c4.2,0,6.3,2,6.3,5.8L181.4,42.4L181.4,42.4z"/>
<path class="st0" d="M169.2,54.3c0-1.9,0.6-3.4,1.7-4.5s2.6-1.6,4.4-1.6c1.9,0,3.4,0.6,4.5,1.7s1.6,2.6,1.6,4.4s-0.6,3.2-1.7,4.4
	c-1.1,1.1-2.6,1.7-4.4,1.7c-1.9,0-3.4-0.6-4.5-1.7S169.2,56.1,169.2,54.3z"/>
<path class="st0" d="M169.2,66.4c0-1.9,0.6-3.4,1.7-4.5s2.6-1.6,4.4-1.6c1.9,0,3.4,0.6,4.5,1.7s1.6,2.6,1.6,4.4s-0.6,3.2-1.7,4.4
	c-1.1,1.1-2.6,1.7-4.4,1.7c-1.9,0-3.4-0.6-4.5-1.7S169.2,68.2,169.2,66.4z"/>
<path class="st0" d="M169.2,126.8c0-1.9,0.6-3.4,1.7-4.5c1.1-1,2.6-1.6,4.4-1.6c1.9,0,3.4,0.6,4.5,1.7s1.6,2.6,1.6,4.4
	c0,1.8-0.6,3.2-1.7,4.4s-2.6,1.7-4.4,1.7c-1.9,0-3.4-0.6-4.5-1.7S169.2,128.6,169.2,126.8z"/>
<path class="st0" d="M169.2,138.9c0-1.8,0.6-3.2,1.7-4.4s2.6-1.7,4.4-1.7c1.9,0,3.4,0.6,4.5,1.7s1.6,2.6,1.6,4.4
	c0,1.9-0.6,3.4-1.7,4.5s-2.6,1.6-4.4,1.6c-1.9,0-3.4-0.6-4.5-1.7S169.2,140.7,169.2,138.9L169.2,138.9z"/>
<path class="st0" d="M169.2,151.1c0-1.8,0.6-3.2,1.7-4.4c1.1-1.1,2.6-1.7,4.4-1.7c1.9,0,3.4,0.6,4.5,1.7s1.6,2.6,1.6,4.4
	c0,1.9-0.6,3.4-1.7,4.5s-2.6,1.6-4.4,1.6c-1.9,0-3.4-0.6-4.5-1.7S169.2,152.9,169.2,151.1L169.2,151.1z"/>
<path class="st0" d="M193.5,42.4c0,3.9-1.9,5.8-5.8,5.8c-4.2,0-6.3-1.9-6.3-5.8c0-1.8,0.5-3.2,1.6-4.4c1.1-1.1,2.5-1.7,4.3-1.7
	c4.2,0,6.3,2,6.3,5.8L193.5,42.4L193.5,42.4z"/>
<path class="st0" d="M181.4,54.3c0-1.9,0.6-3.4,1.7-4.5s2.6-1.6,4.4-1.6c1.9,0,3.4,0.6,4.5,1.7s1.6,2.6,1.6,4.4s-0.6,3.2-1.7,4.4
	c-1.1,1.1-2.6,1.7-4.4,1.7c-1.9,0-3.4-0.6-4.5-1.7S181.4,56.1,181.4,54.3z"/>
<path class="st0" d="M181.4,138.9c0-1.8,0.6-3.2,1.7-4.4s2.6-1.7,4.4-1.7c1.9,0,3.4,0.6,4.5,1.7s1.6,2.6,1.6,4.4
	c0,1.9-0.6,3.4-1.7,4.5s-2.6,1.6-4.4,1.6c-1.9,0-3.4-0.6-4.5-1.7S181.4,140.7,181.4,138.9L181.4,138.9z"/>
<path class="st0" d="M181.4,151.1c0-1.8,0.6-3.2,1.7-4.4c1.1-1.1,2.6-1.7,4.4-1.7c1.9,0,3.4,0.6,4.5,1.7s1.6,2.6,1.6,4.4
	c0,1.9-0.6,3.4-1.7,4.5s-2.6,1.6-4.4,1.6c-1.9,0-3.4-0.6-4.5-1.7S181.4,152.9,181.4,151.1L181.4,151.1z"/>
<path class="st0" d="M205.6,42.4c0,3.9-1.9,5.8-5.8,5.8c-4.2,0-6.3-1.9-6.3-5.8c0-1.8,0.5-3.2,1.6-4.4c1.1-1.1,2.5-1.7,4.3-1.7
	c4.2,0,6.3,2,6.3,5.8L205.6,42.4L205.6,42.4z"/>
<path class="st0" d="M193.5,54.3c0-1.9,0.6-3.4,1.7-4.5s2.6-1.6,4.4-1.6c1.9,0,3.4,0.6,4.5,1.7c1,1.1,1.6,2.6,1.6,4.4
	s-0.6,3.2-1.7,4.4c-1.1,1.1-2.6,1.7-4.4,1.7c-1.9,0-3.4-0.6-4.5-1.7S193.5,56.1,193.5,54.3z"/>
<path class="st0" d="M193.5,138.9c0-1.8,0.6-3.2,1.7-4.4c1.1-1.1,2.6-1.7,4.4-1.7c1.9,0,3.4,0.6,4.5,1.7c1,1.1,1.6,2.6,1.6,4.4
	c0,1.9-0.6,3.4-1.7,4.5s-2.6,1.6-4.4,1.6c-1.9,0-3.4-0.6-4.5-1.7S193.5,140.7,193.5,138.9L193.5,138.9z"/>
<path class="st0" d="M193.5,151.1c0-1.8,0.6-3.2,1.7-4.4s2.6-1.7,4.4-1.7c1.9,0,3.4,0.6,4.5,1.7c1,1.1,1.6,2.6,1.6,4.4
	c0,1.9-0.6,3.4-1.7,4.5s-2.6,1.6-4.4,1.6c-1.9,0-3.4-0.6-4.5-1.7S193.5,152.9,193.5,151.1L193.5,151.1z"/>
<path class="st0" d="M217.7,42.4c0,3.9-1.9,5.8-5.8,5.8c-4.2,0-6.3-1.9-6.3-5.8c0-1.8,0.5-3.2,1.6-4.4c1-1.1,2.5-1.7,4.3-1.7
	c4.2,0,6.3,2,6.3,5.8V42.4z"/>
<path class="st0" d="M205.6,54.3c0-1.9,0.6-3.4,1.7-4.5s2.6-1.6,4.4-1.6c1.9,0,3.4,0.6,4.5,1.7c1,1.1,1.6,2.6,1.6,4.4
	s-0.6,3.2-1.7,4.4s-2.6,1.7-4.4,1.7c-1.9,0-3.4-0.6-4.5-1.7S205.6,56.1,205.6,54.3z"/>
<path class="st0" d="M205.6,138.9c0-1.8,0.6-3.2,1.7-4.4c1.1-1.1,2.6-1.7,4.4-1.7c1.9,0,3.4,0.6,4.5,1.7c1,1.1,1.6,2.6,1.6,4.4
	c0,1.9-0.6,3.4-1.7,4.5s-2.6,1.6-4.4,1.6c-1.9,0-3.4-0.6-4.5-1.7S205.6,140.7,205.6,138.9L205.6,138.9z"/>
<path class="st0" d="M205.6,151.1c0-1.8,0.6-3.2,1.7-4.4s2.6-1.7,4.4-1.7c1.9,0,3.4,0.6,4.5,1.7c1,1.1,1.6,2.6,1.6,4.4
	c0,1.9-0.6,3.4-1.7,4.5s-2.6,1.6-4.4,1.6c-1.9,0-3.4-0.6-4.5-1.7S205.6,152.9,205.6,151.1L205.6,151.1z"/>
<path class="st0" d="M229.6,54.5c0,3.9-1.9,5.8-5.8,5.8c-1.8,0-3.2-0.5-4.4-1.6c-1.1-1-1.7-2.5-1.7-4.3c0-4.2,1.9-6.3,5.8-6.3
	c1.8,0,3.2,0.5,4.4,1.6c1.1,1,1.7,2.5,1.7,4.3C229.6,54.1,229.6,54.5,229.6,54.5z"/>
<path class="st0" d="M229.6,66.7c0,3.9-1.9,5.8-5.8,5.8c-1.8,0-3.2-0.5-4.4-1.6c-1.1-1-1.7-2.5-1.7-4.3c0-4.2,1.9-6.3,5.8-6.3
	c1.8,0,3.2,0.5,4.4,1.6c1.1,1,1.7,2.5,1.7,4.3C229.6,66.2,229.6,66.7,229.6,66.7z"/>
<path class="st0" d="M229.6,127c0,3.9-1.9,5.8-5.8,5.8c-1.8,0-3.2-0.5-4.4-1.6c-1.1-1.1-1.7-2.5-1.7-4.3c0-4.2,1.9-6.3,5.8-6.3
	c1.8,0,3.2,0.5,4.4,1.6c1.1,1.1,1.7,2.5,1.7,4.3V127L229.6,127z"/>
<path class="st0" d="M229.6,139.2c0,3.9-1.9,5.8-5.8,5.8c-1.8,0-3.2-0.5-4.4-1.6c-1.1-1.1-1.7-2.5-1.7-4.3c0-4.2,1.9-6.3,5.8-6.3
	c1.8,0,3.2,0.5,4.4,1.6c1.1,1.1,1.7,2.5,1.7,4.3V139.2L229.6,139.2z"/>
<path class="st0" d="M229.6,6.1c0-1.8,0.6-3.2,1.7-4.4c1.1-1.1,2.6-1.7,4.4-1.7c1.9,0,3.4,0.6,4.5,1.7c1,1.1,1.6,2.6,1.6,4.4
	c0,1.9-0.6,3.4-1.7,4.5s-2.6,1.6-4.4,1.6c-1.9,0-3.4-0.6-4.5-1.7S229.6,7.9,229.6,6.1z"/>
<path class="st0" d="M229.6,18.2c0-1.8,0.6-3.2,1.7-4.4c1.1-1.1,2.6-1.7,4.4-1.7c1.9,0,3.4,0.6,4.5,1.7c1,1.1,1.6,2.6,1.6,4.4
	c0,2-0.6,3.4-1.7,4.5s-2.6,1.6-4.4,1.6c-1.9,0-3.4-0.6-4.5-1.7S229.6,20,229.6,18.2z"/>
<path class="st0" d="M229.6,30.3c0-1.8,0.6-3.2,1.7-4.4s2.6-1.7,4.4-1.7c1.9,0,3.4,0.6,4.5,1.7c1,1.1,1.6,2.6,1.6,4.4
	c0,2-0.6,3.4-1.7,4.5s-2.6,1.6-4.4,1.6c-1.9,0-3.4-0.6-4.5-1.7S229.6,32.1,229.6,30.3z"/>
<path class="st0" d="M229.6,42.2c0-3.9,1.9-5.8,5.8-5.8c4.2,0,6.3,2,6.3,5.8c0,1.8-0.5,3.2-1.6,4.4c-1.1,1.1-2.5,1.7-4.3,1.7
	c-4.2,0-6.3-1.9-6.3-5.8L229.6,42.2L229.6,42.2z"/>
<path class="st0" d="M229.6,54.3c0-1.8,0.6-3.2,1.7-4.4c1.1-1.1,2.6-1.7,4.4-1.7c1.9,0,3.4,0.6,4.5,1.7c1,1.1,1.6,2.6,1.6,4.4
	c0,2-0.6,3.4-1.7,4.5c-1.1,1-2.6,1.6-4.4,1.6c-1.9,0-3.4-0.6-4.5-1.7S229.6,56.1,229.6,54.3z"/>
<path class="st0" d="M229.6,66.4c0-1.8,0.6-3.2,1.7-4.4s2.6-1.7,4.4-1.7c1.9,0,3.4,0.6,4.5,1.7c1,1.1,1.6,2.6,1.6,4.4
	c0,1.9-0.6,3.4-1.7,4.5c-1.1,1.1-2.6,1.6-4.4,1.6c-1.9,0-3.4-0.6-4.5-1.7S229.6,68.2,229.6,66.4z"/>
<path class="st0" d="M229.6,78.6c0-1.8,0.6-3.2,1.7-4.4s2.6-1.7,4.4-1.7c1.9,0,3.4,0.6,4.5,1.7c1,1.1,1.6,2.6,1.6,4.4
	c0,1.9-0.6,3.4-1.7,4.5c-1.1,1.1-2.6,1.6-4.4,1.6c-1.9,0-3.4-0.6-4.5-1.7S229.6,80.4,229.6,78.6z"/>
<path class="st0" d="M229.6,90.7c0-1.8,0.6-3.2,1.7-4.4c1.1-1.1,2.6-1.7,4.4-1.7c1.9,0,3.4,0.6,4.5,1.7c1,1.1,1.6,2.6,1.6,4.4
	c0,1.9-0.6,3.4-1.7,4.5c-1.1,1.1-2.6,1.6-4.4,1.6c-1.9,0-3.4-0.6-4.5-1.7S229.6,92.5,229.6,90.7z"/>
<path class="st0" d="M229.6,102.8c0-1.8,0.6-3.2,1.7-4.4c1.1-1.1,2.6-1.7,4.4-1.7c1.9,0,3.4,0.6,4.5,1.7c1,1.1,1.6,2.6,1.6,4.4
	c0,1.9-0.6,3.4-1.7,4.5c-1.1,1.1-2.6,1.6-4.4,1.6c-1.9,0-3.4-0.6-4.5-1.7S229.6,104.6,229.6,102.8z"/>
<path class="st0" d="M229.6,114.7c0-3.9,1.9-5.8,5.8-5.8c4.2,0,6.3,1.9,6.3,5.8c0,1.8-0.5,3.2-1.6,4.4c-1.1,1.1-2.5,1.7-4.3,1.7
	c-4.2,0-6.3-1.9-6.3-5.8L229.6,114.7L229.6,114.7z"/>
<path class="st0" d="M229.6,126.8c0-1.8,0.6-3.2,1.7-4.4c1.1-1.1,2.6-1.7,4.4-1.7c1.9,0,3.4,0.6,4.5,1.7c1,1.1,1.6,2.6,1.6,4.4
	c0,1.9-0.6,3.4-1.7,4.5s-2.6,1.6-4.4,1.6c-1.9,0-3.4-0.6-4.5-1.7S229.6,128.6,229.6,126.8L229.6,126.8z"/>
<path class="st0" d="M229.6,138.9c0-1.8,0.6-3.2,1.7-4.4c1.1-1.1,2.6-1.7,4.4-1.7c1.9,0,3.4,0.6,4.5,1.7c1,1.1,1.6,2.6,1.6,4.4
	c0,1.9-0.6,3.4-1.7,4.5s-2.6,1.6-4.4,1.6c-1.9,0-3.4-0.6-4.5-1.7S229.6,140.7,229.6,138.9L229.6,138.9z"/>
<path class="st0" d="M229.6,151.1c0-1.8,0.6-3.2,1.7-4.4s2.6-1.7,4.4-1.7c1.9,0,3.4,0.6,4.5,1.7c1,1.1,1.6,2.6,1.6,4.4
	c0,1.9-0.6,3.4-1.7,4.5s-2.6,1.6-4.4,1.6c-1.9,0-3.4-0.6-4.5-1.7S229.6,152.9,229.6,151.1L229.6,151.1z"/>
<path class="st0" d="M241.7,6.1c0-1.8,0.6-3.2,1.7-4.4c1.1-1.1,2.6-1.7,4.4-1.7c1.9,0,3.4,0.6,4.5,1.7c1,1.1,1.6,2.6,1.6,4.4
	c0,2-0.6,3.4-1.7,4.5s-2.6,1.6-4.4,1.6c-1.9,0-3.4-0.6-4.5-1.7S241.7,7.9,241.7,6.1z"/>
<path class="st0" d="M241.7,18.2c0-1.8,0.6-3.2,1.7-4.4c1.1-1.1,2.6-1.7,4.4-1.7c1.9,0,3.4,0.6,4.5,1.7c1,1.1,1.6,2.6,1.6,4.4
	c0,2-0.6,3.4-1.7,4.5s-2.6,1.6-4.4,1.6c-1.9,0-3.4-0.6-4.5-1.7S241.7,20,241.7,18.2z"/>
<path class="st0" d="M241.7,30.3c0-1.8,0.6-3.2,1.7-4.4s2.6-1.7,4.4-1.7c1.9,0,3.4,0.6,4.5,1.7c1,1.1,1.6,2.6,1.6,4.4
	c0,2-0.6,3.4-1.7,4.5c-1.1,1-2.6,1.6-4.4,1.6c-1.9,0-3.4-0.6-4.5-1.7S241.7,32.1,241.7,30.3z"/>
<path class="st0" d="M241.7,42.2c0-3.9,1.9-5.8,5.8-5.8c4.2,0,6.3,2,6.3,5.8c0,1.8-0.5,3.2-1.6,4.4c-1.1,1.1-2.5,1.7-4.3,1.7
	c-4.2,0-6.3-1.9-6.3-5.8L241.7,42.2L241.7,42.2z"/>
<path class="st0" d="M241.7,54.3c0-1.8,0.6-3.2,1.7-4.4c1.1-1.1,2.6-1.7,4.4-1.7c1.9,0,3.4,0.6,4.5,1.7c1,1.1,1.6,2.6,1.6,4.4
	c0,2-0.6,3.4-1.7,4.5c-1.1,1-2.6,1.6-4.4,1.6c-1.9,0-3.4-0.6-4.5-1.7S241.7,56.1,241.7,54.3z"/>
<path class="st0" d="M241.7,66.4c0-1.8,0.6-3.2,1.7-4.4s2.6-1.7,4.4-1.7c1.9,0,3.4,0.6,4.5,1.7c1,1.1,1.6,2.6,1.6,4.4
	c0,1.9-0.6,3.4-1.7,4.5c-1.1,1.1-2.6,1.6-4.4,1.6c-1.9,0-3.4-0.6-4.5-1.7S241.7,68.2,241.7,66.4z"/>
<path class="st0" d="M241.7,78.6c0-1.8,0.6-3.2,1.7-4.4s2.6-1.7,4.4-1.7c1.9,0,3.4,0.6,4.5,1.7c1,1.1,1.6,2.6,1.6,4.4
	c0,1.9-0.6,3.4-1.7,4.5c-1.1,1.1-2.6,1.6-4.4,1.6c-1.9,0-3.4-0.6-4.5-1.7S241.7,80.4,241.7,78.6z"/>
<path class="st0" d="M241.7,90.7c0-1.8,0.6-3.2,1.7-4.4c1.1-1.1,2.6-1.7,4.4-1.7c1.9,0,3.4,0.6,4.5,1.7c1,1.1,1.6,2.6,1.6,4.4
	c0,1.9-0.6,3.4-1.7,4.5c-1.1,1.1-2.6,1.6-4.4,1.6c-1.9,0-3.4-0.6-4.5-1.7S241.7,92.5,241.7,90.7z"/>
<path class="st0" d="M241.7,102.8c0-1.8,0.6-3.2,1.7-4.4c1.1-1.1,2.6-1.7,4.4-1.7c1.9,0,3.4,0.6,4.5,1.7c1,1.1,1.6,2.6,1.6,4.4
	c0,1.9-0.6,3.4-1.7,4.5c-1.1,1.1-2.6,1.6-4.4,1.6c-1.9,0-3.4-0.6-4.5-1.7S241.7,104.6,241.7,102.8z"/>
<path class="st0" d="M241.7,114.7c0-3.9,1.9-5.8,5.8-5.8c4.2,0,6.3,1.9,6.3,5.8c0,1.8-0.5,3.2-1.6,4.4c-1.1,1.1-2.5,1.7-4.3,1.7
	c-4.2,0-6.3-1.9-6.3-5.8L241.7,114.7L241.7,114.7z"/>
<path class="st0" d="M241.7,126.8c0-1.8,0.6-3.2,1.7-4.4c1.1-1.1,2.6-1.7,4.4-1.7c1.9,0,3.4,0.6,4.5,1.7c1,1.1,1.6,2.6,1.6,4.4
	c0,1.9-0.6,3.4-1.7,4.5s-2.6,1.6-4.4,1.6c-1.9,0-3.4-0.6-4.5-1.7S241.7,128.6,241.7,126.8L241.7,126.8z"/>
<path class="st0" d="M241.7,138.9c0-1.8,0.6-3.2,1.7-4.4c1.1-1.1,2.6-1.7,4.4-1.7c1.9,0,3.4,0.6,4.5,1.7c1,1.1,1.6,2.6,1.6,4.4
	c0,1.9-0.6,3.4-1.7,4.5s-2.6,1.6-4.4,1.6c-1.9,0-3.4-0.6-4.5-1.7S241.7,140.7,241.7,138.9L241.7,138.9z"/>
<path class="st0" d="M241.7,151.1c0-1.8,0.6-3.2,1.7-4.4s2.6-1.7,4.4-1.7c1.9,0,3.4,0.6,4.5,1.7c1,1.1,1.6,2.6,1.6,4.4
	c0,1.9-0.6,3.4-1.7,4.5s-2.6,1.6-4.4,1.6c-1.9,0-3.4-0.6-4.5-1.7S241.7,152.9,241.7,151.1L241.7,151.1z"/>
<path class="st0" d="M278.1,66.4c0,1.8-0.6,3.2-1.7,4.4s-2.6,1.7-4.4,1.7c-2,0-3.4-0.6-4.5-1.7s-1.6-2.6-1.6-4.4
	c0-1.9,0.6-3.4,1.7-4.5s2.6-1.6,4.4-1.6c1.9,0,3.4,0.6,4.5,1.7S278.1,64.6,278.1,66.4z"/>
<path class="st0" d="M278.1,78.6c0,1.8-0.6,3.2-1.7,4.4s-2.6,1.7-4.4,1.7c-2,0-3.4-0.6-4.5-1.7s-1.6-2.6-1.6-4.4
	c0-1.9,0.6-3.4,1.7-4.5c1.1-1,2.6-1.6,4.4-1.6c1.9,0,3.4,0.6,4.5,1.7S278.1,76.8,278.1,78.6z"/>
<path class="st0" d="M272,96.7c-2,0-3.4-0.6-4.5-1.7s-1.6-2.6-1.6-4.4c0-1.9,0.6-3.4,1.7-4.5c1.1-1,2.6-1.6,4.4-1.6
	c1.9,0,3.4,0.6,4.5,1.7s1.6,2.6,1.6,4.4s-0.6,3.2-1.7,4.4C275.3,96.2,273.9,96.7,272,96.7z"/>
<path class="st0" d="M272,108.9c-2,0-3.4-0.6-4.5-1.7s-1.6-2.6-1.6-4.4c0-1.9,0.6-3.4,1.7-4.5c1.1-1,2.6-1.6,4.4-1.6
	c1.9,0,3.4,0.6,4.5,1.7s1.6,2.6,1.6,4.4s-0.6,3.2-1.7,4.4C275.3,108.3,273.9,108.9,272,108.9z"/>
<path class="st0" d="M266,114.9c0-1.8,0.5-3.2,1.6-4.4c1-1.1,2.5-1.7,4.3-1.7c4.2,0,6.3,1.9,6.3,5.8v0.2c0,3.9-2,5.8-5.8,5.8
	C268.1,120.8,266,118.8,266,114.9L266,114.9z"/>
<path class="st0" d="M272,132.9c-2,0-3.4-0.6-4.5-1.7s-1.6-2.6-1.6-4.4c0-1.9,0.6-3.4,1.7-4.5c1.1-1,2.6-1.6,4.4-1.6
	c1.9,0,3.4,0.6,4.5,1.7s1.6,2.6,1.6,4.4s-0.6,3.2-1.7,4.4C275.3,132.3,273.9,132.9,272,132.9z"/>
<path class="st0" d="M290.2,54.3c0,1.8-0.6,3.2-1.7,4.4c-1.1,1.1-2.6,1.7-4.4,1.7c-2,0-3.4-0.6-4.5-1.7s-1.6-2.6-1.6-4.4
	c0-1.9,0.6-3.4,1.7-4.5s2.6-1.6,4.4-1.6c1.9,0,3.4,0.6,4.5,1.7C289.7,51.1,290.2,52.5,290.2,54.3z"/>
<path class="st0" d="M284.2,72.5c-2,0-3.4-0.6-4.5-1.7s-1.6-2.6-1.6-4.4c0-1.9,0.6-3.4,1.7-4.5s2.6-1.6,4.4-1.6
	c1.9,0,3.4,0.6,4.5,1.7c1,1.1,1.6,2.6,1.6,4.4s-0.6,3.2-1.7,4.4S286,72.5,284.2,72.5z"/>
<path class="st0" d="M290.2,78.6c0,1.8-0.6,3.2-1.7,4.4s-2.6,1.7-4.4,1.7c-2,0-3.4-0.6-4.5-1.7s-1.6-2.6-1.6-4.4
	c0-1.9,0.6-3.4,1.7-4.5c1.1-1,2.6-1.6,4.4-1.6c1.9,0,3.4,0.6,4.5,1.7C289.7,75.3,290.2,76.8,290.2,78.6z"/>
<path class="st0" d="M278.1,90.7c0-1.9,0.6-3.4,1.7-4.5c1.1-1,2.6-1.6,4.4-1.6c3.3,0,5.3,1.6,6.1,4.7c0.5-3.1,2.4-4.7,5.8-4.7
	c1.9,0,3.4,0.6,4.5,1.7s1.6,2.6,1.6,4.4s-0.6,3.2-1.7,4.4s-2.6,1.7-4.4,1.7c-3.3,0-5.3-1.6-6.1-4.7c-0.5,3.1-2.4,4.7-5.8,4.7
	c-2,0-3.4-0.6-4.5-1.7S278.1,92.5,278.1,90.7z"/>
<path class="st0" d="M278.1,102.8c0-1.8,0.5-3.2,1.6-4.4c1-1.1,2.5-1.7,4.5-1.7c3.3,0,5.3,1.6,6.1,4.7c0.5-3.1,2.4-4.7,5.8-4.7
	c1.9,0,3.4,0.6,4.5,1.7s1.6,2.6,1.6,4.4s-0.6,3.2-1.7,4.4s-2.6,1.7-4.4,1.7c-3.3,0-5.3-1.6-6.1-4.7c-0.3,1.5-1,2.7-2,3.5
	c-1,0.8-2.3,1.2-3.8,1.2c-0.1,0-0.4,0-0.7-0.1c-0.3-0.1-1.1-0.3-2.5-0.6C279.1,107.1,278.1,105.4,278.1,102.8L278.1,102.8z"/>
<path class="st0" d="M278.1,114.9c0-1.8,0.5-3.2,1.6-4.4c1-1.1,2.5-1.7,4.3-1.7c4.2,0,6.3,1.9,6.3,5.8v0.2c0,3.9-2,5.8-5.8,5.8
	C280.2,120.8,278.1,118.8,278.1,114.9z"/>
<path class="st0" d="M278.1,126.8c0-1.9,0.6-3.4,1.7-4.5c1.1-1,2.6-1.6,4.4-1.6c3.3,0,5.3,1.6,6.1,4.7c0.5-3.1,2.4-4.7,5.8-4.7
	c1.9,0,3.4,0.6,4.5,1.7s1.6,2.6,1.6,4.4s-0.6,3.2-1.7,4.4s-2.6,1.7-4.4,1.7c-3.3,0-5.3-1.6-6.1-4.7c-0.5,3.1-2.4,4.7-5.8,4.7
	c-2,0-3.4-0.6-4.5-1.7S278.1,128.6,278.1,126.8z"/>
<path class="st0" d="M290,139.2c0,3.9-2,5.8-5.8,5.8c-1.8,0-3.2-0.5-4.4-1.6c-1.1-1.1-1.7-2.5-1.7-4.3c0-4.2,1.9-6.3,5.8-6.3
	c1.8,0,3.2,0.5,4.4,1.6c1.1,1.1,1.7,2.5,1.7,4.3V139.2L290,139.2z"/>
<path class="st0" d="M302.1,42.4c0,3.9-2,5.8-5.8,5.8c-4.2,0-6.3-1.9-6.3-5.8c0-1.8,0.5-3.2,1.6-4.4c1-1.1,2.5-1.7,4.3-1.7
	c4.2,0,6.3,2,6.3,5.8L302.1,42.4L302.1,42.4z"/>
<path class="st0" d="M302.1,138.9c0,1.8-0.6,3.2-1.7,4.4s-2.6,1.7-4.4,1.7c-2,0-3.4-0.6-4.5-1.7s-1.6-2.6-1.6-4.4
	c0-1.9,0.6-3.4,1.7-4.5c1.1-1,2.6-1.6,4.4-1.6c1.9,0,3.4,0.6,4.5,1.7S302.1,137.1,302.1,138.9L302.1,138.9z"/>
<path class="st0" d="M290,151.1c0-1.8,0.6-3.2,1.7-4.4c1.1-1.1,2.6-1.7,4.4-1.7c1.9,0,3.4,0.6,4.5,1.7s1.6,2.6,1.6,4.4
	c0,1.9-0.6,3.4-1.7,4.5s-2.6,1.6-4.4,1.6c-2,0-3.4-0.6-4.5-1.7S290,152.9,290,151.1L290,151.1z"/>
<path class="st0" d="M290.2,66.4c0-3.4,1.6-5.5,4.7-6.3c-3.1-0.5-4.7-2.3-4.7-5.6c0-4.2,1.9-6.3,5.8-6.3c1.8,0,3.2,0.5,4.4,1.6
	c1.1,1,1.7,2.5,1.7,4.3v0.5c0,3.4-1.6,5.4-4.7,5.8c3.1,0.5,4.7,2.3,4.7,5.6v0.4c0,3.9-2,5.8-5.8,5.8c-1.8,0-3.2-0.5-4.4-1.6
	C290.8,69.7,290.2,68.2,290.2,66.4L290.2,66.4z"/>
<path class="st0" d="M314.2,42.4c0,3.9-2,5.8-5.8,5.8c-4.2,0-6.3-1.9-6.3-5.8c0-1.8,0.5-3.2,1.6-4.4c1-1.1,2.5-1.7,4.3-1.7
	c4.2,0,6.3,2,6.3,5.8L314.2,42.4L314.2,42.4z"/>
<path class="st0" d="M302.1,54.3c0-1.8,0.5-3.2,1.6-4.4c1-1.1,2.5-1.7,4.3-1.7c4.2,0,6.3,2,6.3,5.8v0.2c0,3.9-2,5.8-5.8,5.8
	C304.2,60.2,302.1,58.2,302.1,54.3L302.1,54.3z"/>
<path class="st0" d="M302.1,90.7c0-1.9,0.6-3.4,1.7-4.5c1.1-1,2.6-1.6,4.4-1.6c1.9,0,3.4,0.6,4.5,1.7s1.6,2.6,1.6,4.4
	s-0.6,3.2-1.7,4.4c-1.1,1.1-2.6,1.7-4.4,1.7c-2,0-3.4-0.6-4.5-1.7S302.1,92.5,302.1,90.7z"/>
<path class="st0" d="M302.1,102.8c0-1.9,0.6-3.4,1.7-4.5c1.1-1,2.6-1.6,4.4-1.6c1.9,0,3.4,0.6,4.5,1.7s1.6,2.6,1.6,4.4
	s-0.6,3.2-1.7,4.4c-1.1,1.1-2.6,1.7-4.4,1.7c-2,0-3.4-0.6-4.5-1.7S302.1,104.6,302.1,102.8z"/>
<path class="st0" d="M302.1,138.9c0-1.8,0.6-3.2,1.7-4.4s2.6-1.7,4.4-1.7c1.9,0,3.4,0.6,4.5,1.7s1.6,2.6,1.6,4.4
	c0,1.9-0.6,3.4-1.7,4.5s-2.6,1.6-4.4,1.6c-2,0-3.4-0.6-4.5-1.7S302.1,140.7,302.1,138.9L302.1,138.9z"/>
<path class="st0" d="M302.1,151.1c0-1.8,0.6-3.2,1.7-4.4c1.1-1.1,2.6-1.7,4.4-1.7c1.9,0,3.4,0.6,4.5,1.7s1.6,2.6,1.6,4.4
	c0,1.9-0.6,3.4-1.7,4.5s-2.6,1.6-4.4,1.6c-2,0-3.4-0.6-4.5-1.7S302.1,152.9,302.1,151.1L302.1,151.1z"/>
<path class="st0" d="M326.4,42.4c0,3.9-2,5.8-5.8,5.8c-4.2,0-6.3-1.9-6.3-5.8c0-1.8,0.5-3.2,1.6-4.4c1-1.1,2.5-1.7,4.3-1.7
	c4.2,0,6.3,2,6.3,5.8V42.4z"/>
<path class="st0" d="M314.2,54.3c0-1.8,0.5-3.2,1.6-4.4c1-1.1,2.5-1.7,4.3-1.7c4.2,0,6.3,2,6.3,5.8v0.2c0,3.9-2,5.8-5.8,5.8
	C316.3,60.2,314.2,58.2,314.2,54.3z"/>
<path class="st0" d="M314.2,90.7c0-1.9,0.6-3.4,1.7-4.5c1.1-1,2.6-1.6,4.4-1.6c1.9,0,3.4,0.6,4.5,1.7c1,1.1,1.6,2.6,1.6,4.4
	s-0.6,3.2-1.7,4.4c-1.1,1.1-2.6,1.7-4.4,1.7c-2,0-3.4-0.6-4.5-1.7S314.2,92.5,314.2,90.7z"/>
<path class="st0" d="M314.2,102.8c0-1.9,0.6-3.4,1.7-4.5c1.1-1,2.6-1.6,4.4-1.6c1.9,0,3.4,0.6,4.5,1.7c1,1.1,1.6,2.6,1.6,4.4
	s-0.6,3.2-1.7,4.4c-1.1,1.1-2.6,1.7-4.4,1.7c-2,0-3.4-0.6-4.5-1.7S314.2,104.6,314.2,102.8z"/>
<path class="st0" d="M314.2,138.9c0-1.8,0.6-3.2,1.7-4.4c1.1-1.1,2.6-1.7,4.4-1.7c1.9,0,3.4,0.6,4.5,1.7c1,1.1,1.6,2.6,1.6,4.4
	c0,1.9-0.6,3.4-1.7,4.5s-2.6,1.6-4.4,1.6c-2,0-3.4-0.6-4.5-1.7S314.2,140.7,314.2,138.9L314.2,138.9z"/>
<path class="st0" d="M314.2,151.1c0-1.8,0.6-3.2,1.7-4.4s2.6-1.7,4.4-1.7c1.9,0,3.4,0.6,4.5,1.7c1,1.1,1.6,2.6,1.6,4.4
	c0,1.9-0.6,3.4-1.7,4.5s-2.6,1.6-4.4,1.6c-2,0-3.4-0.6-4.5-1.7S314.2,152.9,314.2,151.1L314.2,151.1z"/>
<path class="st0" d="M338.5,42.4c0,3.9-2,5.8-5.8,5.8c-4.2,0-6.3-1.9-6.3-5.8c0-1.8,0.5-3.2,1.6-4.4c1-1.1,2.5-1.7,4.3-1.7
	c4.2,0,6.3,2,6.3,5.8L338.5,42.4L338.5,42.4z"/>
<path class="st0" d="M338.5,54.3c0,3.4-1.6,5.4-4.7,5.8c3.1,0.8,4.7,2.8,4.7,6.1c0,1.8-0.6,3.2-1.7,4.4c-1.1,1.1-2.6,1.7-4.4,1.7
	c-2,0-3.4-0.6-4.5-1.7s-1.6-2.6-1.6-4.4c0-3.3,1.6-5.3,4.7-6.1c-3.1-0.5-4.7-2.4-4.7-5.8c0-1.9,0.6-3.4,1.7-4.5s2.6-1.6,4.4-1.6
	c1.9,0,3.4,0.6,4.5,1.7C338,51.1,338.5,52.5,338.5,54.3z"/>
<path class="st0" d="M338.5,90.7c0,1.8-0.6,3.2-1.7,4.4c-1.1,1.1-2.6,1.7-4.4,1.7c-2,0-3.4-0.6-4.5-1.7s-1.6-2.6-1.6-4.4
	c0-1.9,0.6-3.4,1.7-4.5c1.1-1,2.6-1.6,4.4-1.6c1.9,0,3.4,0.6,4.5,1.7C338,87.4,338.5,88.9,338.5,90.7z"/>
<path class="st0" d="M326.4,102.8c0-1.9,0.6-3.4,1.7-4.5c1.1-1,2.6-1.6,4.4-1.6c1.9,0,3.4,0.6,4.5,1.7c1,1.1,1.6,2.6,1.6,4.4
	s-0.6,3.2-1.7,4.4c-1.1,1.1-2.6,1.7-4.4,1.7c-2,0-3.4-0.6-4.5-1.7S326.4,104.6,326.4,102.8z"/>
<path class="st0" d="M338.5,126.8c0,1.8-0.6,3.2-1.7,4.4c-1.1,1.1-2.6,1.7-4.4,1.7c-2,0-3.4-0.6-4.5-1.7s-1.6-2.6-1.6-4.4
	c0-1.9,0.6-3.4,1.7-4.5c1.1-1,2.6-1.6,4.4-1.6c1.9,0,3.4,0.6,4.5,1.7C338,123.6,338.5,125,338.5,126.8z"/>
<path class="st0" d="M338.5,138.9c0,1.8-0.6,3.2-1.7,4.4c-1.1,1.1-2.6,1.7-4.4,1.7c-2,0-3.4-0.6-4.5-1.7s-1.6-2.6-1.6-4.4
	c0-1.9,0.6-3.4,1.7-4.5c1.1-1,2.6-1.6,4.4-1.6c1.9,0,3.4,0.6,4.5,1.7C338,135.7,338.5,137.1,338.5,138.9L338.5,138.9z"/>
<path class="st0" d="M326.4,151.1c0-1.8,0.6-3.2,1.7-4.4s2.6-1.7,4.4-1.7c1.9,0,3.4,0.6,4.5,1.7c1,1.1,1.6,2.6,1.6,4.4
	c0,1.9-0.6,3.4-1.7,4.5s-2.6,1.6-4.4,1.6c-2,0-3.4-0.6-4.5-1.7S326.4,152.9,326.4,151.1L326.4,151.1z"/>
<path class="st0" d="M350.6,54.3c0,1.8-0.6,3.2-1.7,4.4c-1.1,1.1-2.6,1.7-4.4,1.7c-2,0-3.4-0.6-4.5-1.7s-1.6-2.6-1.6-4.4
	c0-1.9,0.6-3.4,1.7-4.5s2.6-1.6,4.4-1.6c1.9,0,3.4,0.6,4.5,1.7S350.6,52.5,350.6,54.3z"/>
<path class="st0" d="M350.6,66.4c0,1.9-0.6,3.4-1.7,4.5c-1.1,1.1-2.6,1.6-4.4,1.6c-2,0-3.4-0.6-4.5-1.7s-1.6-2.6-1.6-4.4
	s0.6-3.2,1.7-4.4c1.1-1.1,2.6-1.7,4.4-1.7c1.9,0,3.4,0.6,4.5,1.7S350.6,64.6,350.6,66.4z"/>
<path class="st0" d="M350.6,78.6c0,1.9-0.6,3.4-1.7,4.5c-1.1,1.1-2.6,1.6-4.4,1.6c-2,0-3.4-0.6-4.5-1.7s-1.6-2.6-1.6-4.4
	s0.6-3.2,1.7-4.4c1.1-1.1,2.6-1.7,4.4-1.7c1.9,0,3.4,0.6,4.5,1.7S350.6,76.8,350.6,78.6z"/>
<path class="st0" d="M338.5,90.7c0-1.8,0.6-3.2,1.7-4.4s2.6-1.7,4.4-1.7c1.9,0,3.4,0.6,4.5,1.7s1.6,2.6,1.6,4.4
	c0,1.9-0.6,3.4-1.7,4.5c-1.1,1.1-2.6,1.6-4.4,1.6c-2,0-3.4-0.6-4.5-1.7S338.5,92.5,338.5,90.7z"/>
<path class="st0" d="M338.5,102.8c0-1.9,0.6-3.4,1.7-4.5c1.1-1,2.6-1.6,4.4-1.6c1.9,0,3.4,0.6,4.5,1.7s1.6,2.6,1.6,4.4
	s-0.6,3.2-1.7,4.4s-2.6,1.7-4.4,1.7c-2,0-3.4-0.6-4.5-1.7S338.5,104.6,338.5,102.8z"/>
<path class="st0" d="M350.6,126.8c0,1.9-0.6,3.4-1.7,4.5s-2.6,1.6-4.4,1.6c-2,0-3.4-0.6-4.5-1.7s-1.6-2.6-1.6-4.4s0.6-3.2,1.7-4.4
	s2.6-1.7,4.4-1.7c1.9,0,3.4,0.6,4.5,1.7S350.6,125,350.6,126.8L350.6,126.8z"/>
<path class="st0" d="M350.6,138.9c0,1.8-0.6,3.2-1.7,4.4s-2.6,1.7-4.4,1.7c-2,0-3.4-0.6-4.5-1.7s-1.6-2.6-1.6-4.4
	c0-1.9,0.6-3.4,1.7-4.5c1.1-1,2.6-1.6,4.4-1.6c1.9,0,3.4,0.6,4.5,1.7S350.6,137.1,350.6,138.9L350.6,138.9z"/>
<path class="st0" d="M356.7,72.5c-2,0-3.4-0.6-4.5-1.7s-1.6-2.6-1.6-4.4s0.6-3.2,1.7-4.4c1.1-1.1,2.6-1.7,4.4-1.7
	c1.9,0,3.4,0.6,4.5,1.7s1.6,2.6,1.6,4.4c0,1.9-0.6,3.4-1.7,4.5C359.9,72,358.5,72.5,356.7,72.5z"/>
<path class="st0" d="M356.7,84.6c-2,0-3.4-0.6-4.5-1.7s-1.6-2.6-1.6-4.4s0.6-3.2,1.7-4.4c1.1-1.1,2.6-1.7,4.4-1.7
	c1.9,0,3.4,0.6,4.5,1.7s1.6,2.6,1.6,4.4c0,1.9-0.6,3.4-1.7,4.5C359.9,84.1,358.5,84.6,356.7,84.6z"/>
<path class="st0" d="M350.6,90.7c0-1.8,0.6-3.2,1.7-4.4s2.6-1.7,4.4-1.7c1.9,0,3.4,0.6,4.5,1.7s1.6,2.6,1.6,4.4
	c0,1.9-0.6,3.4-1.7,4.5c-1.1,1.1-2.6,1.6-4.4,1.6c-2,0-3.4-0.6-4.5-1.7S350.6,92.5,350.6,90.7z"/>
<path class="st0" d="M350.6,102.8c0-1.8,0.6-3.2,1.7-4.4s2.6-1.7,4.4-1.7c1.9,0,3.4,0.6,4.5,1.7s1.6,2.6,1.6,4.4
	c0,1.9-0.6,3.4-1.7,4.5c-1.1,1.1-2.6,1.6-4.4,1.6c-2,0-3.4-0.6-4.5-1.7S350.6,104.6,350.6,102.8z"/>
<path class="st0" d="M356.7,132.9c-2,0-3.4-0.6-4.5-1.7s-1.6-2.6-1.6-4.4s0.6-3.2,1.7-4.4s2.6-1.7,4.4-1.7c1.9,0,3.4,0.6,4.5,1.7
	s1.6,2.6,1.6,4.4c0,2-0.6,3.4-1.7,4.5S358.5,132.9,356.7,132.9L356.7,132.9z"/>
<path class="st0" d="M387,42.2c0,1.8-0.6,3.2-1.7,4.4c-1.1,1.1-2.6,1.7-4.4,1.7c-2,0-3.4-0.6-4.5-1.7s-1.6-2.6-1.6-4.4
	c0-1.9,0.6-3.4,1.7-4.5c1.1-1,2.6-1.6,4.4-1.6c1.9,0,3.4,0.6,4.5,1.7S387,40.4,387,42.2z"/>
<path class="st0" d="M387,54.3c0,1.8-0.6,3.2-1.7,4.4c-1.1,1.1-2.6,1.7-4.4,1.7c-2,0-3.4-0.6-4.5-1.7s-1.6-2.6-1.6-4.4
	c0-1.9,0.6-3.4,1.7-4.5s2.6-1.6,4.4-1.6c1.9,0,3.4,0.6,4.5,1.7S387,52.5,387,54.3z"/>
<path class="st0" d="M387,126.8c0,1.8-0.6,3.3-1.7,4.4c-1.1,1.1-2.6,1.7-4.4,1.7c-2,0-3.4-0.6-4.5-1.7s-1.6-2.6-1.6-4.4
	c0-1.9,0.6-3.4,1.7-4.5c1.1-1,2.6-1.6,4.4-1.6c1.9,0,3.4,0.6,4.5,1.7S387,125,387,126.8z"/>
<path class="st0" d="M374.9,138.9c0-1.8,0.6-3.2,1.7-4.4s2.6-1.7,4.4-1.7c1.9,0,3.4,0.6,4.5,1.7s1.6,2.6,1.6,4.4
	c0,1.9-0.6,3.4-1.7,4.5s-2.6,1.6-4.4,1.6c-2,0-3.4-0.6-4.5-1.7S374.9,140.7,374.9,138.9L374.9,138.9z"/>
<path class="st0" d="M374.9,151.1c0-1.8,0.6-3.2,1.7-4.4c1.1-1.1,2.6-1.7,4.4-1.7c1.9,0,3.4,0.6,4.5,1.7s1.6,2.6,1.6,4.4
	c0,1.9-0.6,3.4-1.7,4.5s-2.6,1.6-4.4,1.6c-2,0-3.4-0.6-4.5-1.7S374.9,152.9,374.9,151.1L374.9,151.1z"/>
<path class="st0" d="M398.9,66.4c0,1.8-0.6,3.2-1.7,4.4c-1.1,1.1-2.6,1.7-4.4,1.7c-2,0-3.4-0.6-4.5-1.7s-1.6-2.6-1.6-4.4
	c0-1.9,0.6-3.4,1.7-4.5s2.6-1.6,4.4-1.6c1.9,0,3.4,0.6,4.5,1.7C398.3,63.2,398.9,64.6,398.9,66.4z"/>
<path class="st0" d="M398.9,78.6c0,1.8-0.6,3.2-1.7,4.4c-1.1,1.1-2.6,1.7-4.4,1.7c-2,0-3.4-0.6-4.5-1.7s-1.6-2.6-1.6-4.4
	c0-1.9,0.6-3.4,1.7-4.5c1.1-1,2.6-1.6,4.4-1.6c1.9,0,3.4,0.6,4.5,1.7C398.3,75.3,398.9,76.8,398.9,78.6z"/>
<path class="st0" d="M392.8,120.8c-2,0-3.4-0.6-4.5-1.7s-1.6-2.6-1.6-4.4c0-1.9,0.6-3.4,1.7-4.5c1.1-1.1,2.6-1.6,4.4-1.6
	c1.9,0,3.4,0.6,4.5,1.7c1,1.1,1.6,2.6,1.6,4.4s-0.6,3.2-1.7,4.4C396.1,120.2,394.6,120.8,392.8,120.8z"/>
<path class="st0" d="M398.9,42.4c0,3.9-2,5.8-5.8,5.8c-1.8,0-3.2-0.5-4.4-1.6c-1.1-1-1.7-2.5-1.7-4.3c0-4.2,1.9-6.3,5.8-6.3
	c1.8,0,3.2,0.5,4.4,1.6c1.1,1,1.7,2.5,1.7,4.3V42.4z"/>
<path class="st0" d="M398.9,54.5c0,3.9-2,5.8-5.8,5.8c-1.8,0-3.2-0.5-4.4-1.6c-1.1-1-1.7-2.5-1.7-4.3c0-4.2,1.9-6.3,5.8-6.3
	c1.8,0,3.2,0.5,4.4,1.6c1.1,1,1.7,2.5,1.7,4.3V54.5z"/>
<path class="st0" d="M398.9,127c0,3.9-2,5.8-5.8,5.8c-1.8,0-3.2-0.5-4.4-1.6c-1.1-1.1-1.7-2.5-1.7-4.3c0-4.2,1.9-6.3,5.8-6.3
	c1.8,0,3.2,0.5,4.4,1.6c1.1,1.1,1.7,2.5,1.7,4.3V127L398.9,127z"/>
<path class="st0" d="M387,138.7c0-3.9,1.9-5.8,5.8-5.8c1.8,0,3.2,0.5,4.4,1.6c1.1,1.1,1.7,2.5,1.7,4.3c0,4.2-2,6.3-5.8,6.3
	c-1.8,0-3.2-0.5-4.4-1.6c-1.1-1.1-1.7-2.5-1.7-4.3V138.7z"/>
<path class="st0" d="M387,150.8c0-3.9,1.9-5.8,5.8-5.8c1.8,0,3.2,0.5,4.4,1.6c1.1,1.1,1.7,2.5,1.7,4.3c0,4.2-2,6.3-5.8,6.3
	c-1.8,0-3.2-0.5-4.4-1.6c-1.1-1-1.7-2.5-1.7-4.3V150.8z"/>
<path class="st0" d="M411,66.4c0,1.8-0.6,3.2-1.7,4.4c-1.1,1.1-2.6,1.7-4.4,1.7c-2,0-3.4-0.6-4.5-1.7s-1.6-2.6-1.6-4.4
	c0-1.9,0.6-3.4,1.7-4.5s2.6-1.6,4.4-1.6c1.9,0,3.4,0.6,4.5,1.7S411,64.6,411,66.4z"/>
<path class="st0" d="M411,78.5c0,1.8-0.6,3.2-1.7,4.4c-1.1,1.1-2.6,1.7-4.4,1.7c-2,0-3.4-0.6-4.5-1.7s-1.6-2.6-1.6-4.4
	c0-1.9,0.6-3.4,1.7-4.5c1.1-1,2.6-1.6,4.4-1.6c1.9,0,3.4,0.6,4.5,1.7S411,76.7,411,78.5z"/>
<path class="st0" d="M404.9,96.7c-2,0-3.4-0.6-4.5-1.7s-1.6-2.6-1.6-4.4c0-1.9,0.6-3.4,1.7-4.5c1.1-1,2.6-1.6,4.4-1.6
	c1.9,0,3.4,0.6,4.5,1.7s1.6,2.6,1.6,4.4s-0.6,3.2-1.7,4.4S406.7,96.7,404.9,96.7z"/>
<path class="st0" d="M411,102.8c0,3.9-2,5.8-5.8,5.8c-4.2,0-6.3-1.9-6.3-5.8c0-1.8,0.5-3.2,1.6-4.4c1-1.1,2.5-1.7,4.3-1.7
	c4.2,0,6.3,1.9,6.3,5.8L411,102.8L411,102.8z"/>
<path class="st0" d="M398.9,114.7c0-1.9,0.6-3.4,1.7-4.5c1.1-1.1,2.6-1.6,4.4-1.6c1.9,0,3.4,0.6,4.5,1.7s1.6,2.6,1.6,4.4
	s-0.6,3.2-1.7,4.4c-1.1,1.1-2.6,1.7-4.4,1.7c-2,0-3.4-0.6-4.5-1.7S398.9,116.5,398.9,114.7z"/>
<path class="st0" d="M411,126.8c0,1.8-0.6,3.3-1.7,4.4s-2.6,1.7-4.4,1.7c-2,0-3.4-0.6-4.5-1.7s-1.6-2.6-1.6-4.4
	c0-1.9,0.6-3.4,1.7-4.5c1.1-1,2.6-1.6,4.4-1.6c1.9,0,3.4,0.6,4.5,1.7S411,125,411,126.8z"/>
<path class="st0" d="M423.1,78.5c0,1.8-0.6,3.2-1.7,4.4s-2.6,1.7-4.4,1.7c-2,0-3.4-0.6-4.5-1.7s-1.6-2.6-1.6-4.4
	c0-1.9,0.6-3.4,1.7-4.5c1.1-1,2.6-1.6,4.4-1.6c1.9,0,3.4,0.6,4.5,1.7S423.1,76.7,423.1,78.5z"/>
<path class="st0" d="M411,90.7c0-1.9,0.6-3.4,1.7-4.5c1.1-1,2.6-1.6,4.4-1.6c1.9,0,3.4,0.6,4.5,1.7s1.6,2.6,1.6,4.4
	s-0.6,3.2-1.7,4.4c-1.1,1.1-2.6,1.7-4.4,1.7c-2,0-3.4-0.6-4.5-1.7S411,92.5,411,90.7z"/>
<path class="st0" d="M411,102.8c0-1.8,0.5-3.2,1.6-4.4c1-1.1,2.5-1.7,4.3-1.7c4.2,0,6.3,1.9,6.3,5.8v0.2c0,3.9-2,5.8-5.8,5.8
	C413.1,108.6,411,106.7,411,102.8L411,102.8z"/>
<path class="st0" d="M435.2,78.5c0,1.8-0.6,3.2-1.7,4.4s-2.6,1.7-4.4,1.7c-2,0-3.4-0.6-4.5-1.7s-1.6-2.6-1.6-4.4
	c0-1.9,0.6-3.4,1.7-4.5c1.1-1,2.6-1.6,4.4-1.6c1.9,0,3.4,0.6,4.5,1.7C434.7,75.3,435.2,76.8,435.2,78.5z"/>
<path class="st0" d="M423.1,90.7c0-1.9,0.6-3.4,1.7-4.5c1.1-1,2.6-1.6,4.4-1.6c1.9,0,3.4,0.6,4.5,1.7c1,1.1,1.6,2.6,1.6,4.4
	s-0.6,3.2-1.7,4.4c-1.1,1.1-2.6,1.7-4.4,1.7c-2,0-3.4-0.6-4.5-1.7S423.1,92.5,423.1,90.7z"/>
<path class="st0" d="M423.1,102.8c0-1.8,0.5-3.2,1.6-4.4c1-1.1,2.5-1.7,4.3-1.7c4.2,0,6.3,1.9,6.3,5.8v0.2c0,3.9-2,5.8-5.8,5.8
	C425.2,108.6,423.1,106.7,423.1,102.8z"/>
<path class="st0" d="M441.3,72.5c-2,0-3.4-0.6-4.5-1.7s-1.6-2.6-1.6-4.4c0-1.9,0.6-3.4,1.7-4.5s2.6-1.6,4.4-1.6
	c1.9,0,3.4,0.6,4.5,1.7c1,1.1,1.6,2.6,1.6,4.4s-0.6,3.2-1.7,4.4C444.5,71.9,443.1,72.5,441.3,72.5z"/>
<path class="st0" d="M441.3,84.6c-2,0-3.4-0.6-4.5-1.7s-1.6-2.6-1.6-4.4c0-1.9,0.6-3.4,1.7-4.5c1.1-1,2.6-1.6,4.4-1.6
	c1.9,0,3.4,0.6,4.5,1.7c1,1.1,1.6,2.6,1.6,4.4s-0.6,3.2-1.7,4.4C444.5,84.1,443.1,84.6,441.3,84.6z"/>
<path class="st0" d="M435.2,90.7c0-1.9,0.6-3.4,1.7-4.5c1.1-1,2.6-1.6,4.4-1.6c1.9,0,3.4,0.6,4.5,1.7c1,1.1,1.6,2.6,1.6,4.4
	s-0.6,3.2-1.7,4.4c-1.1,1.1-2.6,1.7-4.4,1.7c-2,0-3.4-0.6-4.5-1.7S435.2,92.5,435.2,90.7z"/>
<path class="st0" d="M435.2,102.8c0-1.8,0.5-3.2,1.6-4.4c1-1.1,2.5-1.7,4.3-1.7c4.2,0,6.3,1.9,6.3,5.8v0.2c0,3.9-2,5.8-5.8,5.8
	C437.3,108.6,435.2,106.7,435.2,102.8L435.2,102.8z"/>
<path class="st0" d="M447.3,114.7c0,1.8-0.6,3.2-1.7,4.4c-1.1,1.1-2.6,1.7-4.4,1.7c-2,0-3.4-0.6-4.5-1.7s-1.6-2.6-1.6-4.4
	c0-1.9,0.6-3.4,1.7-4.5c1.1-1.1,2.6-1.6,4.4-1.6c1.9,0,3.4,0.6,4.5,1.7C446.8,111.4,447.3,112.9,447.3,114.7z"/>
<path class="st0" d="M447.3,126.8c0,1.8-0.6,3.2-1.7,4.4c-1.1,1.1-2.6,1.7-4.4,1.7c-2,0-3.4-0.6-4.5-1.7s-1.6-2.6-1.6-4.4
	c0-1.9,0.6-3.4,1.7-4.5c1.1-1,2.6-1.6,4.4-1.6c1.9,0,3.4,0.6,4.5,1.7C446.8,123.6,447.3,125,447.3,126.8z"/>
<path class="st0" d="M447.3,42.2c0-1.8,0.6-3.2,1.7-4.4s2.6-1.7,4.4-1.7c1.9,0,3.4,0.6,4.5,1.7s1.6,2.6,1.6,4.4c0,2-0.6,3.4-1.7,4.5
	s-2.6,1.6-4.4,1.6c-2,0-3.4-0.6-4.5-1.7S447.3,44,447.3,42.2z"/>
<path class="st0" d="M459.5,54.3c0,1.8-0.6,3.2-1.7,4.4c-1.1,1.1-2.6,1.7-4.4,1.7c-2,0-3.4-0.6-4.5-1.7s-1.6-2.6-1.6-4.4
	c0-1.9,0.6-3.4,1.7-4.5c1.1-1,2.6-1.6,4.4-1.6c1.9,0,3.4,0.6,4.5,1.7S459.5,52.5,459.5,54.3z"/>
<path class="st0" d="M447.3,66.4c0-1.9,0.6-3.4,1.7-4.5s2.6-1.6,4.4-1.6c1.9,0,3.4,0.6,4.5,1.7s1.6,2.6,1.6,4.4s-0.6,3.2-1.7,4.4
	c-1.1,1.1-2.6,1.7-4.4,1.7c-2,0-3.4-0.6-4.5-1.7S447.3,68.2,447.3,66.4z"/>
<path class="st0" d="M447.3,78.6c0-1.9,0.6-3.4,1.7-4.5c1.1-1,2.6-1.6,4.4-1.6c1.9,0,3.4,0.6,4.5,1.7s1.6,2.6,1.6,4.4
	s-0.6,3.2-1.7,4.4c-1.1,1.1-2.6,1.7-4.4,1.7c-2,0-3.4-0.6-4.5-1.7S447.3,80.4,447.3,78.6z"/>
<path class="st0" d="M459.5,114.7c0,1.8-0.6,3.2-1.7,4.4c-1.1,1.1-2.6,1.7-4.4,1.7c-2,0-3.4-0.6-4.5-1.7s-1.6-2.6-1.6-4.4
	c0-1.9,0.6-3.4,1.7-4.5c1.1-1.1,2.6-1.6,4.4-1.6c1.9,0,3.4,0.6,4.5,1.7S459.5,112.9,459.5,114.7z"/>
<path class="st0" d="M459.5,126.8c0,1.8-0.6,3.2-1.7,4.4s-2.6,1.7-4.4,1.7c-2,0-3.4-0.6-4.5-1.7s-1.6-2.6-1.6-4.4
	c0-1.9,0.6-3.4,1.7-4.5c1.1-1,2.6-1.6,4.4-1.6c1.9,0,3.4,0.6,4.5,1.7S459.5,125,459.5,126.8z"/>
<path class="st0" d="M447.3,138.9c0-1.8,0.6-3.2,1.7-4.4s2.6-1.7,4.4-1.7c1.9,0,3.4,0.6,4.5,1.7s1.6,2.6,1.6,4.4
	c0,1.9-0.6,3.4-1.7,4.5s-2.6,1.6-4.4,1.6c-2,0-3.4-0.6-4.5-1.7S447.3,140.7,447.3,138.9L447.3,138.9z"/>
<path class="st0" d="M447.3,151.1c0-1.8,0.6-3.2,1.7-4.4c1.1-1.1,2.6-1.7,4.4-1.7c1.9,0,3.4,0.6,4.5,1.7s1.6,2.6,1.6,4.4
	c0,1.9-0.6,3.4-1.7,4.5s-2.6,1.6-4.4,1.6c-2,0-3.4-0.6-4.5-1.7S447.3,152.9,447.3,151.1L447.3,151.1z"/>
<path class="st0" d="M459.5,42c0-3.9,1.9-5.8,5.8-5.8c1.8,0,3.2,0.5,4.4,1.6c1.1,1,1.7,2.5,1.7,4.3c0,4.2-2,6.3-5.8,6.3
	c-1.8,0-3.2-0.5-4.4-1.6c-1.1-1-1.7-2.5-1.7-4.3V42z"/>
<path class="st0" d="M471.4,54.5c0,3.9-2,5.8-5.8,5.8c-1.8,0-3.2-0.5-4.4-1.6c-1.1-1-1.7-2.5-1.7-4.3c0-4.2,1.9-6.3,5.8-6.3
	c1.8,0,3.2,0.5,4.4,1.6c1.1,1,1.7,2.5,1.7,4.3C471.4,54.1,471.4,54.5,471.4,54.5z"/>
<path class="st0" d="M471.4,127c0,3.9-2,5.8-5.8,5.8c-1.8,0-3.2-0.5-4.4-1.6c-1.1-1.1-1.7-2.5-1.7-4.3c0-4.2,1.9-6.3,5.8-6.3
	c1.8,0,3.2,0.5,4.4,1.6c1.1,1.1,1.7,2.5,1.7,4.3C471.4,126.6,471.4,127,471.4,127z"/>
<path class="st0" d="M459.5,138.7c0-3.9,1.9-5.8,5.8-5.8c1.8,0,3.2,0.5,4.4,1.6c1.1,1.1,1.7,2.5,1.7,4.3c0,4.2-2,6.3-5.8,6.3
	c-1.8,0-3.2-0.5-4.4-1.6c-1.1-1.1-1.7-2.5-1.7-4.3V138.7z"/>
<path class="st0" d="M459.5,150.8c0-3.9,1.9-5.8,5.8-5.8c1.8,0,3.2,0.5,4.4,1.6c1.1,1.1,1.7,2.5,1.7,4.3c0,4.2-2,6.3-5.8,6.3
	c-1.8,0-3.2-0.5-4.4-1.6c-1.1-1-1.7-2.5-1.7-4.3V150.8z"/>
</svg>
