<?xml version="1.0" encoding="utf-8"?>
<!-- Generator: Adobe Illustrator 28.0.0, SVG Export Plug-In . SVG Version: 6.00 Build 0)  -->
<svg version="1.1" id="Calque_1" xmlns="http://www.w3.org/2000/svg" xmlns:xlink="http://www.w3.org/1999/xlink" x="0px" y="0px"
	 viewBox="0 0 496.1 157.1" style="enable-background:new 0 0 496.1 157.1;" xml:space="preserve">
<style type="text/css">
	.st0{fill:#DBFAFF;}
</style>
<path class="st0" d="M0,6.1c0-1.8,0.5-3.2,1.6-4.4C2.6,0.6,4.1,0,6.1,0c1.8,0,3.2,0.5,4.4,1.6c1.1,1,1.7,2.5,1.7,4.5
	c0,1.8-0.5,3.2-1.6,4.4c-1.1,1.1-2.6,1.7-4.5,1.7c-1.8,0-3.2-0.6-4.4-1.7S0,7.9,0,6.1z"/>
<path class="st0" d="M12.1,18.2c0,1.8-0.5,3.2-1.6,4.4c-1.1,1.1-2.6,1.7-4.5,1.7c-1.8,0-3.2-0.5-4.4-1.6c-1.1-1-1.7-2.5-1.7-4.5
	c0-1.8,0.5-3.2,1.6-4.4c1-1.1,2.5-1.7,4.5-1.7c1.8,0,3.2,0.6,4.4,1.7C11.6,14.9,12.1,16.4,12.1,18.2z"/>
<path class="st0" d="M12.1,30.3c0,1.8-0.5,3.2-1.6,4.4c-1.1,1.1-2.6,1.7-4.5,1.7c-1.8,0-3.2-0.5-4.4-1.6c-1.1-1-1.7-2.5-1.7-4.5
	c0-1.8,0.5-3.2,1.6-4.4c1-1.1,2.5-1.7,4.5-1.7c1.8,0,3.2,0.6,4.4,1.7S12.1,28.5,12.1,30.3z"/>
<path class="st0" d="M12.1,42.4c0,3.9-2.1,5.8-6.3,5.8c-1.8,0-3.2-0.6-4.3-1.7S0,44,0,42.2c0-3.9,2.1-5.8,6.3-5.8
	c3.9,0,5.8,2,5.8,5.8L12.1,42.4L12.1,42.4z"/>
<path class="st0" d="M6.1,60.4c-1.8,0-3.2-0.5-4.4-1.6c-1.1-1-1.7-2.5-1.7-4.5c0-1.8,0.5-3.2,1.6-4.4c1-1.1,2.5-1.7,4.5-1.7
	c1.8,0,3.2,0.6,4.4,1.7c1.1,1.1,1.7,2.6,1.7,4.4s-0.5,3.2-1.6,4.4C9.5,59.8,8,60.4,6.1,60.4z"/>
<path class="st0" d="M6.1,72.5c-1.8,0-3.2-0.5-4.4-1.6c-1.1-1-1.7-2.5-1.7-4.5c0-1.8,0.5-3.2,1.6-4.4c1-1.1,2.5-1.7,4.5-1.7
	c1.8,0,3.2,0.6,4.4,1.7s1.7,2.6,1.7,4.4s-0.5,3.2-1.6,4.4C9.5,71.9,8,72.5,6.1,72.5z"/>
<path class="st0" d="M6.1,84.6c-1.8,0-3.2-0.5-4.4-1.6C0.6,82,0,80.5,0,78.6c0-1.8,0.5-3.2,1.6-4.4c1-1.1,2.5-1.7,4.5-1.7
	c1.8,0,3.2,0.6,4.4,1.7s1.7,2.6,1.7,4.4s-0.5,3.2-1.6,4.4C9.5,84.1,8,84.6,6.1,84.6z"/>
<path class="st0" d="M12.1,90.7c0,1.8-0.5,3.2-1.6,4.4c-1.1,1.1-2.6,1.7-4.5,1.7c-1.8,0-3.2-0.5-4.4-1.6C0.6,94.1,0,92.6,0,90.7
	c0-1.8,0.5-3.2,1.6-4.4c1-1.1,2.5-1.7,4.5-1.7c1.8,0,3.2,0.6,4.4,1.7C11.6,87.4,12.1,88.9,12.1,90.7z"/>
<path class="st0" d="M6.1,108.9c-1.8,0-3.2-0.5-4.4-1.6c-1.1-1.1-1.7-2.5-1.7-4.5c0-1.8,0.5-3.2,1.6-4.4c1-1.1,2.5-1.7,4.5-1.7
	c1.8,0,3.2,0.6,4.4,1.7c1.1,1.1,1.7,2.6,1.7,4.4s-0.5,3.2-1.6,4.4C9.5,108.3,8,108.9,6.1,108.9z"/>
<path class="st0" d="M12.1,114.9c0,3.9-2.1,5.8-6.3,5.8c-1.8,0-3.2-0.6-4.3-1.7S0,116.5,0,114.7c0-3.9,2.1-5.8,6.3-5.8
	c3.9,0,5.8,1.9,5.8,5.8L12.1,114.9L12.1,114.9z"/>
<path class="st0" d="M6.1,132.9c-1.8,0-3.2-0.5-4.4-1.6c-1.1-1.1-1.7-2.5-1.7-4.5c0-1.8,0.5-3.2,1.6-4.4c1-1.1,2.5-1.7,4.5-1.7
	c1.8,0,3.2,0.6,4.4,1.7c1.1,1.1,1.7,2.6,1.7,4.4s-0.5,3.3-1.6,4.4C9.5,132.3,8,132.9,6.1,132.9L6.1,132.9z"/>
<path class="st0" d="M6.1,145c-1.8,0-3.2-0.5-4.4-1.6c-1.1-1.1-1.7-2.5-1.7-4.5c0-1.8,0.5-3.2,1.6-4.4c1-1.1,2.5-1.7,4.5-1.7
	c1.8,0,3.2,0.6,4.4,1.7c1.1,1.1,1.7,2.6,1.7,4.4s-0.5,3.2-1.6,4.4C9.5,144.4,8,145,6.1,145L6.1,145z"/>
<path class="st0" d="M0,151.1c0-1.8,0.5-3.2,1.6-4.4c1-1.1,2.5-1.7,4.5-1.7c1.8,0,3.2,0.5,4.4,1.6c1.1,1.1,1.7,2.6,1.7,4.5
	c0,1.8-0.5,3.2-1.6,4.4c-1.1,1.1-2.6,1.7-4.5,1.7c-1.8,0-3.2-0.6-4.4-1.7C0.6,154.3,0,152.9,0,151.1L0,151.1z"/>
<path class="st0" d="M12.1,5.8c0-1.8,0.6-3.2,1.7-4.3c1.1-1,2.6-1.6,4.4-1.6C22.1,0,24,2.1,24,6.3c0,1.8-0.6,3.2-1.7,4.3
	s-2.6,1.6-4.4,1.6c-3.9,0-5.8-1.9-5.8-5.8C12.1,6.3,12.1,5.8,12.1,5.8z"/>
<path class="st0" d="M36.1,18.2c0,1.8-0.5,3.2-1.6,4.4c-1,1.1-2.5,1.7-4.5,1.7c-3.4,0-5.4-1.6-5.8-4.7c-0.8,3.1-2.8,4.7-6.1,4.7
	c-1.8,0-3.2-0.5-4.4-1.6c-1.1-1-1.7-2.5-1.7-4.5c0-1.8,0.5-3.2,1.6-4.4c1.1-1.1,2.5-1.7,4.5-1.7c3.4,0,5.4,1.6,5.8,4.7
	c0.8-3.1,2.8-4.7,6.1-4.7c1.8,0,3.3,0.5,4.4,1.6C35.6,14.8,36.1,16.2,36.1,18.2z"/>
<path class="st0" d="M24.2,30.3c0,1.8-0.5,3.2-1.6,4.4c-1,1.1-2.5,1.7-4.5,1.7c-1.8,0-3.2-0.5-4.4-1.6c-1.1-1-1.7-2.5-1.7-4.5
	c0-1.8,0.5-3.2,1.6-4.4c1.1-1.1,2.5-1.7,4.5-1.7c1.8,0,3.2,0.6,4.4,1.7S24.2,28.5,24.2,30.3z"/>
<path class="st0" d="M24.2,42.4c0,3.9-2.1,5.8-6.3,5.8c-1.8,0-3.2-0.6-4.3-1.7s-1.6-2.6-1.6-4.4c0-3.9,2.1-5.8,6.3-5.8
	c3.9,0,5.8,2,5.8,5.8C24.2,42.2,24.2,42.4,24.2,42.4z"/>
<path class="st0" d="M12.1,54.3c0-1.8,0.5-3.2,1.6-4.4c1.1-1.1,2.5-1.7,4.5-1.7c1.8,0,3.2,0.6,4.4,1.7c1.1,1.1,1.7,2.6,1.7,4.4
	s-0.5,3.2-1.6,4.4c-1,1.1-2.5,1.7-4.5,1.7c-1.8,0-3.2-0.5-4.4-1.6C12.7,57.8,12.1,56.3,12.1,54.3z"/>
<path class="st0" d="M12.1,66.5c0-1.8,0.5-3.2,1.6-4.4c1.1-1.1,2.5-1.7,4.5-1.7c1.8,0,3.2,0.6,4.4,1.7s1.7,2.6,1.7,4.4
	s-0.5,3.2-1.6,4.4c-1,1.1-2.5,1.7-4.5,1.7c-1.8,0-3.2-0.5-4.4-1.6C12.7,69.9,12.1,68.4,12.1,66.5z"/>
<path class="st0" d="M12.1,78.6c0-1.8,0.5-3.2,1.6-4.4c1.1-1.1,2.5-1.7,4.5-1.7c3.4,0,5.4,1.6,5.8,4.7c0.8-3.1,2.8-4.7,6.1-4.7
	c1.8,0,3.3,0.6,4.4,1.7c1.1,1.1,1.7,2.6,1.7,4.4s-0.5,3.2-1.6,4.4c-1,1.1-2.5,1.7-4.5,1.7c-3.3,0-5.3-1.6-6.1-4.7
	c-0.5,3.1-2.4,4.7-5.8,4.7c-1.8,0-3.2-0.5-4.4-1.6C12.7,82,12.1,80.5,12.1,78.6z"/>
<path class="st0" d="M24,90.9c0,1.8-0.6,3.2-1.7,4.3c-1.1,1.1-2.6,1.6-4.4,1.6c-3.9,0-5.8-2.1-5.8-6.3c0-1.8,0.6-3.2,1.7-4.3
	c1.1-1,2.6-1.6,4.4-1.6c3.9,0,5.8,1.9,5.8,5.8C24,90.5,24,90.9,24,90.9z"/>
<path class="st0" d="M12.1,102.8c0-1.8,0.5-3.2,1.6-4.4c1.1-1.1,2.5-1.7,4.5-1.7c1.8,0,3.2,0.6,4.4,1.7c1.1,1.1,1.7,2.6,1.7,4.4
	s-0.5,3.2-1.6,4.4c-1,1.1-2.5,1.7-4.5,1.7c-1.8,0-3.2-0.5-4.4-1.6C12.7,106.3,12.1,104.8,12.1,102.8z"/>
<path class="st0" d="M24.2,114.9c0,3.9-2.1,5.8-6.3,5.8c-1.8,0-3.2-0.6-4.3-1.7s-1.6-2.6-1.6-4.4c0-3.9,2.1-5.8,6.3-5.8
	c3.9,0,5.8,1.9,5.8,5.8C24.2,114.7,24.2,114.9,24.2,114.9z"/>
<path class="st0" d="M12.1,126.8c0-1.8,0.5-3.2,1.6-4.4c1.1-1.1,2.5-1.7,4.5-1.7c1.8,0,3.2,0.6,4.4,1.7c1.1,1.1,1.7,2.6,1.7,4.4
	c0,1.8-0.5,3.2-1.6,4.4c-1,1.1-2.5,1.7-4.5,1.7c-1.8,0-3.2-0.5-4.4-1.6C12.7,130.3,12.1,128.8,12.1,126.8z"/>
<path class="st0" d="M12.1,139c0-1.8,0.5-3.2,1.6-4.4c1.1-1.1,2.5-1.7,4.5-1.7c1.8,0,3.2,0.6,4.4,1.7c1.1,1.1,1.7,2.6,1.7,4.4
	s-0.5,3.2-1.6,4.4c-1,1.1-2.5,1.7-4.5,1.7c-1.8,0-3.2-0.5-4.4-1.6C12.7,142.4,12.1,140.9,12.1,139L12.1,139z"/>
<path class="st0" d="M12.1,151.1c0-1.8,0.5-3.2,1.6-4.4c1.1-1.1,2.5-1.7,4.5-1.7c1.8,0,3.2,0.5,4.4,1.6c1.1,1.1,1.7,2.6,1.7,4.5
	c0,1.8-0.5,3.2-1.6,4.4c-1,1.1-2.5,1.7-4.5,1.7c-1.8,0-3.2-0.6-4.4-1.7S12.1,152.9,12.1,151.1L12.1,151.1z"/>
<path class="st0" d="M24,6.1c0-1.8,0.5-3.2,1.6-4.4c1-1.1,2.5-1.7,4.5-1.7c1.8,0,3.3,0.5,4.4,1.6c1.1,1,1.7,2.5,1.7,4.5
	c0,1.8-0.5,3.2-1.6,4.4c-1,1.1-2.5,1.7-4.5,1.7c-1.8,0-3.2-0.6-4.4-1.7S24,7.9,24,6.1z"/>
<path class="st0" d="M30.1,96.8c-1.8,0-3.2-0.5-4.4-1.6c-1.1-1.1-1.7-2.5-1.7-4.5c0-1.8,0.5-3.2,1.6-4.4c1-1.1,2.5-1.7,4.5-1.7
	c1.8,0,3.3,0.6,4.4,1.7s1.7,2.6,1.7,4.4s-0.5,3.2-1.6,4.4C33.5,96.2,32,96.8,30.1,96.8z"/>
<path class="st0" d="M36.1,6.1c0-1.8,0.5-3.2,1.6-4.4c1-1.1,2.5-1.7,4.5-1.7c1.8,0,3.2,0.5,4.4,1.6c1.1,1,1.7,2.5,1.7,4.5
	c0,1.8-0.5,3.2-1.6,4.4c-1,1.1-2.5,1.7-4.5,1.7c-1.8,0-3.2-0.6-4.4-1.7S36.1,7.9,36.1,6.1z"/>
<path class="st0" d="M48.3,18.2c0,1.8-0.5,3.2-1.6,4.4c-1,1.1-2.5,1.7-4.5,1.7c-1.8,0-3.2-0.6-4.4-1.7c-1.1-1.1-1.7-2.6-1.7-4.4
	s0.5-3.2,1.6-4.4c1-1.1,2.5-1.7,4.5-1.7c1.8,0,3.2,0.5,4.4,1.6C47.7,14.7,48.3,16.2,48.3,18.2z"/>
<path class="st0" d="M36.1,78.6c0-1.8,0.5-3.2,1.6-4.4c1-1.1,2.5-1.7,4.5-1.7c1.8,0,3.2,0.6,4.4,1.7s1.7,2.6,1.7,4.4
	s-0.5,3.2-1.6,4.4c-1,1.1-2.5,1.7-4.5,1.7c-1.8,0-3.2-0.5-4.4-1.6C36.7,82,36.1,80.5,36.1,78.6z"/>
<path class="st0" d="M36.1,90.7c0-1.8,0.5-3.2,1.6-4.4c1-1.1,2.5-1.7,4.5-1.7c1.8,0,3.2,0.6,4.4,1.7c1.1,1.1,1.7,2.6,1.7,4.4
	s-0.5,3.2-1.6,4.4c-1,1.1-2.5,1.7-4.5,1.7c-1.8,0-3.2-0.5-4.4-1.6C36.7,94.1,36.1,92.6,36.1,90.7z"/>
<path class="st0" d="M48.3,6.1c0-1.8,0.5-3.2,1.6-4.4c1-1.1,2.5-1.7,4.5-1.7c1.8,0,3.2,0.5,4.4,1.6c1.1,1,1.7,2.5,1.7,4.5
	c0,1.8-0.5,3.2-1.6,4.4c-1,1.1-2.5,1.7-4.5,1.7c-1.8,0-3.2-0.6-4.4-1.7C48.8,9.3,48.3,7.9,48.3,6.1z"/>
<path class="st0" d="M60.4,18.2c0,1.8-0.5,3.2-1.6,4.4c-1,1.1-2.5,1.7-4.5,1.7c-1.8,0-3.2-0.6-4.4-1.7c-1.1-1.1-1.7-2.6-1.7-4.4
	s0.5-3.2,1.6-4.4c1-1.1,2.5-1.7,4.5-1.7c1.8,0,3.2,0.5,4.4,1.6C59.8,14.7,60.4,16.2,60.4,18.2z"/>
<path class="st0" d="M48.3,78.6c0-1.8,0.5-3.2,1.6-4.4c1-1.1,2.5-1.7,4.5-1.7c1.8,0,3.2,0.6,4.4,1.7s1.7,2.6,1.7,4.4
	s-0.5,3.2-1.6,4.4c-1,1.1-2.5,1.7-4.5,1.7c-1.8,0-3.2-0.5-4.4-1.6C48.8,82,48.3,80.5,48.3,78.6z"/>
<path class="st0" d="M48.3,90.7c0-1.8,0.5-3.2,1.6-4.4c1-1.1,2.5-1.7,4.5-1.7c1.8,0,3.2,0.6,4.4,1.7c1.1,1.1,1.7,2.6,1.7,4.4
	s-0.5,3.2-1.6,4.4c-1,1.1-2.5,1.7-4.5,1.7c-1.8,0-3.2-0.5-4.4-1.6C48.8,94.1,48.3,92.6,48.3,90.7z"/>
<path class="st0" d="M60.4,6.1c0-1.8,0.5-3.2,1.6-4.4C63,0.6,64.5,0,66.4,0c1.8,0,3.2,0.5,4.4,1.6c1.1,1,1.7,2.5,1.7,4.5
	c0,1.8-0.5,3.2-1.6,4.4c-1.1,1.1-2.6,1.7-4.5,1.7c-1.8,0-3.2-0.6-4.4-1.7C60.9,9.3,60.4,7.9,60.4,6.1z"/>
<path class="st0" d="M72.5,18.2c0,1.8-0.5,3.2-1.6,4.4c-1.1,1.1-2.6,1.7-4.5,1.7c-1.8,0-3.2-0.6-4.4-1.7c-1.1-1.1-1.7-2.6-1.7-4.4
	s0.5-3.2,1.6-4.4c1-1.1,2.5-1.7,4.5-1.7c1.8,0,3.2,0.5,4.4,1.6C71.9,14.7,72.5,16.2,72.5,18.2z"/>
<path class="st0" d="M60.4,78.6c0-1.8,0.5-3.2,1.6-4.4c1-1.1,2.5-1.7,4.5-1.7c1.8,0,3.2,0.6,4.4,1.7c1.1,1.1,1.7,2.6,1.7,4.4
	s-0.5,3.2-1.6,4.4c-1.1,1.1-2.6,1.7-4.5,1.7c-1.8,0-3.2-0.5-4.4-1.6C60.9,82,60.4,80.5,60.4,78.6z"/>
<path class="st0" d="M60.4,90.7c0-1.8,0.5-3.2,1.6-4.4c1-1.1,2.5-1.7,4.5-1.7c1.8,0,3.2,0.6,4.4,1.7c1.1,1.1,1.7,2.6,1.7,4.4
	s-0.5,3.2-1.6,4.4c-1.1,1.1-2.6,1.7-4.5,1.7c-1.8,0-3.2-0.5-4.4-1.6C60.9,94.1,60.4,92.6,60.4,90.7z"/>
<path class="st0" d="M84.4,102.8c0,1.8-0.5,3.2-1.6,4.4c-1.1,1.1-2.6,1.7-4.5,1.7c-1.8,0-3.2-0.5-4.4-1.6c-1.1-1.1-1.7-2.5-1.7-4.5
	c0-1.8,0.5-3.2,1.6-4.4c1.1-1.1,2.5-1.7,4.5-1.7c1.8,0,3.2,0.6,4.4,1.7C83.8,99.5,84.4,101,84.4,102.8z"/>
<path class="st0" d="M72.5,6.1c0-1.8,0.5-3.2,1.6-4.4c1-1.1,2.5-1.7,4.5-1.7c1.8,0,3.2,0.5,4.4,1.6c1.1,1,1.7,2.5,1.7,4.5
	c0,1.8-0.5,3.2-1.6,4.4c-1.1,1.1-2.6,1.7-4.5,1.7c-1.8,0-3.2-0.6-4.4-1.7S72.5,7.9,72.5,6.1z"/>
<path class="st0" d="M96.5,18.2c0,1.8-0.5,3.2-1.6,4.4c-1.1,1.1-2.6,1.7-4.5,1.7c-3.3,0-5.3-1.6-6.1-4.7c-0.4,3.1-2.4,4.7-5.8,4.7
	c-1.8,0-3.2-0.6-4.4-1.7c-1.1-1.1-1.7-2.6-1.7-4.4s0.5-3.2,1.6-4.4c1-1.1,2.5-1.7,4.5-1.7c3.3,0,5.3,1.6,6.1,4.7
	c0.4-3.1,2.4-4.7,5.8-4.7c1.8,0,3.2,0.6,4.4,1.7C96,14.9,96.5,16.4,96.5,18.2z"/>
<path class="st0" d="M96.5,78.6c0,1.8-0.5,3.2-1.6,4.4c-1.1,1.1-2.6,1.7-4.5,1.7c-3.3,0-5.3-1.6-6.1-4.7C84,83,82,84.6,78.6,84.6
	c-1.8,0-3.2-0.5-4.4-1.6c-1.1-1-1.7-2.5-1.7-4.5c0-1.8,0.5-3.2,1.6-4.4c1-1.1,2.5-1.7,4.5-1.7c3.4,0,5.4,1.6,5.8,4.7
	c0.8-3.1,2.8-4.7,6.1-4.7c1.8,0,3.2,0.6,4.4,1.7S96.5,76.8,96.5,78.6z"/>
<path class="st0" d="M72.5,90.7c0-1.8,0.5-3.2,1.6-4.4c1-1.1,2.5-1.7,4.5-1.7c1.8,0,3.2,0.6,4.4,1.7s1.7,2.6,1.7,4.4
	s-0.5,3.2-1.6,4.4c-1.1,1.1-2.6,1.7-4.5,1.7c-1.8,0-3.2-0.5-4.4-1.6C73.1,94.1,72.5,92.6,72.5,90.7z"/>
<path class="st0" d="M96.5,30.3c0,1.8-0.5,3.2-1.6,4.4c-1.1,1.1-2.6,1.7-4.5,1.7c-1.8,0-3.2-0.5-4.4-1.6c-1.1-1-1.7-2.5-1.7-4.5
	c0-1.8,0.5-3.2,1.6-4.4c1.1-1.1,2.5-1.7,4.5-1.7c1.8,0,3.2,0.6,4.4,1.7S96.5,28.5,96.5,30.3z"/>
<path class="st0" d="M96.5,66.4c0,1.8-0.5,3.2-1.6,4.4c-1.1,1.1-2.6,1.7-4.5,1.7c-1.8,0-3.2-0.5-4.4-1.6c-1.1-1-1.7-2.5-1.7-4.5
	c0-1.8,0.5-3.2,1.6-4.4c1.1-1.1,2.5-1.7,4.5-1.7c1.8,0,3.2,0.6,4.4,1.7S96.5,64.6,96.5,66.4z"/>
<path class="st0" d="M96.5,102.8c0,1.8-0.5,3.2-1.6,4.4c-1.1,1.1-2.6,1.7-4.5,1.7c-1.8,0-3.2-0.5-4.4-1.6c-1.1-1.1-1.7-2.5-1.7-4.5
	c0-1.8,0.5-3.2,1.6-4.4c1.1-1.1,2.5-1.7,4.5-1.7c1.8,0,3.2,0.6,4.4,1.7C96,99.5,96.5,101,96.5,102.8z"/>
<path class="st0" d="M84.4,114.7c0-3.9,2.1-5.8,6.3-5.8c1.8,0,3.2,0.6,4.3,1.7c1,1.1,1.6,2.6,1.6,4.4c0,3.9-2.1,5.8-6.3,5.8
	c-3.9,0-5.8-1.9-5.8-5.8C84.4,114.9,84.4,114.7,84.4,114.7z"/>
<path class="st0" d="M84.6,5.8c0-1.8,0.6-3.2,1.7-4.3c1.1-1,2.6-1.6,4.4-1.6c3.9,0,5.8,2.1,5.8,6.3c0,1.8-0.6,3.2-1.7,4.3
	s-2.6,1.6-4.4,1.6c-3.9,0-5.8-1.9-5.8-5.8C84.6,6.3,84.6,5.8,84.6,5.8z"/>
<path class="st0" d="M96.5,90.9c0,1.8-0.6,3.2-1.7,4.3c-1.1,1.1-2.6,1.6-4.4,1.6c-3.9,0-5.8-2.1-5.8-6.3c0-1.8,0.6-3.2,1.7-4.3
	c1.1-1,2.6-1.6,4.4-1.6c3.9,0,5.8,1.9,5.8,5.8C96.5,90.4,96.5,90.9,96.5,90.9z"/>
<path class="st0" d="M108.6,18.2c0,1.8-0.5,3.2-1.6,4.4c-1.1,1.1-2.6,1.7-4.5,1.7c-1.8,0-3.2-0.5-4.4-1.6c-1.1-1-1.7-2.5-1.7-4.5
	c0-1.8,0.5-3.2,1.6-4.4c1-1.1,2.5-1.7,4.5-1.7c1.8,0,3.2,0.6,4.4,1.7C108.1,14.9,108.6,16.4,108.6,18.2z"/>
<path class="st0" d="M108.6,30.3c0,1.8-0.5,3.2-1.6,4.4c-1.1,1.1-2.6,1.7-4.5,1.7c-1.8,0-3.2-0.6-4.4-1.7s-1.7-2.6-1.7-4.4
	s0.5-3.2,1.6-4.4c1-1.1,2.5-1.7,4.5-1.7c1.8,0,3.2,0.5,4.4,1.6C108.1,26.8,108.6,28.3,108.6,30.3z"/>
<path class="st0" d="M96.5,42.2c0-3.9,2.1-5.8,6.3-5.8c1.8,0,3.2,0.6,4.3,1.7c1,1.1,1.6,2.6,1.6,4.4c0,3.9-2.1,5.8-6.3,5.8
	c-3.9,0-5.8-1.9-5.8-5.8L96.5,42.2L96.5,42.2z"/>
<path class="st0" d="M108.6,54.3c0,1.8-0.5,3.2-1.6,4.4c-1.1,1.1-2.6,1.7-4.5,1.7c-1.8,0-3.2-0.6-4.4-1.7c-1.1-1.1-1.7-2.6-1.7-4.4
	s0.5-3.2,1.6-4.4c1-1.1,2.5-1.7,4.5-1.7c1.8,0,3.2,0.5,4.4,1.6C108.1,50.9,108.6,52.4,108.6,54.3z"/>
<path class="st0" d="M96.5,66.4c0-1.8,0.5-3.2,1.6-4.4c1-1.1,2.5-1.7,4.5-1.7c1.8,0,3.2,0.5,4.4,1.6c1.1,1,1.7,2.5,1.7,4.5
	c0,1.8-0.5,3.2-1.6,4.4c-1.1,1.1-2.6,1.7-4.5,1.7c-1.8,0-3.2-0.6-4.4-1.7S96.5,68.2,96.5,66.4z"/>
<path class="st0" d="M108.6,78.5c0,1.8-0.5,3.2-1.6,4.4c-1.1,1.1-2.6,1.7-4.5,1.7c-1.8,0-3.2-0.5-4.4-1.6c-1.1-1-1.7-2.5-1.7-4.5
	c0-1.8,0.5-3.2,1.6-4.4c1-1.1,2.5-1.7,4.5-1.7c1.8,0,3.2,0.6,4.4,1.7C108.1,75.3,108.6,76.8,108.6,78.5z"/>
<path class="st0" d="M108.6,102.8c0,1.8-0.5,3.2-1.6,4.4c-1.1,1.1-2.6,1.7-4.5,1.7c-1.8,0-3.2-0.5-4.4-1.6c-1.1-1.1-1.7-2.5-1.7-4.5
	c0-1.8,0.5-3.2,1.6-4.4c1-1.1,2.5-1.7,4.5-1.7c1.8,0,3.2,0.6,4.4,1.7C108.1,99.5,108.6,101,108.6,102.8z"/>
<path class="st0" d="M96.5,114.7c0-3.9,2.1-5.8,6.3-5.8c1.8,0,3.2,0.6,4.3,1.7c1,1.1,1.6,2.6,1.6,4.4c0,3.9-2.1,5.8-6.3,5.8
	c-3.9,0-5.8-1.9-5.8-5.8L96.5,114.7L96.5,114.7z"/>
<path class="st0" d="M108.6,126.8c0,1.8-0.5,3.2-1.6,4.4c-1.1,1.1-2.6,1.7-4.5,1.7c-1.8,0-3.2-0.6-4.4-1.7c-1.1-1.1-1.7-2.6-1.7-4.4
	s0.5-3.2,1.6-4.4c1-1.1,2.5-1.7,4.5-1.7c1.8,0,3.2,0.5,4.4,1.6C108.1,123.4,108.6,124.9,108.6,126.8z"/>
<path class="st0" d="M108.6,138.9c0,1.8-0.5,3.2-1.6,4.4c-1.1,1.1-2.6,1.7-4.5,1.7c-1.8,0-3.2-0.6-4.4-1.7c-1.1-1.1-1.7-2.6-1.7-4.4
	s0.5-3.2,1.6-4.4c1-1.1,2.5-1.7,4.5-1.7c1.8,0,3.2,0.5,4.4,1.6C108.1,135.5,108.6,137,108.6,138.9L108.6,138.9z"/>
<path class="st0" d="M108.6,151c0,1.8-0.5,3.2-1.6,4.4c-1.1,1.1-2.6,1.7-4.5,1.7c-1.8,0-3.2-0.6-4.4-1.7s-1.7-2.6-1.7-4.4
	s0.5-3.2,1.6-4.4c1-1.1,2.5-1.7,4.5-1.7c1.8,0,3.2,0.5,4.4,1.6C108.1,147.6,108.6,149.1,108.6,151L108.6,151z"/>
<path class="st0" d="M114.7,36.3c-1.8,0-3.2-0.6-4.4-1.7c-1.1-1.1-1.7-2.6-1.7-4.4s0.5-3.2,1.6-4.4c1-1.1,2.5-1.7,4.5-1.7
	c1.8,0,3.2,0.5,4.4,1.6c1.1,1,1.7,2.5,1.7,4.5c0,1.8-0.5,3.2-1.6,4.4C118.1,35.8,116.6,36.3,114.7,36.3z"/>
<path class="st0" d="M108.6,42.2c0-3.9,2.1-5.8,6.3-5.8c1.8,0,3.2,0.6,4.3,1.7c1.1,1.1,1.6,2.6,1.6,4.4c0,3.9-2.1,5.8-6.3,5.8
	c-3.9,0-5.8-1.9-5.8-5.8L108.6,42.2L108.6,42.2z"/>
<path class="st0" d="M114.7,60.4c-1.8,0-3.2-0.6-4.4-1.7c-1.1-1.1-1.7-2.6-1.7-4.4s0.5-3.2,1.6-4.4c1-1.1,2.5-1.7,4.5-1.7
	c1.8,0,3.2,0.5,4.4,1.6c1.1,1,1.7,2.5,1.7,4.5c0,1.8-0.5,3.2-1.6,4.4C118.1,59.8,116.6,60.4,114.7,60.4z"/>
<path class="st0" d="M108.6,66.4c0-1.8,0.5-3.2,1.6-4.4c1-1.1,2.5-1.7,4.5-1.7c1.8,0,3.2,0.5,4.4,1.6c1.1,1,1.7,2.5,1.7,4.5
	c0,1.8-0.5,3.2-1.6,4.4c-1.1,1.1-2.6,1.7-4.5,1.7c-1.8,0-3.2-0.6-4.4-1.7C109.2,69.7,108.6,68.2,108.6,66.4z"/>
<path class="st0" d="M108.6,114.7c0-3.9,2.1-5.8,6.3-5.8c1.8,0,3.2,0.6,4.3,1.7c1.1,1.1,1.6,2.6,1.6,4.4c0,3.9-2.1,5.8-6.3,5.8
	c-3.9,0-5.8-1.9-5.8-5.8L108.6,114.7L108.6,114.7z"/>
<path class="st0" d="M114.7,132.9c-1.8,0-3.2-0.6-4.4-1.7s-1.7-2.6-1.7-4.4s0.5-3.2,1.6-4.4c1-1.1,2.5-1.7,4.5-1.7
	c1.8,0,3.2,0.5,4.4,1.6c1.1,1.1,1.7,2.6,1.7,4.5c0,1.8-0.5,3.2-1.6,4.4C118.1,132.3,116.6,132.9,114.7,132.9z"/>
<path class="st0" d="M114.7,145c-1.8,0-3.2-0.6-4.4-1.7s-1.7-2.6-1.7-4.4s0.5-3.2,1.6-4.4c1-1.1,2.5-1.7,4.5-1.7
	c1.8,0,3.2,0.5,4.4,1.6c1.1,1.1,1.7,2.6,1.7,4.5c0,1.8-0.5,3.2-1.6,4.4C118.1,144.4,116.6,145,114.7,145L114.7,145z"/>
<path class="st0" d="M114.7,157.1c-1.8,0-3.2-0.6-4.4-1.7c-1.1-1.1-1.7-2.6-1.7-4.4s0.5-3.2,1.6-4.4c1-1.1,2.5-1.7,4.5-1.7
	c1.8,0,3.2,0.5,4.4,1.6c1.1,1.1,1.7,2.6,1.7,4.5c0,1.8-0.5,3.2-1.6,4.4C118.1,156.6,116.6,157.1,114.7,157.1L114.7,157.1z"/>
<path class="st0" d="M138.9,72.5c-1.9,0-3.4-0.6-4.5-1.7s-1.6-2.6-1.6-4.4c0-1.9,0.6-3.4,1.7-4.5s2.6-1.6,4.4-1.6
	c1.9,0,3.4,0.6,4.5,1.7s1.6,2.6,1.6,4.4s-0.6,3.2-1.7,4.4S140.7,72.5,138.9,72.5z"/>
<path class="st0" d="M145,78.6c0,1.8-0.6,3.2-1.7,4.4s-2.6,1.7-4.4,1.7c-1.9,0-3.4-0.6-4.5-1.7s-1.6-2.6-1.6-4.4
	c0-1.9,0.6-3.4,1.7-4.5c1.1-1,2.6-1.6,4.4-1.6c1.9,0,3.4,0.6,4.5,1.7S145,76.8,145,78.6z"/>
<path class="st0" d="M145,90.7c0,1.8-0.6,3.2-1.7,4.4c-1.1,1.1-2.6,1.7-4.4,1.7c-1.9,0-3.4-0.6-4.5-1.7s-1.6-2.6-1.6-4.4
	c0-1.9,0.6-3.4,1.7-4.5c1.1-1,2.6-1.6,4.4-1.6c1.9,0,3.4,0.6,4.5,1.7S145,88.9,145,90.7z"/>
<path class="st0" d="M145,102.8c0,1.8-0.6,3.2-1.7,4.4c-1.1,1.1-2.6,1.7-4.4,1.7c-1.9,0-3.4-0.6-4.5-1.7s-1.6-2.6-1.6-4.4
	c0-1.9,0.6-3.4,1.7-4.5c1.1-1,2.6-1.6,4.4-1.6c1.9,0,3.4,0.6,4.5,1.7S145,101,145,102.8z"/>
<path class="st0" d="M145,114.9c0,3.9-1.9,5.8-5.8,5.8c-4.2,0-6.3-1.9-6.3-5.8c0-1.8,0.5-3.2,1.6-4.4c1.1-1.1,2.5-1.7,4.3-1.7
	c4.2,0,6.3,1.9,6.3,5.8L145,114.9L145,114.9z"/>
<path class="st0" d="M138.9,132.9c-1.9,0-3.4-0.6-4.5-1.7s-1.6-2.6-1.6-4.4c0-1.9,0.6-3.4,1.7-4.5c1.1-1,2.6-1.6,4.4-1.6
	c1.9,0,3.4,0.6,4.5,1.7s1.6,2.6,1.6,4.4s-0.6,3.2-1.7,4.4C142.2,132.3,140.7,132.9,138.9,132.9z"/>
<path class="st0" d="M151.1,60.4c-1.9,0-3.4-0.6-4.5-1.7s-1.6-2.6-1.6-4.4c0-1.9,0.6-3.4,1.7-4.5c1.1-1,2.6-1.6,4.4-1.6
	c1.9,0,3.4,0.6,4.5,1.7c1,1.1,1.6,2.6,1.6,4.4s-0.6,3.2-1.7,4.4C154.3,59.8,152.9,60.4,151.1,60.4z"/>
<path class="st0" d="M145,66.4c0-1.9,0.6-3.4,1.7-4.5s2.6-1.6,4.4-1.6c1.9,0,3.4,0.6,4.5,1.7c1,1.1,1.6,2.6,1.6,4.4
	s-0.6,3.2-1.7,4.4s-2.6,1.7-4.4,1.7c-1.9,0-3.4-0.6-4.5-1.7S145,68.2,145,66.4z"/>
<path class="st0" d="M157.1,78.6c0,1.8-0.6,3.2-1.7,4.4s-2.6,1.7-4.4,1.7c-1.9,0-3.4-0.6-4.5-1.7s-1.6-2.6-1.6-4.4
	c0-1.9,0.6-3.4,1.7-4.5c1.1-1,2.6-1.6,4.4-1.6c1.9,0,3.4,0.6,4.5,1.7C156.6,75.3,157.1,76.8,157.1,78.6z"/>
<path class="st0" d="M157.1,90.7c0,1.8-0.6,3.2-1.7,4.4c-1.1,1.1-2.6,1.7-4.4,1.7c-1.9,0-3.4-0.6-4.5-1.7s-1.6-2.6-1.6-4.4
	c0-1.9,0.6-3.4,1.7-4.5c1.1-1,2.6-1.6,4.4-1.6c1.9,0,3.4,0.6,4.5,1.7C156.6,87.4,157.1,88.9,157.1,90.7z"/>
<path class="st0" d="M157.1,102.8c0,1.8-0.6,3.2-1.7,4.4c-1.1,1.1-2.6,1.7-4.4,1.7c-1.9,0-3.4-0.6-4.5-1.7s-1.6-2.6-1.6-4.4
	c0-1.9,0.6-3.4,1.7-4.5c1.1-1,2.6-1.6,4.4-1.6c1.9,0,3.4,0.6,4.5,1.7C156.6,99.5,157.1,101,157.1,102.8z"/>
<path class="st0" d="M157.1,114.9c0,3.9-1.9,5.8-5.8,5.8c-4.2,0-6.3-1.9-6.3-5.8c0-1.8,0.5-3.2,1.6-4.4c1.1-1.1,2.5-1.7,4.3-1.7
	c4.2,0,6.3,1.9,6.3,5.8L157.1,114.9L157.1,114.9z"/>
<path class="st0" d="M145,126.8c0-1.9,0.6-3.4,1.7-4.5c1.1-1,2.6-1.6,4.4-1.6c1.9,0,3.4,0.6,4.5,1.7c1,1.1,1.6,2.6,1.6,4.4
	s-0.6,3.2-1.7,4.4c-1.1,1.1-2.6,1.7-4.4,1.7c-1.9,0-3.4-0.6-4.5-1.7S145,128.6,145,126.8z"/>
<path class="st0" d="M151.1,145c-1.9,0-3.4-0.6-4.5-1.7s-1.6-2.6-1.6-4.4c0-1.9,0.6-3.4,1.7-4.5c1.1-1,2.6-1.6,4.4-1.6
	c1.9,0,3.4,0.6,4.5,1.7c1,1.1,1.6,2.6,1.6,4.4s-0.6,3.2-1.7,4.4C154.3,144.4,152.9,145,151.1,145L151.1,145z"/>
<path class="st0" d="M169.2,42.4c0,3.9-1.9,5.8-5.8,5.8c-4.2,0-6.3-1.9-6.3-5.8c0-1.8,0.5-3.2,1.6-4.4c1-1.1,2.5-1.7,4.3-1.7
	c4.2,0,6.3,2,6.3,5.8V42.4z"/>
<path class="st0" d="M157.1,54.3c0-1.9,0.6-3.4,1.7-4.5s2.6-1.6,4.4-1.6c1.9,0,3.4,0.6,4.5,1.7c1,1.1,1.6,2.6,1.6,4.4
	c0,3.4-1.6,5.4-4.7,5.8c3.1,0.8,4.7,2.8,4.7,6.1c0,1.8-0.6,3.2-1.7,4.4c-1.1,1.1-2.6,1.7-4.4,1.7c-1.9,0-3.4-0.6-4.5-1.7
	s-1.6-2.6-1.6-4.4c0-3.3,1.6-5.3,4.7-6.1C158.7,59.7,157.1,57.8,157.1,54.3z"/>
<path class="st0" d="M157.1,126.8c0-1.9,0.6-3.4,1.7-4.5c1.1-1,2.6-1.6,4.4-1.6s3.2,0.6,4.4,1.7c1.1,1.1,1.7,2.6,1.7,4.4
	c0,2-0.6,3.4-1.7,4.5s-2.6,1.6-4.4,1.6c-1.9,0-3.4-0.6-4.5-1.7S157.1,128.6,157.1,126.8L157.1,126.8z"/>
<path class="st0" d="M157.1,138.9c0-1.9,0.6-3.4,1.7-4.5c1.1-1,2.6-1.6,4.4-1.6c1.9,0,3.4,0.6,4.5,1.7c1,1.1,1.6,2.6,1.6,4.4
	s-0.6,3.2-1.7,4.4c-1.1,1.1-2.6,1.7-4.4,1.7c-1.9,0-3.4-0.6-4.5-1.7S157.1,140.7,157.1,138.9L157.1,138.9z"/>
<path class="st0" d="M157.1,151.1c0-1.8,0.6-3.2,1.7-4.4s2.6-1.7,4.4-1.7c1.9,0,3.4,0.6,4.5,1.7c1,1.1,1.6,2.6,1.6,4.4
	c0,1.9-0.6,3.4-1.7,4.5s-2.6,1.6-4.4,1.6c-1.9,0-3.4-0.6-4.5-1.7S157.1,152.9,157.1,151.1L157.1,151.1z"/>
<path class="st0" d="M169.2,42.4c0-1.8,0.5-3.2,1.6-4.4c1-1.1,2.5-1.7,4.3-1.7c4.2,0,6.3,2,6.3,5.8v0.2c0,3.9-1.9,5.8-5.8,5.8
	C171.3,48.3,169.2,46.3,169.2,42.4L169.2,42.4z"/>
<path class="st0" d="M169.2,54.3c0-1.8,0.5-3.2,1.6-4.4c1-1.1,2.5-1.7,4.3-1.7c4.2,0,6.3,2,6.3,5.8v0.2c0,3.9-1.9,5.8-5.8,5.8
	C171.3,60.2,169.2,58.2,169.2,54.3L169.2,54.3z"/>
<path class="st0" d="M169.2,138.9c0-1.9,0.6-3.4,1.7-4.5c1.1-1,2.6-1.6,4.4-1.6s3.2,0.6,4.4,1.7s1.7,2.6,1.7,4.4
	c0,1.9-0.6,3.4-1.7,4.5s-2.6,1.6-4.4,1.6c-1.9,0-3.4-0.6-4.5-1.7S169.2,140.7,169.2,138.9L169.2,138.9z"/>
<path class="st0" d="M169.2,151.1c0-1.8,0.6-3.2,1.7-4.4c1.1-1.1,2.6-1.7,4.4-1.7c1.9,0,3.4,0.6,4.5,1.7s1.6,2.6,1.6,4.4
	c0,1.9-0.6,3.4-1.7,4.5s-2.6,1.6-4.4,1.6c-1.9,0-3.4-0.6-4.5-1.7S169.2,152.9,169.2,151.1L169.2,151.1z"/>
<path class="st0" d="M181.4,42.4c0-1.8,0.5-3.2,1.6-4.4c1.1-1.1,2.5-1.7,4.3-1.7c4.2,0,6.3,2,6.3,5.8v0.2c0,3.9-1.9,5.8-5.8,5.8
	C183.4,48.3,181.3,46.3,181.4,42.4L181.4,42.4z"/>
<path class="st0" d="M181.4,54.3c0-1.8,0.5-3.2,1.6-4.4c1.1-1.1,2.5-1.7,4.3-1.7c4.2,0,6.3,2,6.3,5.8v0.2c0,3.9-1.9,5.8-5.8,5.8
	C183.4,60.2,181.3,58.2,181.4,54.3L181.4,54.3z"/>
<path class="st0" d="M187.4,132.9c1.8,0,3.2,0.6,4.4,1.7s1.7,2.6,1.7,4.4c0,1.9-0.6,3.4-1.7,4.5s-2.6,1.6-4.4,1.6
	c-1.9,0-3.4-0.6-4.5-1.7s-1.6-2.6-1.6-4.4c0-1.9,0.6-3.4,1.7-4.5C184.2,133.4,185.6,132.9,187.4,132.9L187.4,132.9z"/>
<path class="st0" d="M193.5,151.1c0,1.9-0.6,3.4-1.7,4.5s-2.6,1.6-4.4,1.6c-1.9,0-3.4-0.6-4.5-1.7s-1.6-2.6-1.6-4.4s0.6-3.2,1.7-4.4
	c1.1-1.1,2.6-1.7,4.4-1.7c1.9,0,3.4,0.6,4.5,1.7S193.5,149.3,193.5,151.1L193.5,151.1z"/>
<path class="st0" d="M205.6,42.4c0,3.9-1.9,5.8-5.8,5.8c-4.2,0-6.3-1.9-6.3-5.8c0-1.8,0.5-3.2,1.6-4.4c1.1-1.1,2.5-1.7,4.3-1.7
	c4.2,0,6.3,2,6.3,5.8L205.6,42.4L205.6,42.4z"/>
<path class="st0" d="M193.5,54.3c0-1.9,0.6-3.4,1.7-4.5s2.6-1.6,4.4-1.6c1.9,0,3.4,0.6,4.5,1.7c1,1.1,1.6,2.6,1.6,4.4
	c0,3.3-1.6,5.3-4.7,6.1c3.1,0.5,4.7,2.4,4.7,5.8c0,1.9-0.6,3.4-1.7,4.5c-1.1,1.1-2.6,1.6-4.4,1.6s-3.2-0.6-4.4-1.7
	c-1.1-1.1-1.7-2.6-1.7-4.4c0-3.3,1.6-5.3,4.7-6.1C195.1,59.7,193.5,57.8,193.5,54.3L193.5,54.3z"/>
<path class="st0" d="M193.5,126.8c0-1.8,0.6-3.2,1.7-4.4c1.1-1.1,2.6-1.7,4.4-1.7c1.9,0,3.4,0.6,4.5,1.7c1,1.1,1.6,2.6,1.6,4.4
	c0,2-0.6,3.4-1.7,4.5s-2.6,1.6-4.4,1.6c-1.9,0-3.4-0.6-4.5-1.7S193.5,128.6,193.5,126.8L193.5,126.8z"/>
<path class="st0" d="M199.5,145c-1.8,0-3.2-0.6-4.4-1.7c-1.1-1.1-1.7-2.6-1.7-4.4c0-1.9,0.6-3.4,1.7-4.5c1.1-1,2.6-1.6,4.4-1.6
	c1.9,0,3.4,0.6,4.5,1.7c1,1.1,1.6,2.6,1.6,4.4c0,1.9-0.6,3.4-1.7,4.5S201.3,145,199.5,145L199.5,145z"/>
<path class="st0" d="M199.5,157.1c-1.9,0-3.4-0.6-4.5-1.7s-1.6-2.6-1.6-4.4s0.6-3.2,1.7-4.4s2.6-1.7,4.4-1.7c1.9,0,3.4,0.6,4.5,1.7
	c1,1.1,1.6,2.6,1.6,4.4c0,1.9-0.6,3.4-1.7,4.5S201.3,157.1,199.5,157.1L199.5,157.1z"/>
<path class="st0" d="M217.7,54.3c0,1.8-0.6,3.2-1.7,4.4c-1.1,1.1-2.6,1.7-4.4,1.7c-1.9,0-3.4-0.6-4.5-1.7s-1.6-2.6-1.6-4.4
	c0-1.9,0.6-3.4,1.7-4.5s2.6-1.6,4.4-1.6c1.9,0,3.4,0.6,4.5,1.7C217.2,51,217.7,52.5,217.7,54.3z"/>
<path class="st0" d="M211.7,72.5c-1.8,0-3.2-0.6-4.4-1.7s-1.7-2.6-1.7-4.4c0-1.9,0.6-3.4,1.7-4.5s2.6-1.6,4.4-1.6
	c1.9,0,3.4,0.6,4.5,1.7c1,1.1,1.6,2.6,1.6,4.4c0,1.9-0.6,3.4-1.7,4.5C214.9,72,213.5,72.5,211.7,72.5L211.7,72.5z"/>
<path class="st0" d="M211.7,84.6c-1.8,0-3.2-0.6-4.4-1.7s-1.7-2.6-1.7-4.4c0-1.9,0.6-3.4,1.7-4.5c1.1-1,2.6-1.6,4.4-1.6
	c1.9,0,3.4,0.6,4.5,1.7c1,1.1,1.6,2.6,1.6,4.4c0,1.9-0.6,3.4-1.7,4.5C214.9,84.1,213.5,84.6,211.7,84.6L211.7,84.6z"/>
<path class="st0" d="M211.7,96.7c-1.8,0-3.2-0.6-4.4-1.7c-1.1-1.1-1.7-2.6-1.7-4.4c0-1.9,0.6-3.4,1.7-4.5c1.1-1,2.6-1.6,4.4-1.6
	c1.9,0,3.4,0.6,4.5,1.7c1,1.1,1.6,2.6,1.6,4.4c0,1.9-0.6,3.4-1.7,4.5C214.9,96.2,213.5,96.7,211.7,96.7L211.7,96.7z"/>
<path class="st0" d="M211.7,108.9c-1.8,0-3.2-0.6-4.4-1.7c-1.1-1.1-1.7-2.6-1.7-4.4c0-1.9,0.6-3.4,1.7-4.5c1.1-1,2.6-1.6,4.4-1.6
	c1.9,0,3.4,0.6,4.5,1.7c1,1.1,1.6,2.6,1.6,4.4c0,1.9-0.6,3.4-1.7,4.5C214.9,108.3,213.5,108.9,211.7,108.9L211.7,108.9z"/>
<path class="st0" d="M211.4,120.8c-3.9,0-5.8-1.9-5.8-5.8c0-1.8,0.5-3.2,1.6-4.4c1.1-1.1,2.5-1.7,4.3-1.7c4.2,0,6.3,1.9,6.3,5.8
	c0,1.8-0.5,3.2-1.6,4.4c-1.1,1.1-2.5,1.7-4.3,1.7C211.9,120.8,211.4,120.8,211.4,120.8z"/>
<path class="st0" d="M211.7,132.9c-1.8,0-3.2-0.6-4.4-1.7c-1.1-1.1-1.7-2.6-1.7-4.4c0-1.9,0.6-3.4,1.7-4.5c1.1-1,2.6-1.6,4.4-1.6
	c1.9,0,3.4,0.6,4.5,1.7c1,1.1,1.6,2.6,1.6,4.4c0,2-0.6,3.4-1.7,4.5S213.5,132.9,211.7,132.9L211.7,132.9z"/>
<path class="st0" d="M217.7,138.9c0,1.8-0.6,3.2-1.7,4.4c-1.1,1.1-2.6,1.7-4.4,1.7c-1.9,0-3.4-0.6-4.5-1.7s-1.6-2.6-1.6-4.4
	c0-1.9,0.6-3.4,1.7-4.5c1.1-1,2.6-1.6,4.4-1.6c1.9,0,3.4,0.6,4.5,1.7C217.2,135.7,217.7,137.1,217.7,138.9L217.7,138.9z"/>
<path class="st0" d="M229.8,66.4c0,1.8-0.6,3.2-1.7,4.4c-1.1,1.1-2.6,1.7-4.4,1.7c-1.9,0-3.4-0.6-4.5-1.7s-1.6-2.6-1.6-4.4
	c0-1.9,0.6-3.4,1.7-4.5s2.6-1.6,4.4-1.6c1.9,0,3.4,0.6,4.5,1.7S229.8,64.6,229.8,66.4z"/>
<path class="st0" d="M217.7,78.6c0-1.8,0.6-3.2,1.7-4.4c1.1-1.1,2.6-1.7,4.4-1.7c1.9,0,3.4,0.6,4.5,1.7s1.6,2.6,1.6,4.4
	c0,1.9-0.6,3.4-1.7,4.5c-1.1,1.1-2.6,1.6-4.4,1.6c-1.9,0-3.4-0.6-4.5-1.7S217.7,80.4,217.7,78.6z"/>
<path class="st0" d="M217.7,90.7c0-1.8,0.6-3.2,1.7-4.4s2.6-1.7,4.4-1.7c1.9,0,3.4,0.6,4.5,1.7s1.6,2.6,1.6,4.4
	c0,1.9-0.6,3.4-1.7,4.5c-1.1,1.1-2.6,1.6-4.4,1.6c-1.9,0-3.4-0.6-4.5-1.7S217.7,92.5,217.7,90.7z"/>
<path class="st0" d="M217.7,102.8c0-1.8,0.6-3.2,1.7-4.4s2.6-1.7,4.4-1.7c1.9,0,3.4,0.6,4.5,1.7s1.6,2.6,1.6,4.4
	c0,1.9-0.6,3.4-1.7,4.5c-1.1,1.1-2.6,1.6-4.4,1.6c-1.9,0-3.4-0.6-4.5-1.7S217.7,104.6,217.7,102.8z"/>
<path class="st0" d="M217.7,114.7c0-3.9,1.9-5.8,5.8-5.8c4.2,0,6.3,1.9,6.3,5.8c0,1.8-0.5,3.2-1.6,4.4c-1.1,1.1-2.5,1.7-4.3,1.7
	c-4.2,0-6.3-1.9-6.3-5.8L217.7,114.7L217.7,114.7z"/>
<path class="st0" d="M229.8,126.8c0,1.8-0.6,3.3-1.7,4.4s-2.6,1.7-4.4,1.7c-1.9,0-3.4-0.6-4.5-1.7s-1.6-2.6-1.6-4.4
	c0-1.9,0.6-3.4,1.7-4.5c1.1-1,2.6-1.6,4.4-1.6c1.9,0,3.4,0.6,4.5,1.7S229.8,125,229.8,126.8z"/>
<path class="st0" d="M254.1,54.3c0,1.8-0.6,3.2-1.7,4.4c-1.1,1.1-2.6,1.7-4.4,1.7c-1.9,0-3.4-0.6-4.5-1.7s-1.6-2.6-1.6-4.4
	c0-1.9,0.6-3.4,1.7-4.5s2.6-1.6,4.4-1.6c1.9,0,3.4,0.6,4.5,1.7S254.1,52.5,254.1,54.3z"/>
<path class="st0" d="M248,72.5c-1.9,0-3.4-0.6-4.5-1.7s-1.6-2.6-1.6-4.4c0-1.9,0.6-3.4,1.7-4.5s2.6-1.6,4.4-1.6
	c1.9,0,3.4,0.6,4.5,1.7s1.6,2.6,1.6,4.4s-0.6,3.2-1.7,4.4S249.8,72.5,248,72.5z"/>
<path class="st0" d="M266,115.2c0,3.4-1.6,5.4-4.7,5.8c3.1,0.4,4.7,2.4,4.7,5.8c0,1.8-0.6,3.2-1.7,4.4s-2.6,1.7-4.4,1.7
	c-3.3,0-5.3-1.6-6.1-4.7c-0.4,3.1-2.4,4.7-5.8,4.7c-1.9,0-3.4-0.6-4.5-1.7s-1.6-2.6-1.6-4.4c0-1.9,0.6-3.4,1.7-4.5
	c1.1-1,2.6-1.6,4.4-1.6c3.3,0,5.3,1.6,6.1,4.7c0.1-2.7,1.7-4.3,4.7-4.7c-3.1-0.4-4.7-2.3-4.7-5.6c0-4.2,1.9-6.3,5.8-6.3
	c1.8,0,3.2,0.5,4.4,1.6c1.1,1.1,1.7,2.5,1.7,4.3C266,114.7,266,115.2,266,115.2z"/>
<path class="st0" d="M254.1,114.9c0,3.9-1.9,5.8-5.8,5.8c-4.2,0-6.3-1.9-6.3-5.8c0-1.8,0.5-3.2,1.6-4.4c1.1-1.1,2.5-1.7,4.3-1.7
	c4.2,0,6.3,1.9,6.3,5.8L254.1,114.9L254.1,114.9z"/>
<path class="st0" d="M266,138.9c0,1.8-0.6,3.2-1.7,4.4s-2.6,1.7-4.4,1.7c-3.3,0-5.3-1.6-6.1-4.7c-0.4,3.1-2.4,4.7-5.8,4.7
	c-1.9,0-3.4-0.6-4.5-1.7s-1.6-2.6-1.6-4.4c0-1.9,0.6-3.4,1.7-4.5c1.1-1,2.6-1.6,4.4-1.6c3.3,0,5.3,1.6,6.1,4.7
	c0.4-3.1,2.4-4.7,5.8-4.7c1.9,0,3.4,0.6,4.5,1.7C265.5,135.7,266,137.1,266,138.9L266,138.9z"/>
<path class="st0" d="M266,42.4c0,3.9-2,5.8-5.8,5.8s-6.1-1.9-6.1-5.8c0-1.8,0.5-3.2,1.6-4.4c1-1.1,2.5-1.7,4.3-1.7s3.2,0.5,4.4,1.6
	c1.1,1,1.7,2.5,1.7,4.3V42.4L266,42.4z"/>
<path class="st0" d="M266,54.5c0,3.9-2,5.8-5.8,5.8c-1.8,0-3.2-0.5-4.4-1.6c-1.1-1-1.7-2.5-1.7-4.3c0-4.2,1.9-6.3,5.8-6.3
	c1.8,0,3.2,0.5,4.4,1.6c1.1,1,1.7,2.5,1.7,4.3V54.5z"/>
<path class="st0" d="M254.1,66.4c0-1.9,0.6-3.4,1.7-4.5s2.6-1.6,4.4-1.6c1.9,0,3.4,0.6,4.5,1.7c1,1.1,1.6,2.6,1.6,4.4
	s-0.6,3.2-1.7,4.4s-2.6,1.7-4.4,1.7c-2,0-3.4-0.6-4.5-1.7S254.1,68.2,254.1,66.4L254.1,66.4z"/>
<path class="st0" d="M266,103c0,3.9-2,5.8-5.8,5.8c-1.8,0-3.2-0.5-4.4-1.6c-1.1-1.1-1.7-2.5-1.7-4.3c0-4.2,1.9-6.3,5.8-6.3
	c1.8,0,3.2,0.5,4.4,1.6c1.1,1.1,1.7,2.5,1.7,4.3V103L266,103z"/>
<path class="st0" d="M254.1,150.8c0-3.9,1.9-5.8,5.8-5.8c1.8,0,3.2,0.5,4.4,1.6c1.1,1.1,1.7,2.5,1.7,4.3c0,4.2-2,6.3-5.8,6.3
	c-1.8,0-3.2-0.5-4.4-1.6c-1.1-1-1.7-2.5-1.7-4.3V150.8z"/>
<path class="st0" d="M278.1,42.4c0,3.9-2,5.8-5.8,5.8c-4.2,0-6.3-1.9-6.3-5.8c0-1.8,0.5-3.2,1.6-4.4c1-1.1,2.5-1.7,4.3-1.7
	c4.2,0,6.3,2,6.3,5.8L278.1,42.4L278.1,42.4z"/>
<path class="st0" d="M272,60.4c-2,0-3.4-0.6-4.5-1.7s-1.6-2.6-1.6-4.4c0-1.9,0.6-3.4,1.7-4.5c1.1-1,2.6-1.6,4.4-1.6
	c1.9,0,3.4,0.6,4.5,1.7s1.6,2.6,1.6,4.4s-0.6,3.2-1.7,4.4C275.3,59.8,273.9,60.4,272,60.4z"/>
<path class="st0" d="M278.1,90.7c0,1.8-0.6,3.2-1.7,4.4s-2.6,1.7-4.4,1.7c-2,0-3.4-0.6-4.5-1.7s-1.6-2.6-1.6-4.4
	c0-1.9,0.6-3.4,1.7-4.5c1.1-1,2.6-1.6,4.4-1.6c1.9,0,3.4,0.6,4.5,1.7S278.1,88.9,278.1,90.7z"/>
<path class="st0" d="M272,108.9c-2,0-3.4-0.6-4.5-1.7s-1.6-2.6-1.6-4.4c0-1.9,0.6-3.4,1.7-4.5c1.1-1,2.6-1.6,4.4-1.6
	c1.9,0,3.4,0.6,4.5,1.7s1.6,2.6,1.6,4.4s-0.6,3.2-1.7,4.4S273.9,108.9,272,108.9z"/>
<path class="st0" d="M278.1,114.9c0,1.8-0.6,3.2-1.7,4.4c-1.1,1.1-2.6,1.7-4.4,1.7c-2,0-3.4-0.6-4.5-1.7s-1.6-2.6-1.6-4.4
	c0-1.9,0.6-3.4,1.7-4.5c1.1-1.1,2.6-1.6,4.4-1.6c1.9,0,3.4,0.6,4.5,1.7S278.1,113.1,278.1,114.9z"/>
<path class="st0" d="M266,138.9c0-1.8,0.6-3.2,1.7-4.4s2.6-1.7,4.4-1.7c1.9,0,3.4,0.6,4.5,1.7s1.6,2.6,1.6,4.4
	c0,1.9-0.6,3.4-1.7,4.5s-2.6,1.6-4.4,1.6c-2,0-3.4-0.6-4.5-1.7S266,140.8,266,138.9L266,138.9z"/>
<path class="st0" d="M266,151.1c0-1.8,0.6-3.2,1.7-4.4c1.1-1.1,2.6-1.7,4.4-1.7c1.9,0,3.4,0.6,4.5,1.7s1.6,2.6,1.6,4.4
	c0,1.9-0.6,3.4-1.7,4.5s-2.6,1.6-4.4,1.6c-2,0-3.4-0.6-4.5-1.7S266,152.9,266,151.1L266,151.1z"/>
<path class="st0" d="M290.2,42.4c0,3.9-2,5.8-5.8,5.8c-4.2,0-6.3-1.9-6.3-5.8c0-1.8,0.5-3.2,1.6-4.4c1-1.1,2.5-1.7,4.3-1.7
	c4.2,0,6.3,2,6.3,5.8L290.2,42.4L290.2,42.4z"/>
<path class="st0" d="M278.1,54.3c0-1.9,0.6-3.4,1.7-4.5s2.6-1.6,4.4-1.6c1.9,0,3.4,0.6,4.5,1.7s1.6,2.6,1.6,4.4s-0.6,3.2-1.7,4.4
	c-1.1,1.1-2.6,1.7-4.4,1.7c-2,0-3.4-0.6-4.5-1.7S278.1,56.1,278.1,54.3z"/>
<path class="st0" d="M284.2,96.7c-2,0-3.4-0.6-4.5-1.7s-1.6-2.6-1.6-4.4c0-1.9,0.6-3.4,1.7-4.5c1.1-1,2.6-1.6,4.4-1.6
	c1.9,0,3.4,0.6,4.5,1.7s1.6,2.6,1.6,4.4s-0.6,3.2-1.7,4.4C287.4,96.2,286,96.7,284.2,96.7z"/>
<path class="st0" d="M278.1,102.8c0-1.9,0.6-3.4,1.7-4.5c1.1-1,2.6-1.6,4.4-1.6c1.9,0,3.4,0.6,4.5,1.7s1.6,2.6,1.6,4.4
	s-0.6,3.2-1.7,4.4c-1.1,1.1-2.6,1.7-4.4,1.7c-2,0-3.4-0.6-4.5-1.7S278.1,104.6,278.1,102.8z"/>
<path class="st0" d="M278.1,138.9c0-1.8,0.6-3.2,1.7-4.4s2.6-1.7,4.4-1.7c1.9,0,3.4,0.6,4.5,1.7s1.6,2.6,1.6,4.4
	c0,1.9-0.6,3.4-1.7,4.5s-2.6,1.6-4.4,1.6c-2,0-3.4-0.6-4.5-1.7S278.1,140.8,278.1,138.9L278.1,138.9z"/>
<path class="st0" d="M278.1,151.1c0-1.8,0.6-3.2,1.7-4.4c1.1-1.1,2.6-1.7,4.4-1.7c1.9,0,3.4,0.6,4.5,1.7s1.6,2.6,1.6,4.4
	c0,1.9-0.6,3.4-1.7,4.5s-2.6,1.6-4.4,1.6c-2,0-3.4-0.6-4.5-1.7S278.1,152.9,278.1,151.1L278.1,151.1z"/>
<path class="st0" d="M302.3,42.4c0,3.9-2,5.8-5.8,5.8c-4.2,0-6.3-1.9-6.3-5.8c0-1.8,0.5-3.2,1.6-4.4c1-1.1,2.5-1.7,4.3-1.7
	c4.2,0,6.3,2,6.3,5.8V42.4z"/>
<path class="st0" d="M290.2,54.3c0-1.9,0.6-3.4,1.7-4.5s2.6-1.6,4.4-1.6c1.9,0,3.4,0.6,4.5,1.7c1,1.1,1.6,2.6,1.6,4.4
	s-0.6,3.2-1.7,4.4c-1.1,1.1-2.6,1.7-4.4,1.7c-2,0-3.4-0.6-4.5-1.7S290.2,56.1,290.2,54.3z"/>
<path class="st0" d="M302.3,78.6c0,1.8-0.6,3.2-1.7,4.4s-2.6,1.7-4.4,1.7c-2,0-3.4-0.6-4.5-1.7s-1.6-2.6-1.6-4.4
	c0-1.9,0.6-3.4,1.7-4.5c1.1-1,2.6-1.6,4.4-1.6c1.9,0,3.4,0.6,4.5,1.7C301.8,75.3,302.3,76.8,302.3,78.6z"/>
<path class="st0" d="M290.2,90.7c0-1.9,0.6-3.4,1.7-4.5c1.1-1,2.6-1.6,4.4-1.6c1.9,0,3.4,0.6,4.5,1.7c1,1.1,1.6,2.6,1.6,4.4
	s-0.6,3.2-1.7,4.4c-1.1,1.1-2.6,1.7-4.4,1.7c-2,0-3.4-0.6-4.5-1.7S290.2,92.5,290.2,90.7z"/>
<path class="st0" d="M296.3,132.9c-2,0-3.4-0.6-4.5-1.7s-1.6-2.6-1.6-4.4c0-1.9,0.6-3.4,1.7-4.5c1.1-1,2.6-1.6,4.4-1.6
	c1.9,0,3.4,0.6,4.5,1.7c1,1.1,1.6,2.6,1.6,4.4s-0.6,3.2-1.7,4.4C299.5,132.3,298.1,132.9,296.3,132.9z"/>
<path class="st0" d="M302.3,138.9c0,1.8-0.6,3.2-1.7,4.4c-1.1,1.1-2.6,1.7-4.4,1.7c-2,0-3.4-0.6-4.5-1.7s-1.6-2.6-1.6-4.4
	c0-1.9,0.6-3.4,1.7-4.5c1.1-1,2.6-1.6,4.4-1.6c1.9,0,3.4,0.6,4.5,1.7C301.8,135.7,302.3,137.1,302.3,138.9L302.3,138.9z"/>
<path class="st0" d="M314.5,42.4c0,3.9-2,5.8-5.8,5.8c-4.2,0-6.3-1.9-6.3-5.8c0-1.8,0.5-3.2,1.6-4.4c1-1.1,2.5-1.7,4.3-1.7
	c4.2,0,6.3,2,6.3,5.8L314.5,42.4L314.5,42.4z"/>
<path class="st0" d="M302.3,54.3c0-1.9,0.6-3.4,1.7-4.5s2.6-1.6,4.4-1.6c1.9,0,3.4,0.6,4.5,1.7c1,1.1,1.6,2.6,1.6,4.4
	s-0.6,3.2-1.7,4.4s-2.6,1.7-4.4,1.7c-2,0-3.4-0.6-4.5-1.7S302.3,56.1,302.3,54.3z"/>
<path class="st0" d="M314.5,66.4c0,1.8-0.6,3.2-1.7,4.4c-1.1,1.1-2.6,1.7-4.4,1.7c-2,0-3.4-0.6-4.5-1.7s-1.6-2.6-1.6-4.4
	c0-1.9,0.6-3.4,1.7-4.5s2.6-1.6,4.4-1.6c1.9,0,3.4,0.6,4.5,1.7C313.9,63.2,314.5,64.6,314.5,66.4z"/>
<path class="st0" d="M314.5,78.6c0,1.8-0.6,3.2-1.7,4.4c-1.1,1.1-2.6,1.7-4.4,1.7c-2,0-3.4-0.6-4.5-1.7s-1.6-2.6-1.6-4.4
	c0-1.9,0.6-3.4,1.7-4.5c1.1-1,2.6-1.6,4.4-1.6c1.9,0,3.4,0.6,4.5,1.7C313.9,75.3,314.5,76.8,314.5,78.6z"/>
<path class="st0" d="M314.5,90.7c0,1.8-0.6,3.2-1.7,4.4c-1.1,1.1-2.6,1.7-4.4,1.7c-2,0-3.4-0.6-4.5-1.7s-1.6-2.6-1.6-4.4
	c0-1.9,0.6-3.4,1.7-4.5c1.1-1,2.6-1.6,4.4-1.6c1.9,0,3.4,0.6,4.5,1.7C313.9,87.4,314.5,88.9,314.5,90.7z"/>
<path class="st0" d="M314.5,102.8c0,1.8-0.6,3.2-1.7,4.4c-1.1,1.1-2.6,1.7-4.4,1.7c-2,0-3.4-0.6-4.5-1.7s-1.6-2.6-1.6-4.4
	c0-1.9,0.6-3.4,1.7-4.5c1.1-1,2.6-1.6,4.4-1.6c1.9,0,3.4,0.6,4.5,1.7C313.9,99.6,314.5,101,314.5,102.8z"/>
<path class="st0" d="M314.5,114.9c0,3.9-2,5.8-5.8,5.8c-4.2,0-6.3-1.9-6.3-5.8c0-1.8,0.5-3.2,1.6-4.4c1-1.1,2.5-1.7,4.3-1.7
	c4.2,0,6.3,1.9,6.3,5.8L314.5,114.9L314.5,114.9z"/>
<path class="st0" d="M302.3,126.8c0-1.9,0.6-3.4,1.7-4.5c1.1-1,2.6-1.6,4.4-1.6c1.9,0,3.4,0.6,4.5,1.7c1,1.1,1.6,2.6,1.6,4.4
	c0,1.8-0.6,3.2-1.7,4.4c-1.1,1.1-2.6,1.7-4.4,1.7c-2,0-3.4-0.6-4.5-1.7S302.3,128.6,302.3,126.8z"/>
<path class="st0" d="M314.5,138.9c0,1.8-0.6,3.2-1.7,4.4c-1.1,1.1-2.6,1.7-4.4,1.7c-2,0-3.4-0.6-4.5-1.7s-1.6-2.6-1.6-4.4
	c0-1.9,0.6-3.4,1.7-4.5c1.1-1,2.6-1.6,4.4-1.6c1.9,0,3.4,0.6,4.5,1.7C313.9,135.7,314.5,137.1,314.5,138.9L314.5,138.9z"/>
<path class="st0" d="M326.6,54.3c0,1.8-0.6,3.2-1.7,4.4c-1.1,1.1-2.6,1.7-4.4,1.7c-2,0-3.4-0.6-4.5-1.7s-1.6-2.6-1.6-4.4
	c0-1.9,0.6-3.4,1.7-4.5s2.6-1.6,4.4-1.6c1.9,0,3.4,0.6,4.5,1.7S326.6,52.5,326.6,54.3z"/>
<path class="st0" d="M326.6,66.4c0,1.8-0.6,3.2-1.7,4.4c-1.1,1.1-2.6,1.7-4.4,1.7c-2,0-3.4-0.6-4.5-1.7s-1.6-2.6-1.6-4.4
	c0-1.9,0.6-3.4,1.7-4.5s2.6-1.6,4.4-1.6c1.9,0,3.4,0.6,4.5,1.7S326.6,64.7,326.6,66.4z"/>
<path class="st0" d="M326.6,78.6c0,1.8-0.6,3.2-1.7,4.4c-1.1,1.1-2.6,1.7-4.4,1.7c-2,0-3.4-0.6-4.5-1.7s-1.6-2.6-1.6-4.4
	c0-1.9,0.6-3.4,1.7-4.5c1.1-1,2.6-1.6,4.4-1.6c1.9,0,3.4,0.6,4.5,1.7S326.6,76.8,326.6,78.6z"/>
<path class="st0" d="M326.6,90.7c0,1.8-0.6,3.2-1.7,4.4s-2.6,1.7-4.4,1.7c-2,0-3.4-0.6-4.5-1.7s-1.6-2.6-1.6-4.4
	c0-1.9,0.6-3.4,1.7-4.5c1.1-1,2.6-1.6,4.4-1.6c1.9,0,3.4,0.6,4.5,1.7S326.6,88.9,326.6,90.7z"/>
<path class="st0" d="M326.6,102.8c0,1.8-0.6,3.2-1.7,4.4s-2.6,1.7-4.4,1.7c-2,0-3.4-0.6-4.5-1.7s-1.6-2.6-1.6-4.4
	c0-1.9,0.6-3.4,1.7-4.5c1.1-1,2.6-1.6,4.4-1.6c1.9,0,3.4,0.6,4.5,1.7S326.6,101,326.6,102.8z"/>
<path class="st0" d="M326.6,114.9c0,3.9-2,5.8-5.8,5.8c-4.2,0-6.3-1.9-6.3-5.8c0-1.8,0.5-3.2,1.6-4.4c1-1.1,2.5-1.7,4.3-1.7
	c4.2,0,6.3,1.9,6.3,5.8L326.6,114.9L326.6,114.9z"/>
<path class="st0" d="M314.5,126.8c0-1.9,0.6-3.4,1.7-4.5c1.1-1,2.6-1.6,4.4-1.6c1.9,0,3.4,0.6,4.5,1.7s1.6,2.6,1.6,4.4
	s-0.6,3.3-1.7,4.4s-2.6,1.7-4.4,1.7c-2,0-3.4-0.6-4.5-1.7S314.5,128.6,314.5,126.8z"/>
<path class="st0" d="M326.6,139c0,1.8-0.6,3.2-1.7,4.4s-2.6,1.7-4.4,1.7c-2,0-3.4-0.6-4.5-1.7s-1.6-2.6-1.6-4.4
	c0-1.9,0.6-3.4,1.7-4.5c1.1-1,2.6-1.6,4.4-1.6c1.9,0,3.4,0.6,4.5,1.7S326.6,137.1,326.6,139L326.6,139z"/>
<path class="st0" d="M314.5,151.1c0-1.8,0.6-3.2,1.7-4.4c1.1-1.1,2.6-1.7,4.4-1.7c1.9,0,3.4,0.6,4.5,1.7s1.6,2.6,1.6,4.4
	c0,1.9-0.6,3.4-1.7,4.5s-2.6,1.6-4.4,1.6c-2,0-3.4-0.6-4.5-1.7S314.5,152.9,314.5,151.1L314.5,151.1z"/>
<path class="st0" d="M326.6,139c0-1.8,0.6-3.2,1.7-4.4s2.6-1.7,4.4-1.7c1.9,0,3.4,0.6,4.5,1.7s1.6,2.6,1.6,4.4
	c0,1.9-0.6,3.4-1.7,4.5s-2.6,1.6-4.4,1.6c-2,0-3.4-0.6-4.5-1.7S326.6,140.8,326.6,139L326.6,139z"/>
<path class="st0" d="M326.6,151.1c0-1.8,0.6-3.2,1.7-4.4c1.1-1.1,2.6-1.7,4.4-1.7c1.9,0,3.4,0.6,4.5,1.7s1.6,2.6,1.6,4.4
	c0,1.9-0.6,3.4-1.7,4.5s-2.6,1.6-4.4,1.6c-2,0-3.4-0.6-4.5-1.7S326.6,152.9,326.6,151.1L326.6,151.1z"/>
<path class="st0" d="M363,42.4c0,3.9-2,5.8-5.8,5.8c-4.2,0-6.3-1.9-6.3-5.8c0-1.8,0.5-3.2,1.6-4.4c1-1.1,2.5-1.7,4.3-1.7
	c4.2,0,6.3,2,6.3,5.8L363,42.4L363,42.4z"/>
<path class="st0" d="M356.9,60.4c-2,0-3.4-0.6-4.5-1.7s-1.6-2.6-1.6-4.4c0-1.9,0.6-3.4,1.7-4.5c1.1-1,2.6-1.6,4.4-1.6
	c1.9,0,3.4,0.6,4.5,1.7s1.6,2.6,1.6,4.4s-0.6,3.2-1.7,4.4C360.2,59.8,358.7,60.4,356.9,60.4z"/>
<path class="st0" d="M363,66.4c0,1.8-0.6,3.2-1.7,4.4s-2.6,1.7-4.4,1.7c-2,0-3.4-0.6-4.5-1.7s-1.6-2.6-1.6-4.4
	c0-1.9,0.6-3.4,1.7-4.5s2.6-1.6,4.4-1.6c1.9,0,3.4,0.6,4.5,1.7S363,64.6,363,66.4z"/>
<path class="st0" d="M363,78.6c0,1.8-0.6,3.2-1.7,4.4s-2.6,1.7-4.4,1.7c-2,0-3.4-0.6-4.5-1.7s-1.6-2.6-1.6-4.4
	c0-1.9,0.6-3.4,1.7-4.5c1.1-1,2.6-1.6,4.4-1.6c1.9,0,3.4,0.6,4.5,1.7S363,76.8,363,78.6z"/>
<path class="st0" d="M363,90.7c0,1.8-0.6,3.2-1.7,4.4c-1.1,1.1-2.6,1.7-4.4,1.7c-2,0-3.4-0.6-4.5-1.7s-1.6-2.6-1.6-4.4
	c0-1.9,0.6-3.4,1.7-4.5c1.1-1,2.6-1.6,4.4-1.6c1.9,0,3.4,0.6,4.5,1.7S363,88.9,363,90.7z"/>
<path class="st0" d="M356.9,108.9c-2,0-3.4-0.6-4.5-1.7s-1.6-2.6-1.6-4.4c0-1.9,0.6-3.4,1.7-4.5c1.1-1,2.6-1.6,4.4-1.6
	c1.9,0,3.4,0.6,4.5,1.7s1.6,2.6,1.6,4.4s-0.6,3.2-1.7,4.4C360.2,108.3,358.7,108.9,356.9,108.9z"/>
<path class="st0" d="M350.8,114.9c0-1.8,0.5-3.2,1.6-4.4c1-1.1,2.5-1.7,4.3-1.7c4.2,0,6.3,1.9,6.3,5.8v0.2c0,3.9-2,5.8-5.8,5.8
	C352.9,120.8,350.8,118.8,350.8,114.9L350.8,114.9z"/>
<path class="st0" d="M356.9,132.9c-2,0-3.4-0.6-4.5-1.7s-1.6-2.6-1.6-4.4c0-1.9,0.6-3.4,1.7-4.5c1.1-1,2.6-1.6,4.4-1.6
	c1.9,0,3.4,0.6,4.5,1.7s1.6,2.6,1.6,4.4s-0.6,3.2-1.7,4.4C360.2,132.3,358.7,132.9,356.9,132.9z"/>
<path class="st0" d="M363,138.9c0,1.8-0.6,3.2-1.7,4.4c-1.1,1.1-2.6,1.7-4.4,1.7c-2,0-3.4-0.6-4.5-1.7s-1.6-2.6-1.6-4.4
	c0-1.9,0.6-3.4,1.7-4.5c1.1-1,2.6-1.6,4.4-1.6c1.9,0,3.4,0.6,4.5,1.7S363,137.1,363,138.9L363,138.9z"/>
<path class="st0" d="M350.8,151.1c0-1.8,0.6-3.2,1.7-4.4c1.1-1.1,2.6-1.7,4.4-1.7c1.9,0,3.4,0.6,4.5,1.7s1.6,2.6,1.6,4.4
	c0,1.9-0.6,3.4-1.7,4.5s-2.6,1.6-4.4,1.6c-2,0-3.4-0.6-4.5-1.7S350.8,152.9,350.8,151.1L350.8,151.1z"/>
<path class="st0" d="M375.1,42.4c0,3.9-2,5.8-5.8,5.8c-4.2,0-6.3-1.9-6.3-5.8c0-1.8,0.5-3.2,1.6-4.4c1-1.1,2.5-1.7,4.3-1.7
	c4.2,0,6.3,2,6.3,5.8V42.4z"/>
<path class="st0" d="M363,54.3c0-1.9,0.6-3.4,1.7-4.5s2.6-1.6,4.4-1.6c1.9,0,3.4,0.6,4.5,1.7c1,1.1,1.6,2.6,1.6,4.4
	s-0.6,3.2-1.7,4.4c-1.1,1.1-2.6,1.7-4.4,1.7c-2,0-3.4-0.6-4.5-1.7S363,56.1,363,54.3z"/>
<path class="st0" d="M369,72.5c-2,0-3.4-0.6-4.5-1.7s-1.6-2.6-1.6-4.4c0-1.9,0.6-3.4,1.7-4.5s2.6-1.6,4.4-1.6c1.9,0,3.4,0.6,4.5,1.7
	c1,1.1,1.6,2.6,1.6,4.4s-0.6,3.2-1.7,4.4S370.8,72.5,369,72.5z"/>
<path class="st0" d="M375.1,78.6c0,1.8-0.6,3.2-1.7,4.4s-2.6,1.7-4.4,1.7c-2,0-3.4-0.6-4.5-1.7s-1.6-2.6-1.6-4.4
	c0-1.9,0.6-3.4,1.7-4.5c1.1-1,2.6-1.6,4.4-1.6c1.9,0,3.4,0.6,4.5,1.7C374.5,75.3,375.1,76.8,375.1,78.6z"/>
<path class="st0" d="M375.1,90.7c0,1.8-0.6,3.2-1.7,4.4c-1.1,1.1-2.6,1.7-4.4,1.7c-2,0-3.4-0.6-4.5-1.7s-1.6-2.6-1.6-4.4
	c0-1.9,0.6-3.4,1.7-4.5c1.1-1,2.6-1.6,4.4-1.6c1.9,0,3.4,0.6,4.5,1.7C374.5,87.4,375.1,88.9,375.1,90.7z"/>
<path class="st0" d="M363,102.8c0-1.9,0.6-3.4,1.7-4.5c1.1-1,2.6-1.6,4.4-1.6c1.9,0,3.4,0.6,4.5,1.7c1,1.1,1.6,2.6,1.6,4.4
	s-0.6,3.2-1.7,4.4c-1.1,1.1-2.6,1.7-4.4,1.7c-2,0-3.4-0.6-4.5-1.7S363,104.6,363,102.8z"/>
<path class="st0" d="M363,114.9c0-1.8,0.5-3.2,1.6-4.4c1-1.1,2.5-1.7,4.3-1.7c4.2,0,6.3,1.9,6.3,5.8v0.2c0,3.9-2,5.8-5.8,5.8
	C365.1,120.8,363,118.8,363,114.9z"/>
<path class="st0" d="M363,126.8c0-1.9,0.6-3.4,1.7-4.5c1.1-1,2.6-1.6,4.4-1.6c1.9,0,3.4,0.6,4.5,1.7c1,1.1,1.6,2.6,1.6,4.4
	c0,1.8-0.6,3.2-1.7,4.4c-1.1,1.1-2.6,1.7-4.4,1.7c-2,0-3.4-0.6-4.5-1.7S363,128.6,363,126.8z"/>
<path class="st0" d="M375.1,138.9c0,1.8-0.6,3.2-1.7,4.4c-1.1,1.1-2.6,1.7-4.4,1.7c-2,0-3.4-0.6-4.5-1.7s-1.6-2.6-1.6-4.4
	c0-1.9,0.6-3.4,1.7-4.5c1.1-1,2.6-1.6,4.4-1.6c1.9,0,3.4,0.6,4.5,1.7C374.5,135.7,375.1,137.1,375.1,138.9L375.1,138.9z"/>
<path class="st0" d="M363,151.1c0-1.8,0.6-3.2,1.7-4.4s2.6-1.7,4.4-1.7c1.9,0,3.4,0.6,4.5,1.7c1,1.1,1.6,2.6,1.6,4.4
	c0,1.9-0.6,3.4-1.7,4.5s-2.6,1.6-4.4,1.6c-2,0-3.4-0.6-4.5-1.7S363,152.9,363,151.1L363,151.1z"/>
<path class="st0" d="M387.2,54.3c0,1.8-0.6,3.2-1.7,4.4s-2.6,1.7-4.4,1.7c-2,0-3.4-0.6-4.5-1.7s-1.6-2.6-1.6-4.4
	c0-1.9,0.6-3.4,1.7-4.5s2.6-1.6,4.4-1.6c1.9,0,3.4,0.6,4.5,1.7C386.7,51,387.2,52.5,387.2,54.3z"/>
<path class="st0" d="M375.1,66.4c0-1.9,0.6-3.4,1.7-4.5s2.6-1.6,4.4-1.6c1.9,0,3.4,0.6,4.5,1.7c1,1.1,1.6,2.6,1.6,4.4
	s-0.6,3.2-1.7,4.4c-1.1,1.1-2.6,1.7-4.4,1.7c-2,0-3.4-0.6-4.5-1.7S375.1,68.2,375.1,66.4z"/>
<path class="st0" d="M387.2,42.4c0-1.8,0.5-3.2,1.6-4.4c1-1.1,2.5-1.7,4.3-1.7s3.2,0.5,4.4,1.6c1.1,1,1.7,2.5,1.7,4.3v0.2
	c0,3.9-2,5.8-5.8,5.8S387.2,46.3,387.2,42.4L387.2,42.4z"/>
<path class="st0" d="M399.3,54.3c0,1.8-0.6,3.2-1.7,4.4c-1.1,1.1-2.6,1.7-4.4,1.7c-2,0-3.4-0.6-4.5-1.7s-1.6-2.6-1.6-4.4
	c0-1.9,0.6-3.4,1.7-4.5s2.6-1.6,4.4-1.6c1.9,0,3.4,0.6,4.5,1.7S399.3,52.5,399.3,54.3z"/>
<path class="st0" d="M399.1,42.4c0-1.8,0.5-3.2,1.6-4.4c1-1.1,2.5-1.7,4.3-1.7c4.2,0,6.3,2,6.3,5.8v0.2c0,3.9-2,5.8-5.8,5.8
	C401.2,48.2,399.1,46.3,399.1,42.4z"/>
<path class="st0" d="M411.4,66.2c0,1.8-0.6,3.2-1.7,4.4s-2.6,1.7-4.4,1.7c-2,0-3.4-0.6-4.5-1.7s-1.6-2.6-1.6-4.4
	c0-3.3,1.6-5.3,4.7-6.1c-3.1-0.5-4.7-2.4-4.7-5.8c0-1.9,0.6-3.4,1.7-4.5s2.6-1.6,4.4-1.6c1.9,0,3.4,0.6,4.5,1.7s1.6,2.6,1.6,4.4
	c0,3.4-1.6,5.4-4.7,5.8C409.9,60.9,411.4,62.9,411.4,66.2z"/>
<path class="st0" d="M411.4,54.3c0-1.9,0.6-3.4,1.7-4.5s2.6-1.6,4.4-1.6c1.9,0,3.4,0.6,4.5,1.7c1,1.1,1.6,2.6,1.6,4.4
	s-0.6,3.2-1.7,4.4c-1.1,1.1-2.6,1.7-4.4,1.7c-2,0-3.4-0.6-4.5-1.7S411.4,56.1,411.4,54.3z"/>
<path class="st0" d="M417.5,72.5c-2,0-3.4-0.6-4.5-1.7s-1.6-2.6-1.6-4.4c0-1.9,0.6-3.4,1.7-4.5s2.6-1.6,4.4-1.6
	c1.9,0,3.4,0.6,4.5,1.7c1,1.1,1.6,2.6,1.6,4.4s-0.6,3.2-1.7,4.4S419.3,72.5,417.5,72.5z"/>
<path class="st0" d="M423.6,78.5c0,1.8-0.6,3.2-1.7,4.4s-2.6,1.7-4.4,1.7c-2,0-3.4-0.6-4.5-1.7s-1.6-2.6-1.6-4.4
	c0-1.9,0.6-3.4,1.7-4.5c1.1-1,2.6-1.6,4.4-1.6c1.9,0,3.4,0.6,4.5,1.7C423,75.3,423.6,76.7,423.6,78.5z"/>
<path class="st0" d="M417.5,96.7c-2,0-3.4-0.6-4.5-1.7s-1.6-2.6-1.6-4.4c0-1.9,0.6-3.4,1.7-4.5c1.1-1,2.6-1.6,4.4-1.6
	c1.9,0,3.4,0.6,4.5,1.7c1,1.1,1.6,2.6,1.6,4.4s-0.6,3.2-1.7,4.4C420.8,96.2,419.3,96.7,417.5,96.7z"/>
<path class="st0" d="M417.5,108.8c-2,0-3.4-0.6-4.5-1.7s-1.6-2.6-1.6-4.4c0-1.9,0.6-3.4,1.7-4.5c1.1-1,2.6-1.6,4.4-1.6
	c1.9,0,3.4,0.6,4.5,1.7c1,1.1,1.6,2.6,1.6,4.4s-0.6,3.2-1.7,4.4C420.8,108.3,419.3,108.8,417.5,108.8z"/>
<path class="st0" d="M423.6,114.9c0,3.9-2,5.8-5.8,5.8c-4.2,0-6.3-1.9-6.3-5.8c0-1.8,0.5-3.2,1.6-4.4c1-1.1,2.5-1.7,4.3-1.7
	c4.2,0,6.3,1.9,6.3,5.8V114.9z"/>
<path class="st0" d="M423.6,126.8c0,1.8-0.6,3.2-1.7,4.4c-1.1,1.1-2.6,1.7-4.4,1.7c-2,0-3.4-0.6-4.5-1.7s-1.6-2.6-1.6-4.4
	c0-1.9,0.6-3.4,1.7-4.5c1.1-1,2.6-1.6,4.4-1.6c1.9,0,3.4,0.6,4.5,1.7C423,123.5,423.6,125,423.6,126.8z"/>
<path class="st0" d="M417.5,145c-2,0-3.4-0.6-4.5-1.7s-1.6-2.6-1.6-4.4c0-1.9,0.6-3.4,1.7-4.5c1.1-1,2.6-1.6,4.4-1.6
	c1.9,0,3.4,0.6,4.5,1.7c1,1.1,1.6,2.6,1.6,4.4s-0.6,3.2-1.7,4.4C420.8,144.4,419.3,145,417.5,145L417.5,145z"/>
<path class="st0" d="M411.4,151c0-1.8,0.6-3.2,1.7-4.4s2.6-1.7,4.4-1.7c1.9,0,3.4,0.6,4.5,1.7c1,1.1,1.6,2.6,1.6,4.4
	c0,1.9-0.6,3.4-1.7,4.5s-2.6,1.6-4.4,1.6c-2,0-3.4-0.6-4.5-1.7S411.4,152.8,411.4,151L411.4,151z"/>
<path class="st0" d="M423.6,66.4c0-1.9,0.6-3.4,1.7-4.5s2.6-1.6,4.4-1.6c1.9,0,3.4,0.6,4.5,1.7c1,1.1,1.6,2.6,1.6,4.4
	s-0.6,3.2-1.7,4.4s-2.6,1.7-4.4,1.7c-2,0-3.4-0.6-4.5-1.7S423.6,68.2,423.6,66.4z"/>
<path class="st0" d="M435.7,78.5c0,1.8-0.6,3.2-1.7,4.4s-2.6,1.7-4.4,1.7c-2,0-3.4-0.6-4.5-1.7s-1.6-2.6-1.6-4.4
	c0-1.9,0.6-3.4,1.7-4.5c1.1-1,2.6-1.6,4.4-1.6c1.9,0,3.4,0.6,4.5,1.7C435.2,75.3,435.7,76.7,435.7,78.5z"/>
<path class="st0" d="M423.6,90.7c0-1.9,0.6-3.4,1.7-4.5c1.1-1,2.6-1.6,4.4-1.6c1.9,0,3.4,0.6,4.5,1.7c1,1.1,1.6,2.6,1.6,4.4
	s-0.6,3.2-1.7,4.4c-1.1,1.1-2.6,1.7-4.4,1.7c-2,0-3.4-0.6-4.5-1.7S423.6,92.5,423.6,90.7z"/>
<path class="st0" d="M423.6,102.8c0-1.9,0.6-3.4,1.7-4.5c1.1-1,2.6-1.6,4.4-1.6c1.9,0,3.4,0.6,4.5,1.7c1,1.1,1.6,2.6,1.6,4.4
	s-0.6,3.2-1.7,4.4c-1.1,1.1-2.6,1.7-4.4,1.7c-2,0-3.4-0.6-4.5-1.7S423.6,104.6,423.6,102.8z"/>
<path class="st0" d="M435.7,114.9c0,3.9-2,5.8-5.8,5.8c-4.2,0-6.3-1.9-6.3-5.8c0-1.8,0.5-3.2,1.6-4.4c1-1.1,2.5-1.7,4.3-1.7
	c4.2,0,6.3,1.9,6.3,5.8L435.7,114.9L435.7,114.9z"/>
<path class="st0" d="M435.7,126.8c0,1.8-0.6,3.2-1.7,4.4c-1.1,1.1-2.6,1.7-4.4,1.7c-2,0-3.4-0.6-4.5-1.7s-1.6-2.6-1.6-4.4
	c0-1.9,0.6-3.4,1.7-4.5c1.1-1,2.6-1.6,4.4-1.6c1.9,0,3.4,0.6,4.5,1.7C435.2,123.5,435.7,125,435.7,126.8z"/>
<path class="st0" d="M423.6,138.9c0-1.9,0.6-3.4,1.7-4.5c1.1-1,2.6-1.6,4.4-1.6c1.9,0,3.4,0.6,4.5,1.7c1,1.1,1.6,2.6,1.6,4.4
	s-0.6,3.2-1.7,4.4c-1.1,1.1-2.6,1.7-4.4,1.7c-2,0-3.4-0.6-4.5-1.7S423.6,140.7,423.6,138.9L423.6,138.9z"/>
<path class="st0" d="M423.6,151c0-1.8,0.6-3.2,1.7-4.4s2.6-1.7,4.4-1.7c1.9,0,3.4,0.6,4.5,1.7c1,1.1,1.6,2.6,1.6,4.4
	c0,1.9-0.6,3.4-1.7,4.5s-2.6,1.6-4.4,1.6c-2,0-3.4-0.6-4.5-1.7S423.6,152.8,423.6,151L423.6,151z"/>
<path class="st0" d="M441.7,60.4c-2,0-3.4-0.6-4.5-1.7s-1.6-2.6-1.6-4.4c0-1.9,0.6-3.4,1.7-4.5c1.1-1,2.6-1.6,4.4-1.6
	c1.9,0,3.4,0.6,4.5,1.7s1.6,2.6,1.6,4.4s-0.6,3.2-1.7,4.4C445,59.8,443.5,60.4,441.7,60.4z"/>
<path class="st0" d="M435.7,66.4c0-1.9,0.6-3.4,1.7-4.5s2.6-1.6,4.4-1.6c1.9,0,3.4,0.6,4.5,1.7s1.6,2.6,1.6,4.4s-0.6,3.2-1.7,4.4
	c-1.1,1.1-2.6,1.7-4.4,1.7c-2,0-3.4-0.6-4.5-1.7S435.7,68.2,435.7,66.4z"/>
<path class="st0" d="M447.8,42.4c0-1.8,0.5-3.2,1.6-4.4c1-1.1,2.5-1.7,4.3-1.7s3.2,0.5,4.4,1.6c1.1,1,1.7,2.5,1.7,4.3v0.2
	c0,3.9-2,5.8-5.8,5.8S447.8,46.3,447.8,42.4L447.8,42.4z"/>
<path class="st0" d="M447.8,54.3c0-1.9,0.6-3.4,1.7-4.5s2.6-1.6,4.4-1.6c3.3,0,5.3,1.6,6.1,4.7c0.5-3.1,2.4-4.7,5.8-4.7
	c1.9,0,3.4,0.6,4.5,1.7c1,1.1,1.6,2.6,1.6,4.4s-0.6,3.2-1.7,4.4s-2.6,1.7-4.4,1.7c-3.3,0-5.3-1.6-6.1-4.7c-0.5,3.1-2.4,4.7-5.8,4.7
	c-2,0-3.4-0.6-4.5-1.7S447.8,56.1,447.8,54.3z"/>
<path class="st0" d="M459.7,42.4c0-1.8,0.5-3.2,1.6-4.4c1-1.1,2.5-1.7,4.3-1.7c4.2,0,6.3,2,6.3,5.8v0.2c0,3.9-2,5.8-5.8,5.8
	C461.8,48.2,459.7,46.3,459.7,42.4L459.7,42.4z"/>
<path class="st0" d="M471.8,66.4c0,1.8-0.6,3.2-1.7,4.4c-1.1,1.1-2.6,1.7-4.4,1.7c-2,0-3.4-0.6-4.5-1.7s-1.6-2.6-1.6-4.4
	c0-1.9,0.6-3.4,1.7-4.5s2.6-1.6,4.4-1.6c1.9,0,3.4,0.6,4.5,1.7C471.3,63.2,471.8,64.6,471.8,66.4z"/>
<path class="st0" d="M483.9,54.3c0,3.4-1.6,5.4-4.7,5.8c3.1,0.8,4.7,2.8,4.7,6.1v0.2c0,1.8-0.6,3.2-1.7,4.4
	c-1.1,1.1-2.6,1.7-4.4,1.7c-2,0-3.4-0.6-4.5-1.7s-1.6-2.6-1.6-4.4c0-3.4,1.6-5.5,4.7-6.3c-3.1-0.5-4.7-2.4-4.7-5.8
	c0-1.9,0.6-3.4,1.7-4.5c1.1-1,2.6-1.6,4.4-1.6c1.9,0,3.4,0.6,4.5,1.7S483.9,52.5,483.9,54.3L483.9,54.3z"/>
<path class="st0" d="M471.8,78.5c0-1.8,0.6-3.2,1.7-4.4c1.1-1.1,2.6-1.7,4.4-1.7c1.9,0,3.4,0.6,4.5,1.7s1.6,2.6,1.6,4.4
	c0,1.9-0.6,3.4-1.7,4.5c-1.1,1.1-2.6,1.6-4.4,1.6c-2,0-3.4-0.6-4.5-1.7S471.8,80.3,471.8,78.5z"/>
<path class="st0" d="M471.8,90.7c0-1.8,0.6-3.2,1.7-4.4s2.6-1.7,4.4-1.7c1.9,0,3.4,0.6,4.5,1.7s1.6,2.6,1.6,4.4
	c0,1.9-0.6,3.4-1.7,4.5c-1.1,1.1-2.6,1.6-4.4,1.6c-2,0-3.4-0.6-4.5-1.7S471.8,92.5,471.8,90.7z"/>
<path class="st0" d="M471.8,102.8c0-1.8,0.6-3.2,1.7-4.4s2.6-1.7,4.4-1.7c1.9,0,3.4,0.6,4.5,1.7s1.6,2.6,1.6,4.4
	c0,1.9-0.6,3.4-1.7,4.5c-1.1,1.1-2.6,1.6-4.4,1.6c-2,0-3.4-0.6-4.5-1.7S471.8,104.6,471.8,102.8z"/>
<path class="st0" d="M471.8,114.7c0-3.9,1.9-5.8,5.8-5.8c4.2,0,6.3,1.9,6.3,5.8c0,1.8-0.5,3.2-1.6,4.4c-1,1.1-2.5,1.7-4.3,1.7
	c-4.2,0-6.3-1.9-6.3-5.8L471.8,114.7L471.8,114.7z"/>
<path class="st0" d="M471.8,126.8c0-1.8,0.6-3.2,1.7-4.4s2.6-1.7,4.4-1.7c1.9,0,3.4,0.6,4.5,1.7s1.6,2.6,1.6,4.4
	c0,2-0.6,3.4-1.7,4.5s-2.6,1.6-4.4,1.6c-2,0-3.4-0.6-4.5-1.7S471.8,128.6,471.8,126.8L471.8,126.8z"/>
<path class="st0" d="M471.8,138.9c0-1.8,0.6-3.2,1.7-4.4s2.6-1.7,4.4-1.7c1.9,0,3.4,0.6,4.5,1.7s1.6,2.6,1.6,4.4
	c0,1.9-0.6,3.4-1.7,4.5s-2.6,1.6-4.4,1.6c-2,0-3.4-0.6-4.5-1.7S471.8,140.7,471.8,138.9L471.8,138.9z"/>
<path class="st0" d="M471.8,151c0-1.8,0.6-3.2,1.7-4.4c1.1-1.1,2.6-1.7,4.4-1.7c1.9,0,3.4,0.6,4.5,1.7s1.6,2.6,1.6,4.4
	c0,1.9-0.6,3.4-1.7,4.5s-2.6,1.6-4.4,1.6c-2,0-3.4-0.6-4.5-1.7S471.8,152.8,471.8,151L471.8,151z"/>
<path class="st0" d="M483.9,66.4c0-1.8,0.6-3.2,1.7-4.4c1.1-1.1,2.6-1.7,4.4-1.7c1.9,0,3.4,0.6,4.5,1.7s1.6,2.6,1.6,4.4
	c0,1.9-0.6,3.4-1.7,4.5c-1.1,1.1-2.6,1.6-4.4,1.6c-2,0-3.4-0.6-4.5-1.7S483.9,68.2,483.9,66.4z"/>
<path class="st0" d="M483.9,78.5c0-1.8,0.6-3.2,1.7-4.4c1.1-1.1,2.6-1.7,4.4-1.7c1.9,0,3.4,0.6,4.5,1.7s1.6,2.6,1.6,4.4
	c0,1.9-0.6,3.4-1.7,4.5c-1.1,1.1-2.6,1.6-4.4,1.6c-2,0-3.4-0.6-4.5-1.7S483.9,80.3,483.9,78.5z"/>
<path class="st0" d="M483.9,90.7c0-1.8,0.6-3.2,1.7-4.4s2.6-1.7,4.4-1.7c1.9,0,3.4,0.6,4.5,1.7s1.6,2.6,1.6,4.4
	c0,1.9-0.6,3.4-1.7,4.5c-1.1,1.1-2.6,1.6-4.4,1.6c-2,0-3.4-0.6-4.5-1.7S483.9,92.5,483.9,90.7z"/>
<path class="st0" d="M483.9,102.8c0-1.8,0.6-3.2,1.7-4.4s2.6-1.7,4.4-1.7c1.9,0,3.4,0.6,4.5,1.7s1.6,2.6,1.6,4.4
	c0,1.9-0.6,3.4-1.7,4.5c-1.1,1.1-2.6,1.6-4.4,1.6c-2,0-3.4-0.6-4.5-1.7S483.9,104.6,483.9,102.8z"/>
<path class="st0" d="M483.9,114.7c0-3.9,1.9-5.8,5.8-5.8c4.2,0,6.3,1.9,6.3,5.8c0,1.8-0.5,3.2-1.6,4.4c-1,1.1-2.5,1.7-4.3,1.7
	c-4.2,0-6.3-1.9-6.3-5.8L483.9,114.7L483.9,114.7z"/>
<path class="st0" d="M483.9,126.8c0-1.8,0.6-3.2,1.7-4.4s2.6-1.7,4.4-1.7c1.9,0,3.4,0.6,4.5,1.7s1.6,2.6,1.6,4.4
	c0,1.9-0.6,3.4-1.7,4.5s-2.6,1.6-4.4,1.6c-2,0-3.4-0.6-4.5-1.7S483.9,128.6,483.9,126.8L483.9,126.8z"/>
<path class="st0" d="M483.9,138.9c0-1.8,0.6-3.2,1.7-4.4s2.6-1.7,4.4-1.7c1.9,0,3.4,0.6,4.5,1.7s1.6,2.6,1.6,4.4
	c0,1.9-0.6,3.4-1.7,4.5s-2.6,1.6-4.4,1.6c-2,0-3.4-0.6-4.5-1.7S483.9,140.7,483.9,138.9L483.9,138.9z"/>
<path class="st0" d="M483.9,151c0-1.8,0.6-3.2,1.7-4.4c1.1-1.1,2.6-1.7,4.4-1.7c1.9,0,3.4,0.6,4.5,1.7s1.6,2.6,1.6,4.4
	c0,1.9-0.6,3.4-1.7,4.5s-2.6,1.6-4.4,1.6c-2,0-3.4-0.6-4.5-1.7S483.9,152.8,483.9,151L483.9,151z"/>
</svg>
